<svg xmlns="http://www.w3.org/2000/svg" width="38" height="36" viewBox="0 0 38 36"><defs><style>.a{fill:none;}.b{fill:#eff6ff;opacity:0.16;}.c{fill:#fff;}</style></defs><g transform="translate(-34 -55)"><circle class="a" cx="18" cy="18" r="18" transform="translate(34 55)"/><circle class="b" cx="10" cy="10" r="10" transform="translate(52 70)"/><path class="c" d="M388.4,72.23a3.133,3.133,0,0,1,1.211-2.409,4.5,4.5,0,0,0,.759-6.223l-.092-.121.092-.121a4.5,4.5,0,0,0-.759-6.242,3.13,3.13,0,0,1-1.211-2.408V49.1a.752.752,0,0,0-.757-.747h-7.693a.753.753,0,0,0-.758.747v5.6a3.132,3.132,0,0,1-1.21,2.408,4.5,4.5,0,0,0-.76,6.242l.092.121-.092.122a4.5,4.5,0,0,0,.759,6.222A3.133,3.133,0,0,1,379.2,72.23v7.377a.753.753,0,0,0,.758.747h7.693a.752.752,0,0,0,.757-.747Zm-9.454-13.964a4.617,4.617,0,0,0,1.761-3.561V49.847h6.179v4.859a4.617,4.617,0,0,0,1.761,3.56,3.036,3.036,0,0,1,1.038,3.08,2.961,2.961,0,0,1-2.263,2.238,3.216,3.216,0,0,1-.737.086,3.076,3.076,0,0,1-2.319-1.054.763.763,0,0,0-1.139,0,3.069,3.069,0,0,1-2.324,1.053,3.251,3.251,0,0,1-.732-.085,2.959,2.959,0,0,1-2.263-2.238A3.033,3.033,0,0,1,378.951,58.266Zm7.94,13.964v6.631h-6.179V72.23a4.615,4.615,0,0,0-1.762-3.56,3.019,3.019,0,0,1-.607-4.041l.106-.158.166.094a4.62,4.62,0,0,0,5.062-.323l.124-.094.124.094a4.616,4.616,0,0,0,5.061.323l.167-.094.106.158a3.017,3.017,0,0,1-.607,4.041A4.617,4.617,0,0,0,386.891,72.23Z" transform="translate(-331.802 8.646)"/></g></svg>