<svg xmlns="http://www.w3.org/2000/svg" width="39" height="36" viewBox="0 0 39 36"><defs><style>.a,.c,.d{fill:none;}.b{fill:#eff6ff;opacity:0.16;}.c,.d{stroke-linecap:round;stroke-linejoin:round;}.d{stroke:#fff;stroke-width:1.4px;}.e,.f{stroke:none;}.f{fill:#fff;}</style></defs><g transform="translate(-34 -55)"><circle class="a" cx="18" cy="18" r="18" transform="translate(34 55)"/><circle class="b" cx="10" cy="10" r="10" transform="translate(53 70)"/><g transform="translate(-255.681 10.33)"><g class="c"><path class="e" d="M318.681,55.986a1.573,1.573,0,0,0-.519-1.162V54.7a1.557,1.557,0,0,0-.027-2.345,2.215,2.215,0,0,0-.875-1.553,2.3,2.3,0,0,0-1-.42,1.635,1.635,0,0,0-2.154.1,1.658,1.658,0,0,0-.647-.132,1.635,1.635,0,0,1-2.168.481,1.64,1.64,0,0,1-2.36,0,1.633,1.633,0,0,1-2.579,0,1.63,1.63,0,0,1-2.527,0,1.63,1.63,0,0,1-2.473,0,1.638,1.638,0,0,1-2.316-.481,1.641,1.641,0,0,0-.9.268,19.7,19.7,0,0,1-3.429-.591,1.614,1.614,0,0,0-1.63,1.6,1.549,1.549,0,0,0,.068.432,2.215,2.215,0,0,0-.058.446,1.553,1.553,0,0,0,.174,2.25,1.557,1.557,0,0,0-.184.722,1.575,1.575,0,0,0,.617,1.241,1.564,1.564,0,0,0-.123.6,1.6,1.6,0,0,0,1.014,1.476,1.536,1.536,0,0,0-.053.385,1.6,1.6,0,0,0,1.313,1.565,1.573,1.573,0,0,0-.066.425,1.614,1.614,0,0,0,1.63,1.6,1.58,1.58,0,0,0,.182-.018,1.548,1.548,0,0,0,1.771,1.308,1.62,1.62,0,0,0,1.586,1.244,1.642,1.642,0,0,0,.743-.183,2.288,2.288,0,0,0,2.165-1.225,2.2,2.2,0,0,0-.287-2.44,1.613,1.613,0,0,0-1.3-1.192,1.617,1.617,0,0,0-1.6-1.345,1.652,1.652,0,0,0-.309.03c0-.01,0-.02,0-.03a1.6,1.6,0,0,0-1.315-1.565c-.013-.021-.028-.039-.041-.06a1.539,1.539,0,0,0-.4-1.423,1.6,1.6,0,0,0,1.361-.22h.005a5.742,5.742,0,0,1,3.858.926,1.639,1.639,0,0,1,2.527.16,1.64,1.64,0,0,1,2.579-.16,1.633,1.633,0,0,1,2.36-.161,1.629,1.629,0,0,0,1.393-.779,1.677,1.677,0,0,0,.261.111,1.628,1.628,0,0,0-.025.243,1.574,1.574,0,0,0,.594,1.223,1.556,1.556,0,0,0,0,2.446,1.56,1.56,0,0,0,.055,2.491,1.565,1.565,0,0,0-.429,1.071l0,.022a1.909,1.909,0,0,1-2.581.435,1.62,1.62,0,0,1-1.848.242,1.637,1.637,0,0,0-1.339.69c-.024,0-.047-.008-.072-.008a1.615,1.615,0,0,0-1.6,1.351,1.6,1.6,0,0,0-1.462,1.58,1.554,1.554,0,0,0,.249.84,1.563,1.563,0,0,0-.253,2.643,1.568,1.568,0,0,0-.407,1.045,1.6,1.6,0,0,0,1.055,1.489,2.286,2.286,0,0,0,3.43,0,1.6,1.6,0,0,0,1.043-1.486,1.575,1.575,0,0,0-.484-1.133v-.018a1.575,1.575,0,0,0,.484-1.134,1.555,1.555,0,0,0-.244-.83c0-.009.01-.014.014-.022h0a1.635,1.635,0,0,0,1.014-.356c.026,0,.046,0,.073,0h.063a1.626,1.626,0,0,0,2.1-.052h0a1.622,1.622,0,0,0,2.2-.663c.053-.027.108-.051.161-.079a1.587,1.587,0,0,0,.24.024,1.614,1.614,0,0,0,1.608-1.383l.022,0a1.614,1.614,0,0,0,1.629-1.6,1.561,1.561,0,0,0-.182-.719,1.551,1.551,0,0,0,.109-2.054h0a1.56,1.56,0,0,0,0-2.324v-.122a1.56,1.56,0,0,0,0-2.324v-.122A1.577,1.577,0,0,0,318.681,55.986Z"/><path class="f" d="M 296.6480102539063 49.66999816894531 C 296.1659851074219 49.66999816894531 295.7380065917969 49.87899780273438 295.4389953613281 50.20398712158203 C 295.2170104980469 50.09300231933594 294.968994140625 50.02400207519531 294.7030029296875 50.02400207519531 C 293.8030090332031 50.02400207519531 293.072998046875 50.73899841308594 293.072998046875 51.62100219726563 C 293.072998046875 51.77099609375 293.1010131835938 51.91500091552734 293.1409912109375 52.05300140380859 C 293.1050109863281 52.197998046875 293.0889892578125 52.34799957275391 293.0830078125 52.49900054931641 C 292.8359985351563 52.77899932861328 292.6809997558594 53.13999938964844 292.6809997558594 53.53900146484375 C 292.6809997558594 54.0260009765625 292.9070129394531 54.45600128173828 293.2569885253906 54.74900054931641 C 293.1440124511719 54.96599578857422 293.072998046875 55.20899963378906 293.072998046875 55.47100067138672 C 293.072998046875 55.97499847412109 293.3169860839844 56.41999816894531 293.6900024414063 56.71200561523438 C 293.6119995117188 56.89900207519531 293.5669860839844 57.10201263427734 293.5669860839844 57.31700134277344 C 293.5669860839844 57.98400115966797 293.9869995117188 58.55500030517578 294.5809936523438 58.79299926757813 C 294.5490112304688 58.91699981689453 294.5280151367188 59.04499816894531 294.5280151367188 59.17800140380859 C 294.5280151367188 59.95400238037109 295.0920104980469 60.5989990234375 295.8410034179688 60.74300003051758 C 295.8030090332031 60.87899780273438 295.7749938964844 61.02000045776367 295.7749938964844 61.16799926757813 C 295.7749938964844 62.04899978637695 296.5050048828125 62.76399993896484 297.4049987792969 62.76399993896484 C 297.4670104980469 62.76399993896484 297.5260009765625 62.75299835205078 297.5870056152344 62.74599838256836 C 297.718994140625 63.49800109863281 298.3829956054688 64.07099914550781 299.18798828125 64.07099914550781 C 299.2460021972656 64.07099914550781 299.3009948730469 64.05999755859375 299.3580017089844 64.05400085449219 C 299.5220031738281 64.76599884033203 300.1690063476563 65.29800415039063 300.9440002441406 65.29800415039063 C 301.2130126953125 65.29800415039063 301.4630126953125 65.22799682617188 301.68701171875 65.11499786376953 C 301.7292785644531 65.1173095703125 301.7716064453125 65.11845397949219 301.8137817382813 65.11845397949219 C 302.6482543945313 65.11845397949219 303.4512329101563 64.66960906982422 303.8519897460938 63.88999938964844 C 304.2739868164063 63.06900024414063 304.1300048828125 62.11399841308594 303.5650024414063 61.45000076293945 C 303.4129943847656 60.8390007019043 302.9049987792969 60.36700057983398 302.2669982910156 60.25799942016602 C 302.1430053710938 59.49700164794922 301.4750061035156 58.91300201416016 300.6629943847656 58.91300201416016 C 300.5570068359375 58.91300201416016 300.4540100097656 58.92399597167969 300.35400390625 58.94300079345703 C 300.35400390625 58.93299865722656 300.3569946289063 58.92299652099609 300.3569946289063 58.91300201416016 C 300.3569946289063 58.13700103759766 299.7909851074219 57.49099731445313 299.0419921875 57.34799957275391 C 299.0289916992188 57.32699584960938 299.0140075683594 57.30899810791016 299.0010070800781 57.28800201416016 C 299.0249938964844 57.17900085449219 299.0400085449219 57.06700134277344 299.0400085449219 56.94999694824219 C 299.0400085449219 56.52999877929688 298.8699951171875 56.15000152587891 298.5989990234375 55.86500549316406 C 298.7380065917969 55.90299987792969 298.8819885253906 55.93000030517578 299.0339965820313 55.93000030517578 C 299.3779907226563 55.93000030517578 299.6969909667969 55.82401275634766 299.9599914550781 55.64499664306641 L 299.9649963378906 55.64599609375 C 300.2510070800781 56.10299682617188 300.7619934082031 56.41099548339844 301.3500061035156 56.41099548339844 C 301.8089904785156 56.41099548339844 302.2229919433594 56.22299957275391 302.5190124511719 55.92399597167969 C 302.8160095214844 56.31500244140625 303.2869873046875 56.57199859619141 303.822998046875 56.57199859619141 C 304.2980041503906 56.57199859619141 304.7219848632813 56.37000274658203 305.0199890136719 56.052001953125 C 305.3139953613281 56.46200561523438 305.7990112304688 56.73200225830078 306.3500061035156 56.73200225830078 C 306.9159851074219 56.73200225830078 307.4129943847656 56.44901275634766 307.7059936523438 56.01999664306641 C 308.0039978027344 56.35600280761719 308.4389953613281 56.57199859619141 308.9289855957031 56.57199859619141 C 309.43798828125 56.57199859619141 309.885986328125 56.33999633789063 310.1849975585938 55.98200225830078 C 310.4750061035156 56.24600219726563 310.8609924316406 56.41099548339844 311.2890014648438 56.41099548339844 C 311.8829956054688 56.41099548339844 312.3970031738281 56.09700012207031 312.6820068359375 55.63199615478516 C 312.7650146484375 55.67600250244141 312.8519897460938 55.71299743652344 312.9429931640625 55.74299621582031 C 312.9309997558594 55.822998046875 312.9179992675781 55.90299987792969 312.9179992675781 55.98600006103516 C 312.9179992675781 56.47999572753906 313.1520080566406 56.91600036621094 313.5119934082031 57.20899963378906 C 313.1520080566406 57.50199890136719 312.9179992675781 57.93799591064453 312.9179992675781 58.43199920654297 C 312.9179992675781 58.92600250244141 313.1520080566406 59.36199951171875 313.5119934082031 59.65499877929688 C 313.1520080566406 59.947998046875 312.9179992675781 60.38399887084961 312.9179992675781 60.87799835205078 C 312.9179992675781 61.39699935913086 313.1749877929688 61.85400009155273 313.5669860839844 62.14599990844727 C 313.3030090332031 62.42900085449219 313.1380004882813 62.80299758911133 313.1380004882813 63.21699905395508 L 313.1400146484375 63.23899841308594 C 313.0669860839844 63.22900009155273 312.9939880371094 63.21699905395508 312.9179992675781 63.21699905395508 C 312.3259887695313 63.21699905395508 311.81201171875 63.52999877929688 311.5270080566406 63.99300003051758 C 311.2560119628906 63.79499816894531 310.9230041503906 63.67399978637695 310.5589904785156 63.67399978637695 C 310.1319885253906 63.67399978637695 309.7470092773438 63.83799743652344 309.4570007324219 64.10099792480469 C 309.2330017089844 63.98699951171875 308.9809875488281 63.91600036621094 308.7109985351563 63.91600036621094 C 308.156005859375 63.91600036621094 307.6659851074219 64.19000244140625 307.3720092773438 64.60600280761719 C 307.3479919433594 64.60400390625 307.3250122070313 64.59799957275391 307.2999877929688 64.59799957275391 C 306.4859924316406 64.59799957275391 305.8169860839844 65.18499755859375 305.6960144042969 65.94899749755859 C 304.8760070800781 66.03199768066406 304.2340087890625 66.7030029296875 304.2340087890625 67.52899932861328 C 304.2340087890625 67.83799743652344 304.3269958496094 68.125 304.4830017089844 68.36900329589844 C 303.968994140625 68.63800048828125 303.614990234375 69.16200256347656 303.614990234375 69.77200317382813 C 303.614990234375 70.2760009765625 303.8580017089844 70.72000122070313 304.2300109863281 71.01200103759766 C 303.9800109863281 71.29299926757813 303.822998046875 71.65599822998047 303.822998046875 72.05699920654297 C 303.822998046875 72.73999786376953 304.2630004882813 73.31800079345703 304.8779907226563 73.54599761962891 C 305.2959899902344 74.01599884033203 305.9049987792969 74.31900024414063 306.5910034179688 74.31900024414063 C 307.2799987792969 74.31900024414063 307.8890075683594 74.01399993896484 308.3080139160156 73.54299926757813 C 308.9169921875 73.31199645996094 309.3510131835938 72.73600006103516 309.3510131835938 72.05699920654297 C 309.3510131835938 71.61399841308594 309.1650085449219 71.21299743652344 308.8670043945313 70.92399597167969 L 308.8670043945313 70.90599822998047 C 309.1650085449219 70.61700439453125 309.3510131835938 70.21600341796875 309.3510131835938 69.77200317382813 C 309.3510131835938 69.46699523925781 309.2590026855469 69.18399810791016 309.1069946289063 68.94200134277344 C 309.1109924316406 68.93299865722656 309.1170043945313 68.92799377441406 309.1210021972656 68.91999816894531 C 309.5069885253906 68.91999816894531 309.8559875488281 68.78300476074219 310.135009765625 68.56399536132813 C 310.1610107421875 68.56399536132813 310.1809997558594 68.56100463867188 310.2080078125 68.56100463867188 L 310.27099609375 68.56100463867188 C 310.5509948730469 68.78199768066406 310.9020080566406 68.91999816894531 311.2890014648438 68.91999816894531 C 311.7059936523438 68.91999816894531 312.0830078125 68.76200103759766 312.3710021972656 68.50900268554688 C 312.6010131835938 68.6300048828125 312.8590087890625 68.70500183105469 313.1380004882813 68.70500183105469 C 313.7650146484375 68.70500183105469 314.302001953125 68.35400390625 314.5750122070313 67.84600067138672 C 314.6279907226563 67.81900024414063 314.6830139160156 67.79499816894531 314.7359924316406 67.76699829101563 C 314.8150024414063 67.77899932861328 314.8940124511719 67.79100036621094 314.9760131835938 67.79100036621094 C 315.802001953125 67.79100036621094 316.4760131835938 67.18800354003906 316.5840148925781 66.40800476074219 L 316.6059875488281 66.41000366210938 C 317.5050048828125 66.41000366210938 318.2349853515625 65.69499969482422 318.2349853515625 64.81300354003906 C 318.2349853515625 64.55299377441406 318.1650085449219 64.31100463867188 318.0530090332031 64.093994140625 C 318.3269958496094 63.80799865722656 318.4989929199219 63.42599868774414 318.4989929199219 63.00199890136719 C 318.4989929199219 62.63899993896484 318.3699951171875 62.30899810791016 318.1619873046875 62.04000091552734 C 318.47900390625 61.74900054931641 318.6809997558594 61.33799743652344 318.6809997558594 60.87799835205078 C 318.6809997558594 60.41899871826172 318.47900390625 60.00799942016602 318.1619873046875 59.71599578857422 L 318.1619873046875 59.59400177001953 C 318.47900390625 59.30300140380859 318.6809997558594 58.89199829101563 318.6809997558594 58.43199920654297 C 318.6809997558594 57.97299957275391 318.47900390625 57.56101226806641 318.1619873046875 57.26999664306641 L 318.1619873046875 57.14800262451172 C 318.47900390625 56.85600280761719 318.6809997558594 56.44499969482422 318.6809997558594 55.98600006103516 C 318.6809997558594 55.5260009765625 318.47900390625 55.11500549316406 318.1619873046875 54.82401275634766 L 318.1619873046875 54.70099639892578 C 318.47900390625 54.40999603271484 318.6809997558594 53.99900054931641 318.6809997558594 53.53900146484375 C 318.6809997558594 53.06700134277344 318.4670104980469 52.64800262451172 318.135009765625 52.35600280761719 C 318.0700073242188 51.74399566650391 317.7650146484375 51.17900085449219 317.260009765625 50.80300140380859 C 316.9620056152344 50.58100128173828 316.6170043945313 50.44200134277344 316.2579956054688 50.38299560546875 C 315.9779968261719 50.16200256347656 315.6270141601563 50.02400207519531 315.239990234375 50.02400207519531 C 314.7980041503906 50.02400207519531 314.3970031738281 50.197998046875 314.10400390625 50.47899627685547 C 313.9049987792969 50.39499664306641 313.68701171875 50.34700012207031 313.4570007324219 50.34700012207031 C 312.8940124511719 50.34700012207031 312.3980102539063 50.62599945068359 312.1059875488281 51.05100250244141 C 311.864990234375 50.91298675537109 311.5880126953125 50.8280029296875 311.2890014648438 50.8280029296875 C 310.822998046875 50.8280029296875 310.406005859375 51.02199554443359 310.1090087890625 51.32898712158203 C 309.81201171875 51.02199554443359 309.3949890136719 50.8280029296875 308.9289855957031 50.8280029296875 C 308.4020080566406 50.8280029296875 307.93701171875 51.0780029296875 307.6400146484375 51.45899963378906 C 307.3420104980469 51.0780029296875 306.8779907226563 50.8280029296875 306.3500061035156 50.8280029296875 C 305.8370056152344 50.8280029296875 305.385009765625 51.06500244140625 305.0870056152344 51.42800140380859 C 304.7879943847656 51.06500244140625 304.3359985351563 50.8280029296875 303.822998046875 50.8280029296875 C 303.3259887695313 50.8280029296875 302.885986328125 51.052001953125 302.5870056152344 51.39599609375 C 302.2879943847656 51.052001953125 301.8479919433594 50.8280029296875 301.3500061035156 50.8280029296875 C 301.0039978027344 50.8280029296875 300.6849975585938 50.93499755859375 300.4209899902344 51.11599731445313 C 300.135009765625 50.65599822998047 299.6229858398438 50.34700012207031 299.0339965820313 50.34700012207031 C 298.7000122070313 50.34700012207031 298.3900146484375 50.44599914550781 298.1319885253906 50.61500549316406 C 297.8770141601563 50.05899810791016 297.3099975585938 49.66999816894531 296.6480102539063 49.66999816894531 M 296.6480102539063 48.26999664306641 C 297.3740234375 48.26999664306641 298.0617370605469 48.530029296875 298.5982666015625 48.97797393798828 C 298.7417602539063 48.95742034912109 298.8873291015625 48.94699859619141 299.0339965820313 48.94699859619141 C 299.66650390625 48.94699859619141 300.2654724121094 49.13859558105469 300.7638244628906 49.48455810546875 C 300.9555358886719 49.44707489013672 301.1516723632813 49.42800140380859 301.3500061035156 49.42800140380859 C 301.7808532714844 49.42800140380859 302.2015380859375 49.52011108398438 302.5868530273438 49.69280242919922 C 302.9719848632813 49.5201416015625 303.3924865722656 49.42800140380859 303.822998046875 49.42800140380859 C 304.2654724121094 49.42800140380859 304.6950378417969 49.52384948730469 305.08642578125 49.70357513427734 C 305.4776611328125 49.52385711669922 305.9072875976563 49.42800140380859 306.3500061035156 49.42800140380859 C 306.8040161132813 49.42800140380859 307.2422180175781 49.52738189697266 307.6394348144531 49.71385955810547 C 308.0364990234375 49.52736663818359 308.4747009277344 49.42800140380859 308.9289855957031 49.42800140380859 C 309.3416442871094 49.42800140380859 309.7408142089844 49.50920104980469 310.1090087890625 49.66419219970703 C 310.4771728515625 49.50920104980469 310.8763427734375 49.42800140380859 311.2890014648438 49.42800140380859 C 311.4443969726563 49.42800140380859 311.5997924804688 49.44044494628906 311.7536315917969 49.46492004394531 C 312.2487487792969 49.1319580078125 312.8400573730469 48.94699859619141 313.4570007324219 48.94699859619141 C 313.5815734863281 48.94699859619141 313.705322265625 48.95452880859375 313.8279418945313 48.96952056884766 C 314.2586975097656 48.74380493164063 314.7409362792969 48.62400054931641 315.239990234375 48.62400054931641 C 315.8045043945313 48.62400054931641 316.3457336425781 48.77840423583984 316.8245239257813 49.07350158691406 C 317.286376953125 49.19383239746094 317.7208251953125 49.4005126953125 318.0963745117188 49.68029022216797 C 318.7621459960938 50.17597961425781 319.2347106933594 50.895263671875 319.4373779296875 51.70267486572266 C 319.8510131835938 52.22579193115234 320.0809936523438 52.87168121337891 320.0809936523438 53.53900146484375 C 320.0809936523438 53.9632568359375 319.9876708984375 54.38031005859375 319.8132934570313 54.76250457763672 C 319.9876708984375 55.14469146728516 320.0809936523438 55.56175231933594 320.0809936523438 55.98600006103516 C 320.0809936523438 56.40960693359375 319.9876708984375 56.82639312744141 319.8133239746094 57.20858001708984 C 319.9876708984375 57.59073638916016 320.0809936523438 58.00780487060547 320.0809936523438 58.43199920654297 C 320.0809936523438 58.856201171875 319.9876708984375 59.27326965332031 319.8133239746094 59.65541839599609 C 319.9876708984375 60.0376091003418 320.0809936523438 60.45439529418945 320.0809936523438 60.87799835205078 C 320.0809936523438 61.32894515991211 319.9755859375 61.77174758911133 319.7794494628906 62.17320251464844 C 319.8584899902344 62.44056701660156 319.8989868164063 62.71868515014648 319.8989868164063 63.00199890136719 C 319.8989868164063 63.46141052246094 319.7925109863281 63.90826416015625 319.5912780761719 64.31361389160156 C 319.620361328125 64.47830200195313 319.6349792480469 64.64494323730469 319.6349792480469 64.81300354003906 C 319.6349792480469 66.11252593994141 318.7945861816406 67.22157287597656 317.6234130859375 67.63607788085938 C 317.1582641601563 68.46958923339844 316.3065795898438 69.05586242675781 315.327880859375 69.17049407958984 C 314.7642822265625 69.75973510742188 313.9778442382813 70.10499572753906 313.1380004882813 70.10499572753906 C 312.9383544921875 70.10499572753906 312.7409973144531 70.08515930175781 312.5467834472656 70.04568481445313 C 312.1541748046875 70.22511291503906 311.7257995605469 70.31999969482422 311.2890014648438 70.31999969482422 C 311.0928344726563 70.31999969482422 310.8994445800781 70.30134582519531 310.7105102539063 70.26463317871094 C 310.6732177734375 70.48898315429688 310.6104125976563 70.70687866210938 310.5235595703125 70.91487121582031 C 310.6728210449219 71.27218627929688 310.7510070800781 71.65845489501953 310.7510070800781 72.05699920654297 C 310.7510070800781 73.16994476318359 310.1107788085938 74.19534301757813 309.1266174316406 74.70767211914063 C 308.4415283203125 75.35389709472656 307.5342407226563 75.718994140625 306.5910034179688 75.718994140625 C 305.6506042480469 75.718994140625 304.7465515136719 75.3564453125 304.0635986328125 74.71457672119141 C 303.0694885253906 74.20520782470703 302.4230041503906 73.17746734619141 302.4230041503906 72.05699920654297 C 302.4230041503906 71.75204467773438 302.4711608886719 71.4508056640625 302.5637512207031 71.1629638671875 C 302.3368835449219 70.73977661132813 302.2149963378906 70.26467895507813 302.2149963378906 69.77200317382813 C 302.2149963378906 69.09117126464844 302.4491882324219 68.44627380371094 302.8615112304688 67.92893981933594 C 302.84326171875 67.79682159423828 302.8340148925781 67.6632080078125 302.8340148925781 67.52899932861328 C 302.8340148925781 67.088134765625 302.9301147460938 66.66867065429688 303.1038208007813 66.29080200195313 C 302.7463989257813 66.421875 302.3650512695313 66.49894714355469 301.9711303710938 66.51521301269531 C 301.6383666992188 66.63665008544922 301.2942504882813 66.697998046875 300.9440002441406 66.697998046875 C 299.906005859375 66.697998046875 298.9788818359375 66.18682098388672 298.4313354492188 65.37672424316406 C 297.6755676269531 65.18450927734375 297.0286865234375 64.71015930175781 296.6211547851563 64.06237030029297 C 295.4739685058594 63.75836181640625 294.5932006835938 62.80366897583008 294.4101257324219 61.62459564208984 C 293.7195434570313 61.14101791381836 293.2494201660156 60.38174057006836 293.1483764648438 59.52524566650391 C 292.5328674316406 58.96949005126953 292.1669921875 58.1766357421875 292.1669921875 57.31700134277344 C 292.1669921875 57.24919128417969 292.1693115234375 57.18158721923828 292.1739501953125 57.11425018310547 C 291.8497619628906 56.63190460205078 291.6730041503906 56.06429290771484 291.6730041503906 55.47100067138672 C 291.6730041503906 55.33193206787109 291.6830139160156 55.19381713867188 291.7029113769531 55.05707550048828 C 291.4294128417969 54.60138702392578 291.281005859375 54.078857421875 291.281005859375 53.53900146484375 C 291.281005859375 53.00529479980469 291.4285278320313 52.48259735107422 291.7034301757813 52.02360534667969 C 291.6830444335938 51.8875732421875 291.6730041503906 51.75399780273438 291.6730041503906 51.62100219726563 C 291.6730041503906 49.96845245361328 293.0322570800781 48.62400054931641 294.7030029296875 48.62400054931641 C 294.8576354980469 48.62400054931641 295.0111389160156 48.63600158691406 295.1629943847656 48.65988922119141 C 295.613525390625 48.40721130371094 296.1249694824219 48.26999664306641 296.6480102539063 48.26999664306641 Z M 303.822998046875 57.97200012207031 C 303.3187866210938 57.97200012207031 302.8355102539063 57.85052490234375 302.4063415527344 57.62403869628906 C 302.2374267578125 57.68628692626953 302.0626831054688 57.73342895507813 301.8836669921875 57.76481628417969 C 302.5249938964844 58.04326629638672 303.051513671875 58.53662109375 303.3672790527344 59.16371154785156 C 304.0348205566406 59.50262451171875 304.558837890625 60.08004379272461 304.8235473632813 60.7891731262207 C 305.4731140136719 61.69888305664063 305.6612854003906 62.84358596801758 305.3501892089844 63.89843368530273 C 305.7383422851563 63.57466125488281 306.2095031738281 63.34830856323242 306.7261962890625 63.25117874145508 C 307.2715148925781 62.78258514404297 307.9748229980469 62.51599884033203 308.7109985351563 62.51599884033203 C 308.8955078125 62.51599884033203 309.0782470703125 62.53300857543945 309.2584228515625 62.56684494018555 C 309.6617431640625 62.3753547668457 310.1049499511719 62.27399826049805 310.5589904785156 62.27399826049805 C 310.7781066894531 62.27399826049805 310.9941711425781 62.29736328125 311.2046203613281 62.3432502746582 C 311.3776550292969 62.22478485107422 311.5626831054688 62.12478637695313 311.7568359375 62.04488372802734 C 311.6006469726563 61.68177032470703 311.5180053710938 61.28683090209961 311.5180053710938 60.87799835205078 C 311.5180053710938 60.45069122314453 311.6106872558594 60.03509902954102 311.7846374511719 59.65499877929688 C 311.6106872558594 59.27490234375 311.5180053710938 58.85930633544922 311.5180053710938 58.43199920654297 C 311.5180053710938 58.21621704101563 311.5416259765625 58.00341796875 311.5874328613281 57.79669189453125 C 311.489013671875 57.80617523193359 311.389404296875 57.81099700927734 311.2890014648438 57.81099700927734 C 310.94873046875 57.81099700927734 310.6146850585938 57.75411987304688 310.2988891601563 57.64503479003906 C 309.8793640136719 57.85780334472656 309.41162109375 57.97200012207031 308.9289855957031 57.97200012207031 C 308.5433654785156 57.97200012207031 308.1654052734375 57.89810943603516 307.8138427734375 57.75873565673828 C 307.3721618652344 58.00018310546875 306.8701477050781 58.13199615478516 306.3500061035156 58.13199615478516 C 305.8410949707031 58.13199615478516 305.3470458984375 58.00389862060547 304.9102783203125 57.76943206787109 C 304.5658264160156 57.90180206298828 304.1972351074219 57.97200012207031 303.822998046875 57.97200012207031 Z"/></g><line class="d" y2="3.545" transform="translate(305.453 75.125)"/><line class="d" y2="3.545" transform="translate(307.692 75.125)"/></g></g></svg>