<svg xmlns="http://www.w3.org/2000/svg" width="40" height="36" viewBox="0 0 40 36"><defs><style>.a{fill:none;}.b{fill:#eff6ff;}.c{fill:#323646;}</style></defs><g transform="translate(-34 -55)"><circle class="a" cx="18" cy="18" r="18" transform="translate(34 55)"/><circle class="b" cx="10" cy="10" r="10" transform="translate(54 70)"/><path class="c" d="M27.391,12.326l.06-.079a2.422,2.422,0,0,0,.55-1.5,3.121,3.121,0,0,0-1.754-2.506l-.086-.052.03-.1c.57-1.861-1.292-3.245-3.224-3.92l-.116-.042.031-.118a2.787,2.787,0,0,0,.095-.718A3.988,3.988,0,0,0,21.012.116a.717.717,0,0,0-.523-.1.7.7,0,0,0-.545.82.687.687,0,0,0,.3.441A2.668,2.668,0,0,1,21.586,3.29c0,1.285-1.792,2.54-4.461,3.123l-.227.049.074-.221a3.528,3.528,0,0,0-.386-3.211A3.032,3.032,0,0,0,14.1,1.768H13.9a3.028,3.028,0,0,0-2.488,1.259,3.532,3.532,0,0,0-.387,3.214l.073.221-.226-.049C8.207,5.83,6.415,4.575,6.415,3.29A2.668,2.668,0,0,1,7.76,1.274.692.692,0,0,0,7.953.31a.7.7,0,0,0-.441-.3A.83.83,0,0,0,7.374,0a.7.7,0,0,0-.385.116A3.99,3.99,0,0,0,5.023,3.29a2.82,2.82,0,0,0,.095.718l.032.118-.116.042C3.1,4.843,1.241,6.227,1.81,8.088l.03.1-.086.052A3.161,3.161,0,0,0,0,10.743a2.421,2.421,0,0,0,.55,1.5l.06.079-.057.081A2.8,2.8,0,0,0,0,14.055,3.067,3.067,0,0,0,1.037,16.2l.06.06-.029.08A3.294,3.294,0,0,0,2.58,20.262l.072.045-.011.085a3.766,3.766,0,0,0,.7,3.112l.032.037v.991a3.447,3.447,0,0,0,2.286,3.29,3.393,3.393,0,0,0,4.435-2.633l.721-3.4a2.616,2.616,0,0,1,1.005-1.56l.115-.085.076.121a2.349,2.349,0,0,0,3.988,0l.076-.121.115.087a2.6,2.6,0,0,1,1.005,1.558l.695,3.25a3.489,3.489,0,0,0,2.728,2.9,3.417,3.417,0,0,0,2.8-.73,3.37,3.37,0,0,0,1.214-2.6V23.541l.032-.037a3.763,3.763,0,0,0,.7-3.112l-.011-.085.072-.045a3.3,3.3,0,0,0,1.512-3.922l-.029-.08.06-.06A3.069,3.069,0,0,0,28,14.055a2.8,2.8,0,0,0-.553-1.649ZM8.839,24.374a3.365,3.365,0,0,1-1.29,2.1,1.48,1.48,0,0,1-.695.164,2.493,2.493,0,0,1-.768-.137,2.027,2.027,0,0,1-1.326-1.887l-.006-.183.175.05a5.855,5.855,0,0,0,1.617.207,4.824,4.824,0,0,0,2.108-.47l.275-.135Zm.333-2.97a.8.8,0,0,0-.008.1c0,.97-1.2,1.789-2.618,1.789a2.815,2.815,0,0,1-2.1-.641,2.053,2.053,0,0,1-.478-1.59l.007-.169.162.047a13.7,13.7,0,0,0,4.9.31l.168-.015Zm2.475-2.687-.073.035a3.994,3.994,0,0,0-1.189.909l-.031.036-.048.007a20.4,20.4,0,0,1-2.853.208c-1.818,0-3.587-.279-4.5-1.068a1.883,1.883,0,0,1-.683-1.477l.011-.266.182.091a9.281,9.281,0,0,0,4.08.87,14.33,14.33,0,0,0,4.921-.914l.18-.068Zm0-3.155-.076.035a12.954,12.954,0,0,1-5.025,1.075c-3.038,0-5.156-1.38-5.156-2.617a1.383,1.383,0,0,1,.211-.711l.067-.112.115.068A13.129,13.129,0,0,0,8.2,14.751a15.973,15.973,0,0,0,3.285-.33l.16-.033Zm0-2.6-.1.024A14.33,14.33,0,0,1,8.2,13.36c-2.845,0-6.813-.995-6.813-2.616,0-.543.626-1.037,1.15-1.355l.085-.053L2.7,9.4c2.029,1.838,5.684,2.036,7.161,2.036.55,0,1.1-.027,1.644-.079l.145-.013Zm-.118-3a16.059,16.059,0,0,1-1.671.088c-2.822,0-6.758-.995-6.758-2.616,0-.557.7-1.425,2.667-2.042l.082-.026.057.064C7.445,7.165,10.33,7.765,11.5,7.942l.106.016.007.106c.041.6.039,1.322.038,1.634v.25Zm3.917-3.667a5.116,5.116,0,0,0-.485,2.779v9.952a.962.962,0,0,1-1.924,0V9.181a5.326,5.326,0,0,0-.487-2.888,2.316,2.316,0,0,1-.079-2.346A1.665,1.665,0,0,1,13.9,3.158H14.1a1.671,1.671,0,0,1,1.432.788,2.318,2.318,0,0,1-.081,2.346m.941,1.771.006-.106.105-.016c1.17-.177,4.057-.777,5.593-2.515l.057-.064.082.026C24.2,6.007,24.9,6.875,24.9,7.431c0,1.621-3.936,2.616-6.758,2.616a16.025,16.025,0,0,1-1.67-.088l-.12-.012V9.68c0-.314,0-1.051.036-1.617m6.855,16.544a1.993,1.993,0,0,1-.721,1.542,1.964,1.964,0,0,1-1.27.46,2.089,2.089,0,0,1-.388-.036A2.281,2.281,0,0,1,19.2,24.518a1.068,1.068,0,0,0-.026-.129l-.109-.305.29.137a4.839,4.839,0,0,0,2.1.466,5.812,5.812,0,0,0,1.619-.207l.171-.048Zm.312-1.959a2.8,2.8,0,0,1-2.1.648c-1.419,0-2.618-.819-2.618-1.789a.8.8,0,0,0-.008-.1l-.025-.166.168.015a13.7,13.7,0,0,0,4.9-.31l.162-.047.007.169a2.039,2.039,0,0,1-.48,1.583m1.488-3.8c-.911.789-2.679,1.069-4.5,1.069a20.339,20.339,0,0,1-2.848-.208l-.048-.007-.031-.036a4,4,0,0,0-1.193-.912l-.074-.037V17.079l.181.068a14.338,14.338,0,0,0,4.921.914,9.276,9.276,0,0,0,4.08-.87l.182-.091.011.266a1.883,1.883,0,0,1-.683,1.477m-3.589-2.172A12.937,12.937,0,0,1,16.428,15.6l-.077-.035V14.388l.161.033a15.985,15.985,0,0,0,3.285.33,13.127,13.127,0,0,0,6.42-1.451l.115-.068.067.112a1.383,1.383,0,0,1,.211.711c0,1.237-2.118,2.617-5.156,2.617M19.8,13.36a14.315,14.315,0,0,1-3.343-.379l-.1-.024v-1.61l.145.013c.542.052,1.095.079,1.643.079,2.376,0,5.5-.536,7.162-2.036l.073-.067.085.053c.523.319,1.149.812,1.149,1.355,0,1.621-3.968,2.616-6.813,2.616" transform="translate(38 59)"/></g></svg>