<svg xmlns="http://www.w3.org/2000/svg" width="41" height="36" viewBox="0 0 41 36"><defs><style>.a{fill:none;}.b{fill:#eff6ff;opacity:0.16;}.c{fill:#fff;}</style></defs><g transform="translate(-34 -55)"><circle class="a" cx="18" cy="18" r="18" transform="translate(34 55)"/><circle class="b" cx="10" cy="10" r="10" transform="translate(55 70)"/><g transform="translate(40 57)"><path class="c" d="M15.453,0H8.127a.9.9,0,0,0-.888.9V4.726A10.8,10.8,0,0,1,5.1,11.088c-1.054,1.454-1.353,2.662-.888,3.594A2.446,2.446,0,0,0,6.2,15.892,19.426,19.426,0,0,0,11.463,15a21.207,21.207,0,0,1,4.589-.9c1.521-.165,2.517-.274,2.886-1.119a2.019,2.019,0,0,0-.463-1.9A10.8,10.8,0,0,1,16.34,4.726V.9a.9.9,0,0,0-.887-.9m1.69,12.078.122.175-.163.029c-.329.06-.781.11-1.18.154l-.037,0a22.533,22.533,0,0,0-4.942.975,17.8,17.8,0,0,1-4.689.805c-.142-.021-.488-.115-.571-.306-.1-.242.038-.85.751-1.836A12.466,12.466,0,0,0,8.891,4.726V1.674h5.8V4.726a12.49,12.49,0,0,0,2.454,7.351" transform="translate(0.21)"/><path class="c" d="M8.1,30.993h7.326a.9.9,0,0,0,.888-.9V26.268a10.809,10.809,0,0,1,2.133-6.362c1.055-1.454,1.353-2.662.888-3.594A2.445,2.445,0,0,0,17.349,15.1a19,19,0,0,0-5.259.891,21.267,21.267,0,0,1-4.6.9c-1.512.165-2.508.275-2.875,1.118A2.023,2.023,0,0,0,5.076,19.9a10.809,10.809,0,0,1,2.136,6.364v3.825a.9.9,0,0,0,.887.9M6.409,18.915h0a.428.428,0,0,1-.026-.039l-.086-.135.156-.028c.345-.063.829-.115,1.217-.157a22.569,22.569,0,0,0,4.943-.976,17.84,17.84,0,0,1,4.689-.8c.142.021.487.115.571.306.1.242-.039.85-.753,1.835a12.481,12.481,0,0,0-2.456,7.353V29.32h-5.8V26.268a12.487,12.487,0,0,0-2.455-7.353" transform="translate(0.237 1.007)"/><path class="c" d="M2.894,8.922a.8.8,0,0,0-.476-.157.823.823,0,0,0-.169.017.854.854,0,0,0-.556.4,12.316,12.316,0,0,0,0,12.465.854.854,0,0,0,.556.4.8.8,0,0,0,.645-.139.825.825,0,0,0,.24-1.078A10.632,10.632,0,0,1,3.134,10a.825.825,0,0,0-.24-1.078" transform="translate(0 0.584)"/><path class="c" d="M20.718,22.049a.85.85,0,0,0,.554-.4,12.308,12.308,0,0,0,0-12.464.848.848,0,0,0-.554-.4.933.933,0,0,0-.17-.017.8.8,0,0,0-.476.157A.825.825,0,0,0,19.831,10a10.638,10.638,0,0,1,0,10.832.825.825,0,0,0,.24,1.078.8.8,0,0,0,.646.139" transform="translate(1.034 0.584)"/></g></g></svg>