<svg xmlns="http://www.w3.org/2000/svg" width="40" height="36" viewBox="0 0 40 36"><defs><style>.a,.c{fill:none;}.b{fill:#eff6ff;opacity:0.16;}.c{stroke:#fff;stroke-linecap:round;stroke-linejoin:round;stroke-width:1.5px;}</style></defs><g transform="translate(-97.856 -426.963)"><circle class="a" cx="18" cy="18" r="18" transform="translate(97.856 426.963)"/><circle class="b" cx="10" cy="10" r="10" transform="translate(117.856 441.963)"/><path class="c" d="M109.461,451.265a4.488,4.488,0,0,1-.737-.063c-2.551-.426-6.868-3.071-6.868-10.274,0-7.061,4.871-9.825,8.146-9.961a4.392,4.392,0,0,1,.855,8.732,3.363,3.363,0,0,0-.17,1.228l0-.029s.025.534.025.652c.014.093.051.406.057.484s.064.3.074.354.066.208.074.241.034.075.048.111a4.392,4.392,0,0,1-1.5,8.524Z" transform="translate(0)"/><path class="c" d="M108.837,443.841a4.625,4.625,0,0,1,1.506,3.41v4.925" transform="translate(3.733 6.788)"/><path class="c" d="M117.588,451.265a4.506,4.506,0,0,0,.738-.063c2.551-.426,6.866-3.071,6.866-10.274,0-7.061-4.871-9.825-8.145-9.961a4.392,4.392,0,0,0-.855,8.732,3.413,3.413,0,0,1,.169,1.228V440.9c-.006,0-.026.534-.026.652-.014.093-.051.406-.057.484s-.064.3-.074.354-.066.208-.074.241-.032.075-.048.111a4.392,4.392,0,0,0,1.5,8.524Z" transform="translate(5.663)"/><path class="c" d="M113.952,443.841a4.623,4.623,0,0,0-1.5,3.41v4.925" transform="translate(5.664 6.788)"/></g></svg>