<svg xmlns="http://www.w3.org/2000/svg" width="41" height="36" viewBox="0 0 41 36"><defs><style>.a{fill:none;}.b{fill:#eff6ff;}.c{fill:#323646;}</style></defs><g transform="translate(-34 -55)"><circle class="a" cx="18" cy="18" r="18" transform="translate(34 55)"/><circle class="b" cx="10" cy="10" r="10" transform="translate(55 70)"/><path class="c" d="M32.835,5.1A3.7,3.7,0,0,0,26.6,6.977H22.435a.809.809,0,0,0-.7.409l-2.207,3.87H15.111a.811.811,0,0,0-.7.41L12.2,15.536H8.257L6.283,12.071,8.492,8.2a.829.829,0,0,0,0-.817l-.448-.737A3.941,3.941,0,0,0,8.059,1.18,3.819,3.819,0,0,0,5.342,0H5.291A3.817,3.817,0,0,0,2.6,1.108a3.938,3.938,0,0,0-.071,5.517,3.848,3.848,0,0,0,4.164.916l.143.246L4.625,11.659a.829.829,0,0,0,0,.813l2.441,4.277a.807.807,0,0,0,.721.417H12.2l1.976,3.465L12.2,24.1H7.5a3.8,3.8,0,0,0-1.536-2.33,3.747,3.747,0,0,0-2.813-.635,3.851,3.851,0,0,0-1.526,6.927,3.752,3.752,0,0,0,2.813.632A3.815,3.815,0,0,0,7.5,25.726h4.7l2.208,3.866a.812.812,0,0,0,.7.408H20a.813.813,0,0,0,.7-.409l2.207-3.871h4.417a.81.81,0,0,0,.7-.409l2.441-4.279a.824.824,0,0,0,0-.813l-2.442-4.283a.812.812,0,0,0-.7-.4h-4.42l-1.975-3.465,1.975-3.465H26.6a3.791,3.791,0,0,0,1.534,2.319,3.745,3.745,0,0,0,4.822-.435A3.851,3.851,0,0,0,32.835,5.1M31.793,9.334a2.228,2.228,0,0,1-3.055.005,2.209,2.209,0,0,1,0-3.094,2.135,2.135,0,0,1,3.05,0,2.207,2.207,0,0,1,0,3.089m-10.861,11.3,1.975-3.465h3.945l1.974,3.465L26.852,24.1H22.907Zm-5.351-.816L13.6,16.352l1.974-3.465h3.953l1.98,3.465-1.98,3.463Zm0,1.631h3.953l1.975,3.465L19.55,28.375H15.581l-1.973-3.464Zm-8.71-15.9a2.124,2.124,0,0,1-1.524.639h0a2.125,2.125,0,0,1-1.524-.639,2.207,2.207,0,0,1,0-3.094,2.13,2.13,0,0,1,1.524-.64h0a2.129,2.129,0,0,1,1.524.64,2.209,2.209,0,0,1,0,3.094M5.346,26.457l-.2.2a2.127,2.127,0,0,1-1.305.445h0a2.126,2.126,0,0,1-1.524-.641,2.206,2.206,0,0,1,0-3.093,2.134,2.134,0,0,1,3.047,0,2.207,2.207,0,0,1-.023,3.094" transform="translate(35 58)"/></g></svg>