<svg xmlns="http://www.w3.org/2000/svg" width="38" height="36" viewBox="0 0 38 36"><defs><style>.a{fill:none;}.b{fill:#eff6ff;opacity:0.16;}.c{fill:#fff;}</style></defs><g transform="translate(-34 -55)"><circle class="a" cx="18" cy="18" r="18" transform="translate(34 55)"/><circle class="b" cx="10" cy="10" r="10" transform="translate(52 70)"/><g transform="translate(-295.473 -28.596)"><path class="c" d="M347.474,106.479c-1.912,0-5.526.562-5.526,2.688s3.614,2.688,5.526,2.688,5.526-.562,5.526-2.688S349.385,106.479,347.474,106.479Zm3.881,2.782c-.26.328-1.548,1-3.881,1s-3.623-.676-3.881-1l-.073-.094.073-.094c.258-.327,1.545-1,3.881-1s3.621.677,3.881,1l.073.094Z"/><path class="c" d="M341.8,94.177c-2.038,0-3.634,1.18-3.634,2.687s1.6,2.688,3.634,2.688,3.633-1.18,3.633-2.688S343.833,94.177,341.8,94.177Zm0,3.785c-1.17,0-2.045-.58-2.045-1.1s.875-1.1,2.045-1.1,2.044.579,2.044,1.1S342.966,97.962,341.8,97.962Z"/><path class="c" d="M353.152,94.177c-2.038,0-3.634,1.18-3.634,2.687s1.6,2.688,3.634,2.688,3.633-1.18,3.633-2.688S355.189,94.177,353.152,94.177Zm0,3.785c-1.171,0-2.045-.58-2.045-1.1s.874-1.1,2.045-1.1,2.044.579,2.044,1.1S354.322,97.962,353.152,97.962Z"/><path class="c" d="M361.119,102.168l-.857-.572.857-.572a.8.8,0,0,0,.352-.717,16.872,16.872,0,0,0-3.588-9.41.794.794,0,0,0-.871-.258l-.712.236.265-.794a.8.8,0,0,0-.214-.835,12.623,12.623,0,0,0-17.757,0,.8.8,0,0,0-.213.835l.265.795-.71-.237a.8.8,0,0,0-.873.258,16.879,16.879,0,0,0-3.588,9.411.794.794,0,0,0,.352.716l.858.572-.858.572a.8.8,0,0,0-.352.718,16.878,16.878,0,0,0,3.588,9.409.8.8,0,0,0,.874.258l.709-.236-.265.795a.8.8,0,0,0,.213.835,12.627,12.627,0,0,0,17.758,0,.8.8,0,0,0,.213-.835l-.265-.795.711.236a.791.791,0,0,0,.872-.257,16.877,16.877,0,0,0,3.588-9.411A.8.8,0,0,0,361.119,102.168Zm-2.731.09,1.459.972-.009.091a15.471,15.471,0,0,1-2.8,7.455l-.065.091-1.681-.561a.795.795,0,0,0-1.005,1l.6,1.808-.078.067a10.964,10.964,0,0,1-14.681,0l-.079-.067.6-1.808a.794.794,0,0,0-1-1l-1.682.56-.066-.09a15.5,15.5,0,0,1-2.8-7.455l-.008-.091,1.458-.972a.8.8,0,0,0,0-1.323l-1.458-.973.008-.091a15.5,15.5,0,0,1,2.8-7.455l.066-.09,1.682.561a.795.795,0,0,0,1-1.006l-.6-1.807.079-.067a10.961,10.961,0,0,1,14.681,0l.078.067-.6,1.807a.795.795,0,0,0,1.005,1.006l1.681-.561.065.09a15.488,15.488,0,0,1,2.8,7.455l.009.091-1.459.973a.8.8,0,0,0,0,1.323Z"/><path class="c" d="M349.366,100.8a.8.8,0,0,0-.794.795,1.1,1.1,0,1,1-2.2,0,.795.795,0,1,0-1.59,0,2.688,2.688,0,1,0,5.375,0A.8.8,0,0,0,349.366,100.8Z"/></g></g></svg>