<svg xmlns="http://www.w3.org/2000/svg" width="40" height="36" viewBox="0 0 40 36"><defs><style>.a{fill:none;}.b{fill:#eff6ff;}.c{fill:#333747;}</style></defs><g transform="translate(-34 -55)"><circle class="a" cx="18" cy="18" r="18" transform="translate(34 55)"/><circle class="b" cx="10" cy="10" r="10" transform="translate(54 70)"/><g transform="translate(-217.869 5.785)"><path class="c" d="M256.489,72.728a3.883,3.883,0,0,1,1.759-.421c.06,0,.121-.011.18-.016s.125-.013.192-.017a5.017,5.017,0,0,0,2.652-1.328l.047-.038a8.22,8.22,0,0,1,.85-.634,12.667,12.667,0,0,1,1.791-.906l.071-.033a12.772,12.772,0,0,0,2.145-1.138,16.02,16.02,0,0,0,3.357-3.582,15.665,15.665,0,0,0,1.776-3.994c.1-.3.2-.6.309-.9l.043-.13.043-.077c.031-.059.07-.131.114-.2.485-.878,1.149-2.081.314-2.755a.154.154,0,0,0-.046-.033c-2.234-1.636-2.79-5.311-2.847-5.727a.762.762,0,0,0-.847-.669.741.741,0,0,0-.506.281.777.777,0,0,0-.16.581c.1.75.724,4.57,3.237,6.6a8.441,8.441,0,0,1-.49,1.011c-.087.157-.157.284-.2.385a.264.264,0,0,0-.025.063c-.1.294-.2.59-.3.88l-.073.215a12.4,12.4,0,0,1-4.554,6.8,11.688,11.688,0,0,1-1.968,1.028l-.2.092a13.758,13.758,0,0,0-1.779.919,9.858,9.858,0,0,0-1,.739,3.74,3.74,0,0,1-1.885,1.039c-.065,0-.129.011-.191.017s-.108.012-.179.017a5.236,5.236,0,0,0-2.382.63c-2.961,1.754-2.892,5.751-2.858,7.674a.762.762,0,1,0,1.523-.029C254.344,76.446,254.558,73.868,256.489,72.728Z" transform="translate(0 0.06)"/><path class="c" d="M283.132,58.779h0a8.207,8.207,0,0,0-6.351-4.46h-.023c-.169-.016-.322-.017-.474-.017h-.064a1.508,1.508,0,0,1-.631-.091l-.028-.023h-.015c-.533-.336-2.521-2.66-2.63-4.263a.759.759,0,1,0-1.515.1c.142,2.244,2.47,4.962,3.414,5.508a2.8,2.8,0,0,0,1.449.3,2.531,2.531,0,0,1,.356.016,6.6,6.6,0,0,1,5.17,3.673,13.331,13.331,0,0,1,1.341,6.613c-.252,6.24-3.33,10.768-8.668,12.752-1.512.572-6.758,1.7-10.973-.455l-.058-.033a6.732,6.732,0,0,1-2.257-2.052l-.019-.028c-.632-.853-1.492-2.023-3.214-1.348-1.9.717-1.9,3.422-1.9,4.576a.762.762,0,1,0,1.523,0c0-.761,0-2.773.9-3.145l.026-.007c.563-.222.752-.111,1.453.836l.025.026a8.074,8.074,0,0,0,2.784,2.492,13.929,13.929,0,0,0,6.48,1.46c.334,0,.668-.009,1.023-.026A17.368,17.368,0,0,0,275,80.3a14.146,14.146,0,0,0,7.014-5.431,16.575,16.575,0,0,0,2.635-8.7A14.911,14.911,0,0,0,283.132,58.779Z" transform="translate(0.212)"/><path class="c" d="M263.106,69.678a3.655,3.655,0,0,0-2.354,2.561,3.712,3.712,0,0,0,.961,3.356,6.478,6.478,0,0,0,2.567,1.565,12.206,12.206,0,0,0,4.2.748h.07a13.437,13.437,0,0,0,3.15-.382A14.38,14.38,0,0,0,278.17,73.9a10.7,10.7,0,0,0,2.889-4.378,7.041,7.041,0,0,0-.2-5.38,1.787,1.787,0,0,0-1.271-1.122h-.03c-.384-.035-1.11.066-1.713,1.134a10.261,10.261,0,0,1-4.978,3.811,24.435,24.435,0,0,1-7.515,1.277A7.153,7.153,0,0,0,263.106,69.678Zm-.877,2.913a2.172,2.172,0,0,1,1.412-1.486l.03,0,.016-.016a5.74,5.74,0,0,1,1.76-.322A25.588,25.588,0,0,0,273.4,69.39a11.4,11.4,0,0,0,5.7-4.4.256.256,0,0,0,.046-.071,1.13,1.13,0,0,1,.214-.3.783.783,0,0,1,.081.146.132.132,0,0,0,.03.054,5.49,5.49,0,0,1,.141,4.191l-.013.028a9.2,9.2,0,0,1-2.5,3.759,12.85,12.85,0,0,1-5.776,3.25,11.244,11.244,0,0,1-6.533-.318,5.116,5.116,0,0,1-1.968-1.174A2.175,2.175,0,0,1,262.229,72.592Z" transform="translate(0.52 0.92)"/></g></g></svg>