<svg xmlns="http://www.w3.org/2000/svg" width="40" height="36" viewBox="0 0 40 36"><defs><style>.a{fill:none;}.b{fill:#eff6ff;}.c{fill:#323646;}</style></defs><g transform="translate(-34 -55)"><circle class="a" cx="18" cy="18" r="18" transform="translate(34 55)"/><circle class="b" cx="10" cy="10" r="10" transform="translate(54 70)"/><g transform="translate(38 58)"><path class="c" d="M27.927,7.991a9.164,9.164,0,0,0-4.6-6.851A8.958,8.958,0,0,0,15.139.851a2.625,2.625,0,0,1-2.279,0A8.98,8.98,0,0,0,2.127,3.262,9.247,9.247,0,0,0,1.61,14.376a17.5,17.5,0,0,1,2.782,6.893l1.149,6.667A2.471,2.471,0,0,0,7.974,30H9.259a2.486,2.486,0,0,0,2.449-2.178l.91-7.1A.828.828,0,0,1,13.434,20h1.132a.828.828,0,0,1,.817.726l.906,7.1A2.488,2.488,0,0,0,18.742,30h1.284a2.474,2.474,0,0,0,2.434-2.067l1.147-6.667a17.544,17.544,0,0,1,2.783-6.894,9.265,9.265,0,0,0,1.537-6.383Zm-2.892,5.435a19.221,19.221,0,0,0-3.047,7.558l-1.153,6.662a.827.827,0,0,1-.811.687H18.739a.824.824,0,0,1-.816-.725l-.907-7.1a2.487,2.487,0,0,0-2.45-2.179H13.434a2.486,2.486,0,0,0-2.449,2.179l-.91,7.1a.827.827,0,0,1-.816.725H7.974a.826.826,0,0,1-.811-.687l-1.15-6.662a19.236,19.236,0,0,0-3.047-7.558,7.563,7.563,0,0,1,.423-9.088,7.347,7.347,0,0,1,8.776-1.976,4.29,4.29,0,0,0,3.671,0,7.345,7.345,0,0,1,8.775,1.976,7.564,7.564,0,0,1,.424,9.088"/><path class="c" d="M14,5a6.205,6.205,0,0,1-3.031-.727.814.814,0,0,0-1.043.25A.838.838,0,0,0,10.2,5.749a7.778,7.778,0,0,0,3.8.918,7.775,7.775,0,0,0,3.8-.918.838.838,0,0,0,.274-1.226.815.815,0,0,0-1.044-.25A6.2,6.2,0,0,1,14,5"/></g></g></svg>