<svg xmlns="http://www.w3.org/2000/svg" width="38" height="36" viewBox="0 0 38 36"><defs><style>.a{fill:none;}.b{fill:#eff6ff;opacity:0.16;}.c{fill:#fff;}</style></defs><g transform="translate(-34 -55)"><circle class="a" cx="18" cy="18" r="18" transform="translate(34 55)"/><circle class="b" cx="10" cy="10" r="10" transform="translate(52 70)"/><g transform="translate(38 58)"><path class="c" d="M30,7.421a.713.713,0,0,0-.2-.5L23.108.232a.81.81,0,0,0-.6-.231.753.753,0,0,0-.621.49.761.761,0,0,0,.18.775L24.9,4.087l-3.574,3.57L15.786,2.122a.8.8,0,0,0-.552-.232l-.052,0a.746.746,0,0,0-.618.488.763.763,0,0,0,.182.781l1.913,1.9L5.06,16.652a5.866,5.866,0,0,0-.632,7.565l.141.2L.205,28.776A.744.744,0,0,0,.2,29.8a.767.767,0,0,0,1.029.006L5.6,25.442l.2.141a5.841,5.841,0,0,0,7.568-.631l11.6-11.592,1.9,1.912a.785.785,0,0,0,1.04,0,.709.709,0,0,0,.205-.508.741.741,0,0,0-.205-.53L22.364,8.7l3.575-3.573,2.816,2.828a.788.788,0,0,0,1.041,0,.756.756,0,0,0,.2-.532m-6.078,4.9-.2.2-11.4,11.4a4.381,4.381,0,0,1-6.087.143H6.213l-.085-.107A.819.819,0,0,0,6,23.836a4.4,4.4,0,0,1,.084-6.144l.457-.457,1.9,1.913a.787.787,0,0,0,1.043,0,.787.787,0,0,0,0-1.036l-1.9-1.9,1.862-1.876,3.118,3.118A.736.736,0,1,0,13.6,16.411l-3.12-3.117,1.637-1.618,1.9,1.9a.82.82,0,0,0,1.041,0,.787.787,0,0,0,0-1.04l-1.9-1.9L14.782,9,17.9,12.118a.718.718,0,0,0,.509.2h.007a.748.748,0,0,0,.525-.2.787.787,0,0,0,0-1.042l-3.116-3.1L17.7,6.1Z"/></g></g></svg>