<svg xmlns="http://www.w3.org/2000/svg" width="39" height="36" viewBox="0 0 39 36"><defs><style>.a{fill:none;}.b{fill:#eff6ff;}.c{fill:#323646;}</style></defs><g transform="translate(-688.15 -737.697)"><circle class="a" cx="18" cy="18" r="18" transform="translate(688.15 737.697)"/><circle class="b" cx="10" cy="10" r="10" transform="translate(707.15 752.697)"/><path class="c" d="M26.394,0a3.054,3.054,0,0,0-3.087,3.086,2.921,2.921,0,0,0,1.472,2.567,8.355,8.355,0,0,0-.264,1.2h-.028a4.13,4.13,0,0,0-4.076,4.076v5.367a2.312,2.312,0,0,0,2.31,2.31,1.7,1.7,0,0,1,1.716,1.716v3.037a2.6,2.6,0,0,1-1.879,2.478c-.042-2.568-2.582-4.646-5.7-4.646s-5.654,2.075-5.7,4.64a2.612,2.612,0,0,1-1.738-2.4V20.39a1.7,1.7,0,0,1,1.716-1.716,2.312,2.312,0,0,0,2.31-2.31V11A4.129,4.129,0,0,0,9.373,6.921H9.345a8.3,8.3,0,0,0-.265-1.2,2.992,2.992,0,0,0,1.614-2.637A3.054,3.054,0,0,0,7.607,0a7.618,7.618,0,0,0-.569,15.213,3.454,3.454,0,0,0,2.712-.782,3.018,3.018,0,0,0,.944-2.234A2.919,2.919,0,0,0,9.222,9.631a8.475,8.475,0,0,0,.264-1.2h.028A2.6,2.6,0,0,1,12.078,11v5.368a.81.81,0,0,1-.8.8A3.232,3.232,0,0,0,8.052,20.39v3.037A4.158,4.158,0,0,0,11.6,27.5a5.3,5.3,0,0,0,3.379,2.888l.35,2.938a.8.8,0,0,0,.755.676h1.766a.8.8,0,0,0,.755-.68l.35-2.934A5.3,5.3,0,0,0,22.332,27.5a4.109,4.109,0,0,0,3.688-4.072V20.39a3.232,3.232,0,0,0-3.229-3.228.809.809,0,0,1-.8-.8V11a2.6,2.6,0,0,1,2.563-2.563h.028a8.373,8.373,0,0,0,.265,1.2A2.917,2.917,0,0,0,23.378,12.2a3.018,3.018,0,0,0,.944,2.234,3.445,3.445,0,0,0,2.712.782A7.621,7.621,0,0,0,26.394,0M25.269,13.3a1.443,1.443,0,0,1-.45-1.105,1.633,1.633,0,0,1,1.095-1.506.781.781,0,0,0,.45-.371.58.58,0,0,0,.078-.61l0,0a5.3,5.3,0,0,1-.412-1.343h.706L28.68,9.545l.349,1.815a.777.777,0,0,0,.763.615.89.89,0,0,0,.143-.012.778.778,0,0,0,.6-.906l-.423-2.125a.876.876,0,0,0-.376-.521L27.946,7.377,28.7,6.146a.683.683,0,0,0,.076-.376.894.894,0,0,0-.378-.678.76.76,0,0,0-1.058.3l-.9,1.529h-.48a5.484,5.484,0,0,1,.414-1.347.814.814,0,0,0,0-.6c-.075-.149-.294-.374-.461-.381a1.53,1.53,0,0,1-1.088-1.5,1.541,1.541,0,0,1,1.575-1.575,6.1,6.1,0,0,1,6.095,6.095,6.175,6.175,0,0,1-5.606,6.1,2.066,2.066,0,0,1-1.614-.4M21.118,25.969a3.384,3.384,0,0,1-3,3.06.81.81,0,0,0-.6.677l-.348,2.782h-.477l-.347-2.775a.8.8,0,0,0-.6-.685c-1.794-.413-3-1.643-3-3.059,0-1.793,1.84-3.2,4.188-3.2,2.27,0,4.188,1.465,4.188,3.2M8.661,13.3a2.064,2.064,0,0,1-1.614.4A6.176,6.176,0,0,1,1.441,7.607a6.231,6.231,0,0,1,6.166-6.1A1.541,1.541,0,0,1,9.182,3.086a1.633,1.633,0,0,1-1.1,1.507.774.774,0,0,0-.456.385.826.826,0,0,0,0,.6,5.379,5.379,0,0,1,.412,1.343H7.565L6.657,5.386A.874.874,0,0,0,5.6,5.092a.761.761,0,0,0-.3,1.057l.75,1.228L4.265,8.409a.951.951,0,0,0-.379.529l-.424,2.119a.806.806,0,0,0,.126.6.722.722,0,0,0,.478.3.793.793,0,0,0,.6-.127.723.723,0,0,0,.3-.477l.348-1.814L7.268,8.363h.7A5.38,5.38,0,0,1,7.56,9.71a.824.824,0,0,0,0,.6c.075.149.3.373.461.38a1.532,1.532,0,0,1,1.088,1.5,1.446,1.446,0,0,1-.45,1.105" transform="translate(689.15 739.697)"/></g></svg>