<svg xmlns="http://www.w3.org/2000/svg" width="40" height="36" viewBox="0 0 40 36"><defs><style>.a{fill:none;}.b{fill:#eff6ff;}.c{fill:#333747;}</style></defs><g transform="translate(-427.891 -46.895)"><circle class="a" cx="18" cy="18" r="18" transform="translate(427.891 46.895)"/><circle class="b" cx="10" cy="10" r="10" transform="translate(447.891 61.895)"/><path class="c" d="M444.707,77.112l.873,0,.01.037a3.317,3.317,0,0,0,.831,1.465,3.131,3.131,0,0,0,2.247.963h.009a3.116,3.116,0,0,0,2.241-.951,3.3,3.3,0,0,0,.923-2.306h0a3.279,3.279,0,0,0-.936-2.3,3.133,3.133,0,0,0-2.246-.959h-.006a3.071,3.071,0,0,0-1.543.407l-.074.042v-.086l-.012-6.718A10.706,10.706,0,0,0,444.1,59.39l-.042-.043.048-.033a8.4,8.4,0,0,1,.878-.518.806.806,0,0,0,.435-.716l-.011-7.7a.794.794,0,0,0-.781-.8h0a.76.76,0,0,0-.546.23.8.8,0,0,0-.231.568l.011,7.219-.024.015a10.611,10.611,0,0,0-.968.636l-.029.022-.03-.022a11.083,11.083,0,0,0-.969-.64l-.025-.014v-.029l-.012-7.19a.814.814,0,0,0-.239-.564.775.775,0,0,0-.54-.237h0a.761.761,0,0,0-.544.23.8.8,0,0,0-.232.568l.013,7.7a.869.869,0,0,0,.432.713,9.105,9.105,0,0,1,.883.524l.05.034-.042.043a10.634,10.634,0,0,0-2.911,7.307l.011,6.8-.074-.043a3.112,3.112,0,0,0-1.544-.412h-.028a3.081,3.081,0,0,0-2.217.946,3.237,3.237,0,0,0-.929,2.3,3.276,3.276,0,0,0,.931,2.3,3.181,3.181,0,0,0,2.252.96h.008a3.115,3.115,0,0,0,2.24-.952,3.24,3.24,0,0,0,.818-1.462l.009-.038h.04l.836,0h0a.763.763,0,0,0,.544-.228.8.8,0,0,0-.549-1.37h-.782v-.05l-.014-8.756a8.986,8.986,0,0,1,2.576-6.307l.036-.036.091.092A9.041,9.041,0,0,1,445.47,66.7l.014,8.808-.787,0h0a.76.76,0,0,0-.544.229.8.8,0,0,0-.232.568A.819.819,0,0,0,444.707,77.112Zm2.807-1.967a1.593,1.593,0,0,1,2.294,0,1.7,1.7,0,0,1,.478,1.174,1.675,1.675,0,0,1-.471,1.169h0a1.654,1.654,0,0,1-1.156.483,1.685,1.685,0,0,1-1.62-1.658A1.665,1.665,0,0,1,447.515,75.145Zm-9.308,2.325a1.59,1.59,0,0,1-2.286,0l-.021-.01v-.012a1.683,1.683,0,0,1,.016-2.326,1.577,1.577,0,0,1,1.138-.481h0a1.6,1.6,0,0,1,1.142.485,1.688,1.688,0,0,1,.479,1.174A1.65,1.65,0,0,1,438.207,77.47Z" transform="translate(-1 0.317)"/><path class="c" d="M454,80.227a2.129,2.129,0,0,0,1.537.669h0a2.108,2.108,0,0,0,1.522-.654,2.3,2.3,0,0,0,.648-1.618l0-16.26a.788.788,0,0,0-.729-.77l-.046,0v-.047L456.908,49.7a.822.822,0,0,0-.77-.805h-.012A4.3,4.3,0,0,0,453,50.248a4.7,4.7,0,0,0-1.294,3.279l.007,4.727a.807.807,0,0,0,.563.772,2.343,2.343,0,0,1,1.628,2.048l.048.524-.041.01a.754.754,0,0,0-.35.207.818.818,0,0,0-.227.566l.023,16.227A2.321,2.321,0,0,0,454,80.227Zm2.177-17.041v.051l.024,15.374a.672.672,0,0,1-.652.679h0a.634.634,0,0,1-.451-.2.668.668,0,0,1-.186-.473l-.023-15.424Zm-2.893-5.469-.027-.014-.006-4.174a2.986,2.986,0,0,1,2.072-2.909l.062-.019v.067l.016,9.869-.1-.338a4.078,4.078,0,0,0-.976-1.708A3.782,3.782,0,0,0,453.278,57.717Z" transform="translate(0.186 -0.001)"/></g></svg>