<svg xmlns="http://www.w3.org/2000/svg" width="40" height="36" viewBox="0 0 40 36"><defs><style>.a{fill:none;}.b{fill:#eff6ff;opacity:0.16;}.c{fill:#fff;}</style></defs><g transform="translate(-34 -55)"><circle class="a" cx="18" cy="18" r="18" transform="translate(34 55)"/><circle class="b" cx="10" cy="10" r="10" transform="translate(54 70)"/><g transform="translate(39.001 59)"><path class="c" d="M26.565,23.242,27.859,21a.926.926,0,0,0,.09-.721.944.944,0,0,0-.455-.572.981.981,0,0,0-1.314.349l-.166.282L24.3,19.381l.043-.228a3.383,3.383,0,0,0,.061-.645,3.445,3.445,0,0,0-.058-.631l-.043-.227,1.691-.946.17.265a1,1,0,0,0,1.343.371.953.953,0,0,0,.449-.578.931.931,0,0,0-.1-.72l-1.293-2.172a.983.983,0,0,0-1.324-.342.938.938,0,0,0-.368,1.259l.148.278-1.679.943-.178-.15a3.526,3.526,0,0,0-1.135-.649l-.222-.077V13.26h.334a.95.95,0,1,0,.005-1.9h-2.6a.949.949,0,1,0,0,1.9h.332v1.871l-.221.076a3.534,3.534,0,0,0-1.131.646l-.178.15-1.673-.94.148-.278a.937.937,0,0,0-.368-1.259.981.981,0,0,0-1.324.342L13.823,16.04a.929.929,0,0,0-.1.719.944.944,0,0,0,.449.579A1,1,0,0,0,15.494,17l.168-.281.3.141,1.4.787-.043.226a3.659,3.659,0,0,0-.059.637,3.465,3.465,0,0,0,.063.65l.045.228-1.708.957-.168-.282a.981.981,0,0,0-1.312-.349.95.95,0,0,0-.458.573.929.929,0,0,0,.091.72L15.11,23.24a1,1,0,0,0,1.321.357A.942.942,0,0,0,16.8,22.3l-.163-.283.272-.19,1.444-.807.178.149a3.613,3.613,0,0,0,1.118.634l.221.076V23.86h-.332a.949.949,0,1,0,0,1.9h2.6a.95.95,0,1,0,0-1.9h-.333L21.8,21.883l.221-.077a3.548,3.548,0,0,0,1.123-.636l.178-.149,1.731.97-.155.281a.956.956,0,0,0-.11.754.942.942,0,0,0,.454.573,1,1,0,0,0,1.32-.356m-5.732-3.134a1.6,1.6,0,1,1,1.634-1.6,1.619,1.619,0,0,1-1.634,1.6" transform="translate(1.014 0.757)"/><path class="c" d="M0,19.653A12.5,12.5,0,0,0,12.622,32a12.731,12.731,0,0,0,5.75-1.378.945.945,0,0,0,.42-1.277.958.958,0,0,0-.561-.471.985.985,0,0,0-.734.057A10.8,10.8,0,0,1,12.622,30.1,10.585,10.585,0,0,1,1.928,19.653c0-2.715,1.941-6.671,5.615-11.442,1.9-2.473,3.846-4.591,4.833-5.634l.244-.255.243.256a78.037,78.037,0,0,1,5.4,6.395.96.96,0,0,0,.632.377.973.973,0,0,0,.715-.173.945.945,0,0,0,.382-.623.923.923,0,0,0-.175-.7A77.938,77.938,0,0,0,13.314.29.97.97,0,0,0,11.94.281,74.057,74.057,0,0,0,6.026,7.042C2.027,12.227,0,16.47,0,19.653" transform="translate(0)"/></g></g></svg>