<svg xmlns="http://www.w3.org/2000/svg" width="39" height="36" viewBox="0 0 39 36"><defs><style>.a{fill:none;}.b{fill:#eff6ff;}.c{fill:#323646;}</style></defs><g transform="translate(-34 -55)"><circle class="a" cx="18" cy="18" r="18" transform="translate(34 55)"/><circle class="b" cx="10" cy="10" r="10" transform="translate(53 70)"/><g transform="translate(35 56)"><path class="c" d="M12.846,24.333a.594.594,0,0,0,.132-.015l.468-.105a5.647,5.647,0,0,0,.753,1.173l-.25.189a.606.606,0,0,0,.364,1.091.6.6,0,0,0,.363-.123l.4-.3a6.251,6.251,0,0,0,.975.634l-.091.517a.6.6,0,0,0,.493.7.466.466,0,0,0,.1.011.607.607,0,0,0,.6-.5l.047-.267a2.506,2.506,0,0,0,.588.075,1.6,1.6,0,0,0,1.438-.777,1.5,1.5,0,0,0-.314-1.882l-.106-.079.085-.079a.605.605,0,0,0-.822-.889l-.427.394a1.968,1.968,0,0,1-.972-.883l.421-.316a.606.606,0,1,0-.727-.969l-.063.047a1.535,1.535,0,0,0-.915-.768,1.844,1.844,0,0,0-1.865.426,1.7,1.7,0,0,0-.444,1.417l-.363.081a.606.606,0,0,0,.131,1.2m1.546-1.852a.633.633,0,0,1,.617-.118c.138.046.214.121.229.225A3.31,3.31,0,0,0,17.575,25.4a2.848,2.848,0,0,1,.566.289.281.281,0,0,1,.035.342c-.116.2-.474.223-.934.054a4.685,4.685,0,0,1-2.866-2.78c-.08-.22-.183-.618.016-.824"/><path class="c" d="M8.175,18.893a1.858,1.858,0,0,0,.554,3.388,1.9,1.9,0,0,0,.429.05,1.858,1.858,0,1,0-.983-3.438m1.608,1.728a.647.647,0,1,1-.631-.8.648.648,0,0,1,.631.8"/><path class="c" d="M7.07,16.493a1.847,1.847,0,0,0,1.154.83,1.888,1.888,0,0,0,.425.05,1.858,1.858,0,0,0,1.578-2.839A1.858,1.858,0,1,0,7.07,16.493m.949-1.127a.642.642,0,0,1,.289-.4.635.635,0,0,1,.339-.1.626.626,0,0,1,.149.018.646.646,0,0,1,.482.776.647.647,0,0,1-.777.482.633.633,0,0,1-.4-.289.64.64,0,0,1-.081-.488"/><path class="c" d="M17.708,7.115a1.858,1.858,0,0,0-.851,3.617,1.874,1.874,0,0,0,.432.051,1.859,1.859,0,0,0,.419-3.668m.2,1.957a.646.646,0,0,1-.29.4.647.647,0,0,1-.97-.7.646.646,0,0,1,.289-.4.635.635,0,0,1,.489-.08.649.649,0,0,1,.482.777"/><path class="c" d="M22.285,9.127a1.772,1.772,0,0,0-.81,3.45,1.793,1.793,0,0,0,.41.048,1.776,1.776,0,0,0,1.72-1.368,1.775,1.775,0,0,0-1.32-2.13m.14,1.852h0a.56.56,0,0,1-.25.349.564.564,0,0,1-.771-.182.559.559,0,0,1,.6-.84.56.56,0,0,1,.418.672"/><path class="c" d="M17,0A17,17,0,1,0,34,17,17.02,17.02,0,0,0,17,0m0,32.672A15.672,15.672,0,1,1,32.672,17,15.69,15.69,0,0,1,17,32.672"/><path class="c" d="M17,3.363A13.511,13.511,0,0,0,8.7,6.2a.669.669,0,0,0-.257.484.662.662,0,0,0,.193.511L26.806,25.366a.665.665,0,0,0,.47.2l.042,0A.663.663,0,0,0,27.8,25.3,13.5,13.5,0,0,0,30.636,17,13.653,13.653,0,0,0,17,3.363m6.966,13.643v-.044a3,3,0,0,1,.022-.711.411.411,0,0,1,.432-.274c.318.024.543.406.6,1.021a5.936,5.936,0,0,1-.123,1.935.56.56,0,0,0-.024.1,5.243,5.243,0,0,1-.806,1.715l-.858-.858a3.992,3.992,0,0,0,.76-2.882m3.229,6.871-2.261-2.261a6.508,6.508,0,0,0,.9-1.633l.246.123a.606.606,0,0,0,.538-1.086l-.466-.232a7.268,7.268,0,0,0,.1-1.241H26.6a.606.606,0,0,0,0-1.212h-.472a1.863,1.863,0,0,0-1.623-1.566,1.624,1.624,0,0,0-1.7,1.189,2.2,2.2,0,0,0-.059.424h-.375a.606.606,0,0,0,0,1.212h.389a2.4,2.4,0,0,1-.427,1.426L10.122,6.8A12.16,12.16,0,0,1,17,4.691,12.322,12.322,0,0,1,29.308,17a12.154,12.154,0,0,1-2.113,6.877"/><path class="c" d="M7.194,8.633a.672.672,0,0,0-.512-.192A.658.658,0,0,0,6.2,8.7,13.5,13.5,0,0,0,3.364,17,13.652,13.652,0,0,0,17,30.637,13.492,13.492,0,0,0,25.3,27.8a.664.664,0,0,0,.064-.995ZM17,29.309A12.323,12.323,0,0,1,4.691,17a12.164,12.164,0,0,1,2.115-6.878L23.878,27.195A12.166,12.166,0,0,1,17,29.309"/></g></g></svg>