<svg xmlns="http://www.w3.org/2000/svg" width="41" height="36" viewBox="0 0 41 36"><defs><style>.a{fill:none;}.b{fill:#eff6ff;opacity:0.16;}.c{fill:#fff;}</style></defs><g transform="translate(-34 -55)"><circle class="a" cx="18" cy="18" r="18" transform="translate(34 55)"/><circle class="b" cx="10" cy="10" r="10" transform="translate(55 70)"/><g transform="translate(7 -79)"><path class="c" d="M20.556,11.332a3.225,3.225,0,0,0-3.15,3.164,3.15,3.15,0,1,0,3.15-3.164m0,4.673a1.442,1.442,0,0,1-1.523-1.524,1.524,1.524,0,0,1,3.047,0A1.442,1.442,0,0,1,20.556,16" transform="translate(29 136)"/><path class="c" d="M12.495,9.229a3.08,3.08,0,0,0-3.149,3.149,3.08,3.08,0,0,0,3.149,3.15,3.082,3.082,0,0,0,3.15-3.15,3.081,3.081,0,0,0-3.15-3.149m0,4.673a1.527,1.527,0,0,1-1.522-1.524,1.441,1.441,0,0,1,1.522-1.523,1.441,1.441,0,0,1,1.523,1.523A1.442,1.442,0,0,1,12.495,13.9" transform="translate(29 136)"/><path class="c" d="M14.481,17.523a3.15,3.15,0,1,0,3.149,3.15,3.232,3.232,0,0,0-3.149-3.15m0,4.672a1.523,1.523,0,1,1,0-3.045A1.441,1.441,0,0,1,16,20.673a1.525,1.525,0,0,1-1.523,1.522" transform="translate(29 136)"/><path class="c" d="M31.188,19.032A.747.747,0,0,0,32,18.22V13.546a.736.736,0,0,0-.812-.7.749.749,0,0,0-.814.814v1.522H27.826l-.03-.321a11.349,11.349,0,0,0-2.719-6.459l-.22-.25.136-.134,1.639-1.636L27.7,7.456a.815.815,0,0,0,.567.227h0a.791.791,0,0,0,.566-1.362l-3.27-3.27A.794.794,0,0,0,25,2.813h0a.792.792,0,0,0-.566.237.776.776,0,0,0,0,1.134L25.5,5.252,23.734,7.015l-.249-.2a12.27,12.27,0,0,0-6.468-2.723l-.322-.031V1.626H18.22a.747.747,0,0,0,.812-.814A.746.746,0,0,0,18.22,0H13.547a.748.748,0,0,0-.814.812.749.749,0,0,0,.814.814H15.07V4.175l-.321.03A11.352,11.352,0,0,0,8.29,6.921l-.275.239L6.407,5.231,7.455,4.184A.8.8,0,0,0,6.321,3.051L3.05,6.32a.782.782,0,0,0,0,1.136.8.8,0,0,0,1.134,0l1.067-1.07.071.071L7.016,8.148l-.2.249a12.261,12.261,0,0,0-2.725,6.469l-.033.32H1.626V13.664a.749.749,0,0,0-.814-.814A.748.748,0,0,0,0,13.664v4.672a.747.747,0,0,0,.812.814.748.748,0,0,0,.814-.814V16.812H4.174l.03.322a11.347,11.347,0,0,0,2.717,6.46l.22.25-.068.065-1.7,1.7L4.3,24.544A.8.8,0,0,0,3.168,25.68l3.269,3.27a.806.806,0,0,0,.568.244.85.85,0,0,0,.565-.244.771.771,0,0,0,0-1.132L6.5,26.748l.072-.071,1.69-1.692.249.2a12.251,12.251,0,0,0,6.47,2.728l.32.03v2.43H13.781a.814.814,0,1,0,0,1.627h4.673a.814.814,0,1,0,0-1.627H16.93V27.826l.321-.03a11.361,11.361,0,0,0,6.46-2.718l.25-.22.133.135,1.636,1.638L24.662,27.7a.787.787,0,0,0,0,1.134.8.8,0,0,0,1.134,0l3.269-3.272a.8.8,0,1,0-1.13-1.133L26.863,25.5l-.141-.144L25.1,23.735l.2-.249a12.27,12.27,0,0,0,2.724-6.47l.032-.32h2.313V18.22a.748.748,0,0,0,.814.812M16,26.284A10.285,10.285,0,1,1,26.285,16,10.3,10.3,0,0,1,16,26.284" transform="translate(29 136)"/></g></g></svg>