<svg xmlns="http://www.w3.org/2000/svg" width="37" height="36" viewBox="0 0 37 36"><defs><style>.a{fill:none;}.b{fill:#eff6ff;opacity:0.16;}.c{fill:#fff;stroke:#fff;stroke-width:0.5px;}</style></defs><g transform="translate(-34 -55)"><circle class="a" cx="18" cy="18" r="18" transform="translate(34 55)"/><circle class="b" cx="10" cy="10" r="10" transform="translate(51 70)"/><g transform="translate(1 1)"><path class="c" d="M407.558,590.6a6.7,6.7,0,1,1,6.729-6.7A6.723,6.723,0,0,1,407.558,590.6Zm0-12.438a5.736,5.736,0,1,0,5.759,5.736A5.755,5.755,0,0,0,407.558,578.157Z" transform="translate(-359.42 -520.191)"/><path class="c" d="M413.747,619.5H398.412a.485.485,0,0,1-.486-.483v-7.974a8.159,8.159,0,0,1,15.8-2.807,5.733,5.733,0,0,1,4.365,5.547A6.05,6.05,0,0,1,413.747,619.5Zm-14.849-.966h14.458s3.761-1.231,3.761-4.751a4.764,4.764,0,0,0-3.856-4.66.485.485,0,0,1-.367-.322,7.185,7.185,0,0,0-14,2.242Z" transform="translate(-357.926 -533.502)"/><path class="c" d="M419.846,617.762a.542.542,0,0,1-.077-.006c-6.365-1.006-7.2-7.451-7.2-7.516a.485.485,0,0,1,.964-.113c.028.235.762,5.785,6.391,6.675a.483.483,0,0,1-.075.96Z" transform="translate(-365.449 -536.997)"/><path class="c" d="M439.355,600.351a27.508,27.508,0,0,1-4.442-.405.483.483,0,0,1-.4-.456c-.011-.265-.228-6.51,1.749-8.6a2.178,2.178,0,0,1,1.572-.732h.066a2.075,2.075,0,0,1,1.741.81c.823,1.1.57,3.033.337,4.115a10.781,10.781,0,0,1,1.7-.151,3.1,3.1,0,0,1,2.711,1.011,2.576,2.576,0,0,1,.04,2.458C443.938,599.694,442.228,600.351,439.355,600.351Zm-3.879-1.291a26.687,26.687,0,0,0,3.879.325c2.362,0,3.845-.472,4.176-1.33a1.721,1.721,0,0,0,.066-1.564c-.338-.49-1.226-.592-1.911-.592a10.658,10.658,0,0,0-2.243.276.488.488,0,0,1-.469-.135.482.482,0,0,1-.114-.472c.241-.8.711-3.08.006-4.024a1.1,1.1,0,0,0-.962-.419,1.247,1.247,0,0,0-.932.43C435.658,592.941,435.447,597.123,435.476,599.059Z" transform="translate(-376.723 -526.893)"/></g></g></svg>