<svg xmlns="http://www.w3.org/2000/svg" width="38" height="36" viewBox="0 0 38 36"><defs><style>.a{fill:none;}.b{fill:#eff6ff;opacity:0.16;}.c{fill:#fff;}</style></defs><g transform="translate(-34 -55)"><circle class="a" cx="18" cy="18" r="18" transform="translate(34 55)"/><circle class="b" cx="10" cy="10" r="10" transform="translate(52 70)"/><g transform="translate(-295.491 8.565)"><path class="c" d="M341.945,76.787c.021.175.069.606.1,1.081a1.669,1.669,0,0,0,1.651,1.567h11.2a1.671,1.671,0,0,0,1.656-1.682V74.608c0-2.236.351-3.761,1.041-4.533A15.542,15.542,0,0,0,361.05,64a11.2,11.2,0,0,0-5.808-13.152,13.945,13.945,0,0,0-8.024-1.29,13.259,13.259,0,0,0-5.675,2.119A12.86,12.86,0,0,0,335.9,61.1a7.194,7.194,0,0,0,.11,1.647,4.455,4.455,0,0,1,.064,1.53l-.005.015c-.038.139-.325.966-2.086,2.734a1.718,1.718,0,0,0-.432,1.678,1.686,1.686,0,0,0,1.24,1.192c.209.049.4.093.577.132l.372.083v.06c.016,2.007.035,3.2.056,3.449a2.406,2.406,0,0,0,.9,1.738,4.088,4.088,0,0,0,3.244.551,3.757,3.757,0,0,1,.6-.053A1.264,1.264,0,0,1,341.945,76.787Zm-2.253-2.478a2.75,2.75,0,0,1-2.013-.23.782.782,0,0,1-.294-.6c-.013-.159-.033-1.163-.051-3.507a1.452,1.452,0,0,0-1.122-1.415l-.25-.057-.126-.028c-.2-.045-.432-.1-.687-.156l-.028-.006-.074-.081.054-.054a9.253,9.253,0,0,0,2.52-3.509,5.562,5.562,0,0,0-.032-2.151,6.215,6.215,0,0,1-.1-1.281,10.778,10.778,0,0,1,1.552-4.65,11.373,11.373,0,0,1,8.382-5.423,12.326,12.326,0,0,1,7.114,1.135,9.583,9.583,0,0,1,4.985,11.263,13.932,13.932,0,0,1-3.1,5.429c-.977,1.093-1.452,2.932-1.452,5.62v3.211h-11.33l0-.071c-.043-.64-.111-1.2-.112-1.2l-.015-.083a2.752,2.752,0,0,0-1.218-1.768A3.664,3.664,0,0,0,339.692,74.309Z"/><path class="c" d="M348.547,57.831a4.549,4.549,0,0,0-2.916-1.159,4.231,4.231,0,0,0-1.574.314,4.646,4.646,0,0,0-2.61,2.624,4.991,4.991,0,0,0,.137,3.991c1.385,2.9,4.234,5.331,6.381,6.863a1.11,1.11,0,0,0,1.274,0,19.074,19.074,0,0,0,6.369-6.869,4.985,4.985,0,0,0,.136-3.99,4.645,4.645,0,0,0-2.609-2.625,4.254,4.254,0,0,0-4.484.851l-.052.045Zm.867,1.531a2.715,2.715,0,0,1,3.1-.883,3.03,3.03,0,0,1,1.7,1.716,3.392,3.392,0,0,1-.094,2.712,16.826,16.826,0,0,1-5.469,5.975l-.048.035-.048-.035c-3.35-2.467-4.831-4.607-5.482-5.969a3.4,3.4,0,0,1-.093-2.713,3.023,3.023,0,0,1,1.7-1.715,2.591,2.591,0,0,1,.968-.194,2.962,2.962,0,0,1,2.148,1.075,1.1,1.1,0,0,0,1.622,0Z"/></g></g></svg>