<svg xmlns="http://www.w3.org/2000/svg" width="40" height="36" viewBox="0 0 40 36"><defs><style>.a{fill:none;}.b{fill:#eff6ff;}.c{fill:#323646;}</style></defs><g transform="translate(-34 -55)"><circle class="a" cx="18" cy="18" r="18" transform="translate(34 55)"/><circle class="b" cx="10" cy="10" r="10" transform="translate(54 70)"/><g transform="translate(-27 -103)"><path class="c" d="M12.135,14.149a1.278,1.278,0,1,0,0,1.808,1.279,1.279,0,0,0,0-1.808" transform="translate(64.332 162.459)"/><path class="c" d="M15.94,14.142a1.278,1.278,0,0,0-1.807,1.807,1.306,1.306,0,0,0,1.807,0,1.282,1.282,0,0,0,0-1.807" transform="translate(64.459 162.459)"/><path class="c" d="M19.744,14.134a1.278,1.278,0,1,0,0,1.808,1.271,1.271,0,0,0,0-1.808" transform="translate(64.585 162.459)"/><path class="c" d="M15.933,10.339a1.278,1.278,0,1,0,0,1.807,1.269,1.269,0,0,0,0-1.807" transform="translate(64.458 162.332)"/><path class="c" d="M14.14,19.754a1.306,1.306,0,0,0,1.808,0,1.278,1.278,0,1,0-1.808,0" transform="translate(64.459 162.586)"/><path class="c" d="M23.167,0h-.021a7.691,7.691,0,0,0-5.488,2.292L2.286,17.669A7.63,7.63,0,0,0,0,23.175a7.831,7.831,0,0,0,13.361,5.54L28.734,13.338A7.7,7.7,0,0,0,31,7.83,7.839,7.839,0,0,0,23.167,0M12.07,27.424a6.008,6.008,0,0,1-8.494-8.5L5.74,16.761l8.5,8.5Zm3.423-3.458-.149-.148L7.032,15.5l8.462-8.5,8.494,8.5ZM27.411,12.081l-2.165,2.166-8.5-8.5,2.165-2.166a6.016,6.016,0,0,1,8.5,0A5.9,5.9,0,0,1,29.182,7.8a5.988,5.988,0,0,1-1.771,4.283" transform="translate(64 162)"/></g></g></svg>