<svg xmlns="http://www.w3.org/2000/svg" width="39" height="36" viewBox="0 0 39 36"><defs><style>.a{fill:none;}.b{fill:#eff6ff;}.c{fill:#323646;}</style></defs><g transform="translate(-34 -55)"><circle class="a" cx="18" cy="18" r="18" transform="translate(34 55)"/><circle class="b" cx="10" cy="10" r="10" transform="translate(53 70)"/><g transform="translate(36 57)"><path class="c" d="M16.646,15.492a3.617,3.617,0,1,0,3.618,3.617,3.62,3.62,0,0,0-3.618-3.617m0,5.922a2.3,2.3,0,1,1,2.305-2.305,2.308,2.308,0,0,1-2.305,2.305"/><path class="c" d="M.657,22.673H8.773a2.958,2.958,0,0,0,0-5.916H.657a.657.657,0,1,0,0,1.313H8.773a1.646,1.646,0,0,1,0,3.291H.657a.656.656,0,1,0,0,1.312"/><path class="c" d="M21.179,32C27.146,32,32,24.823,32,16S27.146,0,21.179,0a.5.5,0,0,0-.135.028L21,.04l-.075,0A.654.654,0,0,0,20.757,0h-4.6a.414.414,0,0,1-.106,0h0C10.385,0,5.755,6.239,5.242,14.507a.656.656,0,1,0,1.309.082c.463-7.445,4.62-13.276,9.464-13.276,5.243,0,9.508,6.589,9.508,14.687s-4.265,14.688-9.508,14.688c-2.7,0-5.2-1.726-7.033-4.858L8.848,25.6h2.021l.045.064c1.406,2.028,3.216,3.142,5.1,3.142,4.344,0,7.747-5.625,7.748-12.807s-3.4-12.807-7.748-12.807c-3.922,0-7.228,4.838-7.692,11.253a.657.657,0,0,0,1.31.094c.405-5.626,3.209-10.034,6.382-10.034,3.488,0,6.435,5.263,6.435,11.494a16.928,16.928,0,0,1-1.982,8.212l-.043.077H.656a.656.656,0,1,0,0,1.312h6.7l.042.082C9.456,29.7,12.6,32,16.015,32c5.967,0,10.821-7.177,10.821-16,0-6.1-2.418-11.753-6.159-14.414L20.3,1.314l.468,0a.516.516,0,0,0,.134-.026l.041-.012.07,0a.673.673,0,0,0,.171.037c5.243,0,9.509,6.589,9.509,14.687s-4.266,14.688-9.509,14.688a.656.656,0,0,0,0,1.312M19.5,25.6l-.237.255a4.524,4.524,0,0,1-3.257,1.64,4.549,4.549,0,0,1-3.281-1.64l-.237-.255Z"/></g></g></svg>