<svg xmlns="http://www.w3.org/2000/svg" width="39" height="36" viewBox="0 0 39 36"><defs><style>.a{fill:none;}.b{fill:#eff6ff;opacity:0.16;}.c{fill:#fff;stroke:#fff;stroke-width:0.5px;}</style></defs><g transform="translate(-34 -55)"><circle class="a" cx="18" cy="18" r="18" transform="translate(34 55)"/><circle class="b" cx="10" cy="10" r="10" transform="translate(53 70)"/><g transform="translate(-206.91 -998.334)"><path class="c" d="M273.686,1072.241a.456.456,0,0,1-.3-.112c-12.971-11.2-25.021-.126-25.142-.013a.46.46,0,0,1-.655-.024.473.473,0,0,1,.024-.663c.126-.119,12.784-11.752,26.374-.013a.472.472,0,0,1,.052.661A.46.46,0,0,1,273.686,1072.241Z" transform="translate(-1.897 -3.631)"/><path class="c" d="M258.6,1087.345c-5.142,0-10.045-2.671-14.573-7.94a.471.471,0,0,1-.027-.578c.235-.334,5.851-8.169,14.6-8.169,5.136,0,10.246,2.733,15.188,8.123a.472.472,0,0,1,.02.612C273.546,1079.718,267.33,1087.345,258.6,1087.345Zm-13.624-8.268c4.273,4.866,8.855,7.332,13.624,7.332,7.329,0,12.97-5.876,14.227-7.3-4.67-4.988-9.454-7.517-14.224-7.517C251.248,1071.594,246.077,1077.662,244.972,1079.077Z" transform="translate(0 -6.011)"/><path class="c" d="M269.213,1087.582a6.3,6.3,0,1,1,6.262-6.3A6.289,6.289,0,0,1,269.213,1087.582Zm0-11.664a5.363,5.363,0,1,0,5.329,5.363A5.352,5.352,0,0,0,269.213,1075.918Z" transform="translate(-10.25 -8.348)"/><path class="c" d="M272.488,1087.96a3.426,3.426,0,0,1-2.929-5.163.465.465,0,0,1,.639-.165.471.471,0,0,1,.164.642,2.466,2.466,0,1,0,2.126-1.221,2.464,2.464,0,0,0-.694.1.464.464,0,0,1-.579-.317.469.469,0,0,1,.316-.582,3.369,3.369,0,0,1,.957-.138,3.422,3.422,0,0,1,0,6.845Z" transform="translate(-13.524 -11.605)"/><path class="c" d="M271.162,1083.781a1.562,1.562,0,1,1,1.552-1.561A1.558,1.558,0,0,1,271.162,1083.781Zm0-2.185a.623.623,0,1,0,.619.624A.622.622,0,0,0,271.162,1081.6Z" transform="translate(-13.803 -11.362)"/><path class="c" d="M253.875,1071.677a5.183,5.183,0,0,1-4.8-4.188.467.467,0,1,1,.906-.226,4.232,4.232,0,0,0,3.894,3.475h0a.469.469,0,0,1,0,.939Z" transform="translate(-2.749 -4.029)"/><path class="c" d="M269.348,1065.588a5.259,5.259,0,0,1-3.46-1.464,5.876,5.876,0,0,1-1.533-4.321.466.466,0,1,1,.933,0,4.98,4.98,0,0,0,1.258,3.656,4.336,4.336,0,0,0,2.8,1.19h0a.469.469,0,0,1,0,.938Z" transform="translate(-10.979 0)"/><path class="c" d="M283.253,1066.974a.46.46,0,0,1-.235-.065,5.289,5.289,0,0,1-1.973-6.108.467.467,0,1,1,.9.253,4.335,4.335,0,0,0,1.546,5.046.471.471,0,0,1,.166.642A.465.465,0,0,1,283.253,1066.974Z" transform="translate(-19.789 -0.597)"/></g></g></svg>