<svg xmlns="http://www.w3.org/2000/svg" width="40" height="36" viewBox="0 0 40 36"><defs><style>.a{fill:none;}.b{fill:#eff6ff;opacity:0.16;}.c{fill:#fff;}</style></defs><g transform="translate(-34 -55)"><circle class="a" cx="18" cy="18" r="18" transform="translate(34 55)"/><circle class="b" cx="10" cy="10" r="10" transform="translate(54 70)"/><path class="c" d="M21.752,1.419A13.944,13.944,0,0,0,13.729.13,13.261,13.261,0,0,0,8.055,2.248a12.859,12.859,0,0,0-5.641,9.421,7.209,7.209,0,0,0,.109,1.647,4.421,4.421,0,0,1,.065,1.53l-.005.014C2.545,15,2.258,15.826.5,17.594a1.719,1.719,0,0,0-.432,1.678A1.687,1.687,0,0,0,1.3,20.463c.209.05.4.094.578.133l.372.082v.06l0,.259c0,.5.008.948.013,1.34l1.952-.148c3.7-.3,7.945-1.82,8.276-3.06.239-.9.091-2.117-2-2.813-.753-.224-1.766.146-3.366.767a13.337,13.337,0,0,1-2.544.807c.6-1.114,3.645-3.612,4.506-3.548a3.485,3.485,0,0,1,1.34,1A4.465,4.465,0,0,0,14.3,17.075c1.348-.163,2.633-1.212,3.932-3.208a8.769,8.769,0,0,0,.541-1.045c.742-1.59,1.212-2.252,2.094-1.969a1.612,1.612,0,0,1,1.008,1.057,6.185,6.185,0,0,1-.37,4.363c-.449.748-2.005,2.108-2.491,1.953l-.006,0c.032-.063.068-.129.1-.183a1.576,1.576,0,0,0-.091-2.1,1.617,1.617,0,0,0-2.089-.044,3.993,3.993,0,0,0-1.466,4.218c.2.549,2.035,5.064,3.338,8.271H16.358c-.324-3.127-1.369-6.5-2.325-7.454-.623-.623-1.721-.309-3.909.316a28.917,28.917,0,0,1-5.795,1.216v0l-2.056.183c.012.855.024,1.383.036,1.538a2.4,2.4,0,0,0,.9,1.737,4.085,4.085,0,0,0,3.243.551,3.756,3.756,0,0,1,.6-.053,1.265,1.265,0,0,1,1.406.931c.02.174.069.606.1,1.081A1.669,1.669,0,0,0,10.209,30h11.2a1.671,1.671,0,0,0,1.656-1.682V25.174c0-2.235.351-3.76,1.04-4.531a15.543,15.543,0,0,0,3.457-6.075A11.2,11.2,0,0,0,21.752,1.419m-11.6,26.966v-.071c-.043-.64-.111-1.2-.112-1.2l-.015-.083a2.742,2.742,0,0,0-1.218-1.767,3.66,3.66,0,0,0-2.6-.389,2.746,2.746,0,0,1-2.013-.229.788.788,0,0,1-.294-.6c0-.013,0-.04,0-.064a27.651,27.651,0,0,0,6.64-1.293,15.384,15.384,0,0,1,2.521-.6h0a17.432,17.432,0,0,1,1.8,6.3ZM26.031,14.128a13.915,13.915,0,0,1-3.1,5.428c-.976,1.093-1.451,2.931-1.451,5.618v3.211H20.413c-1.3-3.2-3.343-8.237-3.553-8.8a2.494,2.494,0,0,1,.562-2.119,1.1,1.1,0,0,1,.5-.4c-.04.084-.094.182-.132.252a1.717,1.717,0,0,0-.27,1.5,1.514,1.514,0,0,0,1.036.83c1.79.592,3.985-2.194,4.239-2.618a7.6,7.6,0,0,0,.481-5.66,3.1,3.1,0,0,0-1.945-1.949c-2.286-.745-3.306,1.452-3.917,2.762a7.954,7.954,0,0,1-.44.86c-1.025,1.579-1.986,2.433-2.854,2.537-1.168.128-1.842-.532-2.628-1.309a4.6,4.6,0,0,0-2.03-1.39C7.866,12.49,4.611,15.339,3.6,16.7c-.228.308-.922,1.244-.451,2.029.734,1.225,2.577.507,4.524-.247a9.528,9.528,0,0,1,2.37-.735c1.016.338,1.077.64,1.027.891a15.959,15.959,0,0,1-7.225,2.077c0-.061,0-.112,0-.175a1.451,1.451,0,0,0-1.122-1.414l-.25-.058-.126-.027c-.2-.046-.431-.1-.686-.156l-.028-.006L1.561,18.8l.054-.055a9.266,9.266,0,0,0,2.52-3.508,5.576,5.576,0,0,0-.033-2.15A6.186,6.186,0,0,1,4,11.8,10.766,10.766,0,0,1,5.554,7.154a11.37,11.37,0,0,1,8.38-5.422,12.328,12.328,0,0,1,7.113,1.135,9.582,9.582,0,0,1,4.984,11.261" transform="translate(38 57.999)"/></g></svg>