<svg xmlns="http://www.w3.org/2000/svg" width="18" height="20" viewBox="0 0 18 20"><defs><style>.a{fill:#333747;}</style></defs><g transform="translate(-22.986 -21.976)"><path class="a" d="M40.986,33.26a9,9,0,0,1-18-.04,8.491,8.491,0,0,1,.422-2.624.935.935,0,0,1,1.147-.628.9.9,0,0,1,.648,1.113l-.01.033a6.86,6.86,0,0,0,1.078,6.276,7.272,7.272,0,0,0,9.976,1.424,6.789,6.789,0,0,0,1.467-9.684,7.2,7.2,0,0,0-5.722-2.791h-2.36l1.032,1a.884.884,0,0,1,.018,1.278.951.951,0,0,1-1.317.018l-.018-.018-2.622-2.545a.9.9,0,0,1-.116-.138c-.016-.023-.027-.049-.041-.073s-.031-.054-.045-.083a.75.75,0,0,1-.03-.1c-.008-.024-.017-.048-.023-.074a.871.871,0,0,1-.018-.177h0a.879.879,0,0,1,.018-.177c.006-.026.015-.049.023-.074A.536.536,0,0,1,26.568,25c.014-.024.025-.049.041-.072a.961.961,0,0,1,.116-.139l2.622-2.545a.951.951,0,0,1,1.317-.016.886.886,0,0,1,.017,1.279l-.017.016-1.032,1h2.36A8.876,8.876,0,0,1,40.986,33.26Z"/></g></svg>