<svg xmlns="http://www.w3.org/2000/svg" width="39" height="36" viewBox="0 0 39 36"><defs><style>.a,.c,.d{fill:none;}.b{fill:#eff6ff;}.c,.d{stroke:#323646;stroke-linecap:round;stroke-width:1.5px;}.c{stroke-linejoin:round;}</style></defs><g transform="translate(-688.15 -737.697)"><circle class="a" cx="18" cy="18" r="18" transform="translate(688.15 737.697)"/><circle class="b" cx="10" cy="10" r="10" transform="translate(707.15 752.697)"/><path class="c" d="M60.648,444.709a6.406,6.406,0,0,1,.481-9.155,6.671,6.671,0,0,1,9.312.472" transform="translate(633.2 311.234)"/><path class="c" d="M75.411,440.681l2.921-5.484,0,0a3.007,3.007,0,0,0,.37-1.426,3.113,3.113,0,0,0-3.138-3.087,3.7,3.7,0,0,0-3.474,2.186l-3.011,6.049a9.507,9.507,0,0,0-4.512,1.55,9.191,9.191,0,0,0-2.556,12.889c2.914,4.254,13,11.541,17.329,8.676s2.291-12.964-.623-17.218" transform="translate(634.244 309.014)"/><path class="d" d="M1.255-.008,3.068-.02A1.243,1.243,0,0,1,4.315,1.241l-.056,8.825A1.282,1.282,0,0,1,3,11.343l-1.813.012A1.243,1.243,0,0,1-.065,10.094l.056-8.825A1.282,1.282,0,0,1,1.255-.008Z" transform="matrix(0.421, 0.907, -0.907, 0.421, 716.303, 746.739)"/><path class="c" d="M62.4,445.724s5.041,2.54,7.922-1.2" transform="translate(635.693 318.61)"/></g></svg>