<svg xmlns="http://www.w3.org/2000/svg" width="40" height="36" viewBox="0 0 40 36"><defs><style>.a{fill:none;}.b{fill:#eff6ff;}.c{fill:#323646;}</style></defs><g transform="translate(-34 -55)"><circle class="a" cx="18" cy="18" r="18" transform="translate(34 55)"/><circle class="b" cx="10" cy="10" r="10" transform="translate(54 70)"/><g transform="translate(37 58)"><path class="c" d="M0,24.021a6.011,6.011,0,0,0,2.029,4.521A6.177,6.177,0,0,0,6.013,30h.015a6.146,6.146,0,0,0,1.12-.106,6.406,6.406,0,0,0,3.419-2.833,7.657,7.657,0,0,0,1.19-3.956V20.068a.811.811,0,1,0-1.621,0v3.041A5.994,5.994,0,0,1,9.2,26.258a4.785,4.785,0,0,1-2.45,2.107A4.369,4.369,0,0,1,1.679,24.77a4.291,4.291,0,0,1-.058-.8V21.082c0-4.169,3.176-11.353,6.426-11.353a2.115,2.115,0,0,1,2.089,2.086v.143a.811.811,0,1,0,1.621,0v-.139a3.758,3.758,0,0,0-3.712-3.71C3.4,8.109,0,16.64,0,21.082Z"/><path class="c" d="M22.978,29.889a5.2,5.2,0,0,0,1,.092,6.212,6.212,0,0,0,3.993-1.512A6.01,6.01,0,0,0,30,23.971v-2.89c0-4.441-3.4-12.972-8.047-12.972a3.753,3.753,0,0,0-3.709,3.712.811.811,0,0,0,1.621,0A2.109,2.109,0,0,1,21.95,9.73c3.253,0,6.429,7.182,6.429,11.351v2.94a4.421,4.421,0,0,1-5.15,4.355,4.842,4.842,0,0,1-2.437-2.128,5.982,5.982,0,0,1-.927-3.137V19.054a.811.811,0,1,0-1.621,0v4.055a7.65,7.65,0,0,0,1.184,3.946,6.412,6.412,0,0,0,3.55,2.834"/><path class="c" d="M6.526,21.568,9.43,17.7l.075-.015a7.9,7.9,0,0,0,5.317-3.953L15,13.4l.177.327a7.9,7.9,0,0,0,5.317,3.953l.075.015,2.9,3.872a.84.84,0,0,0,1.135.162.814.814,0,0,0,.163-1.136L22.7,17.838h1.42a.811.811,0,0,0,0-1.622h-2.19A6.308,6.308,0,0,1,15.81,9.849V.81a.811.811,0,0,0-1.621,0V9.852a6.308,6.308,0,0,1-6.106,6.364H5.878a.811.811,0,1,0,0,1.622H7.3L5.228,20.594a.815.815,0,0,0,.163,1.136.841.841,0,0,0,1.135-.162"/></g></g></svg>