<svg xmlns="http://www.w3.org/2000/svg" width="39" height="36" viewBox="0 0 39 36"><defs><style>.a{fill:none;}.b{fill:#eff6ff;}.c{fill:#333747;}</style></defs><g transform="translate(-33 -55)"><circle class="a" cx="18" cy="18" r="18" transform="translate(33 55)"/><circle class="b" cx="10" cy="10" r="10" transform="translate(52 70)"/><g transform="translate(-296.491 8.565)"><path class="c" d="M341.945,76.787c.021.175.069.606.1,1.081a1.669,1.669,0,0,0,1.651,1.567h11.2a1.671,1.671,0,0,0,1.656-1.682V74.608c0-2.236.351-3.761,1.041-4.533A15.542,15.542,0,0,0,361.05,64a11.2,11.2,0,0,0-5.808-13.152,13.945,13.945,0,0,0-8.024-1.29,13.259,13.259,0,0,0-5.675,2.119A12.86,12.86,0,0,0,335.9,61.1a7.194,7.194,0,0,0,.11,1.647,4.455,4.455,0,0,1,.064,1.53l-.005.015c-.038.139-.325.966-2.086,2.734a1.718,1.718,0,0,0-.432,1.678,1.686,1.686,0,0,0,1.24,1.192c.209.049.4.093.577.132l.372.083v.06c.016,2.007.035,3.2.056,3.449a2.406,2.406,0,0,0,.9,1.738,4.088,4.088,0,0,0,3.244.551,3.757,3.757,0,0,1,.6-.053A1.264,1.264,0,0,1,341.945,76.787Zm-2.253-2.478a2.75,2.75,0,0,1-2.013-.23.782.782,0,0,1-.294-.6c-.013-.159-.033-1.163-.051-3.507a1.452,1.452,0,0,0-1.122-1.415l-.25-.057-.126-.028c-.2-.045-.432-.1-.687-.156l-.028-.006-.074-.081.054-.054a9.253,9.253,0,0,0,2.52-3.509,5.562,5.562,0,0,0-.032-2.151,6.215,6.215,0,0,1-.1-1.281,10.778,10.778,0,0,1,1.552-4.65,11.373,11.373,0,0,1,8.382-5.423,12.326,12.326,0,0,1,7.114,1.135,9.583,9.583,0,0,1,4.985,11.263,13.932,13.932,0,0,1-3.1,5.429c-.977,1.093-1.452,2.932-1.452,5.62v3.211h-11.33l0-.071c-.043-.64-.111-1.2-.112-1.2l-.015-.083a2.752,2.752,0,0,0-1.218-1.768A3.664,3.664,0,0,0,339.692,74.309Z"/><path class="c" d="M13.923,6.061h0a1.478,1.478,0,0,0-1.4.474,1.019,1.019,0,0,1-.715.339h-1.7A.4.4,0,0,1,9.736,6.6a.418.418,0,0,1,.1-.474L11.064,4.91a.843.843,0,0,1,.715-.237,1.468,1.468,0,0,0,1.328-.643,1.444,1.444,0,0,0-1.09-2.235,1.518,1.518,0,0,0-1.192.406,1.358,1.358,0,0,0-.409,1.151.866.866,0,0,1-.272.711L8.919,5.282a.453.453,0,0,1-.477.068.4.4,0,0,1-.272-.372V3.285a1.01,1.01,0,0,1,.34-.711,1.486,1.486,0,0,0,.477-1.388A1.492,1.492,0,0,0,7.829.034,1.449,1.449,0,0,0,6.6.339a1.418,1.418,0,0,0,0,2.235.851.851,0,0,1,.306.677V4.944a.44.44,0,0,1-.272.406.423.423,0,0,1-.477-.1L4.936,4.03A.833.833,0,0,1,4.7,3.319,1.451,1.451,0,0,0,2.45,2,1.413,1.413,0,0,0,1.8,3.082a1.5,1.5,0,0,0,.409,1.185,1.374,1.374,0,0,0,1.158.406.876.876,0,0,1,.715.271L5.276,6.129a.418.418,0,0,1,.1.474A.4.4,0,0,1,5,6.874H3.3a.96.96,0,0,1-.715-.339,1.5,1.5,0,0,0-1.4-.474A1.5,1.5,0,0,0,.033,7.179,1.43,1.43,0,0,0,.34,8.4a1.436,1.436,0,0,0,2.247,0,.859.859,0,0,1,.681-.3h1.7a.39.39,0,0,1,.374.3.378.378,0,0,1-.1.44l-1.26,1.253a.843.843,0,0,1-.715.237,1.467,1.467,0,0,0-1.328.643,1.493,1.493,0,0,0,0,1.591,1.424,1.424,0,0,0,1.089.643A1.518,1.518,0,0,0,4.221,12.8a1.358,1.358,0,0,0,.409-1.151.866.866,0,0,1,.272-.711L6.127,9.718A.453.453,0,0,1,6.6,9.65a.4.4,0,0,1,.272.372v1.693a1.01,1.01,0,0,1-.34.711,1.461,1.461,0,0,0,.681,2.54A.947.947,0,0,0,7.523,15a1.289,1.289,0,0,0,.919-.339,1.418,1.418,0,0,0,0-2.235.851.851,0,0,1-.306-.677V10.057a.4.4,0,0,1,.272-.372.423.423,0,0,1,.477.1L10.11,11a.832.832,0,0,1,.238.711A1.455,1.455,0,0,0,11,13.036a1.388,1.388,0,0,0,1.6,0,1.414,1.414,0,0,0,.647-1.084,1.5,1.5,0,0,0-.409-1.185,1.444,1.444,0,0,0-1.158-.406.876.876,0,0,1-.715-.271L9.77,8.906a.418.418,0,0,1-.1-.474.4.4,0,0,1,.375-.271h1.7a.814.814,0,0,1,.681.3,1.435,1.435,0,0,0,2.247,0,1.552,1.552,0,0,0,.307-1.219,1.238,1.238,0,0,0-1.056-1.185" transform="translate(340.991 54.435)"/></g></g></svg>