<svg xmlns="http://www.w3.org/2000/svg" width="15" height="20" viewBox="0 0 15 20"><defs><style>.a{fill:#333747;}.b{fill:#fff;}</style></defs><path class="a" d="M156.147,49.578a7.507,7.507,0,0,0-7.217-7.47l-.094,0h-.1l-.1,0h-.1l-.1,0-.095,0a7.5,7.5,0,0,0-7.209,7.471c0,.087,0,.174.005.261s-.005.186-.005.279a8.441,8.441,0,0,0,.133,1.505c0,.03.02.118.051.268a8.267,8.267,0,0,0,.5,1.581,22.314,22.314,0,0,0,6.481,8.5.5.5,0,0,0,.666,0,22.346,22.346,0,0,0,6.481-8.5,8.1,8.1,0,0,0,.5-1.581c.031-.15.047-.238.051-.268a8.834,8.834,0,0,0,.133-1.505c0-.094,0-.187,0-.281S156.147,49.665,156.147,49.578Z" transform="translate(-141.147 -42.102)"/><path class="b" d="M151.888,49.66a3.5,3.5,0,0,1-6.981,0c-.007-.082-.009-.166-.009-.25a3.5,3.5,0,0,1,7,0C151.9,49.5,151.894,49.578,151.888,49.66Z" transform="translate(-140.897 -41.911)"/></svg>