<svg xmlns="http://www.w3.org/2000/svg" width="38" height="36" viewBox="0 0 38 36"><defs><style>.a,.c{fill:none;}.b{fill:#eff6ff;}.c{stroke:#323646;stroke-linecap:round;stroke-linejoin:round;stroke-width:1.4px;}</style></defs><g transform="translate(-7.871 -426.683)"><circle class="a" cx="18" cy="18" r="18" transform="translate(7.871 426.683)"/><circle class="b" cx="10" cy="10" r="10" transform="translate(25.871 441.683)"/><path class="c" d="M39.871,444.677a3.369,3.369,0,0,0-2.21-3.158,3.362,3.362,0,0,0-3.159-5.47,3.364,3.364,0,0,0-5.473-3.157,3.364,3.364,0,0,0-6.319,0,3.364,3.364,0,0,0-5.473,3.157,3.363,3.363,0,0,0-3.159,5.47,3.371,3.371,0,1,0,3.825,5.226,3.344,3.344,0,0,0,5.31,0,3.364,3.364,0,0,0,2.656,1.311,3.494,3.494,0,0,0,.674-.068,3.474,3.474,0,0,0-.223.307,3.379,3.379,0,0,0,5.844,3.395,3.332,3.332,0,0,0,1.212,1.22,3.372,3.372,0,0,0,4.283-5.075A3.368,3.368,0,0,0,39.871,444.677Z" transform="translate(0)"/><line class="c" y2="6.226" transform="translate(33.378 453.457)"/><line class="c" y2="6.226" transform="translate(30.869 453.457)"/><path class="c" d="M30.8,438.087a3.363,3.363,0,0,0-5.115,3.708" transform="translate(7.331 3.654)"/><path class="c" d="M23.617,432.117A3.362,3.362,0,0,0,24.89,438.3" transform="translate(5.435 0.767)"/><path class="c" d="M20.06,443.253a3.361,3.361,0,0,0-2.325-5.872" transform="translate(3.14 3.582)"/></g></svg>