<svg xmlns="http://www.w3.org/2000/svg" width="43" height="36" viewBox="0 0 43 36"><defs><style>.a{fill:none;}.b{fill:#eff6ff;}.c{fill:#333747;stroke:#333747;stroke-width:0.2px;}</style></defs><g transform="translate(-286.987 -256.475)"><circle class="a" cx="18" cy="18" r="18" transform="translate(286.987 256.475)"/><circle class="b" cx="10" cy="10" r="10" transform="translate(309.987 271.475)"/><g transform="translate(291.987 257.475)"><path class="c" d="M316.33,285.962h0a.643.643,0,0,1-.45-.183l-5-4.908a7.468,7.468,0,0,1,0-10.7,7.811,7.811,0,0,1,10.9,0,7.476,7.476,0,0,1,0,10.7l-5,4.908A.642.642,0,0,1,316.33,285.962Zm0-16.758a6.456,6.456,0,0,0-4.551,1.85,6.236,6.236,0,0,0,0,8.934l4.551,4.467,4.551-4.467a6.242,6.242,0,0,0,0-8.934A6.456,6.456,0,0,0,316.33,269.2Z" transform="translate(-303.33 -264.683)"/><path class="c" d="M304.987,291.475a12.9,12.9,0,0,1-13-12.76v-8.48a13,13,0,0,1,26,0v8.48A12.9,12.9,0,0,1,304.987,291.475Zm0-32.751a11.634,11.634,0,0,0-11.727,11.511v8.48a11.729,11.729,0,0,0,23.455,0v-8.48A11.634,11.634,0,0,0,304.987,258.724Z" transform="translate(-291.987 -257.475)"/><path class="c" d="M334.477,332.307l-.058,0a.628.628,0,0,1-.577-.679c.421-4.538-2.836-8.967-2.869-9.012a.617.617,0,0,1,.138-.873.644.644,0,0,1,.889.135c.146.2,3.573,4.86,3.11,9.862A.632.632,0,0,1,334.477,332.307Z" transform="translate(-318.486 -301.59)"/><path class="c" d="M322.536,290.117a1.9,1.9,0,0,1-1.341-.545.617.617,0,0,1,0-.883.644.644,0,0,1,.9,0,.648.648,0,0,0,.882,0,.644.644,0,0,1,.9,0,.616.616,0,0,1,0,.883A1.9,1.9,0,0,1,322.536,290.117Z" transform="translate(-311.776 -278.816)"/><path class="c" d="M336.618,290.117a1.9,1.9,0,0,1-1.341-.545.616.616,0,0,1,0-.883.645.645,0,0,1,.9,0,.648.648,0,0,0,.882,0,.644.644,0,0,1,.9,0,.617.617,0,0,1,0,.883A1.9,1.9,0,0,1,336.618,290.117Z" transform="translate(-321.378 -278.816)"/></g></g></svg>