<svg xmlns="http://www.w3.org/2000/svg" width="42" height="36" viewBox="0 0 42 36"><defs><style>.a{fill:none;}.b{fill:#eff6ff;}.c{fill:#333747;}</style></defs><g transform="translate(-33 -55)"><circle class="a" cx="18" cy="18" r="18" transform="translate(34 55)"/><circle class="b" cx="10" cy="10" r="10" transform="translate(55 70)"/><path class="c" d="M560.636,70.463A9.576,9.576,0,0,0,554.3,61.5l-.166-.059.143-.1a5.541,5.541,0,1,0-6.531,0l.143.1-.167.059a9.549,9.549,0,0,0-2.7,1.5l-.062.049-.058-.053a4.118,4.118,0,0,0-5.545,0l-.057.053L539.244,63a9.592,9.592,0,0,0-2.7-1.5l-.167-.059.143-.1a5.54,5.54,0,1,0-6.53,0l.143.1-.167.06a9.562,9.562,0,0,0-6.331,8.927l0,.041c0,1.1.634,2.737,3.652,4.232a27.971,27.971,0,0,0,8.538,2.312,50.3,50.3,0,0,0,12.621,0,27.991,27.991,0,0,0,8.536-2.312C560,73.2,560.636,71.571,560.636,70.463ZM546.956,56.9a4.059,4.059,0,1,1,4.058,4.024A4.047,4.047,0,0,1,546.956,56.9Zm-6.97,7.6a2.628,2.628,0,0,1,4.3,0,2.563,2.563,0,0,1,.467,1.48,2.617,2.617,0,0,1-5.235,0A2.56,2.56,0,0,1,539.986,64.5ZM529.2,56.9a4.059,4.059,0,1,1,4.058,4.024A4.047,4.047,0,0,1,529.2,56.9Zm5.987,18.431,0,.108-.105-.017a25.187,25.187,0,0,1-7.123-2.036c-1.823-.9-2.83-1.941-2.836-2.924a8.114,8.114,0,0,1,8.138-8.071,8.2,8.2,0,0,1,5.122,1.8l.056.045-.031.067a4.011,4.011,0,0,0-.365,1.681A4.057,4.057,0,0,0,539.388,69l.109.1-.135.058A6.91,6.91,0,0,0,535.184,75.334Zm12.425.3-.081.009a49.2,49.2,0,0,1-10.782,0l-.081-.009v-.163a5.473,5.473,0,0,1,10.945,0Zm1.587-.213-.105.017,0-.108a6.913,6.913,0,0,0-4.18-6.182l-.134-.058.109-.1a4.059,4.059,0,0,0,1.351-3.013,3.989,3.989,0,0,0-.366-1.681l-.03-.067.057-.045a8.153,8.153,0,0,1,13.26,6.272c0,.981-1.006,2.02-2.835,2.925A25.2,25.2,0,0,1,549.2,75.425Z" transform="translate(-490.636 8.59)"/></g></svg>