<svg xmlns="http://www.w3.org/2000/svg" width="22" height="22.001" viewBox="0 0 22 22.001"><defs><style>.a{fill:#333747;}</style></defs><g transform="translate(0 0.001)"><path class="a" d="M16.4,4.473a.4.4,0,0,1,.016-.062.161.161,0,0,0,.007-.025l.012-.038A.446.446,0,0,0,16.45,4.2v-.22s0,0-.007-.017a.279.279,0,0,1-.018-.06.913.913,0,0,0-.217-.364L12.9.265a.976.976,0,0,0-1.338,0,.951.951,0,0,0,0,1.322l1.7,1.687h-5.5A7.737,7.737,0,0,0,0,10.964a7.577,7.577,0,0,0,2.264,5.423A.94.94,0,0,0,3.6,15.066,5.692,5.692,0,0,1,1.87,10.939a5.876,5.876,0,0,1,5.9-5.84h5.475l-1.7,1.687a.941.941,0,0,0,1.339,1.322l3.305-3.273a.874.874,0,0,0,.218-.362"/><path class="a" d="M14.231,18.727A7.739,7.739,0,0,0,22,11.037a7.564,7.564,0,0,0-2.241-5.423.975.975,0,0,0-1.338,0,.911.911,0,0,0,0,1.322,5.683,5.683,0,0,1,1.732,4.126,5.876,5.876,0,0,1-5.9,5.84h-5.5l1.7-1.687a.936.936,0,0,0,.284-.684.878.878,0,0,0-.282-.636.976.976,0,0,0-1.34,0L5.816,17.166a.874.874,0,0,0-.218.362.332.332,0,0,1-.016.062l-.008.025-.01.037a.459.459,0,0,0-.014.15.449.449,0,0,0,.019.164L5.575,18l.007.016a.377.377,0,0,1,.016.06.923.923,0,0,0,.218.365l3.282,3.3A.984.984,0,0,0,9.766,22a.955.955,0,0,0,.67-.264.938.938,0,0,0,.284-.684.882.882,0,0,0-.282-.636L8.731,18.727Z"/></g></svg>