<svg xmlns="http://www.w3.org/2000/svg" width="39" height="36" viewBox="0 0 39 36"><defs><style>.a{fill:none;}.b{fill:#eff6ff;}.c{fill:#333747;stroke:#333747;stroke-width:0.5px;}</style></defs><g transform="translate(-34 -55)"><circle class="a" cx="18" cy="18" r="18" transform="translate(34 55)"/><circle class="b" cx="10" cy="10" r="10" transform="translate(53 70)"/><g transform="translate(37 57)"><path class="c" d="M560.426,1084.272H560.3a2.445,2.445,0,0,1-.843-.143l-.038-.013a4.438,4.438,0,0,1-.983-.424c-.131-.078-.293-.167-.481-.269-2.047-1.109-8.278-4.485-9.889-15.676a14.055,14.055,0,0,1,3.02-10.932,11.744,11.744,0,0,1,18.555,0,14.054,14.054,0,0,1,3.02,10.932c-1.611,11.191-7.842,14.567-9.89,15.677-.191.1-.351.191-.479.268a4.554,4.554,0,0,1-1,.43l-.027.01A2.428,2.428,0,0,1,560.426,1084.272Zm-.071-31.078a11.264,11.264,0,0,0-8.586,4.218,13.112,13.112,0,0,0-2.817,10.2c1.544,10.728,7.472,13.94,9.421,15,.2.11.375.2.513.287a3.628,3.628,0,0,0,.8.34l.065.021a1.589,1.589,0,0,0,.551.093h.127a1.577,1.577,0,0,0,.543-.09l.054-.019a3.724,3.724,0,0,0,.815-.345c.138-.083.309-.177.506-.284,1.957-1.06,7.885-4.272,9.429-15a13.111,13.111,0,0,0-2.817-10.2A11.27,11.27,0,0,0,560.355,1053.194Z" transform="translate(-545.236 -1052.272)"/><path class="c" d="M596.182,1092.791a.448.448,0,0,1-.418-.293.464.464,0,0,1,.254-.6c2.373-.956,5.345-4.081,4.6-6.8a1.3,1.3,0,0,0-.538-.833,1.559,1.559,0,0,0-1.2-.015.448.448,0,0,1-.555-.317.464.464,0,0,1,.31-.57,2.382,2.382,0,0,1,1.887.1,2.169,2.169,0,0,1,.965,1.388c.894,3.257-2.388,6.8-5.135,7.908A.439.439,0,0,1,596.182,1092.791Z" transform="translate(-571.632 -1068.945)"/><path class="c" d="M547.62,1092.789a.446.446,0,0,1-.164-.032c-2.434-.98-6.308-4.462-5.363-7.908a2.134,2.134,0,0,1,.991-1.326,2.816,2.816,0,0,1,2.195-.16.463.463,0,0,1,.31.57.448.448,0,0,1-.555.318,1.977,1.977,0,0,0-1.511.078,1.213,1.213,0,0,0-.563.771c-.733,2.668,2.369,5.809,4.825,6.8a.465.465,0,0,1,.254.6A.448.448,0,0,1,547.62,1092.789Z" transform="translate(-541.948 -1068.943)"/><path class="c" d="M558.568,1091.059a4.8,4.8,0,0,1-2.767-.914.469.469,0,0,1-.094-.645.442.442,0,0,1,.628-.1,3.53,3.53,0,0,0,4.248.008.441.441,0,0,1,.63.08.469.469,0,0,1-.078.647A4.033,4.033,0,0,1,558.568,1091.059Z" transform="translate(-549.51 -1072.227)"/><path class="c" d="M585.278,1091.059a4.034,4.034,0,0,1-2.568-.921.469.469,0,0,1-.079-.647.442.442,0,0,1,.63-.08,3.57,3.57,0,0,0,4.248-.007.441.441,0,0,1,.628.1.469.469,0,0,1-.094.645A4.8,4.8,0,0,1,585.278,1091.059Z" transform="translate(-564.331 -1072.227)"/><path class="c" d="M575.134,1091.11a.455.455,0,0,1-.449-.462v-3.022a.45.45,0,1,1,.9,0v3.022A.455.455,0,0,1,575.134,1091.11Z" transform="translate(-560.008 -1071.069)"/><path class="c" d="M553.135,1080.045a.452.452,0,0,1-.432-.338.462.462,0,0,1,.313-.568,15.006,15.006,0,0,1,6.741-.517.462.462,0,0,1,.347.546.449.449,0,0,1-.531.357,14.448,14.448,0,0,0-6.316.5A.441.441,0,0,1,553.135,1080.045Z" transform="translate(-547.875 -1066.377)"/><path class="c" d="M588.581,1080.045a.431.431,0,0,1-.121-.017,14.336,14.336,0,0,0-6.315-.5.449.449,0,0,1-.532-.356.462.462,0,0,1,.347-.547,15.012,15.012,0,0,1,6.741.517.463.463,0,0,1,.313.567A.452.452,0,0,1,588.581,1080.045Z" transform="translate(-563.837 -1066.378)"/></g></g></svg>