<svg xmlns="http://www.w3.org/2000/svg" width="60.002" height="69.999" viewBox="0 0 60.002 69.999"><defs><style>.a{fill:#3bbdf6;}.b{fill:#888;}</style></defs><g transform="translate(0 0)"><path class="a" d="M27,9A15,15,0,1,0,42,24,15,15,0,0,0,27,9m-1.5,7.062A1.552,1.552,0,0,1,27,14.5a1.534,1.534,0,0,1,1.5,1.562V25.94A1.517,1.517,0,0,1,27,27.5a1.534,1.534,0,0,1-1.5-1.563Zm2.913,17.352A1.984,1.984,0,0,1,27,34a2,2,0,0,1-2-2,1.972,1.972,0,0,1,.586-1.414A2.077,2.077,0,0,1,27,30a1.988,1.988,0,0,1,1.413.586l.014.013A1.934,1.934,0,0,1,29,32a2.075,2.075,0,0,1-.587,1.414"/><path class="b" d="M15.2,46.8H38.8a1.151,1.151,0,0,0,.1-2.3H15.2a1.151,1.151,0,0,0-.1,2.3.769.769,0,0,0,.1,0"/><path class="b" d="M15.2,54.8H38.8a1.151,1.151,0,0,0,.1-2.3H15.2a1.151,1.151,0,0,0-.1,2.3.769.769,0,0,0,.1,0"/><path class="b" d="M52.8,0H1.2A1.183,1.183,0,0,0,0,1.165v61.67A1.183,1.183,0,0,0,1.2,64H52.8A1.184,1.184,0,0,0,54,62.835V1.165A1.185,1.185,0,0,0,52.8,0M51.6,61.67H2.4V2.335H51.6Z"/><path class="b" d="M58.8,6a1.185,1.185,0,0,0-1.2,1.165v60.5H7.2a1.166,1.166,0,0,0-.1,2.33H58.8A1.183,1.183,0,0,0,60,68.833V7.163A1.184,1.184,0,0,0,58.8,6"/></g></svg>