<svg xmlns="http://www.w3.org/2000/svg" width="40" height="36" viewBox="0 0 40 36"><defs><style>.a{fill:none;}.b{fill:#eff6ff;opacity:0.16;}.c{fill:#fff;}</style></defs><g transform="translate(-34 -55)"><circle class="a" cx="18" cy="18" r="18" transform="translate(34 55)"/><circle class="b" cx="10" cy="10" r="10" transform="translate(54 70)"/><g transform="translate(-35.5 17)"><path class="c" d="M.954,4.488H.845A.847.847,0,0,0,0,5.335V20.377a9.83,9.83,0,0,0,4.224,8.075l7.792,5.4a.858.858,0,0,0,.965,0l7.792-5.4A9.826,9.826,0,0,0,25,20.377V5.335a.849.849,0,0,0-.847-.847h-.108A16.2,16.2,0,0,1,13.682.731L13.041.2a.841.841,0,0,0-1.082,0l-.643.535A16.2,16.2,0,0,1,.954,4.488M12.4,2.034l.1-.084.1.084a17.989,17.989,0,0,0,10.66,4.131l.048,0v14.21a8.126,8.126,0,0,1-3.5,6.681L12.5,32.125l-.029-.02L5.189,27.058a8.128,8.128,0,0,1-3.5-6.681V6.167l.048,0A17.977,17.977,0,0,0,12.4,2.034" transform="translate(75 39)"/><path class="c" d="M9.81,25.926h5.378a.848.848,0,0,0,.847-.847V20.542h4.532a.847.847,0,0,0,.846-.847V14.31a.847.847,0,0,0-.846-.848H16.035V8.925a.848.848,0,0,0-.847-.847H9.81a.847.847,0,0,0-.846.847v4.537H4.431a.847.847,0,0,0-.845.848v5.385a.847.847,0,0,0,.845.847H8.964v4.537a.847.847,0,0,0,.846.847M5.278,18.847v-3.69H9.81a.847.847,0,0,0,.846-.847V9.773h3.686V14.31a.847.847,0,0,0,.846.847H19.72v3.69H15.188a.848.848,0,0,0-.846.848v4.537H10.656V19.695a.848.848,0,0,0-.846-.848Z" transform="translate(75 39)"/></g></g></svg>