<svg xmlns="http://www.w3.org/2000/svg" width="26" height="26" viewBox="0 0 26 26"><defs><style>.a{fill:#333747;}.b{fill:#fff;}</style></defs><circle class="a" cx="13" cy="13" r="13"/><path class="b" d="M109.8,189.282a9.723,9.723,0,0,0-2.614,0,9.023,9.023,0,0,0-2.275.666A7.8,7.8,0,0,0,103.265,191a6.515,6.515,0,0,0-.941,1.027,5.552,5.552,0,0,0-.561,1.047,5.119,5.119,0,0,0-.245.988,5.04,5.04,0,0,0,0,.974,5.1,5.1,0,0,0,.242.983,5.6,5.6,0,0,0,.56,1.049,6.556,6.556,0,0,0,.948,1.036,7.514,7.514,0,0,0,.8.586.757.757,0,0,1,.338.65,5.333,5.333,0,0,1-.2,1.077c-.078.262-.17.525-.275.782a7.9,7.9,0,0,0,1.5-.487,6.456,6.456,0,0,0,.672-.371c.118-.073.234-.153.346-.237.058-.045.116-.089.174-.136.029-.024.056-.051.085-.072a.6.6,0,0,1,.462-.085l-.085-.013a9.8,9.8,0,0,0,2.714.013,9.02,9.02,0,0,0,2.272-.665,7.8,7.8,0,0,0,1.648-1.048,6.519,6.519,0,0,0,.941-1.027,5.557,5.557,0,0,0,.561-1.047,5.117,5.117,0,0,0,.246-1q.024-.239.024-.478c0-.158-.008-.316-.023-.472a5.069,5.069,0,0,0-.246-1,5.553,5.553,0,0,0-.562-1.05,6.451,6.451,0,0,0-.941-1.027,7.69,7.69,0,0,0-1.636-1.042A9.059,9.059,0,0,0,109.8,189.282Z" transform="translate(-95.495 -182.194)"/></svg>