<svg xmlns="http://www.w3.org/2000/svg" width="26" height="26" viewBox="0 0 26 26"><defs><style>.a{fill:#333747;}.b{fill:#fff;}</style></defs><circle class="a" cx="13" cy="13" r="13"/><path class="b" d="M14.111,10.984v1.806A1.205,1.205,0,0,1,12.91,14c-.038,0-.075,0-.113,0a11.954,11.954,0,0,1-5.207-1.849,11.752,11.752,0,0,1-3.62-3.613A11.9,11.9,0,0,1,2.117,3.313,1.206,1.206,0,0,1,3.21,2c.036,0,.072,0,.107,0h1.81A1.206,1.206,0,0,1,6.334,3.036a7.715,7.715,0,0,0,.422,1.692A1.2,1.2,0,0,1,6.485,6l-.766.765a9.644,9.644,0,0,0,3.62,3.613l.766-.765a1.208,1.208,0,0,1,1.273-.271,7.755,7.755,0,0,0,1.7.422A1.205,1.205,0,0,1,14.111,10.984Z" transform="translate(4.888 5)"/></svg>