<svg xmlns="http://www.w3.org/2000/svg" width="18" height="19" viewBox="0 0 18 19"><defs><style>.a{fill:#888;}</style></defs><g transform="translate(-22.25 -1.982)"><rect class="a" width="2.2" height="2.2" transform="translate(25.75 10.781)"/><rect class="a" width="2.2" height="2.2" transform="translate(30.15 10.781)"/><rect class="a" width="2.2" height="2.2" transform="translate(34.55 10.781)"/><rect class="a" width="2.2" height="2.2" transform="translate(25.75 14.982)"/><rect class="a" width="2.2" height="2.2" transform="translate(30.15 14.982)"/><rect class="a" width="2.2" height="2.2" transform="translate(34.55 14.982)"/></g><path class="a" d="M38.25,3.982H36.5v-2h-2v2H28v-2H26v2H24.25a2.006,2.006,0,0,0-2,2v13a2.006,2.006,0,0,0,2,2h14a2.006,2.006,0,0,0,2-2v-13a2.006,2.006,0,0,0-2-2Zm.5,15.5h-15v-11h15Z" transform="translate(-22.25 -1.982)"/></svg>