<svg xmlns="http://www.w3.org/2000/svg" width="18" height="16" viewBox="0 0 18 16"><defs><style>.a{fill:#666;}</style></defs><path class="a" d="M87.154,78.992l-2.133-2.1-6.207-6.052a.433.433,0,0,0-.3-.123h-.124a.431.431,0,0,0-.293.114L71.513,76.9,69.378,79a.417.417,0,0,0,.052.586.432.432,0,0,0,.569,0l1.389-1.372v8.08a.427.427,0,0,0,.43.424h4.761a.427.427,0,0,0,.43-.424V81.561h2.516V86.29a.427.427,0,0,0,.43.424h4.761a.427.427,0,0,0,.43-.424V78.207l1.4,1.386a.446.446,0,0,0,.608,0A.421.421,0,0,0,87.154,78.992Z" transform="translate(-69.281 -70.714)"/></svg>