<svg xmlns="http://www.w3.org/2000/svg" xmlns:xlink="http://www.w3.org/1999/xlink" width="72" height="72" viewBox="0 0 72 72"><defs><style>.a{fill:#eff6ff;}.b{fill:#fff;}.c{clip-path:url(#a);}.d{fill:#423963;}.e{fill:#f7ad9a;}.f{fill:#1d0000;}.g{fill:#ffcbbb;}</style><clipPath id="a"><circle class="a" cx="36" cy="36" r="36"/></clipPath></defs><g transform="translate(-791.862 -373)"><circle class="b" cx="36" cy="36" r="36" transform="translate(791.862 373)"/><g class="c" transform="translate(791.862 373)"><g transform="translate(-36 9.473)"><path class="d" d="M-74.685,846.369l26.795,9.3s11.257-11.462,17.3-18.853a43.116,43.116,0,0,0,2.906-3.875c3.9-6.132,23.477-44.242,25.476-50.843,0,0-9.324-7.056-16.344-9.116a12.4,12.4,0,0,0-3.2-.558s-24.558,43.328-30.956,50.01S-74.685,846.369-74.685,846.369Z" transform="translate(74.685 -738.547)"/><path class="e" d="M171.529,667.606s-3.465-8.385-3.74-10.5-.075-6.8-.242-8.481,1.546-2.8,2.461-5.418,3.032.04,2.732,2.061a11.549,11.549,0,0,1-1.491,4.844l1.613,4.1s6.266-12.7,7.31-13.649,4.838-5.706,6.279-4.6-1.124,4.668-1.124,4.668,3.588-5.937,5.228-4.66-.125,4-.125,4,1.517-2.306,2.587-.721-1.514,4.33-1.514,4.33l-2.6,5.978s4.382-7.887,6.09-6.384-3.091,8.841-3.091,8.841L185.156,669Z" transform="translate(-107.258 -635.79)"/><path class="f" d="M114.549,774.673a24.62,24.62,0,0,0,1.578,4.825c.969,1.562,6.155,10.31,6.155,10.31s-.6,4.167-1.764,8.739c-3.252-.724-5.517-1.016-5.517-1.016s-7.508,26.553-12.491,40.977a43.091,43.091,0,0,0,2.906-3.875c3.9-6.132,23.477-44.242,25.476-50.843C130.893,783.789,121.57,776.733,114.549,774.673Z" transform="translate(-58.415 -740.239)"/><path class="g" d="M177.021,703.26l3.536-19.409L179.415,669.7s-.1-1.452-1.134-1.405-1.281.567-1.442,1.995-1.119,8.042-1.119,8.042l-.8-15.52s-.138-1.734-1.656-1.654-1.453,2.8-1.453,2.8.768-4.521-.906-4.765-2.245,1.581-2.522,4.115a1.524,1.524,0,0,0-1.251-1.648c-1.391-.28-2.074.9-3.006,5.5s-1.569,15.911-3.37,17.579l-2.72-3.642s-.591-5.668-3.276-5.925-.406,3.1-1.507,6.828c0,0,2.249,7.12,3.361,8.585s7.107,9.682,7.107,9.682-.485,10.487-2.793,16.7l13.656,4.739Z" transform="translate(-96.528 -653.371)"/><path class="f" d="M183.4,712.066s2.3-10.06,3.185-16.555C186.588,695.511,186.646,711.489,183.4,712.066Z" transform="translate(-119.176 -680.704)"/><path class="f" d="M211.518,675.853l-.84,15.776S212.378,685.576,211.518,675.853Z" transform="translate(-139.664 -665.92)"/><path class="f" d="M226.614,675.479s1.45,10.076-.46,14.456Z" transform="translate(-151.289 -665.639)"/><path class="f" d="M243.819,705.172s-1.623-11.217,2.237-9.658C246.057,695.514,243.944,695.321,243.819,705.172Z" transform="translate(-164.304 -680.595)"/><path class="f" d="M240.319,673.85l1.125,15.141S242.493,677.589,240.319,673.85Z" transform="translate(-161.929 -664.413)"/><path class="b" d="M178.468,851.9l.378-3.172s18.024-.359,21.512,9.344C200.358,858.072,193.333,853.842,178.468,851.9Z" transform="translate(-115.47 -795.931)"/><path class="d" d="M50.423,858.7s17.583.609,25.916,7.277c0,0-4.149,45.467-9.787,58.5s-22.71,41.905-22.71,41.905L11.087,955.01s25.382-37.9,28.6-46.477S50.423,858.7,50.423,858.7Z" transform="translate(10.258 -803.429)"/></g></g></g></svg>