<svg xmlns="http://www.w3.org/2000/svg" width="137" height="48" viewBox="0 0 137 48"><defs><style>.a{fill:#231f45;}.b{fill:#fff;}.c{fill:#0081cc;}</style></defs><g transform="translate(-170.433 -389.809)"><path class="a" d="M278.032,455.728l5.435-3h0Z" transform="translate(-45.209 -26.92)"/><path class="b" d="M268.66,452.729l5.434,3-5.434-3Z" transform="translate(-41.271 -26.92)"/><path class="b" d="M268.658,452.728h0Z" transform="translate(-41.27 -26.92)"/><path class="c" d="M252.908,389.809l-5.435,3-5.434,3-5.435,3-5.435,3v24h0l5.434,3v-18h0v-6h0l5.435-3v24h0v6h0l5.434,3v-24h0v-6h0v-6l5.435-3v30h0v6h0v6l5.434-3v-42Z" transform="translate(-25.519 0)"/><path class="a" d="M278.032,395.051v30l5.435-3v-24Z" transform="translate(-45.209 -2.243)"/><path class="a" d="M287.4,452.728h0Z" transform="translate(-49.146 -26.92)"/><path class="a" d="M287.4,452.728h0Z" transform="translate(-49.147 -26.92)"/><path class="a" d="M288.9,405.54v6h0v6h0v.684h0v11.315l-5.434,3h0l-5.435,3v6l5.434-3h0l5.434-3h0l.965-.533,1.443-.8h0l3.026-1.669h0v-24Z" transform="translate(-45.209 -6.73)"/><path class="c" d="M185.569,421.2h-.055l-4.79,14.971h-2.491L173.663,421.2h-.054v14.971h-3.175V418.218h5.228l3.942,13.4h.055l4.023-13.4h5.064v17.954h-3.175Z" transform="translate(0 -12.155)"/><path class="c" d="M213.353,418.218v12.707a5.691,5.691,0,0,1-1.341,4.141,4.59,4.59,0,0,1-3.421,1.364,7.628,7.628,0,0,1-1.328-.129,6.5,6.5,0,0,1-1.19-.308v-2.829h.027a7.234,7.234,0,0,0,.766.244,3.36,3.36,0,0,0,.821.09,1.889,1.889,0,0,0,1.67-.708,3.244,3.244,0,0,0,.493-1.89V418.218Z" transform="translate(-14.974 -12.155)"/><path class="a" d="M320.849,426.744l-4.185-12.051h1.788l2,5.936c.552,1.627,1.027,3.094,1.37,4.506h.038c.361-1.394.894-2.914,1.464-4.487l2.169-5.955h1.768l-4.584,12.051Z" transform="translate(-61.441 -10.646)"/><path class="a" d="M338.849,415.645a1.04,1.04,0,0,1-2.074,0,.99.99,0,0,1,1.047-.983A.964.964,0,0,1,338.849,415.645Zm-1.864,11.086v-8.654h1.673v8.654Z" transform="translate(-69.89 -10.633)"/><path class="a" d="M345.185,423.183c0-1.02-.019-1.9-.077-2.7h1.465l.056,1.7h.076a2.738,2.738,0,0,1,2.549-1.9,1.912,1.912,0,0,1,.475.054v1.484a2.654,2.654,0,0,0-.571-.054,2.292,2.292,0,0,0-2.245,2.02,4.144,4.144,0,0,0-.076.733v4.614h-1.655Z" transform="translate(-73.392 -13.04)"/><path class="a" d="M358.438,416.286v2.486h2.4v1.2h-2.4v4.667c0,1.073.323,1.68,1.255,1.68a3.955,3.955,0,0,0,.971-.107l.076,1.18a4.33,4.33,0,0,1-1.484.215,2.4,2.4,0,0,1-1.807-.661,3.07,3.07,0,0,1-.647-2.253v-4.72h-1.427v-1.2H356.8V416.7Z" transform="translate(-77.705 -11.328)"/><path class="a" d="M376.128,426.924c0,.894.019,1.681.076,2.36H374.72l-.1-1.413h-.038a3.5,3.5,0,0,1-3.044,1.61c-1.446,0-3.177-.751-3.177-3.791v-5.06h1.674v4.792c0,1.645.533,2.753,2.054,2.753a2.417,2.417,0,0,0,2.207-1.431,2.164,2.164,0,0,0,.152-.8v-5.31h1.674Z" transform="translate(-83.164 -13.187)"/><path class="a" d="M391.543,429.137l-.133-1.091h-.057a3.506,3.506,0,0,1-2.816,1.287,2.552,2.552,0,0,1-2.815-2.486c0-2.092,1.978-3.236,5.535-3.218v-.179a1.83,1.83,0,0,0-2.092-2,4.815,4.815,0,0,0-2.4.644l-.38-1.037a5.992,5.992,0,0,1,3.025-.769c2.815,0,3.5,1.806,3.5,3.54v3.236a11.422,11.422,0,0,0,.152,2.074Zm-.247-4.417c-1.826-.036-3.9.268-3.9,1.949a1.44,1.44,0,0,0,1.579,1.5,2.284,2.284,0,0,0,2.225-1.448,1.562,1.562,0,0,0,.095-.5Z" transform="translate(-90.456 -13.04)"/><path class="a" d="M403.207,413.567h1.674v12.7h-1.674Z" transform="translate(-97.802 -10.165)"/><path class="a" d="M324.354,447.774a4.155,4.155,0,0,1-1.621.273,2.787,2.787,0,0,1-3.036-2.92,2.968,2.968,0,0,1,3.208-3.032,3.464,3.464,0,0,1,1.458.257l-.191.608a3.05,3.05,0,0,0-1.239-.239,2.211,2.211,0,0,0-2.4,2.381,2.162,2.162,0,0,0,2.361,2.321,3.337,3.337,0,0,0,1.293-.24Z" transform="translate(-62.715 -22.37)"/><path class="a" d="M332.62,449.179l-.064-.523h-.028a1.678,1.678,0,0,1-1.349.617,1.223,1.223,0,0,1-1.348-1.191c0-1,.947-1.55,2.652-1.542v-.085a.877.877,0,0,0-1-.959,2.3,2.3,0,0,0-1.149.308l-.182-.5a2.869,2.869,0,0,1,1.449-.368,1.508,1.508,0,0,1,1.676,1.7v1.55a5.518,5.518,0,0,0,.073.994Zm-.12-2.116c-.874-.017-1.867.129-1.867.934a.689.689,0,0,0,.757.719,1.1,1.1,0,0,0,1.066-.693.752.752,0,0,0,.045-.24Z" transform="translate(-66.973 -23.588)"/><path class="a" d="M339.121,446.327c0-.488-.009-.908-.037-1.294h.7l.027.814h.036a1.312,1.312,0,0,1,1.222-.907.929.929,0,0,1,.228.025v.711a1.248,1.248,0,0,0-.274-.026,1.1,1.1,0,0,0-1.075.968,1.958,1.958,0,0,0-.037.351v2.21h-.793Z" transform="translate(-70.86 -23.588)"/><path class="a" d="M345.49,447.244A1.373,1.373,0,0,0,347,448.682a3.069,3.069,0,0,0,1.222-.214l.136.54a3.766,3.766,0,0,1-1.467.257,1.985,1.985,0,0,1-2.168-2.089,2.06,2.06,0,0,1,2.068-2.235,1.792,1.792,0,0,1,1.822,1.952,2.782,2.782,0,0,1-.027.351Zm2.351-.54a1.094,1.094,0,0,0-1.112-1.224A1.283,1.283,0,0,0,345.5,446.7Z" transform="translate(-73.231 -23.588)"/><path class="a" d="M362.845,447.774a4.165,4.165,0,0,1-1.622.273,2.786,2.786,0,0,1-3.035-2.92A2.968,2.968,0,0,1,361.4,442.1a3.469,3.469,0,0,1,1.458.257l-.191.608a3.051,3.051,0,0,0-1.239-.239,2.211,2.211,0,0,0-2.4,2.381,2.161,2.161,0,0,0,2.36,2.321,3.341,3.341,0,0,0,1.294-.24Z" transform="translate(-78.887 -22.37)"/><path class="a" d="M369.072,447.244a1.374,1.374,0,0,0,1.512,1.438,3.067,3.067,0,0,0,1.222-.214l.136.54a3.763,3.763,0,0,1-1.466.257,1.986,1.986,0,0,1-2.169-2.089,2.06,2.06,0,0,1,2.068-2.235,1.793,1.793,0,0,1,1.823,1.952,2.779,2.779,0,0,1-.027.351Zm2.351-.54a1.094,1.094,0,0,0-1.111-1.224,1.283,1.283,0,0,0-1.231,1.224Z" transform="translate(-83.138 -23.588)"/><path class="a" d="M377.847,446.156c0-.428-.01-.78-.037-1.123h.711l.045.685h.018a1.64,1.64,0,0,1,1.459-.779A1.544,1.544,0,0,1,381.6,446.7v2.476h-.8v-2.39c0-.668-.264-1.224-1.021-1.224a1.129,1.129,0,0,0-1.074.771,1.025,1.025,0,0,0-.055.351v2.492h-.8Z" transform="translate(-87.132 -23.588)"/><path class="a" d="M388.28,443.023v1.19h1.148v.574H388.28v2.236c0,.514.154.805.6.805a1.882,1.882,0,0,0,.464-.052l.036.565a2.057,2.057,0,0,1-.71.1,1.149,1.149,0,0,1-.866-.317,1.47,1.47,0,0,1-.31-1.079v-2.262h-.684v-.574h.684v-.993Z" transform="translate(-90.914 -22.767)"/><path class="a" d="M394.146,447.244a1.374,1.374,0,0,0,1.513,1.438,3.068,3.068,0,0,0,1.221-.214l.136.54a3.763,3.763,0,0,1-1.466.257,1.986,1.986,0,0,1-2.169-2.089,2.06,2.06,0,0,1,2.068-2.235,1.792,1.792,0,0,1,1.823,1.952,2.658,2.658,0,0,1-.027.351Zm2.351-.54a1.094,1.094,0,0,0-1.112-1.224,1.284,1.284,0,0,0-1.23,1.224Z" transform="translate(-93.673 -23.588)"/><path class="a" d="M402.922,446.327c0-.488-.009-.908-.037-1.294h.7l.027.814h.036a1.312,1.312,0,0,1,1.221-.907.928.928,0,0,1,.228.025v.711a1.252,1.252,0,0,0-.274-.026,1.1,1.1,0,0,0-1.074.968,1.978,1.978,0,0,0-.037.351v2.21h-.793Z" transform="translate(-97.667 -23.588)"/></g></svg>