<svg xmlns="http://www.w3.org/2000/svg" width="40" height="45" viewBox="0 0 40 45"><defs><style>.a{fill:#151836;}.b{fill:#0070c3;}</style></defs><g transform="translate(0 0)"><path class="a" d="M278.032,455.54l5-2.812h0Z" transform="translate(-253.032 -418.978)"/><path class="b" d="M268.66,452.728l5,2.812-5-2.812Z" transform="translate(-248.659 -418.978)"/><path class="b" d="M268.658,452.728h0Z" transform="translate(-248.658 -418.978)"/><path class="b" d="M251.17,389.809l-5,2.812-5,2.813-5,2.813-5,2.811v22.5h0l5,2.812V409.5h0v-5.625h0l5-2.813v22.5h0v5.625h0l5,2.813V409.5h0v-5.625h0v-5.624l5-2.813v28.125h0v5.625h0v5.625l5-2.812V392.621Z" transform="translate(-231.17 -389.809)"/><path class="a" d="M278.032,395.051v28.125l5-2.812v-22.5Z" transform="translate(-253.032 -392.239)"/><path class="a" d="M287.4,452.728h0Z" transform="translate(-257.404 -418.978)"/><path class="a" d="M287.4,452.728h0Z" transform="translate(-257.404 -418.978)"/><path class="a" d="M288.031,405.54v5.624h0v5.625h0v.642h0v10.608l-5,2.813h0l-5,2.812v5.626l5-2.813h0l5-2.813h0l.888-.5,1.328-.748h0l2.784-1.565h0v-22.5Z" transform="translate(-253.032 -397.102)"/></g></svg>