<svg xmlns="http://www.w3.org/2000/svg" width="285" height="100" viewBox="0 0 285 100"><defs><style>.a{opacity:0.3;}.b{fill:#fff;}.c{opacity:0.5;}</style></defs><g transform="translate(-170.433 -389.809)"><g class="a"><path class="b" d="M278.032,458.978l11.306-6.249h0Z" transform="translate(22.191 12.081)"/><path class="b" d="M268.66,452.729l11.3,6.249-11.3-6.249Z" transform="translate(20.258 12.081)"/><path class="b" d="M268.658,452.728h0Z" transform="translate(20.257 12.081)"/><path class="b" d="M278.032,395.051v62.5l11.306-6.249v-50Z" transform="translate(22.191 1.007)"/><path class="b" d="M287.4,452.728h0Z" transform="translate(24.124 12.081)"/><path class="b" d="M287.4,452.728h0Z" transform="translate(24.124 12.081)"/><path class="b" d="M300.642,405.54v12.5h0v12.5h0v1.426h0v23.572l-11.3,6.251h0l-11.307,6.249v12.5l11.305-6.251h0l11.3-6.251h0l2.008-1.109,3-1.661h0l6.3-3.478h0v-50Z" transform="translate(22.191 3.021)"/><path class="b" d="M325.371,439.8l-8.706-25.107h3.72l4.155,12.367c1.147,3.39,2.137,6.445,2.849,9.387h.08c.751-2.9,1.859-6.071,3.046-9.349l4.513-12.405h3.679L329.169,439.8Z" transform="translate(30.158 4.778)"/><path class="b" d="M341.09,416.71a2.163,2.163,0,0,1-4.315,0,2.062,2.062,0,0,1,2.177-2.049A2.007,2.007,0,0,1,341.09,416.71ZM337.212,439.8V421.776h3.481V439.8Z" transform="translate(34.306 4.771)"/><path class="b" d="M345.268,426.321c0-2.124-.04-3.949-.159-5.625h3.048l.117,3.539h.159a5.7,5.7,0,0,1,5.3-3.949,3.97,3.97,0,0,1,.989.112v3.092a5.511,5.511,0,0,0-1.187-.112,4.771,4.771,0,0,0-4.669,4.209,8.648,8.648,0,0,0-.158,1.527v9.612h-3.443Z" transform="translate(36.024 5.852)"/><path class="b" d="M361.748,416.286v5.178h4.985v2.5h-4.985v9.722c0,2.235.672,3.5,2.611,3.5a8.217,8.217,0,0,0,2.019-.223l.158,2.458a9,9,0,0,1-3.087.447,4.989,4.989,0,0,1-3.76-1.378c-.989-.968-1.345-2.57-1.345-4.693V423.96h-2.969v-2.5h2.969v-4.321Z" transform="translate(38.142 5.083)"/><path class="b" d="M384.513,433.742c0,1.862.04,3.5.158,4.917h-3.087l-.2-2.943h-.078a7.284,7.284,0,0,1-6.332,3.353c-3.008,0-6.609-1.565-6.609-7.9V420.63h3.482v9.983c0,3.427,1.108,5.736,4.274,5.736a5.028,5.028,0,0,0,4.591-2.98,4.514,4.514,0,0,0,.316-1.676V420.63h3.482Z" transform="translate(40.821 5.917)"/><path class="b" d="M397.83,438.725l-.276-2.272h-.119a7.29,7.29,0,0,1-5.858,2.682c-3.878,0-5.855-2.571-5.855-5.178,0-4.358,4.115-6.742,11.515-6.7v-.373c0-1.49-.436-4.172-4.352-4.172a10,10,0,0,0-4.988,1.341l-.791-2.16a12.45,12.45,0,0,1,6.293-1.6c5.856,0,7.281,3.762,7.281,7.376V434.4a23.823,23.823,0,0,0,.317,4.321Zm-.514-9.2c-3.8-.074-8.113.559-8.113,4.06a3,3,0,0,0,3.286,3.129,4.752,4.752,0,0,0,4.63-3.017,3.258,3.258,0,0,0,.2-1.043Z" transform="translate(44.401 5.852)"/><path class="b" d="M403.207,413.567h3.483v26.448h-3.483Z" transform="translate(48.006 4.562)"/><path class="b" d="M329.384,453.926a8.632,8.632,0,0,1-3.372.57c-3.6,0-6.315-2.141-6.315-6.084,0-3.766,2.711-6.316,6.674-6.316a7.2,7.2,0,0,1,3.032.535l-.4,1.266a6.338,6.338,0,0,0-2.577-.5,4.6,4.6,0,0,0-4.986,4.96c0,2.944,1.8,4.835,4.911,4.835a6.935,6.935,0,0,0,2.69-.5Z" transform="translate(30.784 10.039)"/><path class="b" d="M335.633,453.772l-.134-1.089h-.058a3.488,3.488,0,0,1-2.806,1.286,2.546,2.546,0,0,1-2.8-2.48c0-2.087,1.971-3.229,5.516-3.213V448.1a1.825,1.825,0,0,0-2.084-2,4.78,4.78,0,0,0-2.389.642l-.379-1.035a5.962,5.962,0,0,1,3.015-.766c2.806,0,3.487,1.8,3.487,3.532V451.7a11.516,11.516,0,0,0,.152,2.07Zm-.249-4.408c-1.818-.036-3.885.268-3.885,1.945a1.435,1.435,0,0,0,1.574,1.5,2.277,2.277,0,0,0,2.217-1.444,1.568,1.568,0,0,0,.094-.5Z" transform="translate(32.874 10.585)"/><path class="b" d="M339.16,447.83c0-1.017-.02-1.892-.076-2.7h1.461l.056,1.695h.075a2.731,2.731,0,0,1,2.541-1.889,1.929,1.929,0,0,1,.474.052v1.482a2.592,2.592,0,0,0-.569-.054,2.283,2.283,0,0,0-2.236,2.016,4.086,4.086,0,0,0-.076.731v4.6h-1.65Z" transform="translate(34.782 10.585)"/><path class="b" d="M346.317,449.739a2.859,2.859,0,0,0,3.146,3A6.377,6.377,0,0,0,352,452.29l.284,1.124a7.824,7.824,0,0,1-3.052.535,4.133,4.133,0,0,1-4.511-4.353c0-2.606,1.629-4.656,4.3-4.656,3,0,3.791,2.48,3.791,4.067a5.8,5.8,0,0,1-.055.732Zm4.891-1.125a2.278,2.278,0,0,0-2.314-2.551,2.672,2.672,0,0,0-2.56,2.551Z" transform="translate(35.945 10.585)"/><path class="b" d="M367.877,453.926a8.654,8.654,0,0,1-3.375.57c-3.6,0-6.314-2.141-6.314-6.084,0-3.766,2.711-6.316,6.674-6.316a7.206,7.206,0,0,1,3.032.535l-.4,1.266a6.339,6.339,0,0,0-2.578-.5,4.6,4.6,0,0,0-4.985,4.96c0,2.944,1.8,4.835,4.909,4.835a6.942,6.942,0,0,0,2.691-.5Z" transform="translate(38.722 10.039)"/><path class="b" d="M369.9,449.739a2.86,2.86,0,0,0,3.146,3,6.373,6.373,0,0,0,2.541-.446l.284,1.124a7.819,7.819,0,0,1-3.051.535,4.134,4.134,0,0,1-4.513-4.353c0-2.606,1.63-4.656,4.3-4.656,2.995,0,3.792,2.48,3.792,4.067a5.8,5.8,0,0,1-.056.732Zm4.891-1.125a2.277,2.277,0,0,0-2.312-2.551,2.672,2.672,0,0,0-2.56,2.551Z" transform="translate(40.809 10.585)"/><path class="b" d="M377.887,447.473c0-.893-.02-1.625-.077-2.339h1.48l.094,1.428h.038a3.411,3.411,0,0,1,3.035-1.622c1.27,0,3.242.713,3.242,3.674v5.158h-1.67v-4.979c0-1.391-.55-2.551-2.124-2.551a2.35,2.35,0,0,0-2.235,1.605,2.14,2.14,0,0,0-.115.732v5.192h-1.668Z" transform="translate(42.769 10.585)"/><path class="b" d="M389.866,443.023V445.5h2.387v1.2h-2.387v4.659c0,1.07.321,1.677,1.251,1.677a3.909,3.909,0,0,0,.966-.107l.075,1.177a4.273,4.273,0,0,1-1.477.214,2.389,2.389,0,0,1-1.8-.66,3.066,3.066,0,0,1-.644-2.247V446.7h-1.422v-1.2h1.422v-2.069Z" transform="translate(44.625 10.217)"/><path class="b" d="M394.972,449.739a2.86,2.86,0,0,0,3.147,3,6.375,6.375,0,0,0,2.54-.446l.283,1.124a7.818,7.818,0,0,1-3.051.535,4.134,4.134,0,0,1-4.512-4.353c0-2.606,1.63-4.656,4.3-4.656,3,0,3.793,2.48,3.793,4.067a5.545,5.545,0,0,1-.057.732Zm4.892-1.125a2.278,2.278,0,0,0-2.313-2.551,2.672,2.672,0,0,0-2.56,2.551Z" transform="translate(45.98 10.585)"/><path class="b" d="M402.961,447.83c0-1.017-.019-1.892-.076-2.7h1.461l.057,1.695h.075a2.731,2.731,0,0,1,2.54-1.889,1.927,1.927,0,0,1,.475.052v1.482a2.6,2.6,0,0,0-.571-.054,2.282,2.282,0,0,0-2.235,2.016,4.123,4.123,0,0,0-.077.731v4.6h-1.649Z" transform="translate(47.94 10.585)"/></g><g class="c"><path class="b" d="M276.391,389.809l-11.305,6.249-11.305,6.251-11.305,6.252-11.305,6.248v50h0l11.3,6.249v-37.5h0v-12.5h0l11.305-6.251v50h0v12.5h0l11.305,6.251v-50h0v-12.5h0v-12.5l11.305-6.252v62.5h0v12.5h0v12.5l11.3-6.248v-87.5Z" transform="translate(12.526)"/><path class="b" d="M201.921,424.434h-.113l-9.965,31.189h-5.182l-9.509-31.189h-.113v31.189h-6.605v-37.4h10.875l8.2,27.92h.113l8.37-27.92h10.534v37.4h-6.605Z" transform="translate(0 5.455)"/><path class="b" d="M221.218,418.218v26.473q0,5.786-2.79,8.626a9.541,9.541,0,0,1-7.117,2.841,15.842,15.842,0,0,1-2.762-.268,13.5,13.5,0,0,1-2.476-.642v-5.895h.056a15.032,15.032,0,0,0,1.594.509,6.981,6.981,0,0,0,1.708.187,3.927,3.927,0,0,0,3.474-1.474,6.766,6.766,0,0,0,1.025-3.937V418.218Z" transform="translate(7.35 5.455)"/></g></g></svg>