<svg xmlns="http://www.w3.org/2000/svg" width="446" height="90" viewBox="0 0 446 90">
  <defs>
    <style>
      .cls-1 {
        fill-rule: evenodd;
      }
    </style>
  </defs>
  <path class="cls-1" d="M524.43,3303.07H471.473v51.17h13.368l7.968-5.91h6.813l6.041,3.21,3.342,6.04v7.2l-3.342,5.66-6.041,3.08h-7.713l-15.3-10.15v21.73l9.255,5.39h19.794l13.367-7.71L527,3368.9v-15.43l-7.971-13.89-13.367-7.71H492.552l-3.6,2.06v-13.89H524.43v-16.97Zm-100,27v-5.14l2.442-4.24,4.242-2.45h5.141l4.242,2.45,2.442,4.24v5.14l-2.442,4.24-4.242,2.45h-5.141l-4.242-2.45Zm-1.029,36.26v-5.15l2.7-4.75,4.756-2.7h5.655l4.756,2.7,2.7,4.75v5.15l-2.7,4.63-4.756,2.82h-5.655l-4.756-2.82Zm19.024-64.8H424.946l-11.439,6.68-6.812,11.83v14.92l6.169,10.28-7.2,10.8v15.43l6.683,11.96,12.082,7.06h18.509l12.082-7.06,6.684-11.96v-15.43l-7.2-10.8,6.169-10.28v-14.92l-6.811-11.83Zm-84.83,30.73v-5.92l2.828-4.88,5.14-2.96h5.656l5.142,2.96,2.827,4.88v5.92l-2.827,4.88-5.142,2.96h-5.656l-5.14-2.96Zm18.509-30.73H360.682l-12.468,7.33-7.841,12.47v15.94l7.841,12.73,12.468,7.07h5.4l-3.34,3.86L345,3388.95h21.594l29.82-51.68v-15.94l-7.711-12.47Zm-60.152,1.54H302.587L282.02,3314.9v21.6l15.939-10.54v46.02H279.451v16.97h55.012v-16.97H315.954v-68.91Zm-80.2,0h-18v34.46H179.2v-34.46h-18v85.88h18V3354.5h38.56v34.45h18v-85.88Zm-97.684-2.06H113.9L92.953,3313.1,81,3333.8v24.42l11.953,20.7,20.951,12.09h24.164l9-5.14v-21.34l-14.268,9.51H119.174l-13.368-7.71-6.813-11.83v-16.97l6.813-11.83,13.368-7.71H132.8l14.268,9.51v-21.34Z" transform="translate(-81 -3301)"/>
</svg>
