<svg xmlns="http://www.w3.org/2000/svg" width="90.892" height="26.293" viewBox="0 0 90.892 26.293"><defs><style>.a,.c{fill:#002e68;}.b{fill:#007fcd;}.c{stroke:rgba(0,0,0,0);}</style></defs><g transform="translate(-59 -449.207)"><g transform="translate(-367.019 368.631)"><path class="a" d="M433.938,97.81a2.607,2.607,0,0,0-.674,2.369,3.207,3.207,0,0,0,1.838,1.858,3.3,3.3,0,0,0,.6-2.638A2.281,2.281,0,0,0,433.938,97.81Z" transform="translate(-4.614 -10.576)"/><path class="a" d="M486.9,124.756a2.605,2.605,0,0,0-1.13-2.191,3.259,3.259,0,0,0-2.625-.131,3.316,3.316,0,0,0,1.37,2.339A2.305,2.305,0,0,0,486.9,124.756Z" transform="translate(-36.754 -26.276)"/><path class="a" d="M461.735,103.136a2.663,2.663,0,0,0,2.283.984,3.21,3.21,0,0,0,2.111-1.545,3.391,3.391,0,0,0-2.56-.949A2.284,2.284,0,0,0,461.735,103.136Z" transform="translate(-22.979 -13.02)"/><path class="a" d="M484.495,104.224a2.648,2.648,0,0,0,1.85-1.647,3.159,3.159,0,0,0-.551-2.539,3.354,3.354,0,0,0-1.932,1.911A2.244,2.244,0,0,0,484.495,104.224Z" transform="translate(-37.155 -12.011)"/><path class="b" d="M450.1,85.625a2.607,2.607,0,0,0,.737-2.351,3.2,3.2,0,0,0-1.787-1.9,3.3,3.3,0,0,0-.67,2.619A2.282,2.282,0,0,0,450.1,85.625Z" transform="translate(-14.338)"/><path class="a" d="M431.107,119.232a2.683,2.683,0,0,0-2.425.558,3.16,3.16,0,0,0-.757,2.488,3.389,3.389,0,0,0,2.625-.752A2.24,2.24,0,0,0,431.107,119.232Z" transform="translate(-1.212 -24.302)"/><path class="a" d="M444.077,127.711a2.609,2.609,0,0,0-.967,2.267,3.191,3.191,0,0,0,1.59,2.067,3.308,3.308,0,0,0,.927-2.542A2.272,2.272,0,0,0,444.077,127.711Z" transform="translate(-10.983 -29.815)"/><path class="b" d="M469.773,87.093a2.671,2.671,0,0,0-2.252,1.05,3.153,3.153,0,0,0-.215,2.59,3.388,3.388,0,0,0,2.409-1.28A2.249,2.249,0,0,0,469.773,87.093Z" transform="translate(-26.441 -3.671)"/><path class="b" d="M429.986,111.788a2.621,2.621,0,0,0-1.341-2.073,3.256,3.256,0,0,0-2.626.123,3.332,3.332,0,0,0,1.593,2.2A2.309,2.309,0,0,0,429.986,111.788Z" transform="translate(0 -18.084)"/><path class="a" d="M441.336,112.71a2.628,2.628,0,0,0,1.224-2.146,3.181,3.181,0,0,0-1.341-2.233,3.32,3.32,0,0,0-1.216,2.42A2.274,2.274,0,0,0,441.336,112.71Z" transform="translate(-8.996 -17.347)"/><path class="a" d="M456.891,97.456a2.6,2.6,0,0,0,.859-2.309,3.2,3.2,0,0,0-1.686-1.994,3.3,3.3,0,0,0-.805,2.583A2.277,2.277,0,0,0,456.891,97.456Z" transform="translate(-18.783 -7.581)"/><path class="a" d="M448.295,102.825a2.637,2.637,0,0,0-1.787-1.715,3.249,3.249,0,0,0-2.526.715,3.35,3.35,0,0,0,2.06,1.777A2.3,2.3,0,0,0,448.295,102.825Z" transform="translate(-11.557 -12.664)"/><path class="a" d="M443.59,94.1a2.618,2.618,0,0,0-1.307-2.1,3.259,3.259,0,0,0-2.626.078,3.33,3.33,0,0,0,1.555,2.224A2.312,2.312,0,0,0,443.59,94.1Z" transform="translate(-8.775 -6.676)"/><path class="a" d="M472.672,96.672a2.683,2.683,0,0,0,2.445.466,3.194,3.194,0,0,0,1.718-1.966,3.4,3.4,0,0,0-2.709-.372A2.267,2.267,0,0,0,472.672,96.672Z" transform="translate(-30.011 -8.544)"/><path class="b" d="M434.813,130.034a2.649,2.649,0,0,0,1.816-1.685,3.153,3.153,0,0,0-.605-2.528,3.348,3.348,0,0,0-1.889,1.951A2.253,2.253,0,0,0,434.813,130.034Z" transform="translate(-5.17 -28.6)"/><path class="a" d="M464.461,110.788a2.685,2.685,0,0,1,2.454.414,3.159,3.159,0,0,1,.908,2.437,3.4,3.4,0,0,1-2.666-.593A2.25,2.25,0,0,1,464.461,110.788Z" transform="translate(-24.68 -18.842)"/><path class="b" d="M482.9,114.34a2.663,2.663,0,0,0,2.17,1.209,3.222,3.222,0,0,0,2.26-1.325,3.377,3.377,0,0,0-2.449-1.2A2.292,2.292,0,0,0,482.9,114.34Z" transform="translate(-36.599 -20.365)"/><path class="b" d="M477.116,125.977a2.6,2.6,0,0,0-.227,2.45,3.229,3.229,0,0,0,2.149,1.495,3.3,3.3,0,0,0,.106-2.7A2.293,2.293,0,0,0,477.116,125.977Z" transform="translate(-32.592 -28.691)"/><path class="a" d="M476.477,109.155a2.637,2.637,0,0,0,1.656-1.837,3.161,3.161,0,0,0-.826-2.464,3.34,3.34,0,0,0-1.711,2.108A2.254,2.254,0,0,0,476.477,109.155Z" transform="translate(-31.873 -15.109)"/><path class="a" d="M468.177,131.817a2.641,2.641,0,0,0,1.657-1.836,3.163,3.163,0,0,0-.826-2.466,3.345,3.345,0,0,0-1.711,2.109A2.253,2.253,0,0,0,468.177,131.817Z" transform="translate(-26.534 -29.689)"/><path class="a" d="M460.026,85.953a2.631,2.631,0,0,0,1.443-2.006,3.175,3.175,0,0,0-1.1-2.362,3.334,3.334,0,0,0-1.465,2.283A2.26,2.26,0,0,0,460.026,85.953Z" transform="translate(-21.155 -0.139)"/><path class="b" d="M451.442,111.113a2.672,2.672,0,0,0-2.353.8,3.155,3.155,0,0,0-.5,2.551,3.39,3.39,0,0,0,2.534-1.014A2.238,2.238,0,0,0,451.442,111.113Z" transform="translate(-14.47 -19.108)"/><path class="a" d="M454.948,112.15c-.033-.243-.209-.391-.407-.336a20.354,20.354,0,0,1-5.888,1.164l-.371-.083a.316.316,0,0,1-.281-.266l-.1-4.5c0-.395-.161-.713-.359-.713s-.36.318-.36.713l-.215,4.459a.745.745,0,0,1-.755.573l0,.012a15.138,15.138,0,0,1-5.071-.474c-.287-.07-.51-.129-.512.076h0a.745.745,0,0,0,.536.6c2.368.953,3.522.772,5.7,1.291l-.5,7.809c-.041.536-.364.655-.364.655h2.787c-.148-.068-.29-.4-.355-.585l-.392-7.935a39.41,39.41,0,0,0,6.6-1.954A.446.446,0,0,0,454.948,112.15Z" transform="translate(-9.402 -16.761)"/></g><path class="c" d="M-1241.669-93.557l-.016,0,.06-.561.027.011a2.376,2.376,0,0,0,.79.186c.294,0,.732-.162.732-.606,0-.379-.331-.536-.712-.715-.44-.206-.94-.44-.94-1.1s.493-1.067,1.256-1.067a2.6,2.6,0,0,1,.828.137l.018.007-.084.551-.026-.008a1.67,1.67,0,0,0-.714-.159c-.194,0-.649.048-.649.49,0,.306.3.45.647.618.47.227,1,.484,1,1.217s-.521,1.167-1.426,1.167A2.616,2.616,0,0,1-1241.669-93.557Zm-9.1-1.849a1.84,1.84,0,0,1,1.873-2.009,1.841,1.841,0,0,1,1.874,2.009,1.823,1.823,0,0,1-1.874,2.01A1.822,1.822,0,0,1-1250.77-95.406Zm1.05-1.16a1.633,1.633,0,0,0-.421,1.16c0,.684.324,1.482,1.244,1.482s1.244-.8,1.244-1.482a1.641,1.641,0,0,0-.42-1.16,1.122,1.122,0,0,0-.824-.321h-.008A1.116,1.116,0,0,0-1249.721-96.566Zm46.254,3.1V-97.35h.6v3.359h1.608v.531Zm-5.934,0s-.38-.941-.391-.97h-1.853c-.012.028-.393.97-.393.97h-.626L-1211-97.35h.609l1.643,3.889Zm-2.049-1.466h1.463c-.023-.058-.693-1.727-.733-1.823C-1210.758-96.654-1211.428-94.986-1211.449-94.927Zm-7.563,1.466V-96.82h-1.194v-.53h2.985v.53h-1.2v3.359Zm-7.086,0V-97.35h.595v3.889Zm-7.887,0V-97.35h1.031c.959,0,1.465.408,1.465,1.174,0,.737-.516,1.178-1.383,1.178h-.518v1.537Zm.6-2.067h.523a.666.666,0,0,0,.749-.654c0-.468-.493-.638-.825-.638h-.446Zm-23.529,2.067v-1.752h-1.8v1.752h-.6V-97.35h.6v1.609h1.8V-97.35h.594v3.889Zm38.437-7.244a4.077,4.077,0,0,1-1.174-3.178,4.014,4.014,0,0,1,1.465-3.441,4.386,4.386,0,0,1,2.646-.783,6.425,6.425,0,0,1,2.606.488l.005,1.344a4.2,4.2,0,0,0-2.583-.722,2.32,2.32,0,0,0-2.27,1.22,5.078,5.078,0,0,0-.342,1.928,3.737,3.737,0,0,0,.594,2.277,2.764,2.764,0,0,0,2.047.771,2.924,2.924,0,0,0,1.265-.257v-2.1h-1.933l.014-1.132h3.286v3.95l-.09.049a5.666,5.666,0,0,1-2.63.62A4.153,4.153,0,0,1-1218.483-100.7Zm-19.961-.014a4.467,4.467,0,0,1-1.137-3.243c0-2.6,1.448-4.211,3.778-4.211a3.587,3.587,0,0,1,2.986,1.35,4.729,4.729,0,0,1,.856,3.022,3.831,3.831,0,0,1-1.386,3.337,3.615,3.615,0,0,1-2.4.794A3.707,3.707,0,0,1-1238.444-100.719Zm.854-5.514a3.863,3.863,0,0,0-.435,2.074,5.259,5.259,0,0,0,.548,2.642,2.329,2.329,0,0,0,1.777.771,1.957,1.957,0,0,0,1.559-.62,3.066,3.066,0,0,0,.613-2.3,5.074,5.074,0,0,0-.415-2.413h0a2.01,2.01,0,0,0-1.86-.986A2.085,2.085,0,0,0-1237.59-106.233Zm27.863,6.418,0-.966a2.8,2.8,0,0,0,.412-.044,1.771,1.771,0,0,0,.943-.687,2.542,2.542,0,0,0,.194-1.336v-5.189h1.435v5.166l-.027.849a2.248,2.248,0,0,1-.332,1.048,2.626,2.626,0,0,1-1.626,1.081,3.658,3.658,0,0,1-.8.086C-1209.649-99.808-1209.727-99.815-1209.727-99.815Zm6.8-.005v-8.217h1.407v8.217Zm-21.21,0s-2.95-4.889-2.953-4.89c-.2-.337-.43-.735-.634-1.1.025.406.044.823.052,1.265l.056,4.729h-1.478v-8.2h1.529l3.058,5.1c.14.237.308.557.459.853-.026-.456-.053-1.019-.061-1.507l-.042-4.445h1.423v8.2Zm-21.662,0v-3.244c-.049-.085-3.052-4.973-3.052-4.973h1.75l1.764,3.093s.175.333.312.6c.143-.256.324-.588.333-.6l1.79-3.093h1.653s-3.024,4.947-3.077,5.029v3.188Zm-6.316,0-.542-5.93s-.008-.181-.014-.265c-.021.073-.044.146-.064.2l-1.978,5.991h-1.18l-1.833-5.708-.1-.318-.072-.256c-.022.287-.036.527-.036.527l-.517,5.755h-1.4l.828-8.217h1.868l1.689,5.261c.088.277.148.473.2.673.069-.269.141-.546.141-.546l.009-.037,1.742-5.35h1.883l.811,8.217Zm39.9-12.373a1.532,1.532,0,0,1,1.624-1.576,1.674,1.674,0,0,1,.691.132l.016.006-.037.476-.034-.019a1.2,1.2,0,0,0-.611-.166,1.1,1.1,0,0,0-1.141,1.16,1.1,1.1,0,0,0,1.117,1.16,1.482,1.482,0,0,0,.648-.144l.032-.02.031.477-.015.006a1.843,1.843,0,0,1-.7.11A1.51,1.51,0,0,1-1212.207-112.193Zm-22.387.013a1.454,1.454,0,0,1,1.479-1.589,1.455,1.455,0,0,1,1.481,1.589,1.44,1.44,0,0,1-1.481,1.589A1.439,1.439,0,0,1-1234.594-112.18Zm.835-.909a1.281,1.281,0,0,0-.328.909c0,.536.255,1.16.972,1.16s.974-.624.974-1.16a1.281,1.281,0,0,0-.328-.909.883.883,0,0,0-.646-.251h-.008A.87.87,0,0,0-1233.759-113.089Zm-9.642.9a1.531,1.531,0,0,1,1.625-1.576,2.293,2.293,0,0,1,.9.153l.018.005-.038.5-.035-.021a1.382,1.382,0,0,0-.819-.2,1.1,1.1,0,0,0-1.139,1.16,1.1,1.1,0,0,0,1.116,1.16,1.629,1.629,0,0,0,.429-.041.216.216,0,0,1,.033-.006v-.877h-.639v-.4h1.12v1.617l-.017.005a2.86,2.86,0,0,1-.93.134A1.51,1.51,0,0,1-1243.4-112.193Zm-12.862.013a1.455,1.455,0,0,1,1.479-1.589,1.455,1.455,0,0,1,1.481,1.589,1.441,1.441,0,0,1-1.481,1.589A1.439,1.439,0,0,1-1256.263-112.18Zm.836-.909a1.277,1.277,0,0,0-.331.909c0,.536.256,1.16.973,1.16s.973-.624.973-1.16a1.279,1.279,0,0,0-.329-.909.865.865,0,0,0-.644-.251h-.008A.864.864,0,0,0-1255.427-113.089Zm-4.174.9a1.531,1.531,0,0,1,1.624-1.576,1.672,1.672,0,0,1,.691.132l.017.006-.039.476-.034-.019a1.2,1.2,0,0,0-.612-.166,1.1,1.1,0,0,0-1.139,1.16,1.1,1.1,0,0,0,1.116,1.16,1.48,1.48,0,0,0,.648-.144l.034-.02.029.477-.016.006a1.842,1.842,0,0,1-.7.11A1.51,1.51,0,0,1-1259.6-112.193Zm56.616,1.551v-3.075h1.742v.429h-1.261v.839h1.149v.429h-1.149v.949h1.261v.429Zm-2.021,0-1.341-2.436v2.436h-.481v-3.075h.629s1.24,2.26,1.307,2.385v-2.385h.478v3.075Zm-3.708,0v-3.075h.48v3.075Zm-5.228,0v-3.075h.483v3.075Zm-3.841,0v-3.075h.916a1.51,1.51,0,0,1,1.638,1.512,1.458,1.458,0,0,1-1.638,1.563Zm.481-.429h.43a1,1,0,0,0,1.136-1.117,1.033,1.033,0,0,0-1.081-1.1h-.485Zm-3.531.429v-3.075h1.745v.429h-1.264v.839h1.148v.429h-1.148v.949h1.264v.429Zm-1.917,0v-2.537c-.071.18-.97,2.537-.97,2.537h-.458s-.9-2.356-.969-2.537v2.537h-.482v-3.075h.756s.89,2.358.934,2.472c.042-.114.916-2.472.916-2.472h.756v3.075Zm-7.656,0v-3.075h1.657v.429h-1.175v.839h1.123v.429h-1.123v1.378Zm-9,0v-3.075h1.743v.429h-1.264v.839h1.153v.429h-1.153v.949h1.264v.429Zm-6.914,0v-3.075h1.744v.429h-1.265v.839h1.151v.429h-1.151v.949h1.265v.429Zm-2.88,0v-3.075h.48v2.646h1.268v.429Zm-2.855,0v-3.075h.482v2.646h1.266v.429Zm41.472-4.7-.018-.005.048-.453.03.012a1.874,1.874,0,0,0,.62.146c.23,0,.571-.126.571-.47,0-.3-.259-.418-.557-.558-.349-.164-.745-.35-.745-.873s.392-.849,1-.849a2.086,2.086,0,0,1,.654.11l.019.008-.069.446-.027-.011a1.328,1.328,0,0,0-.559-.123c-.153,0-.505.038-.505.38,0,.237.236.349.507.481.373.179.794.381.794.963s-.411.926-1.131.926A2.071,2.071,0,0,1-1210.581-115.344Zm-17.758-1.2v-1.8h.48v1.743c0,.651.227.955.717.955s.719-.3.719-.955v-1.743h.481v1.8c0,.858-.426,1.33-1.2,1.33S-1228.339-115.689-1228.339-116.546Zm-5.323-.272a1.531,1.531,0,0,1,1.624-1.578,2.331,2.331,0,0,1,.9.152l.016.006-.039.5-.035-.021a1.389,1.389,0,0,0-.821-.2,1.1,1.1,0,0,0-1.137,1.16,1.1,1.1,0,0,0,1.116,1.161,1.6,1.6,0,0,0,.427-.042l.036-.005v-.878h-.639v-.4h1.119v1.613l-.017.007a2.857,2.857,0,0,1-.93.135A1.509,1.509,0,0,1-1233.662-116.818Zm-7.329.011a1.456,1.456,0,0,1,1.48-1.589,1.457,1.457,0,0,1,1.483,1.589,1.442,1.442,0,0,1-1.483,1.59A1.44,1.44,0,0,1-1240.992-116.807Zm.836-.91a1.278,1.278,0,0,0-.329.91c0,.537.253,1.161.973,1.161s.974-.625.974-1.161a1.275,1.275,0,0,0-.331-.91.863.863,0,0,0-.643-.25h-.012A.865.865,0,0,0-1240.155-117.716Zm37.575,2.447v-1.283l-1.208-1.792h.567s.851,1.28.889,1.339l.867-1.339h.565l-.025.036s-1.171,1.75-1.175,1.748v1.29Zm-3.067,0v-2.645h-.941v-.429h2.364v.429h-.941v2.645Zm-2.222,0v-3.074h.482v3.074Zm-3.994,0-.469-1.063c-.129-.281-.256-.281-.487-.281h-.235v1.344h-.482v-3.074h.766c.593,0,1.2.1,1.2.844a.718.718,0,0,1-.6.7.567.567,0,0,1,.265.294l.588,1.24Zm-1.191-1.773h.344c.4,0,.631-.168.631-.449s-.214-.423-.582-.423h-.392Zm-3.257,1.773v-3.074h1.742v.429h-1.263v.836h1.15v.43h-1.15v.95h1.263v.429Zm-2.539,0-1.16-3.074h.538l.92,2.61.946-2.61h.508l-1.178,3.074Zm-2.4,0v-3.074h.48v3.074Zm-1.728,0-1.342-2.437v2.437h-.481v-3.074h.628s1.24,2.26,1.307,2.384v-2.384h.48v3.074Zm-12.247,0s-1.275-2.313-1.342-2.437v2.437h-.481v-3.074h.627s1.24,2.26,1.306,2.384v-2.384h.483v3.074Zm-9.176,0v-3.074h.919a1.509,1.509,0,0,1,1.636,1.51,1.458,1.458,0,0,1-1.636,1.564Zm.483-.429h.432a1,1,0,0,0,1.133-1.116,1.033,1.033,0,0,0-1.083-1.1h-.482Zm-2.182.429s-1.274-2.313-1.342-2.437v2.437h-.481v-3.074h.627s1.241,2.26,1.308,2.384v-2.384h.482v3.074Zm-3.132,0s-.3-.734-.308-.763H-1251c-.014.028-.309.763-.309.763h-.508l1.312-3.074h.488l1.3,3.074Zm-1.6-1.166h1.135c-.024-.06-.527-1.313-.568-1.413C-1250.312-117.748-1250.816-116.5-1250.84-116.435Zm-2.844,1.166s-.61-2.447-.645-2.589c-.035.141-.649,2.589-.649,2.589h-.62l-.927-3.074h.526l.711,2.54c.032-.133.633-2.54.633-2.54h.653s.608,2.408.64,2.541c.039-.132.712-2.541.712-2.541h.511l-.949,3.074Zm-3.943,0s-1.235-1.36-1.314-1.445v1.445h-.48v-3.074h.48v1.3l1.257-1.3h.646s-1.414,1.423-1.446,1.455l1.558,1.62Z" transform="translate(1349.844 568.396)"/></g></svg>