<svg xmlns="http://www.w3.org/2000/svg" xmlns:xlink="http://www.w3.org/1999/xlink" width="286" height="130" viewBox="0 0 286 130"><defs><style>.a,.b,.c{fill:#fff;}.b{font-size:44px;font-family:NotoSansKR-Light, Noto Sans KR;font-weight:300;}.c{font-size:28px;font-family:NotoSansKR-Medium, Noto Sans KR;font-weight:500;letter-spacing:-0.03em;}.d{filter:url(#g);}.e{filter:url(#e);}.f{filter:url(#c);}.g{filter:url(#a);}</style><filter id="a" x="5" y="17.246" width="67.253" height="62.757" filterUnits="userSpaceOnUse"><feOffset dy="4" input="SourceAlpha"/><feGaussianBlur stdDeviation="4" result="b"/><feFlood flood-opacity="0.051"/><feComposite operator="in" in2="b"/><feComposite in="SourceGraphic"/></filter><filter id="c" x="55.222" y="15.808" width="38.091" height="62.814" filterUnits="userSpaceOnUse"><feOffset dy="4" input="SourceAlpha"/><feGaussianBlur stdDeviation="4" result="d"/><feFlood flood-opacity="0.051"/><feComposite operator="in" in2="d"/><feComposite in="SourceGraphic"/></filter><filter id="e" x="82.031" y="0" width="198" height="89" filterUnits="userSpaceOnUse"><feOffset dy="4" input="SourceAlpha"/><feGaussianBlur stdDeviation="4" result="f"/><feFlood flood-opacity="0.051"/><feComposite operator="in" in2="f"/><feComposite in="SourceGraphic"/></filter><filter id="g" x="0" y="65" width="286" height="65" filterUnits="userSpaceOnUse"><feOffset dy="4" input="SourceAlpha"/><feGaussianBlur stdDeviation="4" result="h"/><feFlood flood-opacity="0.051"/><feComposite operator="in" in2="h"/><feComposite in="SourceGraphic"/></filter></defs><g transform="translate(-79.763 -169.794)"><g class="g" transform="matrix(1, 0, 0, 1, 79.76, 169.79)"><path class="a" d="M440.831,187.034H432.7l-8.217,25.235-.041.175s-.342,1.308-.667,2.576c-.239-.94-.524-1.865-.935-3.173l-7.968-24.812h-8.81l-3.905,38.757h6.6l2.442-27.144s.062-1.129.167-2.485c.11.392.34,1.208.34,1.208l.464,1.5,8.647,26.921h5.563l9.332-28.256c.1-.273.2-.617.3-.964.029.4.067,1.248.067,1.248l2.554,27.971h6.778l-3.827-38.757Z" transform="translate(-385.16 -161.79)"/></g><g class="f" transform="matrix(1, 0, 0, 1, 79.76, 169.79)"><path class="a" d="M508.324,187.034v24.475c0,3.654-.229,5.242-.916,6.3a8.353,8.353,0,0,1-4.446,3.243,13.429,13.429,0,0,1-1.944.208L501,225.817a17.237,17.237,0,0,0,4.726-.373,12.388,12.388,0,0,0,7.669-5.1,10.588,10.588,0,0,0,1.567-4.941l.129-4.006V187.034h-6.768Z" transform="translate(-433.78 -163.23)"/></g><g class="e" transform="matrix(1, 0, 0, 1, 79.76, 169.79)"><text class="b" transform="translate(94.03 59)"><tspan x="0" y="0">CORONA</tspan></text></g><g class="d" transform="matrix(1, 0, 0, 1, 79.76, 169.79)"><text class="c" transform="translate(143 105)"><tspan x="-130.48" y="0">원격문진 서비스 관리자</tspan></text></g></g></svg>