<svg xmlns="http://www.w3.org/2000/svg" width="19.895" height="21.1" viewBox="0 0 19.895 21.1">
    <defs>
        <style>
            .cls-1{fill:none;stroke:#000222;stroke-miterlimit:10;stroke-width:1.2px}
        </style>
    </defs>
    <g id="icon_setting" transform="translate(-248.817 -272.88)">
        <circle id="타원_3_1_" cx="3.19" cy="3.19" r="3.19" class="cls-1" transform="translate(255.56 280.24)"/>
        <path id="패스_13_1_" d="M266.34 284.81a.493.493 0 0 1-.15-.43 7.431 7.431 0 0 0 .07-.94 6.542 6.542 0 0 0-.06-.89.634.634 0 0 1 .18-.52l1.31-1.23a1.183 1.183 0 0 0 .22-1.45l-1.04-1.8a1.168 1.168 0 0 0-1.36-.54l-1.73.53a.559.559 0 0 1-.5-.09 7.361 7.361 0 0 0-1.59-.91.54.54 0 0 1-.32-.37l-.41-1.78a1.178 1.178 0 0 0-1.15-.91h-2.08a1.187 1.187 0 0 0-1.15.91l-.42 1.81a.466.466 0 0 1-.28.33 7.566 7.566 0 0 0-1.59.9.641.641 0 0 1-.57.1l-1.7-.52a1.168 1.168 0 0 0-1.36.54l-1.04 1.8a1.183 1.183 0 0 0 .22 1.45l1.36 1.27a.486.486 0 0 1 .14.41 7.454 7.454 0 0 0-.07.95 6.74 6.74 0 0 0 .08 1 .348.348 0 0 1-.11.32l-1.4 1.31a1.183 1.183 0 0 0-.22 1.45l1.04 1.8a1.18 1.18 0 0 0 1.36.54l1.76-.54a.554.554 0 0 1 .45.08 7.2 7.2 0 0 0 1.64.94.5.5 0 0 1 .29.33l.42 1.81a1.178 1.178 0 0 0 1.15.91h2.08a1.187 1.187 0 0 0 1.15-.91l.41-1.79a.573.573 0 0 1 .31-.37 7.649 7.649 0 0 0 1.55-.88.675.675 0 0 1 .6-.11l1.68.51a1.168 1.168 0 0 0 1.36-.54l1.04-1.8a1.183 1.183 0 0 0-.22-1.45z" class="cls-1"/>
    </g>
</svg>
