<svg xmlns="http://www.w3.org/2000/svg" width="27.495" height="25.906" viewBox="0 0 27.495 25.906">
    <defs>
        <style>
            .cls-1{fill:none;stroke:#333;stroke-linecap:round;stroke-linejoin:round;stroke-miterlimit:10;stroke-width:1.4px}
        </style>
    </defs>
    <g id="icon_cs" transform="translate(.7 .7)">
        <path id="패스_19" d="M6.16 14.806V8.393A7.794 7.794 0 0 1 13.953.6a7.794 7.794 0 0 1 7.793 7.793v6.413" class="cls-1" data-name="패스 19" transform="translate(-.901 -.6)"/>
        <path id="패스_20" d="M3.664 8.11h2.195v7.1H3.664A3.064 3.064 0 0 1 .6 12.149v-.965A3.066 3.066 0 0 1 3.664 8.11z" class="cls-1" data-name="패스 20" transform="translate(-.6 -1.007)"/>
        <path id="패스_21" d="M24.824 8.11H22.63v7.1h2.194a3.064 3.064 0 0 0 3.064-3.064v-.965a3.066 3.066 0 0 0-3.064-3.071z" class="cls-1" data-name="패스 21" transform="translate(-1.794 -1.007)"/>
        <path id="패스_22" d="M24.273 16.11a7.1 7.1 0 0 1-7.1 7.094" class="cls-1" data-name="패스 22" transform="translate(-1.498 -1.441)"/>
        <ellipse id="타원_8" cx="2.743" cy="2.743" class="cls-1" data-name="타원 8" rx="2.743" ry="2.743" transform="translate(10.196 19.02)"/>
        <path id="패스_23" d="M17.761 13.63a3.566 3.566 0 0 1-7.131 0" class="cls-1" data-name="패스 23" transform="translate(-1.144 -1.306)"/>
    </g>
</svg>
