<svg xmlns="http://www.w3.org/2000/svg" width="24.96" height="21.621" viewBox="0 0 24.96 21.621">
    <defs>
        <style>
            .cls-1{fill:none;stroke:#333;stroke-linecap:round;stroke-linejoin:round;stroke-miterlimit:10;stroke-width:1.4px}
        </style>
    </defs>
    <g id="icon_faq" transform="translate(.7 .7)">
        <path id="패스_24" d="M5.556 66.381H3.721A2.779 2.779 0 0 1 .94 63.6v-9.08a2.779 2.779 0 0 1 2.781-2.78h14.915a2.779 2.779 0 0 1 2.781 2.781v1.863" class="cls-1" data-name="패스 24" transform="translate(-.94 -51.74)"/>
        <path id="패스_25" d="M21.984 56.65H8.6a2.779 2.779 0 0 0-2.78 2.781v7.585A2.779 2.779 0 0 0 8.6 69.8h.161l-2.288 2.427 6.97-2.427h8.541a2.779 2.779 0 0 0 2.781-2.781v-7.588a2.785 2.785 0 0 0-2.781-2.781z" class="cls-1" data-name="패스 25" transform="translate(-1.204 -52.006)"/>
        <path id="선_20" d="M0 0h9.108" class="cls-1" data-name="선 20" transform="translate(9.524 9.458)"/>
        <path id="선_21" d="M0 0h9.108" class="cls-1" data-name="선 21" transform="translate(9.524 12.513)"/>
    </g>
</svg>
