<svg xmlns="http://www.w3.org/2000/svg" width="49" height="53" viewBox="0 0 49 53">
    <defs>
        <style>
            .cls-1,.cls-2,.cls-3,.cls-4{fill:none}.cls-2,.cls-3{stroke:#333}.cls-2,.cls-4{stroke-miterlimit:10}.cls-2{stroke-width:1.8px}.cls-3,.cls-4{stroke-linecap:round;stroke-width:1.5px}.cls-4{stroke:#58559a}.cls-5{fill:#58559a}
        </style>
    </defs>
    <g id="icon_board" transform="translate(2.75 7.25)">
        <path id="사각형_1079" d="M0 0h49v53H0z" class="cls-1" data-name="사각형 1079" transform="translate(-2.75 -7.25)"/>
        <path id="패스_516" d="M38.03 37.893H5.28a4.46 4.46 0 0 1-4.53-4.382V5.132A4.46 4.46 0 0 1 5.28.75h32.74a4.46 4.46 0 0 1 4.53 4.382V33.5a4.447 4.447 0 0 1-4.52 4.393z" class="cls-2" data-name="패스 516" transform="translate(.5)"/>
        <path id="패스_522" d="M0 0h35.668" class="cls-3" data-name="패스 522" transform="translate(7.582 30.083)"/>
        <g id="그룹_2784" data-name="그룹 2784" transform="translate(.37 -3.51)">
            <g id="그룹_2786" data-name="그룹 2786" transform="translate(0 2)">
                <path id="선_30" d="M0 0h15.59" class="cls-4" data-name="선 30" transform="translate(16.35 14.23)"/>
                <circle id="타원_508" cx=".97" cy=".97" r=".97" class="cls-5" data-name="타원 508" transform="translate(11.38 13.26)"/>
            </g>
            <g id="그룹_2788" data-name="그룹 2788">
                <path id="선_31" d="M0 0h15.59" class="cls-4" data-name="선 31" transform="translate(16.35 21.26)"/>
                <circle id="타원_509" cx=".97" cy=".97" r=".97" class="cls-5" data-name="타원 509" transform="translate(11.38 20.29)"/>
            </g>
            <g id="그룹_2787" data-name="그룹 2787" transform="translate(0 -2)">
                <path id="선_32" d="M0 0h15.59" class="cls-4" data-name="선 32" transform="translate(16.35 28.29)"/>
                <circle id="타원_510" cx=".97" cy=".97" r=".97" class="cls-5" data-name="타원 510" transform="translate(11.38 27.32)"/>
            </g>
        </g>
    </g>
</svg>
