<svg xmlns="http://www.w3.org/2000/svg" width="49" height="53" viewBox="0 0 49 53">
    <defs>
        <style>
            .cls-1,.cls-2,.cls-3,.cls-4,.cls-5{fill:none}.cls-2,.cls-3,.cls-4{stroke:#333}.cls-2,.cls-3,.cls-4,.cls-5{stroke-miterlimit:10}.cls-2{stroke-width:1.8px}.cls-3,.cls-5{stroke-width:1.5px}.cls-4{stroke-width:2px}.cls-5{stroke:#58559a;stroke-linecap:round}
        </style>
    </defs>
    <g id="icon_mail" transform="translate(3.25 5.246)">
        <path id="사각형_1077" d="M0 0h49v53H0z" class="cls-1" data-name="사각형 1077" transform="translate(-3.25 -5.246)"/>
        <g id="그룹_5" data-name="그룹 5" transform="translate(.75 .754)">
            <path id="패스_5" d="M37.263 7.932l3.353 2.342a3.978 3.978 0 0 1 1.42 3.1v20.032a4.833 4.833 0 0 1-4.553 5.08H5.3a4.842 4.842 0 0 1-4.55-5.08V13.349a3.962 3.962 0 0 1 1.391-3.074l3.4-2.445" class="cls-2" data-name="패스 5" transform="translate(-.75 2.53)"/>
            <path id="패스_6" d="M9.38 5.462l5.563-4a3.693 3.693 0 0 1 4.319-.029l6.076 4.246" class="cls-2" data-name="패스 6" transform="translate(3.254 -.754)"/>
            <path id="선_3" d="M0 0l11.756 12.107" class="cls-3" data-name="선 3" transform="translate(0 18.91)"/>
            <path id="선_4" d="M11.756 0L0 12.107" class="cls-3" data-name="선 4" transform="translate(29.544 18.91)"/>
            <path id="패스_7" d="M1.8 31.625L13.732 21.07a3.751 3.751 0 0 1 2.738-1.23h8.857a3.727 3.727 0 0 1 2.738 1.23L40 31.625" class="cls-3" data-name="패스 7" transform="translate(-.263 8.103)"/>
        </g>
        <path id="패스_8" d="M4.02 22.918V8.131A3.844 3.844 0 0 1 7.695 4.12h24.39a3.863 3.863 0 0 1 3.675 4.011V22.9" class="cls-4" data-name="패스 8" transform="translate(1.517 1.562)"/>
        <g id="그룹_2818" data-name="그룹 2818">
            <path id="선_5" d="M0 0h13.352" class="cls-5" data-name="선 5" transform="translate(15.01 14.754)"/>
            <path id="선_6" d="M0 0h13.352" class="cls-5" data-name="선 6" transform="translate(15.01 19.336)"/>
        </g>
    </g>
</svg>
