<?xml version="1.0" standalone="no"?>
<!DOCTYPE svg PUBLIC "-//W3C//DTD SVG 20010904//EN"
 "http://www.w3.org/TR/2001/REC-SVG-20010904/DTD/svg10.dtd">
<svg version="1.0" xmlns="http://www.w3.org/2000/svg"
 width="567.000000pt" height="567.000000pt" viewBox="0 0 567.000000 567.000000"
 preserveAspectRatio="xMidYMid meet">
<metadata>
Created by potrace 1.14, written by Peter Selinger 2001-2017
</metadata>
<g transform="translate(0.000000,567.000000) scale(0.100000,-0.100000)"
fill="#000000" stroke="none">
<path d="M1080 5654 c-30 -8 -80 -26 -110 -40 -35 -16 -78 -27 -118 -29 -346
-19 -623 -225 -739 -549 -64 -181 -52 -413 30 -598 76 -171 241 -334 414 -408
l51 -22 1 -141 c1 -78 4 -164 6 -192 2 -27 6 -84 10 -125 6 -79 13 -139 20
-180 2 -14 7 -45 10 -70 5 -37 14 -86 20 -110 1 -3 5 -18 9 -35 44 -165 126
-303 228 -380 l37 -28 -50 -61 c-62 -77 -109 -167 -144 -276 -48 -150 -40
-387 17 -521 13 -30 13 -40 2 -70 -7 -18 -20 -59 -29 -89 l-15 -55 -64 -17
c-295 -77 -519 -324 -585 -643 -15 -74 -6 -267 17 -350 61 -223 214 -410 418
-513 114 -58 219 -83 359 -88 58 -2 101 -10 155 -30 65 -24 90 -28 185 -28
168 0 289 49 405 164 73 72 119 148 152 251 l21 68 61 21 c245 87 422 310 470
595 17 96 25 503 12 562 -9 40 -18 303 -11 333 5 24 13 30 58 41 29 7 67 18
85 26 30 12 41 11 113 -12 44 -13 98 -28 122 -31 47 -7 360 -6 397 1 13 3 42
7 63 11 22 3 66 13 98 23 63 20 69 17 69 -32 1 -40 56 -183 101 -263 28 -51
72 -107 124 -158 l80 -80 -71 -71 c-327 -322 -329 -837 -5 -1155 149 -147 333
-226 546 -235 53 -2 96 -10 128 -24 136 -59 330 -50 472 21 35 18 80 50 138
98 48 40 129 173 150 245 24 83 30 217 12 286 l-13 48 37 12 c61 19 173 79
231 122 277 206 395 565 293 892 -52 167 -170 330 -309 426 -59 40 -178 96
-245 115 -50 14 -59 21 -72 53 -36 84 -55 149 -47 157 23 24 52 174 56 284 7
250 -71 442 -251 616 l-63 61 62 59 c102 97 170 202 214 329 32 95 41 161 38
285 -2 67 3 140 10 175 7 33 16 80 19 105 6 48 6 276 0 375 -2 33 0 64 5 70 4
5 16 38 25 73 39 154 17 311 -64 441 -47 76 -66 98 -126 147 -103 84 -204 123
-335 129 -105 4 -175 -8 -259 -46 -36 -16 -89 -32 -120 -34 -105 -9 -142 -16
-226 -45 -147 -49 -288 -150 -381 -273 -163 -218 -210 -503 -124 -753 l21 -59
-27 -91 -27 -90 -67 -18 c-259 -66 -495 -302 -560 -556 -19 -77 -21 -80 -39
-80 -10 0 -49 -10 -87 -23 l-69 -23 -70 22 c-38 13 -78 23 -87 23 -10 1 -18 4
-19 9 -2 21 -9 47 -29 106 l-21 64 25 84 c31 103 38 152 38 250 -3 296 -170
572 -429 709 -65 34 -71 44 -79 124 -10 102 -74 331 -111 398 -73 132 -180
222 -322 275 -83 30 -237 38 -321 16z"/>
</g>
</svg>
