<svg xmlns="http://www.w3.org/2000/svg" width="131.039" height="37.1" viewBox="0 0 131.039 37.1"><defs><style>.a{fill:#fff;stroke:rgba(0,0,0,0);}</style></defs><g transform="translate(-425.459 -80.769)"><path class="a" d="M-784.673,190.372l-.022-.006.087-.807.04.017a3.429,3.429,0,0,0,1.137.267c.423,0,1.054-.232,1.054-.872,0-.546-.477-.771-1.025-1.029-.634-.3-1.353-.635-1.353-1.588,0-.933.709-1.537,1.808-1.537a3.717,3.717,0,0,1,1.192.2l.025.01-.121.793-.038-.012a2.389,2.389,0,0,0-1.028-.229c-.281,0-.934.069-.934.705,0,.441.432.649.931.89.677.325,1.448.7,1.448,1.751s-.752,1.681-2.054,1.681A3.76,3.76,0,0,1-784.673,190.372Zm-13.105-2.663a2.651,2.651,0,0,1,2.7-2.893,2.652,2.652,0,0,1,2.7,2.893,2.626,2.626,0,0,1-2.7,2.9A2.624,2.624,0,0,1-797.778,187.709Zm1.511-1.671a2.356,2.356,0,0,0-.605,1.671c0,.985.466,2.133,1.791,2.133s1.791-1.148,1.791-2.133a2.361,2.361,0,0,0-.6-1.671,1.611,1.611,0,0,0-1.187-.461h-.017A1.6,1.6,0,0,0-796.267,186.038Zm66.6,4.471v-5.6h.859v4.835h2.315v.765Zm-8.544,0s-.547-1.356-.562-1.4h-2.669c-.017.04-.565,1.4-.565,1.4h-.9l2.389-5.6h.877l2.366,5.6Zm-2.95-2.111h2.106c-.032-.084-1-2.486-1.055-2.624C-740.161,185.912-741.125,188.314-741.156,188.4Zm-10.89,2.111v-4.837h-1.72v-.763h4.3v.763h-1.721v4.837Zm-10.2,0v-5.6h.855v5.6Zm-11.357,0v-5.6h1.484c1.38,0,2.11.587,2.11,1.691,0,1.06-.744,1.7-1.992,1.7h-.745v2.214Zm.857-2.977H-772a.959.959,0,0,0,1.08-.941c0-.674-.71-.919-1.188-.919h-.643Zm-33.881,2.977v-2.522h-2.586v2.522h-.859v-5.6h.859v2.316h2.586v-2.316h.855v5.6Zm55.348-10.43a5.869,5.869,0,0,1-1.691-4.576,5.782,5.782,0,0,1,2.11-4.956,6.32,6.32,0,0,1,3.81-1.126,9.255,9.255,0,0,1,3.753.7l.008,1.936a6.052,6.052,0,0,0-3.721-1.041c-1.048,0-2.678.3-3.27,1.757a7.33,7.33,0,0,0-.491,2.775,5.377,5.377,0,0,0,.857,3.279,3.98,3.98,0,0,0,2.947,1.111,4.207,4.207,0,0,0,1.821-.371v-3.022h-2.784l.021-1.63h4.73v5.688l-.13.07a8.148,8.148,0,0,1-3.787.893A5.981,5.981,0,0,1-751.284,180.079Zm-28.744-.021a6.432,6.432,0,0,1-1.637-4.671c0-3.743,2.086-6.064,5.441-6.064a5.168,5.168,0,0,1,4.3,1.944,6.811,6.811,0,0,1,1.232,4.352c0,2.254-.6,3.691-2,4.805a5.2,5.2,0,0,1-3.46,1.143A5.343,5.343,0,0,1-780.028,180.058Zm1.23-7.939a5.562,5.562,0,0,0-.625,2.986,7.561,7.561,0,0,0,.789,3.805,3.35,3.35,0,0,0,2.558,1.111,2.817,2.817,0,0,0,2.245-.893c.533-.582.883-1.367.883-3.313a7.3,7.3,0,0,0-.6-3.476,2.892,2.892,0,0,0-2.679-1.42A3,3,0,0,0-778.8,172.119Zm40.123,9.242.005-1.391a4.127,4.127,0,0,0,.594-.064,2.555,2.555,0,0,0,1.357-.99,3.659,3.659,0,0,0,.28-1.925v-7.471h2.066v7.438l-.039,1.223a3.237,3.237,0,0,1-.478,1.509,3.781,3.781,0,0,1-2.342,1.556,5.278,5.278,0,0,1-1.147.124C-738.564,181.37-738.676,181.361-738.676,181.361Zm9.8-.008V169.521h2.026v11.832Zm-30.543,0s-4.248-7.04-4.252-7.041c-.286-.485-.62-1.059-.912-1.59.035.583.064,1.185.075,1.821l.08,6.81h-2.128v-11.8h2.2l4.4,7.342c.2.341.445.8.661,1.229-.039-.657-.076-1.467-.087-2.171l-.061-6.4h2.049v11.8Zm-31.193,0v-4.672c-.07-.122-4.395-7.16-4.395-7.16h2.519l2.541,4.453s.251.48.448.861c.206-.368.468-.846.48-.861l2.576-4.453h2.382s-4.356,7.123-4.431,7.241v4.592Zm-9.094,0-.78-8.539s-.012-.261-.021-.382c-.031.106-.063.211-.092.294l-2.85,8.627h-1.7l-2.64-8.219-.141-.457-.1-.369c-.033.415-.052.758-.052.758l-.745,8.288h-2.014l1.192-11.832h2.691l2.433,7.575c.126.4.213.682.285.968l.2-.787.013-.053,2.509-7.7h2.711l1.168,11.832Zm57.46-17.817a2.205,2.205,0,0,1,2.338-2.269,2.423,2.423,0,0,1,1,.189l.022.009-.054.686-.048-.027a1.724,1.724,0,0,0-.88-.238,1.586,1.586,0,0,0-1.643,1.671,1.587,1.587,0,0,0,1.608,1.672,2.134,2.134,0,0,0,.933-.209l.047-.029.044.687-.021.009a2.675,2.675,0,0,1-1,.158A2.175,2.175,0,0,1-742.247,163.536Zm-32.238.019a2.1,2.1,0,0,1,2.131-2.289,2.1,2.1,0,0,1,2.133,2.289,2.075,2.075,0,0,1-2.133,2.289A2.074,2.074,0,0,1-774.485,163.555Zm1.2-1.309a1.85,1.85,0,0,0-.472,1.309c0,.772.365,1.672,1.4,1.672s1.4-.9,1.4-1.672a1.844,1.844,0,0,0-.472-1.309,1.272,1.272,0,0,0-.931-.362h-.012A1.257,1.257,0,0,0-773.282,162.246Zm-13.884,1.29a2.206,2.206,0,0,1,2.341-2.269,3.277,3.277,0,0,1,1.291.222l.026.006-.056.715-.049-.031a1.99,1.99,0,0,0-1.179-.294,1.584,1.584,0,0,0-1.64,1.671,1.586,1.586,0,0,0,1.607,1.672,2.343,2.343,0,0,0,.617-.06.378.378,0,0,1,.049-.009V163.9h-.92v-.582h1.612v2.328l-.023.008a4.123,4.123,0,0,1-1.34.194A2.176,2.176,0,0,1-787.167,163.536Zm-18.521.019a2.1,2.1,0,0,1,2.131-2.289,2.1,2.1,0,0,1,2.132,2.289,2.075,2.075,0,0,1-2.132,2.289A2.073,2.073,0,0,1-805.687,163.555Zm1.205-1.309a1.841,1.841,0,0,0-.477,1.309c0,.772.368,1.672,1.4,1.672s1.4-.9,1.4-1.672a1.845,1.845,0,0,0-.474-1.309,1.245,1.245,0,0,0-.927-.362h-.012A1.244,1.244,0,0,0-804.482,162.246Zm-6.011,1.29a2.2,2.2,0,0,1,2.339-2.269,2.423,2.423,0,0,1,1,.189l.023.009-.056.686-.049-.027a1.73,1.73,0,0,0-.881-.238,1.583,1.583,0,0,0-1.639,1.671,1.586,1.586,0,0,0,1.607,1.672,2.124,2.124,0,0,0,.932-.209l.051-.029.041.687-.023.009a2.667,2.667,0,0,1-1.006.158A2.175,2.175,0,0,1-810.493,163.536Zm81.526,2.233V161.34h2.509v.618h-1.817v1.208h1.655v.618h-1.655v1.367h1.817v.617Zm-2.911,0s-1.833-3.328-1.931-3.508v3.508h-.693V161.34h.906s1.785,3.254,1.882,3.434V161.34h.688v4.428Zm-5.339,0V161.34h.691v4.428Zm-7.528,0V161.34h.7v4.428Zm-5.531,0V161.34h1.319a2.176,2.176,0,0,1,2.359,2.177,2.1,2.1,0,0,1-2.359,2.251Zm.692-.617h.62a1.439,1.439,0,0,0,1.636-1.61,1.487,1.487,0,0,0-1.557-1.584h-.7Zm-5.084.617V161.34h2.513v.618h-1.82v1.208h1.654v.618h-1.654v1.367h1.82v.617Zm-2.759,0v-3.653c-.1.259-1.4,3.653-1.4,3.653h-.661s-1.3-3.393-1.4-3.653v3.653h-.693V161.34h1.087s1.282,3.4,1.345,3.56c.06-.165,1.319-3.56,1.319-3.56h1.089v4.428Zm-11.025,0V161.34h2.386v.618h-1.69v1.208h1.616v.618h-1.616v1.984Zm-12.958,0V161.34h2.509v.618h-1.819v1.208h1.66v.618h-1.66v1.367h1.819v.617Zm-9.956,0V161.34h2.512v.618h-1.821v1.208h1.658v.618h-1.658v1.367h1.821v.617Zm-4.146,0V161.34h.691v3.812H-793v.617Zm-4.112,0V161.34h.7v3.812h1.822v.617Zm59.719-6.77-.026-.008.07-.653.043.017a2.694,2.694,0,0,0,.893.21c.332,0,.823-.181.823-.676,0-.426-.373-.6-.8-.8-.5-.237-1.073-.5-1.073-1.258s.565-1.222,1.433-1.222a2.987,2.987,0,0,1,.942.158l.027.01-.1.644-.039-.017a1.935,1.935,0,0,0-.806-.178c-.219,0-.727.056-.727.547,0,.341.34.5.731.692.536.258,1.143.551,1.143,1.388s-.592,1.334-1.628,1.334A3.01,3.01,0,0,1-739.907,159Zm-33.236-2.123A2.2,2.2,0,0,1-770.8,154.6a3.336,3.336,0,0,1,1.295.22l.023.009-.056.714-.051-.031a2,2,0,0,0-1.182-.294,1.585,1.585,0,0,0-1.637,1.671,1.589,1.589,0,0,0,1.607,1.672,2.3,2.3,0,0,0,.617-.06.4.4,0,0,1,.051-.006v-1.265h-.92v-.578h1.612v2.322l-.026.01a4.143,4.143,0,0,1-1.339.194A2.173,2.173,0,0,1-773.143,156.876Zm-10.555.017a2.1,2.1,0,0,1,2.132-2.289,2.1,2.1,0,0,1,2.134,2.289,2.076,2.076,0,0,1-2.134,2.29A2.075,2.075,0,0,1-783.7,156.893Zm1.205-1.31a1.836,1.836,0,0,0-.474,1.31c0,.772.364,1.672,1.4,1.672s1.4-.9,1.4-1.672a1.833,1.833,0,0,0-.478-1.31,1.245,1.245,0,0,0-.924-.36h-.012A1.25,1.25,0,0,0-782.492,155.582Zm17.014,1.685V154.68h.691v2.51c0,.936.328,1.374,1.033,1.374s1.035-.438,1.035-1.374v-2.51h.692v2.587c0,1.236-.612,1.914-1.728,1.914S-765.478,158.5-765.478,157.267Zm37.093,1.839v-1.847c-.013-.017-1.739-2.579-1.739-2.579h.815s1.226,1.842,1.28,1.928l1.249-1.928h.815l-.036.052s-1.686,2.521-1.693,2.517v1.857Zm-4.417,0V155.3h-1.356v-.617h3.4v.617h-1.354v3.809Zm-3.2,0V154.68h.695v4.426Zm-5.752,0-.674-1.529c-.187-.406-.369-.406-.7-.406h-.338v1.935h-.695V154.68h1.1c.854,0,1.726.144,1.726,1.214a1.035,1.035,0,0,1-.858,1,.812.812,0,0,1,.382.423l.846,1.786Zm-1.714-2.553h.495c.57,0,.909-.241.909-.647,0-.386-.308-.609-.839-.609h-.565Zm-4.69,2.553V154.68h2.509v.617h-1.818v1.2h1.656v.619h-1.656v1.367h1.818v.618Zm-3.656,0-1.669-4.426h.774s1.276,3.618,1.324,3.758c.051-.137,1.362-3.758,1.362-3.758h.732l-1.7,4.426Zm-3.462,0V154.68h.691v4.426Zm-2.488,0s-1.834-3.329-1.932-3.51v3.51h-.692V154.68h.9l1.883,3.432V154.68h.691v4.426Zm-17.636,0s-1.836-3.329-1.932-3.51v3.51h-.692V154.68h.9s1.786,3.254,1.881,3.432V154.68h.7v4.426Zm-13.213,0V154.68h1.323a2.172,2.172,0,0,1,2.356,2.175,2.1,2.1,0,0,1-2.356,2.251Zm.695-.618h.622a1.435,1.435,0,0,0,1.632-1.607,1.489,1.489,0,0,0-1.559-1.584h-.695Zm-3.141.618s-1.834-3.329-1.931-3.51v3.51h-.693V154.68h.9s1.787,3.254,1.883,3.432V154.68h.693v4.426Zm-4.51,0s-.426-1.056-.445-1.1H-798.1c-.021.041-.446,1.1-.446,1.1h-.731l1.888-4.426h.7l1.873,4.426Zm-2.307-1.678h1.634c-.035-.087-.758-1.891-.818-2.035C-797.118,155.537-797.844,157.341-797.878,157.428Zm-4.094,1.678s-.88-3.524-.929-3.727c-.051.2-.936,3.727-.936,3.727h-.893l-1.334-4.426h.758s.969,3.467,1.024,3.657c.045-.192.91-3.657.91-3.657h.941s.876,3.467.921,3.659c.056-.191,1.025-3.659,1.025-3.659h.736l-1.366,4.426Zm-5.679,0-1.892-2.08v2.08h-.692V154.68h.692v1.865c.109-.114,1.809-1.865,1.809-1.865h.931s-2.036,2.049-2.083,2.094l2.243,2.331Z" transform="translate(1281.503 -73.235)"/><path class="a" d="M-740.738,105.368s.465-.171.524-.943l.714-11.244c-3.134-.748-4.8-.487-8.2-1.86a1.075,1.075,0,0,1-.772-.858c0-.3.324-.211.737-.11a21.8,21.8,0,0,0,7.3.683l0-.017a1.073,1.073,0,0,0,1.086-.824l.31-6.42c0-.569.232-1.028.518-1.028s.516.459.516,1.028l.145,6.473a.455.455,0,0,0,.4.382l.534.121a29.336,29.336,0,0,0,8.478-1.676c.285-.079.539.132.586.483a.641.641,0,0,1-.433.728,56.77,56.77,0,0,1-9.5,2.814l.564,11.425c.095.262.3.744.512.842Zm-6.448-8.936a3.753,3.753,0,0,1,1.393-3.265,3.27,3.27,0,0,1,2.232,2.58,4.767,4.767,0,0,1-1.335,3.661A4.593,4.593,0,0,1-747.185,96.432Zm13.7,2.828a3.242,3.242,0,0,1-1.266-3.157,4.816,4.816,0,0,1,2.464-3.036,4.551,4.551,0,0,1,1.188,3.55,3.835,3.835,0,0,1-2.373,2.645Zm-17.279-1a3.247,3.247,0,0,1-.977-3.258,4.823,4.823,0,0,1,2.72-2.81,4.543,4.543,0,0,1,.872,3.64,3.864,3.864,0,0,1-2.592,2.43Zm21.1-2.444a3.744,3.744,0,0,1,.328-3.529,3.3,3.3,0,0,1,2.92,1.794,4.751,4.751,0,0,1-.153,3.888A4.652,4.652,0,0,1-729.662,95.819Zm4.991-1.786a4.777,4.777,0,0,1-1.974-3.37,4.7,4.7,0,0,1,3.78.189,3.753,3.753,0,0,1,1.628,3.156,2.843,2.843,0,0,1-1.749.488A3.167,3.167,0,0,1-724.671,94.033Zm-30.312-.75a4.549,4.549,0,0,1,1.091-3.582,3.86,3.86,0,0,1,3.491-.8,3.225,3.225,0,0,1-.8,3.3,4.545,4.545,0,0,1-3.138,1.122A4.561,4.561,0,0,1-754.983,93.283ZM-748.8,86.7a4.782,4.782,0,0,1,1.751-3.485,4.58,4.58,0,0,1,1.931,3.215,3.783,3.783,0,0,1-1.761,3.09h0A3.277,3.277,0,0,1-748.8,86.7Zm4.487,2.812a4.544,4.544,0,0,1,.715-3.673,3.849,3.849,0,0,1,3.389-1.155,3.223,3.223,0,0,1-.456,3.368,4.792,4.792,0,0,1-3.527,1.462C-744.27,89.514-744.313,89.512-744.313,89.512Zm17.544-1.989a3.3,3.3,0,0,1,2.854-1.9,4.859,4.859,0,0,1,3.525,1.73,4.639,4.639,0,0,1-3.254,1.908h-.079A3.848,3.848,0,0,1-726.77,87.522Zm-8.393.329a3.239,3.239,0,0,1-1-3.252,3.867,3.867,0,0,1,3.534.6,4.548,4.548,0,0,1,1.308,3.51,5.089,5.089,0,0,1-.984.088A4.4,4.4,0,0,1-735.162,87.851Zm-18.524-.365a4.8,4.8,0,0,1-2.3-3.162,4.687,4.687,0,0,1,3.782-.178,3.777,3.777,0,0,1,1.931,2.985,3.059,3.059,0,0,1-2.034.67A3.112,3.112,0,0,1-753.686,87.486Zm24.467.136a3.241,3.241,0,0,1-1.269-3.158,4.812,4.812,0,0,1,2.464-3.035,4.551,4.551,0,0,1,1.19,3.548,3.827,3.827,0,0,1-2.372,2.646Zm3.938-2.637a3.233,3.233,0,0,1-.911-3.276,4.826,4.826,0,0,1,2.782-2.753,4.545,4.545,0,0,1,.793,3.656,3.871,3.871,0,0,1-2.637,2.376A.1.1,0,0,1-725.28,84.985Zm-26.912-3.758a3.751,3.751,0,0,1,.971-3.411,3.284,3.284,0,0,1,2.538,2.287,4.752,4.752,0,0,1-.863,3.8A4.616,4.616,0,0,1-752.193,81.226Zm14.554.739A3.286,3.286,0,0,1-735,79.79a4.883,4.883,0,0,1,3.687,1.366,4.623,4.623,0,0,1-3.04,2.225,2.981,2.981,0,0,1-.383.024A3.871,3.871,0,0,1-737.639,81.965Zm-6.151,1.183a4.823,4.823,0,0,1-2.967-2.558,4.677,4.677,0,0,1,3.637-1.03,3.8,3.8,0,0,1,2.574,2.469,3.267,3.267,0,0,1-2.556,1.2A3.044,3.044,0,0,1-743.79,83.148Zm2.864-4.01a4.755,4.755,0,0,1,1.16-3.718,4.608,4.608,0,0,1,2.429,2.871,3.748,3.748,0,0,1-1.238,3.326l-.026,0A3.325,3.325,0,0,1-740.926,79.138Zm8.909-.036a3.265,3.265,0,0,1,2.093-2.7,4.9,4.9,0,0,1,3.9.535,4.6,4.6,0,0,1-2.474,2.832,3.142,3.142,0,0,1-1.067.18A3.85,3.85,0,0,1-732.017,79.1Zm-14.721-.721a4.8,4.8,0,0,1-2.239-3.2,4.7,4.7,0,0,1,3.782-.113,3.773,3.773,0,0,1,1.882,3.017,3.035,3.035,0,0,1-1.988.636A3.125,3.125,0,0,1-746.738,78.382Zm12.444-4.544a3.841,3.841,0,0,1,3.243-1.511,3.235,3.235,0,0,1-.083,3.4,4.88,4.88,0,0,1-3.469,1.843A4.537,4.537,0,0,1-734.294,73.838Zm-3.18,1.931a3.252,3.252,0,0,1-1.612-3,4.806,4.806,0,0,1,2.11-3.288,4.574,4.574,0,0,1,1.58,3.4,3.8,3.8,0,0,1-2.073,2.888Zm-6.959-2.63a4.755,4.755,0,0,1,.965-3.77,4.609,4.609,0,0,1,2.573,2.742,3.753,3.753,0,0,1-1.061,3.385.167.167,0,0,1-.039,0A3.348,3.348,0,0,1-744.434,73.139Z" transform="translate(1182 12)"/></g></svg>