<svg xmlns="http://www.w3.org/2000/svg" width="80" height="76" viewBox="0 0 80 76"><defs><style>.a{fill:#164193;}</style></defs><g transform="translate(-17.637 -125.518)"><g transform="translate(17.637 125.518)"><path class="a" d="M96.427,161.093,78.031,143.5c-3.031,3.673-5.993,7.524-5.993,7.524-3.85,5.6-7.859,6.713-7.859,6.713a33.455,33.455,0,0,1-13.8,0c4.518-.871,17.911-18.106,20.321-21.247l-10.374-9.923s-2.085-2.559-4.974.319l-17.328,15.5s4.974-.16,6.9.641a10.42,10.42,0,0,1,4.816,3.357s2.405,4.636,4.33,4.636c0,0,1.284,2.718-5.136,2.878a6.67,6.67,0,0,1-5.454-4.955,7.445,7.445,0,0,0-6.575-5.6L18.448,161.415s-1.442,1.226-.481,2.077H64.659s1.282-5.274,4.33-1.6c0,0,1.6-2.878,3.532-.322,0,0,1.121-5.434,4.974-1.436,0,0,2.245-5.915,5.134-3.037,0,0,1.765.638,2.405,4.155,0,0,2.728-3.835,4.173,2.239,0,0-34.657.638-59.525,12.629l9.3,9.112s32.732-16.145,52.789-19.823c0,0-25.03,9.432-44.284,27.813l7.221,7.035s2.566,3.037,6.095-.319l36.1-34.37S98.833,162.532,96.427,161.093Z" transform="translate(-17.637 -125.518)"/></g><path class="a" d="M38.965,133.062c8.185-9.432,23.2-4.155,23.2-4.155-3.046.16-10.267,5.274-10.267,5.274a51.758,51.758,0,0,0-5.937,6.333l-7.44-6.934Z" transform="translate(32.224 2.941)"/></g></svg>