<svg xmlns="http://www.w3.org/2000/svg" width="93" height="74" viewBox="0 0 93 74"><defs><style>.a{fill:#e3032e;}.b{fill:#009ee2;}.c{fill:#009657;}</style></defs><g transform="translate(-152.347 -15.561)"><path class="a" d="M184.676,15.76a2.069,2.069,0,0,1,1.018.437c.161-.007.222.266.43.163.175.276.469.306.684.52-.049.15.173.027.119.18h.059v.412c.077.044.168.02.257.03v.22c.326-.01.568.187.879.2.143.079.133.266.277.274.094.072.04.2.161.249-.143.257.291.274.168.516.148.052.027.207.17.247a1.286,1.286,0,0,0,.329.646c.069.323.442.533.4.905a6.361,6.361,0,0,1,.324,1v1.006c-.193.03-.062.308-.106.454-.052.165-.235.279-.158.5.007.037.057.007.079.02,0,.091-.022.195.079.247v.641c-.079.133-.158.276-.24.412.049.131-.141.039-.077.17-.074.084-.225.133-.193.264h-.069c.054.259-.165.409-.2.639-.123.044-.1.247-.252.247.067.118-.114.128-.081.234-.178.03-.252.3-.454.286-.264.141-.225.444-.491.6.1.227-.212.168-.128.368a.61.61,0,0,1-.306.141c-.212.136-.42.261-.62.38.01.118-.128.106-.19.168a2.109,2.109,0,0,1-1.04.683c-.284.079-.622.054-.862.269-.217.1-.5.03-.662.244-.136.15-.375.037-.561.106-.817.385-1.709-.057-2.625.059-.158-.1-.63.072-.472-.311l-.267-.042v-.39c-.109.007-.217.143-.333.224-.049-.081-.069-.18-.208-.16-.1.1-.225.118-.262.269-.079.03-.106-.054-.153-.091.03-.123-.121-.175-.183-.264-.163-.01-.21.264-.415.165a.321.321,0,0,0-.1-.165c-.049.067-.146.1-.109.187l-.356.244h-.4c.242-.123.153-.377.17-.594.044.01.062-.025.086-.047v-.469l-.2-.274c-.1.032-.02.232-.165.17-.047.03-.079.111-.148.081-.015-.155.136-.3.086-.5l-.1-.044c.279-.17-.116-.281,0-.513a3.236,3.236,0,0,1-.247-.39c-.027-.035-.057-.012-.091-.02.035-.123-.062-.276.091-.355v-.7c-.185-.054,0-.266-.168-.333.067-.217-.2-.3-.109-.533-.138-.047-.017-.2-.163-.247-.047-.163-.03-.343-.183-.459-.017-.121.044-.279-.091-.348a7.021,7.021,0,0,1,.054-1.152,2.411,2.411,0,0,0,.037-.646c.158-.062.089-.227.1-.345.084.022.119-.037.173-.081v-.084c.1-.02.106-.237.259-.232l.047-.039c-.012-.012-.02-.032-.047-.017v-.064c.047.01.064-.022.091-.042-.1-.2.173-.118.081-.311.151-.062.057-.22.079-.326-.188-.1.012-.409-.161-.548a6.528,6.528,0,0,1,.412-.671c-.012-.03-.044-.027-.062-.027.027-.109-.074-.289.074-.348-.057-.121.151-.128.089-.249.064-.086.205-.143.183-.269.1.035.064-.084.1-.126.079-.1.215-.165.235-.281.249.042.38-.254.529-.4-.062-.143.348-.261.091-.328-.067-.17.086-.2.178-.269a2.733,2.733,0,0,1,1.121-.765c.338-.064.677-.123,1.013-.187.121-.02.222-.109.378-.079.205-.333.61-.195.864-.442.151,0,.316.025.425-.076C183.325,15.635,184.12,15.418,184.676,15.76Z" transform="translate(35.199 0)"/><path class="b" d="M234.082,46.029c0,1.364-16.579,2.464-37.031,2.464s-37.039-1.1-37.039-2.464,16.582-2.467,37.039-2.467S234.082,44.67,234.082,46.029Z" transform="translate(11.265 41.068)"/><g transform="translate(152.347 23.984)"><path class="c" d="M171.061,20.726a15.34,15.34,0,0,1,6.355,2.459,1.749,1.749,0,0,0,1.171-.244,3.554,3.554,0,0,0-1.489-1.672c-1.418-.609-3.038-.742-4.238-1.889-.225.481-.746.5-1.225.506-.805-.133-1.388-.819-2.28-.772-.259.076-.272.368-.5.5-.017.123.049.276-.062.36a.707.707,0,0,0,.094.6Z" transform="translate(-128.224 -18.779)"/><path class="c" d="M222.272,59.153l.934.9a.871.871,0,0,1,.185,1.014c1.094,1.362,3.463,6.626,4.374,8.32l.106-.363c-.183-1.635-.822-1.337-.679-2.842-.533-.318-.37-1.214-.734-1.645a10.855,10.855,0,0,0-1.316-2.844c-.02-.16-.324-.143-.437-.271a10.12,10.12,0,0,0-1.4-3.722c-.22-.639-.785-1.542-1.022-2.19-.667-1.929-2.983-4.822-3.048-5.831-1.037-.767-1.361-2.457-2.1-3.434A9.435,9.435,0,0,0,215.565,44c-.19-.471-.719-.782-.988-1.216-.22-.249-.249-.641-.546-.807-.262.084-.373-.18-.632-.094l-.869-1.307a2.372,2.372,0,0,0-1.23-1.164c-.294-.2-.531.266-.751-.126-.346-.508-.408-1.112-.756-1.618-.19-.168-.279.2-.467.025a6.241,6.241,0,0,0-.168-.757,2.09,2.09,0,0,1-1.376-.784c-.341-.183-.61-.7-.993-.543-.491.224-.4-.385-.706-.622a1.316,1.316,0,0,0-.277-.565c-.242-.017-.173-.412-.472-.3-.161-.229-.319.042-.482.059-.217-.239-.074-.617-.119-.93-.156-.047-.025-.217-.185-.269-.264.072-.548.044-.689.358-.669.064-1.1-.6-1.4-1.137-.227.02-.506-.062-.654.146-.217.035-.578.106-.63-.207a2.32,2.32,0,0,0-.7-1.034c-.341-.279-.753-.274-1.092-.493-.3-.195-.408-.459-.8-.6-.328-.111-.7-.126-1.025-.227-.827-.254-1.707-.343-2.549-.627a3.94,3.94,0,0,0-.546-.207.924.924,0,0,1-.84.212c-.358-.244-.793-.328-1.074-.747l-.183.664-.662.049a2.357,2.357,0,0,0-1.079.486,1.9,1.9,0,0,1-1.287-.513,2.832,2.832,0,0,1-.985.844c-.114.074-.311-.032-.393.118-.264-.106-.37.192-.632.086-.079.212-.469-.222-.469.067,0,.382-.81.565-.8.338-.173.343-.012.676-.343.937-.2.03-.3-.212-.447-.323a15.9,15.9,0,0,0-1.741.266l-.185.417c-.341.178-.366.649-.534.96l-.153-.086a.5.5,0,0,0-.45.146c-.361-.131-.3.358-.6.3a1.977,1.977,0,0,1-.477.281c-.19.052-.309.3-.516.291-.183.136-.245.375-.388.57-1.052,1.465-1.689.918-1.835.807.079-.533.709-.878.993-1.29a6.883,6.883,0,0,1,1.2-1.1c.173-.173.227-.407.415-.565.2-.18.5-.242.7-.439a4.116,4.116,0,0,1,.326-.286c.743-.661,1.783-1.12,1.971-1.381.19.118.405-.084.62-.042l.388-.148c.2-.422.845-.634,1.19-.893a.618.618,0,0,0,.558.18c.442-.148.906-.052,1.156-.471a1.036,1.036,0,0,1,.985-.155.7.7,0,0,1,.242-.382,1.21,1.21,0,0,1,.837-.178c.2.222.563.067.785.242.222-.007.469.032.622-.153.17-.136.17-.355.242-.543.835.062,1.8-.192,2.4.454a4.463,4.463,0,0,1,3.8.333c1.146.407,2.191,1.108,3.295,1.616.4.015.687.3,1.052.38.464.331.43.861.85,1.206.178-.015.383.044.538-.064a51.325,51.325,0,0,1,6.918,5c2.677,2.287,7.031,8.076,8.81,10.905.222.165.561.385.6.686a1.4,1.4,0,0,1,.4.644c.227.37,1.677,2.7,2.331,3.848a3.938,3.938,0,0,0,.852.858c-1.082-3.012-3.27-6.238-4.858-9.06-1.581-2.363-2.84-4.835-4.833-7.015a3.277,3.277,0,0,0-.956-1.014c-.4-.429-.477-1.236-1.223-1.177a5.22,5.22,0,0,0-2.166-2.662l-.321-.062c-.037.081.052.109.089.15,0,.2.044.429-.18.543-.4-.126-.43-.557-.788-.784-.894-.656-1.687-1.554-2.606-2.185a5.792,5.792,0,0,0-.778-.92c-.729-.4-1.489-.718-2.186-1.177-.183-.286-.6-.5-.783-.841-.225-.025-.514.079-.692-.081-1.025-.133-1.736-1.026-2.611-1.529-.366.015-.561-.382-.951-.3-.388-.3-1-.044-1.45-.207-.469.113-.731-.286-1.05-.535l-.146.141a1.469,1.469,0,0,1-1.6.064c-.5-.054-1.205-.227-1.516.36a3.638,3.638,0,0,1-1.146-.331c-1.027.025-1.838.4-3.174.585-.743.461-1.388.437-2.131.881a3.8,3.8,0,0,0-1.1.6c-.3-.03-.657.234-.877-.03.012-.227.291-.365.311-.585a4.993,4.993,0,0,0,1.462-.977c.563-.121,1-.57,1.578-.656v-.01c.072-.022.148-.044.22-.064.338-.076.689-.109,1.015-.192a17.9,17.9,0,0,1,11.208.6,25.81,25.81,0,0,1,7.528,4.906c.7.6,1.931,1.848,2.1,1.707s-.435-.708-.45-1.08a1.635,1.635,0,0,0-.479-.592c-.2.03-.37-.784-.546-.619-1.106-1.1-2.134-2.033-3.292-3.007a20.132,20.132,0,0,0-5.94-3.355,22.983,22.983,0,0,0-3.035-.535c-.42-.123-.741-.511-1.193-.572a2.781,2.781,0,0,0-1.712.3c-.682-.5-1.591-.091-2.341,0a5.606,5.606,0,0,0-.516.244,3.508,3.508,0,0,1-.642.118,3.727,3.727,0,0,1-1.284-.148c.02.466-.877.518-1.173.6-.106.03-.4.222-.39.195a2,2,0,0,0-1.591.755c-.351-.044-.874.123-.783-.486.035-.2.2-.306.353-.429a1.075,1.075,0,0,0,.222-.17.613.613,0,0,0,.089-.163c.022-.02.859-.454.859-.454.506-.057,1.042-.553,1.5-.155.084-.363.474-.449.751-.565a1.093,1.093,0,0,0,1.02-.483,10.68,10.68,0,0,1,2.309-.148c.183-.173.5-.037.714-.121.156-.1.454-.16.42-.387.2-.269-.01-.7.178-.957-.378-.464-.78.1-1.2.086-.116-.133-.294-.252-.356-.419-1.082.148-2.1.424-3.179.565-.175.111-.445.284-.533-.02-.529-.212-.85.2-1.213.471-.131-.015-.319.049-.417-.057-.872.688-1.983.8-2.875,1.436l-.059-.089c-.225.012-.356-.252-.514-.328l-.047.062a12.377,12.377,0,0,1-3.1.989l-.536.328c-.632.429-.353,1.339-1.018,1.648h-1.924c-.249.012-.232.306-.447.419a.7.7,0,0,1-.121.535l-1.171.237a18.139,18.139,0,0,1-1.408,1.293c-1.156.75-2.166,1.855-3.295,2.637-.2.8-1.062.969-1.657,1.315a1.445,1.445,0,0,0-.445.723c-.175.163.136.634-.264.594a3.073,3.073,0,0,0-.551,1.2c-.168.106-.319.284-.538.3l-4.71,6.253c.084,2.274-2.03,3.633-2.487,5.7a26.412,26.412,0,0,0-3.055,5.476l-2.122,6.29a36.574,36.574,0,0,0-.311,5.15c.116.523.254,1.468.39,1.944a6.471,6.471,0,0,0,2.018,2.856,5.048,5.048,0,0,0,5.028,1.828,14.463,14.463,0,0,0,3.124-1.5,6.825,6.825,0,0,0,2.425-1.379,6.022,6.022,0,0,0,1.2-1.766,50.042,50.042,0,0,1,2.2-5.387c.664-1.621,1.872-3.019,2.675-4.586.007-.35.089-.673.114-1.021a21.408,21.408,0,0,0,1.348-2.267c-.141-.479.378-.71.63-.994a.114.114,0,0,1,.18.035c.077.012.143.126.21.057.163-.516-.082-1.189.212-1.648a5.517,5.517,0,0,0,1.376-1.534,10.787,10.787,0,0,1,1.556-2.449c.593-.291.566-.982.936-1.436,1.578-1.527,3.245-3,4.794-4.5a6.652,6.652,0,0,0,1.237-.836c.279-.54.9-.7,1.351-1.051a16.786,16.786,0,0,1,14.8-.863C207.019,38.325,214.784,45.33,222.272,59.153Z" transform="translate(-152.347 -18.976)"/><path class="c" d="M188.081,37.619a11.989,11.989,0,0,1,.716,1.288c.047.123.121.548-.079.582-.235.042-.637-.888-.733-1.046-.561-.92-1.139-1.833-1.739-2.728a47.246,47.246,0,0,0-4.1-5.326L182,30.113l-3.337-3.7c-1.613-1.618-3.346-2.95-5.011-4.433-.326-.22-.682-.417-.99-.666.059-.16.245-.281.361-.414.43.072.8-.2,1.146.037C178.53,23.938,185.334,32.061,188.081,37.619Z" transform="translate(-122.49 -16.255)"/><g transform="translate(38.604 21.617)"><path class="c" d="M213.878,44.776a10.107,10.107,0,0,1,1.136,1.606c-.067.449.6.629.763.984a16.116,16.116,0,0,1,.822,1.517,18.811,18.811,0,0,0,1.143,2.03.661.661,0,0,0,.111.333c.03.491.588.562.832.964,0,.109-.012.22.059.291.02.121.069.3-.059.385a12.3,12.3,0,0,1,1.618,3.18,13.6,13.6,0,0,0,.516,1.28,1.369,1.369,0,0,1,.3.681c.1.076.165.227.324.178a5.822,5.822,0,0,0-.484-1.522c-.114-.126-.247-.257-.2-.461.032-.513-.4-.846-.479-1.317-.4-.4-.133-1.078-.736-1.394a.366.366,0,0,0-.077-.311c.084-.363-.1-.553-.252-.819a3.778,3.778,0,0,1-.128-.945c-.262-.35-.4-.819-.7-1.149a2.1,2.1,0,0,0-.245-.888c-.136-.2-.38-.365-.491-.585-.422-.4-.193-.89-.617-1.288.044-.16-.121-.224-.185-.348-.242-.493-.637-.977-.847-1.418-.289-.412-.578-.829-.862-1.256a1.065,1.065,0,0,0-.3-.834c-.343-.054-.548-.434-.822-.659l.062-.192c-.141-.086-.217-.348-.435-.252-.143-.054-.047-.222-.064-.326-.852-.479-.894-1.482-1.637-2-.153-.118-.069-.34-.168-.483.062-.227-.175-.328-.294-.483-.111-.025-.272.069-.331-.074-.185.049-.175-.217-.348-.2.02-.128-.158-.173-.1-.323-.338-.19-.479-.627-.867-.777-.081.012-.175.15-.23,0-.227-.109-.573-.34-.541-.641-.02-.244-.282-.118-.427-.158-.19-.074-.054-.271-.121-.4-.03-.079-.119-.192-.217-.192.02-.178-.18-.062-.267-.1-.472-.175-.573-.742-1.032-.93a.224.224,0,0,0-.291.076c-.128.128-.247.025-.351-.1a.87.87,0,0,1-.6-.355c-.012-.178-.274-.113-.39-.232-.343-.353-1.178-.229-1.529-.6s-1.116-.1-1.42-.629c-.1.222-.121-.01-.3.012-.131-.143-.622-.02-.571-.279h-.225l-.035.254-1.269-.044c-.054-.049-.084-.138-.173-.1-.778-1.135.6-.5.6-.545v-.215c.173.032.04-.155.183-.192.44.224,1.136-.153,1.472.335.341-.091.368.116.746.116a2.651,2.651,0,0,1,1.1.234c.612.136,1.074.649,1.716.715l1.754.952c.85.627,1.758,1.058,2.586,1.722-.025.109.1.155.173.192a4.932,4.932,0,0,1,1.435,1.433c.524.89,1.548,1.186,2.06,2.074.333.57.768,1.073,1.121,1.618.245.365.385.782.613,1.147.267.424.9.308.6.789.17.039.291.146.338.464.153.442.494.826.635,1.275.751,1.073,1.709,3.143,1.909,3.049s-.368-1.574-.783-2.284a24.418,24.418,0,0,0-1.482-2.792l-.032-.234c-.119-.153-.082-.368-.249-.506A8.17,8.17,0,0,0,215,40.792c-.21-.6-.743-1.068-.889-1.69a4.356,4.356,0,0,0-1.067-1.354c-.012-.363-.432-.543-.464-.893-.217-.022-.316-.4-.583-.232.067.163-.091.224-.178.328a13.5,13.5,0,0,0-1.455-1.283l-.035-.109c-.363-.064-.58-.464-.872-.7-.052-.062-.042-.19-.158-.175-.459-.826-1.41-.8-2.038-1.406-.274-.035-.249-.407-.536-.429-.731-.15-1.247-.814-1.964-1-.291-.326-.8-.121-1.2-.18-.106-.094-.217-.195-.2-.328-.252.148-.6.044-.909.076a.487.487,0,0,0-.368-.173c-.111-.148-.329-.037-.425-.17-.151.022-.338-.072-.43.072l-.719-.15a7.611,7.611,0,0,0-2.988.276c-.506.007-.818.506-1.415.318a.334.334,0,0,0-.21-.128.5.5,0,0,1-.227-.34c.116-.232.43-.271.714-.244a8.717,8.717,0,0,1,4.678-.747,10.6,10.6,0,0,1,3.658.9c.383.271.832.358,1.2.644a17.472,17.472,0,0,1,3.332,2.306,17.882,17.882,0,0,0,1.339,1.406h.175c.138-.138.047-.387.077-.592-.077-.054-.124-.192-.232-.153-.067-.183-.245-.072-.37-.1-.351-.392-.689-.779-1.005-1.186a9.348,9.348,0,0,0-1.432-1.177c-.141-.2-.341-.6-.682-.506A7.466,7.466,0,0,0,204.8,30.21l-.116-.187-.815-.2a7.3,7.3,0,0,0-1.8-.318c-.361-.355-.924-.229-1.413-.257-.378.175-.892-.027-1.247.175-.244-.126-.521-.148-.775-.252a.361.361,0,0,1-.089.306,4.488,4.488,0,0,0-1.3.178.109.109,0,0,1-.079-.086c-.04.113-.156.039-.232.064-.1.17-.294.091-.417.19-.254-.155-.482-.318-.3-.525.519-.123,1.013-.286,1.536-.4.24-.291.692-.064.966-.269.252.2.659.022.934.155a3.9,3.9,0,0,0,1.339-.094.438.438,0,0,0,.1.012c.42.02.783.131,1.208.131l.044-.02,1.008.247a1.513,1.513,0,0,1,.743.22c.311.234.775.148,1.089.417.8.217,1.348,1.026,2.2,1.1V30.5c-.037-.316-.425-.375-.6-.654-.326-.081-.543-.4-.874-.479a1.281,1.281,0,0,0-.516-.261,7.538,7.538,0,0,1-.783-.555,1.285,1.285,0,0,1-.874.173,1.483,1.483,0,0,0-1.057-.525,4.76,4.76,0,0,0-.546-.128,4.85,4.85,0,0,0-.83-.113c-.1-.03-.217.01-.319-.01-.064.2-.222-.044-.361,0l-.183-.1c-.353.035-.946-.2-1.257-.059a18.755,18.755,0,0,0-4.208.567c-.148.01.091-.042.082-.138l-.247.254a.286.286,0,0,0-.245.081H193.31c-.368,0-.319.427-.526.619-.3.252-.711.215-1.062.333a1.384,1.384,0,0,0-1.166.163.783.783,0,0,1-.254.358.2.2,0,0,1-.175-.079.993.993,0,0,0-.778.326c-.188.03-.282.323-.519.274-.524.4-1.173.446-1.65.925-.457.289-.884.654-1.339.972-.054-.143-.2-.044-.3-.074-.04.03-.012.128-.1.1v.072a.47.47,0,0,0-.19.429c-.116-.022-.116.116-.161.173-.094.032-.158.123-.277.1-.217.1-.133.326-.153.5a8.883,8.883,0,0,1-1.455,1.029,11.014,11.014,0,0,0-1.9,1.376,3.094,3.094,0,0,1-.405.483c-.316.232-.2.649-.526.873a43.369,43.369,0,0,1-3.895,4.063,2.1,2.1,0,0,1-.37.639c-.146.429-.706.479-.793.932-.768.851-1.1,1.954-2.035,2.667A26.619,26.619,0,0,0,171.73,48.3a1.065,1.065,0,0,0-.427.422c-.454.266-.568.809-.83,1.223-.412.3-.412.767-.776,1.085a6.412,6.412,0,0,0-.64,1.194c-.353.345-.353.819-.521,1.221a1.774,1.774,0,0,0-.375,1.006,1.632,1.632,0,0,0-.1,1.226,2.222,2.222,0,0,0-.084.772l.161.178a3.252,3.252,0,0,0,.259,2.015c.089.242.037.528.274.718a6.838,6.838,0,0,0,2.072,2.24,5.6,5.6,0,0,0,1.511.7c-.032.279.294.025.363.22.158,0,.388.089.487-.079.563-.022.9-.567,1.457-.6.025-.153.205-.054.311-.079.173.133.41.123.6.232.037-.037.064-.109.136-.084V61.86c.338-.368.771-.491,1.109-.853a7.418,7.418,0,0,0,1.578-1.914v-.2c.168-.062.079-.232.106-.345a1.246,1.246,0,0,1,.343-.3c.664-.449.835-1.13,1.391-1.623.244.126.282-.281.514-.178a2.66,2.66,0,0,1,.408-1.066,4.154,4.154,0,0,0,.284-1.009,3.073,3.073,0,0,0,.519-.794,8.749,8.749,0,0,0,1-1.685c.8-1.64,1.877-3.165,2.816-4.746a5.231,5.231,0,0,0,.973-1.315,39.572,39.572,0,0,1,5.4-6.078,23.58,23.58,0,0,1,2.4-1.648c.457-.318,1.161-.269,1.4-.908a2.033,2.033,0,0,1,1.516-.427c.756-.143,1.341-.745,2.228-.607.111.148.282.173.42.261.072-.178.289.022.356-.178.383-.116.585.212.963.1.044.039.091.091.158.076.158-.17.454.015.6-.165l.037.089a.412.412,0,0,0,.306.076c.054.178.254.015.333.146.146-.025.1.123.131.2a3.034,3.034,0,0,1,1.018.133c.217.313.654.106.948.254.558.247,1.109.728,1.665.982.484.2,1.057.173,1.393.725A22.121,22.121,0,0,1,213.878,44.776Z" transform="translate(-167.978 -27.74)"/><path class="c" d="M184.511,29.642a2.921,2.921,0,0,0,.857.609c1.067,1.512,2.687,2.81,3.937,4.248.333.565.706,1.112,1.067,1.67.3-.076.247.333.5.348a9.919,9.919,0,0,1,.348,1.127.4.4,0,0,1,.262.254.775.775,0,0,0,.361.111c-.062.257.1.424.173.614.366.545.642,1.083,1.018,1.613.017.3.422.947.612.856s-.185-.338-.19-.545c-.284-.5-.215-1.13-.58-1.584a3.133,3.133,0,0,0-.706-1.058c.047-.126-.077-.2-.077-.321-.217-.348-.509-.54-.724-.915.138-.365-.316-.493-.291-.816-.094-.126-.215-.38-.351-.38a28.1,28.1,0,0,0-5.772-6.241h-.069l-.081-.074a1.28,1.28,0,0,0-.682.1C184.331,29.351,184.291,29.62,184.511,29.642Z" transform="translate(-144.252 -25.66)"/></g><g transform="translate(17.036 31.596)"><path class="c" d="M203.293,44.952c-.067-.437-1.267-2.257-1.408-2.657-.091-.136-.064-.326-.217-.446-.062-.271-.422-.429-.526-.688-.012-.072.057-.22-.084-.2-.032-.178-.225-.271-.331-.407a.559.559,0,0,1-.274-.434c-.148.025-.042-.153-.168-.185.116-.217-.22-.257-.188-.437a19.091,19.091,0,0,0-4.643-4.64c-.027,0-.771-.385-.8-.387-.151-.254-.753-.513-1-.651a5,5,0,0,0-1.867-.984l-.269-.269c-.143.02-.227-.113-.343-.165-.062.091-.158.109-.235.165-.2-.047-.514.121-.635-.165-.3-.064-.5-.37-.879-.257a.615.615,0,0,0-.094.146,3.146,3.146,0,0,0-.916-.234c-.079-.072-.148-.141-.269-.1-.17.259-.353-.081-.556-.059-.138-.035-.311,0-.415-.111-.259.155-.622.064-.938.089-.2.158-.684,0-.936.025a1.6,1.6,0,0,1-.731.106,4.414,4.414,0,0,0-1.418.392c-.1-.141-.39-.052-.321-.237a.881.881,0,0,1-.514.306c-.3.126-.464-.173-.776-.064-.119.118-.3.049-.442.118,0,.254-.3.451-.492.572-.627.141-1.655-.37-1.842.5-.161-.123-.41-.042-.608-.064-.212.192-.479.232-.682.427a7.025,7.025,0,0,0-2.608,1.465c-.047-.086-.089-.22-.235-.17.03.148-.141.039-.173.155-.212-.049-.084.19-.116.286a.693.693,0,0,1-.422.254c-.1.1-.225.18-.173.34a6.838,6.838,0,0,1-1.791,1.115,8.717,8.717,0,0,0-1.507,1.152,1.214,1.214,0,0,1-.561.75c-.766.733-1.516,1.519-2.307,2.2-.343.377-.924.479-1.1.972a3.252,3.252,0,0,1-.553.678c-.3.136-.4.5-.645.73-.356.412-.64.853-1.015,1.268-1.084.686-1.289,1.961-2.366,2.642-.368.471-.632.977-1.02,1.433a15.313,15.313,0,0,0-1.541,2.575v.437a.425.425,0,0,0,0,.52v.173l-.091.079v.439l.091.173v.866c-.054.4.348.631.336,1.016a14.081,14.081,0,0,0,1.47,1.571c.558.229,1,.718,1.645.7.257.372.775.133,1.148.2l.161-.106c.3-.032.489-.323.793-.338.188,0,.449-.079.593.069.161-.035.454.1.454-.168a4.13,4.13,0,0,0,1.919-1.492c.183-.224.467-.414.4-.74.052-.057.141-.109.1-.207a.18.18,0,0,1,.188-.081,3.41,3.41,0,0,0,.951-1.031c.257-.281.756-.229.877-.644.044-.466.635-.708.494-1.248a17.537,17.537,0,0,0,1.418-2.02,25,25,0,0,1,1.781-2.723,6.816,6.816,0,0,0,.8-1l1.892-2.144c.694-.816,1.474-1.46,2.24-2.222a13.859,13.859,0,0,1,4.283-2.686c.237-.355.654-.22.879-.57,1.008.187,1.667-.464,2.613-.424a12.691,12.691,0,0,1,7.093,1.722l.19.183a13.385,13.385,0,0,0,1.284.952c.368.037.59.437.946.506.094.146.259.266.277.444l.487.508.1.012c.724.617,1.44,1.243,2.131,1.941.442.545,1.067,1.014,1.171,1.692.605.353.793,1.021,1.2,1.524-.022.175.173.269.277.372.01.506.657.74.778,1.2.02.18-.01.377.183.476.1.257.432.276.558.513a.625.625,0,0,1,.138.52,24.3,24.3,0,0,1,1.371,2.393,2.02,2.02,0,0,0,.541.994v.163c.128.064.02.229.178.274-.03.229.222.123.309.242l-.133-.36c-.2-.19-.074-.525-.37-.676-.007-.094.03-.2-.052-.269-.1-.767-.832-1.275-.894-2.067-.067-.148-.316-.072-.274-.291-.153-.116-.057-.355-.086-.535.025-.289-.316-.217-.415-.464-.128-.488-.788-.76-.7-1.352-.146-.185-.059-.54-.378-.587-.059-.22-.324-.368-.363-.594-.4-.439-.645-1.428-.988-1.889-.121-.229-.385-.4-.336-.7l-.867-.863c-.126.032-.1-.113-.1-.185a6.092,6.092,0,0,1-.78-.866v-.34c-.151,0-.331.348-.44.276-.2.01.109-.668.069-.728-.605-.074-.548-.395-1.04-.728-.153-.239-.63-.247-.477-.636-.136-.064-.062-.239-.252-.17-.067-.15-.161-.042-.24,0-.044-.025-.035-.067-.035-.111-.054-.143-.272-.1-.249-.249-.158-.086-.03-.34-.254-.34-.03-.17-.442-.281-.553-.427-.356.146-.328-.286-.348-.523-.17-.18-1.067-.587-1.215-.77-.37.069-.612-.429-.9-.58a1.388,1.388,0,0,0-.731.076c-.109-.106-.252-.133-.343-.279-.027-.254-.326-.195-.479-.321-.119-.057-.311.062-.4-.1l-.613-.212c-.165-.153-.41-.109-.593-.232-.072-.113-.119-.252-.277-.274-.017-.086-.449.353-.43.254l-.348-.377a.247.247,0,0,1-.175-.049c-.222.044-.309-.281-.509-.3,0,.049.02.118-.01.168H187.21l-.081.052a.18.18,0,0,1-.274-.052c.04-.217-.4.067-.277.15-.1-.072-.41-.025-.529-.052-.289-.037-.39.118-.664.252-.064.035-.156.069-.19.136-.042.084.059.22-.069.266,0,.15-.2.072-.286.062v-.062a.7.7,0,0,1-.333-.1c-.548-.118-.914.2-1.408.192-.244.375-.785.471-1.176.587-.131.039-.207.155-.365.187a4.368,4.368,0,0,0-1.645.819c-.156.111-.24.331-.415.377a2.232,2.232,0,0,0-.225.032c-.007,0-.215.084-.188.086a.673.673,0,0,0-.412.069.423.423,0,0,1-.249-.1l.064-.067c.185-.022.067-.3.1-.442.067-.084.188-.143.2-.254.225-.148.2-.624.625-.454a1.329,1.329,0,0,0,.817-.34c.405-.148.709-.57,1.094-.765.18-.086,1.363-.331,1.272-.622.153.076.2-.136.343-.084.077.113.232.148.272.252.146.062.188-.113.319-.086.059-.081.2-.146.185-.254a.662.662,0,0,1,.412.089c.02.21.156-.049.264,0v-.052c0-.054.059-.037.089-.037.052-.491.588-.18.882-.269-.062-.116.133-.138.1-.257h.432c.121.143.336.064.5.084.052-.1.158-.079.249-.084.119-.155.366-.057.546-.086.081.059.291-.069.353-.183l1.131.118c.18.21.531.015.743.17a4,4,0,0,1,1.8.454l.351.254a2.187,2.187,0,0,1,.679.257,11,11,0,0,1,2.653,1.406c.5.432.916.6,1.4,1.046a11.056,11.056,0,0,1,1.42,1.448,17.744,17.744,0,0,1,2.564,2.642,3.719,3.719,0,0,1,.533.71c.04.113.3.757.526.809.2.466.6.979.847,1.436a20.7,20.7,0,0,0,1.274,1.939,18.48,18.48,0,0,0-.669-1.991c-.067-.2-.353-.306-.289-.572-.412-.39-.531-.9-.953-1.283.044-.146-.057-.224-.074-.343-.148-.266-.4-.488-.447-.8-.232-.419-.753-.72-.914-1.169a14.37,14.37,0,0,1-1.418-2.129l-.124-.049c-.44-.217-.921-.977-.968-.927a2.772,2.772,0,0,1-.608-.572c-.533-.417-.872-.844-1.39-1.268-.077-.286-.39-.321-.575-.476-.5-.335-1.082-.409-1.479-.932a.543.543,0,0,1-.472-.165c-.294-.047-.5-.321-.79-.363a1.971,1.971,0,0,0-.84-.375c-.237-.259-.437.116-.734-.015a.743.743,0,0,1-.264-.343c-.067.1-.151.047-.212,0a1.166,1.166,0,0,1-.832-.284c-.259.039-.6-.143-.756.136l-.04-.072-.677-.007c-.294-.227-.605-.017-.941-.091-.346.064-.721.057-1.072.116a8.714,8.714,0,0,0-1.825.326,2.591,2.591,0,0,0-.748.062c-.316-.548-.017-.345.082-.609.089-.229-.04.195,0-.054h.156c.39,0,.667-.264,1.035-.316.37-.308.936-.173,1.348-.375.235.175.613,0,.85.148a3.489,3.489,0,0,0,1.526-.123,7.03,7.03,0,0,0,.729.059v.081a2.091,2.091,0,0,1,.914.146,2.482,2.482,0,0,1,1.173.38c.351-.076.593.121.872.224.138.084.254.254.43.254a3.1,3.1,0,0,0,1.1.545,2.506,2.506,0,0,0,.538.326c-.054.03.212.049.161.072.02.242.336.173.343.407.222-.1.282.17.425.257.277-.042.412.178.543.372.654.577.946.777,1.6,1.339a23.358,23.358,0,0,1,2.24,2.366h.175c.442.316.417.812.617,1.221.242-.057.321.234.519.271.04.567.81,1.051.941,1.576a21.5,21.5,0,0,1,1.309,2.126C203.147,45.241,203.337,45.231,203.293,44.952Z" transform="translate(-159.245 -31.785)"/></g></g></g></svg>