<svg xmlns="http://www.w3.org/2000/svg" width="96" height="68" viewBox="0 0 96 68"><defs><style>.a{fill:#66b821;}.a,.b,.c,.d,.f,.g{fill-rule:evenodd;}.b{fill:#ff8001;}.c{fill:#3787bc;}.d{fill:#af46a0;}.e,.f{fill:#ff4000;}.g{fill:#8c8c70;}</style></defs><g transform="translate(-149.992 -71.532)"><path class="a" d="M176.088,85.054c-6.3-5.916-15.467,2.446-10.192,10.257,2.7,3.994,9.636,6.589,19.593,6.068,1.422-.073,1.884-.385.472-1.025C177.246,96.413,180.732,89.418,176.088,85.054Z" transform="translate(18.323 14.598)"/><path class="b" d="M174.055,93.431c.649-1.226.823-1.532-.848-.759-9.447,4.366-11.3-2.679-17.579-1.743a6.614,6.614,0,0,0-5.551,7.514c.72,4.368,5.815,6.027,9.864,5.615C168.284,103.209,172.984,95.46,174.055,93.431Z" transform="translate(0 24.459)"/><path class="c" d="M166.353,100.044c.333.281.768.825-.447.641C150.8,98.421,148.055,89.527,151.98,85.159c2.085-2.319,6.544-2.618,8.674-.281C164.692,89.307,160.343,95,166.353,100.044Z" transform="translate(0.483 14.863)"/><path class="b" d="M191.559,75.052c1.474.054,1.85.349.36.943-3.555,1.41-7.139,4.039-7.28,9.985-.2,8.575-12.676,6.3-11.27-2.661C174.957,73.175,189.85,74.988,191.559,75.052Z" transform="translate(29.747 4.25)"/><path class="d" d="M162.16,102.332c2.563,7.621,13.332,4.966,12.443-2.36-.77-6.306-8.346-4.286-8.346-11.225,0-.845-.073-1.541-.925-.247C162.955,92.112,160.891,98.556,162.16,102.332Z" transform="translate(15.063 20.587)"/><path class="a" d="M192.721,93.071c-6.626,4.663-9.053-.975-13.822-1.24-5.5-.306-7.086,8.573-.023,10.2,3.279.773,11.359-.8,14.685-8.8C193.737,92.811,193.555,92.33,192.721,93.071Z" transform="translate(30.898 25.703)"/><path class="b" d="M186.675,98.7c1.486-7.487-4.767-14.489-5.361-15.225-.155-.2-1.429-1.725-.877.519,1.652,6.7-1.832,8.6-2.887,13.376C176.026,104.237,185.381,105.228,186.675,98.7Z" transform="translate(35.02 14.247)"/><path class="e" d="M174.6,83.095c-7.927.8-12.548,3-15.045,4.926a6.314,6.314,0,1,0,8.56,9.064c3.459-4.239.075-9.4,6.852-13.312C175.964,83.2,175.342,83.02,174.6,83.095Z" transform="translate(8.741 14.626)"/><path class="a" d="M192.292,83.745a7.81,7.81,0,0,0-3.5,3.194c-.88,1.444-1.226,3.137-2.119,4.572a12.135,12.135,0,0,1-2.926,3.3c-.645.478-1,1.156.23.9a13.255,13.255,0,0,1,4.088-.227,36.308,36.308,0,0,1,4.976,1.231c2.108.7,4.568.664,6.161-1.009,2.6-2.727,2.267-7.777-.283-10.445A6.088,6.088,0,0,0,192.292,83.745Z" transform="translate(42.409 14.928)"/><path class="c" d="M199.258,91.815c-5.327-.827-7.941,3.2-15.777-2.165-.695-.478-1.278-.873-.766.7.841,2.566,4.578,12.866,11.819,14.693C205.139,107.723,207.948,93.413,199.258,91.815Z" transform="translate(41.588 22.414)"/><path class="c" d="M167.878,76.142c-1.148,5.859,3.4,8.629,2.283,17.247-.089.687.535.669.7.286,3.457-7.9,8.617-7.593,10.572-13.691C184.357,70.874,169.391,68.417,167.878,76.142Z" transform="translate(22.628 0)"/><path class="d" d="M161.588,92.146c7.025.546,7.387-4.6,19.867-3.9,1.016.059.891-.605.237-.8-11.185-3.355-13.092-10.486-18.907-10.705C153.283,76.376,151.936,91.4,161.588,92.146Z" transform="translate(6.367 6.582)"/><path class="f" d="M162.368,82.841c4.3,5.5,7.649,1.87,12.584,7.167.72.775,1.265.4.7-.505-3.441-5.544.428-10.558-2.461-14.223C167.747,68.371,157.3,76.365,162.368,82.841Z" transform="translate(14.098 1.377)"/><path class="f" d="M179.282,83.914c0,5.834,6.448,8.539,6.863,19.421.025.721.69.741.829.029,2.133-10.839,8.107-12.936,8.624-19.165C196.394,74.573,179.282,72.83,179.282,83.914Z" transform="translate(37.448 6.003)"/><path class="d" d="M184.241,98.317a6.586,6.586,0,0,0,1.139-9.151c-4.35-4.96-9.018-.023-13.462-8.3-.731-1.362-1.205-1.068-.939.4.911,5.057-.756,10.08,2.212,14.568C176.139,100.285,181.393,100.776,184.241,98.317Z" transform="translate(26.738 10.712)"/><path class="g" d="M174.08,92.228a5.734,5.734,0,0,0-5.749,5.719v15.37h11.5V97.947A5.732,5.732,0,0,0,174.08,92.228Z" transform="translate(23.447 26.215)"/></g></svg>