<svg xmlns="http://www.w3.org/2000/svg" width="98" height="76" viewBox="0 0 98 76"><defs><style>.a{fill:#028738;}</style></defs><g transform="translate(-343.492 -69.571)"><path class="a" d="M343.492,122.486l31.349-49.238,4.405,7.559-25.1,39.125S345.133,121.668,343.492,122.486Z" transform="translate(0 5.638)"/><path class="a" d="M382.5,70.788l-33.4,52.3s5.737-.512,6.763-.408L385.568,76.61Z" transform="translate(8.635 1.866)"/><path class="a" d="M388.528,69.571l-35.137,55.673s27.764-1.226,42,1.226c0,0,28.994,4.086,21.311,12.973,0,0-3.28,3.575-14.754,6.128,0,0,20.9-1.021,23.869-10.929a6.719,6.719,0,0,0-.513-5.72Z" transform="translate(15.251)"/><path class="a" d="M348.689,96.2h2.523c1.12,0,2.891.312,2.891,4.21,0,2.171-.719,4.431-2.858,4.431h-2.556Zm-2.576,10.924h5.45c4.151,0,5.219-4.084,5.219-6.916,0-2.5-.874-6.288-5.114-6.288h-5.554Z" transform="translate(4.038 37.341)"/><path class="a" d="M356.386,96.9h.036l1.56,5.221h-3.206Zm-2.312,7.5h4.644l.805,2.723h2.853l-4.431-13.2h-3.031l-4.484,13.2H353.2Z" transform="translate(10.691 37.341)"/><path class="a" d="M365.046,96.26h-6.674v2.774H364.5v2.338h-6.131v3.417h6.972v2.338H355.8v-13.2h9.251Z" transform="translate(18.955 37.341)"/><path class="a" d="M366.637,100.221h5.257v7.119h-1.753l-.259-1.657a4.574,4.574,0,0,1-3.928,2c-3.029,0-5.78-2.28-5.78-6.913,0-3.6,1.91-7,6.148-6.987,3.854,0,5.379,2.63,5.518,4.451h-2.627a2.8,2.8,0,0,0-2.749-2.171c-1.875,0-3.61,1.36-3.61,4.745,0,3.6,1.875,4.542,3.661,4.542.579,0,2.505-.241,3.049-2.906h-2.927Z" transform="translate(25.701 37.13)"/><path class="a" d="M375.876,102.512c0,3.473-2,4.963-5.168,4.963a5.239,5.239,0,0,1-3.994-1.6,4.977,4.977,0,0,1-.983-3.2V93.924h2.68v8.568c0,1.839,1.016,2.65,2.243,2.65a2.225,2.225,0,0,0,2.541-2.521v-8.7h2.68Z" transform="translate(34.263 37.341)"/></g></svg>