<svg xmlns="http://www.w3.org/2000/svg" width="79" height="76" viewBox="0 0 79 76"><defs><style>.a{fill:#00a03a;}</style></defs><g transform="translate(-151.945 -166.982)"><path class="a" d="M188.048,204.577l-3.389-37.435a15.716,15.716,0,0,0-9.809,19.638,15.688,15.688,0,0,0-21.973,3.747Z" transform="translate(1.425 0.245)"/><path class="a" d="M188.485,188.476l-36.54-8.575a15.682,15.682,0,0,0,15.515,15.512,15.743,15.743,0,0,0-3.374,22.068Z" transform="translate(0 19.809)"/><path class="a" d="M179.251,183.979l-19.282,32.249a15.683,15.683,0,0,0,19.476-10.083,15.7,15.7,0,0,0,19.96,9.938Z" transform="translate(12.272 26.062)"/><path class="a" d="M168.254,204.822l34.529-14.734a15.669,15.669,0,0,0-21.675-3.314A15.739,15.739,0,0,0,170.8,166.982Z" transform="translate(24.943)"/><path class="a" d="M168.665,188.816l24.69,28.31a15.709,15.709,0,0,0-3.574-21.665,15.712,15.712,0,0,0,15.591-15.955Z" transform="translate(25.572 19.203)"/></g></svg>