<svg xmlns="http://www.w3.org/2000/svg" xmlns:xlink="http://www.w3.org/1999/xlink" width="76" height="76.001" viewBox="0 0 76 76.001"><defs><style>.a{fill:url(#a);}.b{fill:url(#b);}.c{fill:#0064a5;}</style><linearGradient id="a" x1="0.964" y1="0.5" x2="0" y2="0.5" gradientUnits="objectBoundingBox"><stop offset="0" stop-color="#83b011"/><stop offset="1" stop-color="#c7cd38"/></linearGradient><linearGradient id="b" x1="-40.042" y1="42.528" x2="-39.93" y2="42.528" gradientUnits="objectBoundingBox"><stop offset="0" stop-color="#0094de"/><stop offset="1" stop-color="#40bbf0"/></linearGradient></defs><g transform="translate(-208.632 -219.267)"><g transform="translate(208.632 219.267)"><g transform="translate(0 0)"><path class="a" d="M209.528,265.467c-1.809-8.564.805-14.436,3.449-17.934,3.856-5.1,10.185-8.505,18.883-10.216a24.764,24.764,0,0,1,29.543,0c8.7,1.711,15.028,5.12,18.881,10.216,2.647,3.5,5.257,9.376,3.448,17.934a38,38,0,1,0-74.2,0Z" transform="translate(-208.632 -219.267)"/><path class="b" d="M245.128,286.959a24.948,24.948,0,0,0,.6,5.412c-.94-4.515.564-6.512,1.088-7.2,1.774-2.345,7.14-6.281,23.149-6.286s21.379,3.941,23.156,6.286c.522.7,2.018,2.692,1.083,7.2a24.8,24.8,0,0,0-9.465-25.359,84.854,84.854,0,0,0-29.543,0A24.808,24.808,0,0,0,245.128,286.959Z" transform="translate(-231.964 -248.963)"/><path class="c" d="M280.81,279.525c-3.853-5.1-10.186-8.505-18.881-10.216a24.8,24.8,0,0,1,9.465,25.359c-.048.239-.11.486-.169.737a.986.986,0,0,0-.03.1c-.04.154-.071.3-.117.46-.06.213-.125.421-.193.632-.008.021-.014.044-.021.067-.111.354-.229.709-.355,1.057-.013.03-.022.058-.035.093-.134.363-.278.726-.428,1.084-.041.092-.084.182-.124.277-.1.235-.207.47-.319.7-.094.2-.192.391-.291.587-.059.122-.121.238-.181.354-.121.227-.249.455-.378.679-.034.067-.075.134-.11.195a24.877,24.877,0,0,1-18.209,12.182c-.126.019-.256.033-.385.048-.215.027-.425.049-.636.067s-.419.035-.633.05c-.158.006-.315.027-.474.029-.381.019-.764.03-1.148.03s-.774-.011-1.156-.03c-.159,0-.316-.022-.472-.029-.215-.016-.423-.031-.631-.05s-.426-.04-.635-.067c-.135-.015-.256-.029-.389-.048A24.887,24.887,0,0,1,225.67,301.69c-.038-.061-.074-.127-.11-.191-.133-.228-.258-.451-.379-.688-.061-.115-.116-.227-.175-.349-.1-.2-.2-.39-.3-.587-.11-.232-.214-.467-.321-.7-.038-.095-.082-.184-.121-.277-.15-.358-.294-.72-.431-1.084a.747.747,0,0,0-.032-.1c-.126-.347-.241-.7-.357-1.052-.006-.023-.016-.046-.022-.064-.06-.214-.131-.422-.192-.635-.047-.16-.075-.306-.116-.46-.008-.035-.018-.067-.024-.1-.064-.251-.121-.5-.175-.737a24.8,24.8,0,0,1,9.467-25.359c-8.7,1.711-15.026,5.12-18.883,10.216-2.644,3.5-5.258,9.369-3.449,17.934.067.287.132.575.2.859.056.238.115.477.184.72.109.428.232.854.361,1.277.036.124.077.257.117.381.139.444.289.882.449,1.318.045.132.085.259.134.389.2.531.4,1.054.62,1.577.074.165.148.325.22.489.157.351.313.705.479,1.053.133.278.275.557.415.835.109.212.211.421.321.625.171.322.346.637.521.949.086.144.166.29.252.434.2.355.421.711.637,1.056.039.058.078.118.114.177a38.29,38.29,0,0,0,25.833,17.145h.005c.4.064.8.125,1.207.175.2.028.411.057.618.08.313.033.638.07.957.1s.65.053.972.076c.245.014.482.031.721.043.587.027,1.168.044,1.763.044s1.178-.018,1.767-.044l.717-.043c.326-.023.655-.046.978-.076s.638-.059.956-.1c.207-.022.412-.052.615-.08.409-.05.808-.111,1.21-.175l0-.006A38.257,38.257,0,0,0,279.23,309.6c.043-.06.08-.119.118-.177.22-.349.431-.7.64-1.056.084-.144.167-.287.247-.434.18-.312.357-.627.522-.949.111-.2.216-.413.318-.618.148-.285.286-.563.423-.841.164-.348.32-.7.482-1.057.067-.16.145-.32.216-.488.219-.52.426-1.043.618-1.574.049-.13.09-.257.137-.389.157-.439.31-.873.446-1.318.043-.124.08-.257.118-.381q.19-.634.365-1.277c.06-.243.122-.482.181-.72.067-.28.133-.571.2-.859C286.067,288.9,283.457,283.023,280.81,279.525Z" transform="translate(-209.158 -251.259)"/></g></g></g></svg>