<svg xmlns="http://www.w3.org/2000/svg" width="108" height="56" viewBox="0 0 108 56"><defs><style>.a{fill:#0e3192;}.b{fill:#ff410b;}</style></defs><g transform="translate(-229.213 -387.127)"><path class="a" d="M281.413,402.047l0,0,0,0,0,.007Z" transform="translate(-10.32 -2.975)"/><path class="b" d="M363.142,412.333v0h0l0,.01Z" transform="translate(-26.479 -5.026)"/><path class="a" d="M266.271,419.743h-7.542c-3.294,0-3.873.786-5.185,2.149l-9.957,10.89-.089.561,7.44,13.038c1.061,1.817,2.339,3.251,5.756,3.251h6.14s-9.1-16.009-9.4-16.494C253.891,432.671,266.271,419.743,266.271,419.743Z" transform="translate(-2.824 -6.505)"/><path class="a" d="M240.674,429.687l.088-.1,4.1-25.847h-4.3c-4.224,0-4.926,1.828-5.186,3.833l-6.169,38.864h4.712c2.081,0,4.254-.886,4.743-3.655l2-12.633-.055-.1Z" transform="translate(0 -3.314)"/><path class="a" d="M243.514,436.088l-.058.359.057.1.088-.555Z" transform="translate(-2.816 -9.746)"/><path class="a" d="M290.927,419.364l-.008.006a10.649,10.649,0,0,0-4.318.934,9.359,9.359,0,0,0-2.839,1.888l.4-2.524h-8.519L270.9,449.557h4.711c2.081,0,4.255-.886,4.742-3.655l1.934-12.183h0a10.308,10.308,0,0,1,2.286-5.288,6.484,6.484,0,0,1,5.115-2.355h10.241L301,419.364Z" transform="translate(-8.243 -6.43)"/><path class="a" d="M297,451.043a2.784,2.784,0,0,1,1.134.226l.214-.744a3.352,3.352,0,0,0-1.388-.249,2.654,2.654,0,0,0-2.917,2.624,2.488,2.488,0,0,0,2.79,2.507,3.69,3.69,0,0,0,1.475-.255l-.168-.729a3.085,3.085,0,0,1-1.157.209,1.739,1.739,0,0,1-1.941-1.774A1.763,1.763,0,0,1,297,451.043Z" transform="translate(-12.817 -12.595)"/><rect class="a" width="0.947" height="5.271" transform="translate(286.268 437.459)"/><path class="a" d="M304.4,451.986a1.847,1.847,0,0,0-1.894,1.928,1.781,1.781,0,0,0,1.989,1.828,3.592,3.592,0,0,0,1.373-.244l-.142-.644a3.035,3.035,0,0,1-1.106.181c-.635,0-1.179-.3-1.211-.9l2.64,0a1.749,1.749,0,0,0,.036-.375,1.639,1.639,0,0,0-1.685-1.773m-.993,1.488a.942.942,0,0,1,.937-.857.809.809,0,0,1,.843.857Z" transform="translate(-14.492 -12.936)"/><path class="a" d="M310.857,453.546a1.411,1.411,0,0,0-1.586-1.555,2.841,2.841,0,0,0-1.4.339l.189.61a2.144,2.144,0,0,1,1.064-.292c.717,0,.793.434.793.619v.049c-1.491-.006-2.308.469-2.308,1.368a1.106,1.106,0,0,0,1.208,1.066,1.469,1.469,0,0,0,1.159-.494h.022l.067.412h.857a5.365,5.365,0,0,1-.06-.882v-1.238m-.917.816a.585.585,0,0,1-.03.2.826.826,0,0,1-.793.523c-.326,0-.561-.164-.561-.5,0-.517.631-.673,1.384-.661Z" transform="translate(-15.499 -12.937)"/><path class="a" d="M315.057,451.991a1.419,1.419,0,0,0-1.241.668h-.024l-.046-.578h-.828c.018.311.029.667.029,1.084v2.5h.948v-2.073a.784.784,0,0,1,.042-.275.855.855,0,0,1,.794-.566c.547,0,.775.406.775.971v1.942h.946v-2.054C316.451,452.378,315.692,451.991,315.057,451.991Z" transform="translate(-16.55 -12.937)"/><path class="a" d="M324.538,452.486h-.86a3.315,3.315,0,0,1-.513,1.333c-.274-.275-.667-.685-1.057-1.109l0-.024c.747-.333,1.089-.756,1.089-1.285a1.182,1.182,0,0,0-1.317-1.125,1.35,1.35,0,0,0-1.475,1.3,1.5,1.5,0,0,0,.409.959v.023a1.6,1.6,0,0,0-1.021,1.454c0,.708.572,1.4,1.75,1.4a2.317,2.317,0,0,0,1.514-.5c.157.16.288.29.424.423h1.129c-.3-.3-.59-.6-.915-.947a3.737,3.737,0,0,0,.84-1.893m-2.7-1.611h.007a.531.531,0,0,1,.542.556c0,.35-.274.556-.725.828a1.157,1.157,0,0,1-.387-.789.563.563,0,0,1,.563-.6m-.152,3.847h-.008a.9.9,0,0,1-.977-.881.985.985,0,0,1,.554-.827c.531.564,1.041,1.1,1.33,1.364A1.324,1.324,0,0,1,321.69,454.721Z" transform="translate(-17.91 -12.595)"/><path class="a" d="M330.628,453.32h.989V454.5a2.114,2.114,0,0,1-.826.119,1.779,1.779,0,1,1,.04-3.536,3.073,3.073,0,0,1,1.317.246l.218-.746a3.758,3.758,0,0,0-1.5-.267c-1.868,0-3.025,1.1-3.025,2.578a2.393,2.393,0,0,0,.723,1.769,3.045,3.045,0,0,0,2.176.712,5.743,5.743,0,0,0,1.813-.308v-2.489h-1.921Z" transform="translate(-19.5 -12.604)"/><path class="a" d="M335.782,452.813h-.025l-.031-.732h-.819c.022.328.029.673.029,1.2l-.006,2.382h.947v-1.848a1.432,1.432,0,0,1,.022-.25.836.836,0,0,1,.874-.709,1.632,1.632,0,0,1,.306.03v-.875a.991.991,0,0,0-.229-.025A1.153,1.153,0,0,0,335.782,452.813Z" transform="translate(-20.898 -12.937)"/><path class="a" d="M339.98,451.986a1.848,1.848,0,0,0-1.9,1.928,1.782,1.782,0,0,0,1.989,1.828,3.606,3.606,0,0,0,1.374-.244l-.141-.644a3.04,3.04,0,0,1-1.106.181c-.636,0-1.183-.3-1.211-.9l2.64,0a1.826,1.826,0,0,0,.034-.375,1.638,1.638,0,0,0-1.682-1.773m-.993,1.488a.94.94,0,0,1,.936-.857.807.807,0,0,1,.844.857Z" transform="translate(-21.526 -12.936)"/><path class="a" d="M345.091,451.986a1.847,1.847,0,0,0-1.895,1.928,1.782,1.782,0,0,0,1.99,1.828,3.593,3.593,0,0,0,1.372-.244l-.143-.644a3.023,3.023,0,0,1-1.105.181c-.634,0-1.181-.3-1.211-.9l2.639,0a1.7,1.7,0,0,0,.035-.375,1.638,1.638,0,0,0-1.682-1.773m-1,1.488a.946.946,0,0,1,.939-.857.809.809,0,0,1,.844.857Z" transform="translate(-22.536 -12.936)"/><path class="a" d="M350.737,451.991a1.422,1.422,0,0,0-1.242.668h-.023l-.045-.578H348.6c.015.311.027.667.027,1.084v2.5h.948v-2.073a.845.845,0,0,1,.041-.275.859.859,0,0,1,.8-.566c.546,0,.773.406.773.971v1.942h.949v-2.054C352.133,452.378,351.371,451.991,350.737,451.991Z" transform="translate(-23.604 -12.937)"/><path class="a" d="M281.441,399.163c4-7.532,33.179-6.4,40.127-6.128l.912-5.744c-8.19-.394-44.669-1.108-41.045,11.866h0Z" transform="translate(-10.275 0)"/><path class="a" d="M306.562,407.946c-1.549.013-22.466.048-25.208-5.786l0,0s0,0,0-.011c-4.405,8.633,16.411,11.349,23.075,11.54h0c.64.018,1.179.04,1.523.022l1.206-.022.914-5.753Z" transform="translate(-10.188 -2.997)"/><path class="b" d="M352.952,412.431c0-.007,0-.007,0-.007-4,7.527-33.2,6.812-40.145,6.532l-.908,5.753c8.19.388,44.682.695,41.059-12.284Z" transform="translate(-16.348 -5.045)"/><path class="b" d="M331.269,404.268c1.549-.011,22.467-.464,25.209,5.377,0-.006,0-.006,0-.006l0,.006c4.405-8.628-16.411-10.926-23.078-11.116h0c-.642-.018-1.388-.043-1.769-.036l-.978.036-.911,5.758Z" transform="translate(-19.878 -2.267)"/></g></svg>