<svg xmlns="http://www.w3.org/2000/svg" width="99" height="66" viewBox="0 0 99 66"><defs><style>.a{fill:#029069;}.b{fill:#ffb110;}.c{fill:#0c2c82;}</style></defs><g transform="translate(-16.515 -68.585)"><path class="a" d="M83.259,87.2c0-2.18,1.034-2.215.779-4.378s.339-2.235.081-4.4-.629-2.119-.884-4.283.818-3.016-.488-4.761c-.682-.909-1.432,1.734-2.495,2.138l-.073.246c.022-.04.051-.079.073-.121,0,0,4.3,26.057-37.538,45.542l-.092.04c.821.348.849,1.038,2.013,1.236,1.373.235,1.663-1.122,3.036-.889s1.338.46,2.711.7c1.85.33,1.676,1.307,3.527,1.646s1.844.376,3.694.715,1.9.095,3.747.436c1.758.321,1.707.783,3.7.8,2.284.013,2.2-1.093,4.464-1.406s2.27-.235,4.532-.548,2.319-.642,4.6-.579c2.4.066,2.737,1.265,4.631-.007.862-.579.475-1.467.154-2.455s-.81-.99-1.131-1.978.306-1.03-.015-2.02a9.026,9.026,0,0,1-.444-2.62c-.079-1.3-.592-1.023-.409-2.314s-.554-.607-.372-1.9.394-1.283.576-2.574.95-1.157,1.14-2.449c.251-1.716-1.375-1.956-1.118-3.672s.8-1.63,1.06-3.346-.079-1.764.178-3.478A14.614,14.614,0,0,0,83.259,87.2Z" transform="translate(31.33 0.724)"/><path class="b" d="M85.262,72.862c-1.063.407-1.569-.92-2.631-.515s-.752.988-1.888,1.067c-1.388.1-1.549-.579-2.922-.812s-1.294,1.008-2.664.774-1.379.117-2.75-.117-1.287-.752-2.658-1c-1.852-.33-1.8-.651-3.646-.992s-2.037.669-3.888.33-1.705-1.14-3.555-1.478S56.876,68.6,55,68.585c-2.284-.015-2.31.671-4.572.986s-2.158,1.058-4.418,1.371-2.323-.119-4.583.194-1.672-2.013-3.529-.686c-.911.649-.6,2.376-.275,3.447s.59.99.911,2.059-.473,1.311-.15,2.38,1.2.878,1.267,1.993c.077,1.3-.592.788-.772,2.079s-.623,1.709-.805,3,.44,1.379.26,2.671-.233,1.285-.422,2.576c-.251,1.714.607,1.844.348,3.557s-1.3,1.371-1.553,3.084.7,2.044.444,3.758-.528,1.595-.528,3.329a19,19,0,0,0,.308,3.683c3.828-4.572,6.88-7.6,6.88-7.6s9.042-10,32.08-19.081c.044-.018.088-.037.132-.053,0,0,8.376-3.362,11.366-8.851l.073-.246A8.966,8.966,0,0,0,85.262,72.862Z" transform="translate(24.125 0)"/><path class="c" d="M47.622,100.6a51.25,51.25,0,0,1,4.006-8.136h-.253c-19.253,0-34.86,3.014-34.86,6.734s15.607,6.734,34.86,6.734,34.86-3.016,34.86-6.734c0-2.979-10.008-5.5-23.878-6.391-1.1.279-1.819.455-1.819.455C53.246,95.033,47.622,100.6,47.622,100.6Z" transform="translate(0 28.654)"/></g></svg>