<svg xmlns="http://www.w3.org/2000/svg" width="76" height="74" viewBox="0 0 76 74"><defs><style>.a{fill:#002c52;}.b{fill:#e5002b;}</style></defs><path class="a" d="M214.691,107.766c-6.4-4.372-14.606-2.586-18.913,3.979a13.289,13.289,0,0,1-24.057-3.67h-.006a1.192,1.192,0,0,0-.042-.141,1.062,1.062,0,0,0-.041-.168,17.121,17.121,0,0,1-.682-5.3c0-11.966,12.236-25.291,29.864-25.291,18.048,0,28.376,13.784,31.035,21.447-.037-.13-.079-.266-.133-.409a37.989,37.989,0,0,0-73.955,12.375c0,18.826,13.523,34.935,32.3,34.935,14.969,0,25.033-8.419,29.646-20.028,2.528-6.342.739-13.8-5.014-17.725" transform="translate(-157.761 -72.451)"/><path class="b" d="M224.625,96.686C222.407,89.214,212,74.492,193.349,74.492c-17.628,0-29.862,13.326-29.862,25.288a17.13,17.13,0,0,0,.68,5.308,11.333,11.333,0,0,1-.352-2.716c0-12.467,12.439-21.1,25.226-21.1a31.386,31.386,0,0,1,31.339,31.441,34.682,34.682,0,0,1-19.153,31.05v.011a38.233,38.233,0,0,0,23.4-47.086" transform="translate(-150.299 -69.773)"/></svg>