<svg xmlns="http://www.w3.org/2000/svg" width="76" height="76" viewBox="0 0 76 76"><defs><style>.a{fill:#e53212;}.b{fill:#fff;}</style></defs><g transform="translate(-343.336 -223.363)"><path class="a" d="M370.393,245.727c17.711-3.468,27.614,6.422,32.774,15.165a38.067,38.067,0,0,0,3.517-24.852c-39.257-6.784-51.643,23.084-55.519,40.733a38,38,0,0,0,45.206-6.569c-7.736-23.97-25.979-24.477-25.979-24.477Z" transform="translate(11.927 17.928)"/><path class="a" d="M405.945,232.41a50.828,50.828,0,0,1-16.424,17.485c5.329-6.427,7.976-15.527,9.273-22.288a38.017,38.017,0,0,0-49.4,13.161c5.508,4.692,17.938,12.487,38.161,10.437,0,0-21.707,3.813-42.355-1.619a38.014,38.014,0,0,0,8.193,37.529c10.976-36.673,53.808-38.871,63.6-38.889a38.1,38.1,0,0,0-11.054-15.816Z"/><path class="b" d="M368.106,234.829a6.356,6.356,0,1,0-6.356,6.29,6.326,6.326,0,0,0,6.356-6.29Z" transform="translate(18.367 7.937)"/></g></svg>