<svg xmlns="http://www.w3.org/2000/svg" width="72" height="80" viewBox="0 0 72 80"><defs><style>.a{fill:#f49c24;}.b{fill:#93c01f;}.c{fill:#005ca8;}.d{fill:#008ad1;}.e{fill:#fff;}</style></defs><g transform="translate(-298.23 -21.125)"><path class="a" d="M341.985,49.425l-.648-4a236.773,236.773,0,0,1-26.16,8.317Q328.681,52.17,341.985,49.425Z" transform="translate(28.245 40.5)"/><path class="b" d="M304.63,96.325l-6.4-75.2,1.6,80a236.384,236.384,0,0,0,43.592-6.883A310.483,310.483,0,0,1,304.63,96.325Z" transform="translate(0 0)"/><path class="c" d="M343.422,94.242a236.768,236.768,0,0,0,26.16-8.317l-8.952-55.2a439.53,439.53,0,0,1-62.4-9.6l6.4,75.2A310.483,310.483,0,0,0,343.422,94.242Z" transform="translate(0 0)"/><g transform="translate(298.257 21.445)"><path class="d" d="M298.24,21.245l6.373,74.88a310.486,310.486,0,0,0,38.792-2.083A236.685,236.685,0,0,0,369.5,85.749C361.037,44.112,333.368,28.89,298.24,21.245Z" transform="translate(-298.24 -21.245)"/></g><path class="e" d="M348.487,47.078a.532.532,0,0,0-.208.451h0L345,45.2h0a5.825,5.825,0,0,0-1.467-2.605h0c-1.379-1.547-3.187-2.549-4.091-2.248h0c-.659.224-.68,1.072-.136,2.149h0L338,42.278h0l-3.363-5.067h0a1.3,1.3,0,0,0,.211-.024h0c.749-.168.552-1.2-.405-2.293h0c-.949-1.077-2.339-1.869-3.131-1.771h0a.547.547,0,0,0-.533.467h0l-5.712-3.264h0a3.883,3.883,0,0,0-.963-1.789h0a8.043,8.043,0,0,0-4.909-2.8h0c-1.536-.043-1.752,1.251-.389,2.912h0c1.389,1.693,3.781,3,5.24,2.888h0l.024,0h0l3.051,3.339h0L320.508,32.7h0c-.027-.04-.056-.083-.088-.123h0a3.312,3.312,0,0,0-2.347-1.253h0c-.037.005-.072.008-.107.016h0l-4.581-3.805h0c.389-.405.28-1.131-.379-1.955h0a6.852,6.852,0,0,0-4.3-2.365h0c-1.475-.088-1.9.9-.88,2.221h0a6.653,6.653,0,0,0,4.541,2.437h0a2.233,2.233,0,0,0,.488-.056h0l1.952,1.621h0l1.227,4.232h0a2.676,2.676,0,0,0-.648-.021h0c-1.253.125-1.5,1.288-.485,2.613h0c1.024,1.339,2.891,2.256,4.1,2.032h0a1.1,1.1,0,0,0,.888-1.536h0l4.4.931h0l.317,2.123h0a1.467,1.467,0,0,0-.7-.043h0a.691.691,0,0,0-.509.907h0l-8.651-1.565h0a5.9,5.9,0,0,0-.72-1.224h0a9.051,9.051,0,0,0-7.264-3.515h0c-2.613.253-3.491,2.469-1.736,4.984h0a8.677,8.677,0,0,0,2.213,2.139h0l-1.229,1.843h0a6.165,6.165,0,0,0-3.848-.611h0c-2.368.475-3.267,2.651-1.832,4.872h0a6.6,6.6,0,0,0,6.96,2.765h0c2.157-.7,2.667-2.9,1.272-4.9h0a6.285,6.285,0,0,0-1.539-1.525h0c.392-.605.8-1.251,1.189-1.859h0a7.224,7.224,0,0,0,4.811.9h0a2.443,2.443,0,0,0,1.963-3.144h0c1.413.245,2.957.515,4.4.763h0l.339,2.331h0a2.578,2.578,0,0,0-1.083.024h0c-1.32.344-1.512,1.883-.36,3.432h0c1.171,1.579,3.211,2.475,4.469,2h0a1.414,1.414,0,0,0,.664-.5h0l2.9,1.867h0c-.115.965-.413,3.507-.587,4.96h0a1.091,1.091,0,0,0-.771.061h0a.8.8,0,0,0-.419.555h0c-.5-.152-1.085-.328-1.616-.493h0a2.155,2.155,0,0,0-.312-.563h0a2.051,2.051,0,0,0-2.237-.923h0c-.669.3-.736,1.227-.133,2.069h0a2.022,2.022,0,0,0,2.307.917h0a.881.881,0,0,0,.456-.589h0l1.635.488h0a2.558,2.558,0,0,0,.317.573h0a2.112,2.112,0,0,0,1.872.973h0l3.48,3.76h0l-.659.139h0l-.024-.035h0c-.629-.845-1.6-1.224-2.184-.84h0c-.536.352-.571,1.224-.112,2.043h0l-1.011.907h0a2.4,2.4,0,0,0-2.867-.643h0c-.981.64-1.037,2.291-.075,3.675h0c.976,1.405,2.573,1.931,3.517,1.187h0c.856-.677.853-2.171.075-3.427h0c.341-.315.693-.643.995-.923h0a1.522,1.522,0,0,0,1.733.373h0l3.267,3.136h0c-.733,1.965-.12,5.083,1.8,7.749h0c2.52,3.493,6,4.512,7.563,2.341h0c1-1.384.92-3.712.043-5.949h0l5.269-1.147h0l1.555,6.163h0a1.445,1.445,0,0,0-1.485.7h0c-.891,1.448-.168,4.656,1.7,7.123h0c1.9,2.517,4.109,3.1,4.835,1.339h0c.685-1.661-.224-4.773-1.963-6.984h0a6.942,6.942,0,0,0-2.045-1.824h0l-1.755-6.688h0l4.317-.939h0a13.362,13.362,0,0,0,.928,1.277h0c2.117,2.573,4.427,3.44,5.067,1.968h0c.6-1.387-.533-4.315-2.445-6.557h0c-1.877-2.2-3.984-3.123-4.773-2.045h0a1.673,1.673,0,0,0-.275.733h0l-1.507-1.248h0l.883-5.445h0c.912.688,1.757.907,2.117.472h0c.491-.6-.1-2.173-1.28-3.523h0a6.141,6.141,0,0,0-1.776-1.448h0l-2.952-6.352h0c.541.384,1.069.757,1.547,1.093h0A5.153,5.153,0,0,0,349.5,49.91h0c1.1,1.237,2.384,1.9,2.84,1.48h0c.437-.411-.072-1.68-1.112-2.837h0C350.2,47.411,348.983,46.753,348.487,47.078ZM311.841,27.19a4.784,4.784,0,0,1-3.227-1.733h0c-.728-.944-.443-1.653.6-1.6h0a4.874,4.874,0,0,1,3.1,1.7h0c.448.557.541,1.048.315,1.344h0a.829.829,0,0,1-.541.272h0A1.459,1.459,0,0,1,311.841,27.19ZM307.5,45.737c1,1.451.605,3.024-.96,3.5h0a4.732,4.732,0,0,1-4.923-1.976h0c-1.021-1.565-.427-3.128,1.251-3.493h0a4.363,4.363,0,0,1,2.627.349h0a5.033,5.033,0,0,1,1.027.608h0A4.289,4.289,0,0,1,307.5,45.737Zm6.037-6.16a1.707,1.707,0,0,1-1.467,2.077h0a5.051,5.051,0,0,1-3.216-.587h0a6.675,6.675,0,0,1-.949-.576h0a5.981,5.981,0,0,1-1.4-1.379h0c-1.232-1.744-.672-3.317,1.144-3.531h0a6.338,6.338,0,0,1,5.195,2.493h0a4.173,4.173,0,0,1,.461.771h0A2.893,2.893,0,0,1,313.54,39.577Zm8.629,16.24a1.343,1.343,0,0,1-1.515-.605h0c-.4-.555-.355-1.165.083-1.368h0a1.353,1.353,0,0,1,1.48.608h0a1.235,1.235,0,0,1,.131.2h0a.991.991,0,0,1,.072.912h0A.569.569,0,0,1,322.169,55.817ZM353.284,84.2c-.533,1.216-2.093.789-3.432-.976h0c-1.323-1.736-1.864-4.024-1.245-5.085h0a1.016,1.016,0,0,1,.92-.533h0a2.1,2.1,0,0,1,1.051.347h0a5.228,5.228,0,0,1,1.325,1.232h0C353.161,80.793,353.8,83.035,353.284,84.2ZM340.06,42.625c-.331-.709-.312-1.269.123-1.427h0c.635-.229,1.925.483,2.912,1.592h0a4.206,4.206,0,0,1,1.019,1.789h0a1.222,1.222,0,0,1,.021.387h0a.532.532,0,0,1-.275.419h0c-.365.192-1.005,0-1.693-.443h0a5.364,5.364,0,0,1-.557-.413h0a6.34,6.34,0,0,1-.765-.752h0c-.128-.144-.24-.283-.344-.424h0A4.994,4.994,0,0,1,340.06,42.625Zm-.32.608c.173.248.371.509.592.768h0a9.743,9.743,0,0,0,1.224,1.179h0c-.1,1.149-.211,2.544-.3,3.592h0a1.853,1.853,0,0,0-1.707-.344h0a.829.829,0,0,0-.376.824h0c-.829-.421-1.779-.9-2.531-1.288h0a3.112,3.112,0,0,0-.536-.9h0a2.889,2.889,0,0,0-1.853-1.125h0c-.544-.7-1.16-1.5-1.493-1.939h0c.139-.176.28-.349.416-.517h0a3.129,3.129,0,0,0,2.627.864h0c.557-.221.627-.893.285-1.691h0C337.2,42.827,338.583,43.049,339.74,43.233Zm4.069,17.141c-.067-.075-.133-.155-.2-.235h0c-.048-.061-.093-.123-.141-.184h0a5.341,5.341,0,0,1-.5-.808h0c-.451-.909-.509-1.749-.085-2.1h0a.773.773,0,0,1,.525-.168h0a1.866,1.866,0,0,1,.819.24h0a4.531,4.531,0,0,1,1.368,1.147h0a4.25,4.25,0,0,1,1.048,2.259h0a1.309,1.309,0,0,1-.069.576h0a.812.812,0,0,1-.149.243h0c-.4.427-1.219.227-2.032-.427h0A5.679,5.679,0,0,1,343.809,60.374Zm-1.619-4.16c-.629.5-.528,1.749.173,3.085h0l-1.075.277h0c-.552-.829-1.573-2.36-2.453-3.685h0l.048-.027h0c.781-.565.472-2.133-.653-3.5h0a5.78,5.78,0,0,0-.619-.653h0c.248-.955.523-2.011.624-2.4h0l1.048.528h0a4.917,4.917,0,0,0,.92,1.6h0a5.471,5.471,0,0,0,1.693,1.387h0l1.179,3.181h0A1.18,1.18,0,0,0,342.191,56.214Zm-9.251-3.325a1.37,1.37,0,0,1,.3.651h0a.454.454,0,0,1-.176.488h0a.594.594,0,0,1-.48.011h0a1.606,1.606,0,0,1-.723-.539h0a.309.309,0,0,1-.035-.048h0a1.454,1.454,0,0,1-.16-.264h0c-.176-.365-.155-.7.083-.829h0l.059-.021h0a.557.557,0,0,1,.168-.024h0a1.116,1.116,0,0,1,.632.256h0a1.923,1.923,0,0,1,.312.3h0Zm-.392-.755c-.205-1.349-.6-4-.843-5.6h0a1.156,1.156,0,0,0,.752.013h0c.56-.24.456-1.093-.213-1.912h0c.077-.1.16-.195.24-.3h0l1.325,1.728h0c-.387.309-.235,1.1.4,1.877h0c.7.864,1.712,1.347,2.229,1.077h0a.562.562,0,0,0,.293-.475h0l.816.416h0l-.613,2.219h0a2.31,2.31,0,0,0-2.2-.445h0c-.6.323-.691,1.179-.3,2.163h0c-.408-.008-.805-.016-1.131-.024h0c-.035-.048-.061-.1-.1-.139h0A2.683,2.683,0,0,0,332.548,52.134Zm-2.061-6.853a1.772,1.772,0,0,1-.347-.645h0a.578.578,0,0,1,.064-.515h0a.371.371,0,0,1,.173-.128h0a1.073,1.073,0,0,1,.808.16h0a2.465,2.465,0,0,1,.717.6h0c.045.053.083.109.12.16h0c.341.5.368.989.024,1.131h0a.727.727,0,0,1-.416.008h0a1.677,1.677,0,0,1-.581-.259h0A2.526,2.526,0,0,1,330.487,45.281Zm5.632,2.419a.9.9,0,0,1,.088.584h0a.358.358,0,0,1-.181.237h0c-.352.173-1.024-.152-1.493-.728h0c-.395-.477-.509-.965-.325-1.205h0a.363.363,0,0,1,.136-.107h0a.532.532,0,0,1,.309-.032h0a2.075,2.075,0,0,1,1.16.749h0A2.292,2.292,0,0,1,336.119,47.7Zm-.72,5.864a3.426,3.426,0,0,1-.325-.648h0c-.245-.672-.179-1.248.235-1.477h0a1.559,1.559,0,0,1,1.485.248h0a4.14,4.14,0,0,1,.685.533h0a5.014,5.014,0,0,1,.36.389h0c.8.979,1.016,2.088.475,2.5h0l-.021.019h0a.865.865,0,0,1-.488.136h0a3.152,3.152,0,0,1-2.125-1.3h0A4.146,4.146,0,0,1,335.4,53.563Zm6.869-3.432c.747.877,1,1.851.547,2.168h0a.618.618,0,0,1-.384.1h0a1.744,1.744,0,0,1-.789-.256h0a3.993,3.993,0,0,1-1.083-.928h0a3.581,3.581,0,0,1-.632-1.045h0a1.682,1.682,0,0,1-.115-.592h0a.572.572,0,0,1,.259-.525h0a1.241,1.241,0,0,1,1.147.189h0a3.831,3.831,0,0,1,.616.445h0A4.646,4.646,0,0,1,342.268,50.131ZM332.6,42.3c-.691-.829-.864-1.635-.483-1.96h0a.62.62,0,0,1,.224-.117h0a.612.612,0,0,1,.075-.016h0a3.273,3.273,0,0,1,2.464,1.347h0c.064.077.12.149.179.227h0a3.144,3.144,0,0,1,.429.771h0c.189.523.117.949-.264,1.1h0a2.157,2.157,0,0,1-1.749-.536h0a4.87,4.87,0,0,1-.792-.717h0Zm-.792-8.619a3.3,3.3,0,0,1,2.251,1.275h0c.691.789.824,1.525.275,1.637h0a.788.788,0,0,1-.093.013h0a1.207,1.207,0,0,1-.445-.061h0a4.2,4.2,0,0,1-1.779-1.24h0a2.773,2.773,0,0,1-.52-.827h0a.83.83,0,0,1-.051-.512h0A.4.4,0,0,1,331.8,33.686Zm-12.16-5.053c-.957-1.163-.829-2.083.24-2.067h0a5.63,5.63,0,0,1,3.5,1.987h0a2.841,2.841,0,0,1,.659,1.192h0a.892.892,0,0,1-.021.493h0a.616.616,0,0,1-.4.365h0a1.081,1.081,0,0,1-.309.059h0a.229.229,0,0,1-.043,0h0A5.457,5.457,0,0,1,319.644,28.633Zm5.405,2.192,5.773,3.277h0a3.622,3.622,0,0,0,.763,1.283h0a5.629,5.629,0,0,0,2.605,1.768h0l3.325,5.045h0l-1.856-.309h0c-.109-.155-.229-.315-.36-.469h0c-1.061-1.245-2.6-2.069-3.488-1.861h0l-7.405-8.091h0A.869.869,0,0,0,325.049,30.825Zm-6.557.944a2.219,2.219,0,0,1,1.419.728h0a1.386,1.386,0,0,1,.1.115h0a1.019,1.019,0,0,1,.277.653h0a.373.373,0,0,1-.379.349h0a2.179,2.179,0,0,1-1.616-.848h0a1,1,0,0,1-.269-.664h0a.376.376,0,0,1,.4-.336h0Zm.669,4.835a.783.783,0,0,1-.675,1.024h0a3.594,3.594,0,0,1-2.928-1.461h0c-.725-.944-.563-1.784.328-1.883h0a1.679,1.679,0,0,1,.328,0h0a2.983,2.983,0,0,1,1.021.291h0a4.169,4.169,0,0,1,1.475,1.152h0a2.744,2.744,0,0,1,.243.357h0A1.932,1.932,0,0,1,319.161,36.6Zm.52-.363a3.934,3.934,0,0,0-.389-.6h0a5.83,5.83,0,0,0-2.24-1.68h0l-1.075-3.56h0l1.523,1.261h0a1.253,1.253,0,0,0,.36,1.139h0a3.241,3.241,0,0,0,2.421,1.269h0a.551.551,0,0,0,.552-.632h0l2.979.957h0l.421,2.819h0Zm4.672-1.669,3.525,1.136h0l3.632,3.979h0c-.608.411-.392,1.571.611,2.776h0c.08.1.165.2.253.291h0l-.96,1.131h0a1.834,1.834,0,0,0-1.44-.384h0a.588.588,0,0,0-.333.277h0l-2.816-1.728h0a2.161,2.161,0,0,0-.509-1.077h0a3.783,3.783,0,0,0-1.1-.917h0Zm-.051,5.691a.905.905,0,0,1,.379,0h0a1.825,1.825,0,0,1,.605.253h0a2.5,2.5,0,0,1,.645.557h0a1.657,1.657,0,0,1,.323.627h0a.532.532,0,0,1-.1.5h0a.452.452,0,0,1-.2.12h0a1.9,1.9,0,0,1-1.661-.816h0a.568.568,0,0,1-.043-.067h0a1.375,1.375,0,0,1-.285-.661h0A.447.447,0,0,1,324.3,40.262ZM322.164,47.6c-.907.328-2.355-.32-3.189-1.44h0c-.827-1.1-.7-2.211.229-2.469h0a1.8,1.8,0,0,1,.627-.043h0a3.05,3.05,0,0,1,1.125.357h0a4.137,4.137,0,0,1,1.317,1.109h0a2.509,2.509,0,0,1,.579,1.437h0a1.1,1.1,0,0,1-.277.789h0A1.138,1.138,0,0,1,322.164,47.6Zm1.52-.512a3.37,3.37,0,0,0-.808-2.163h0a5.8,5.8,0,0,0-2.037-1.643h0c-.149-.917-.309-1.9-.405-2.5h0c1.272.221,2.413.419,3.248.565h0c.059.091.123.181.195.272h0a2.8,2.8,0,0,0,2.48,1.216h0a.613.613,0,0,0,.373-.277h0c.88.539,1.971,1.205,2.851,1.741h0a2.464,2.464,0,0,0,.549,1.123h0a3.586,3.586,0,0,0,.989.856h0l.8,5.608h0a.8.8,0,0,0-.5.051h0a.379.379,0,0,0-.107.083h0C329.535,50.867,326.079,48.635,323.684,47.083Zm1.637,9.512a2.265,2.265,0,0,1-.125-.2h0a1.027,1.027,0,0,1-.1-.9h0a.549.549,0,0,1,.227-.235h0a.7.7,0,0,1,.349-.069h0a1.468,1.468,0,0,1,.9.464h0a1.6,1.6,0,0,1,.149.179h0a1.432,1.432,0,0,1,.3.749h0a.6.6,0,0,1-.269.589h0a.68.68,0,0,1-.416.072h0A1.568,1.568,0,0,1,325.321,56.6Zm2.179.512a1.916,1.916,0,0,0-.437-1.469h0a2.6,2.6,0,0,0-.451-.469h0l.515-4.9h0l4.027,2.589h0a2.252,2.252,0,0,0,.416.8h0c.037.053.085.1.128.147h0l-.709,1.947h0a1.7,1.7,0,0,0-1.632-.168h0c-.741.427-.68,1.688.163,2.808h0c.8,1.059,1.976,1.573,2.709,1.24h0l.429.493h0a1.487,1.487,0,0,0,.04.907h0l-1.32.275h0Zm5.939,4.531a1.733,1.733,0,0,1-.323-.693h0a.92.92,0,0,1-.021-.315h0a.531.531,0,0,1,.2-.392h0a.477.477,0,0,1,.261-.085h0a1.368,1.368,0,0,1,1.035.611h0c.4.517.48,1.147.171,1.392h0c-.3.235-.827.045-1.227-.411h0A1.179,1.179,0,0,1,333.439,61.638ZM331.708,57a1.8,1.8,0,0,1,.427,1.525h0a.68.68,0,0,1-.261.363h0a.809.809,0,0,1-.213.093h0a1.852,1.852,0,0,1-1.693-.869h0c-.565-.747-.616-1.595-.125-1.885h0a1.033,1.033,0,0,1,.96.035h0a2.37,2.37,0,0,1,.8.619h0A1.481,1.481,0,0,1,331.708,57Zm-3.395,6.291a1.917,1.917,0,0,1-.435-.424h0a1.848,1.848,0,0,1-.195-.344h0a.956.956,0,0,1,.144-1.192h0c.355-.237.939-.037,1.355.443h0a1.23,1.23,0,0,1,.093.109h0a1.727,1.727,0,0,1,.32.741h0a1.138,1.138,0,0,1,.016.187h0a.709.709,0,0,1-.253.6h0a.538.538,0,0,1-.171.085h0A1.024,1.024,0,0,1,328.313,63.289Zm-2,3.864c-.632.485-1.693.125-2.341-.8h0A1.774,1.774,0,0,1,324,63.886h0a1.546,1.546,0,0,1,1.813.309h0a2.776,2.776,0,0,1,.461.5h0a2.746,2.746,0,0,1,.192.309h0A1.7,1.7,0,0,1,326.313,67.153Zm3.808-3.856a1.828,1.828,0,0,0-.061-.776h0c.923-.208,2.168-.485,3.053-.683h0l.019.037h0c.624.819,1.528,1.168,2.005.779h0c.467-.384.341-1.328-.264-2.115h0a1.864,1.864,0,0,0-1.755-.885h0c-.139-.16-.283-.323-.424-.488h0a2.5,2.5,0,0,0-.581-2.424h0a3.321,3.321,0,0,0-.333-.381h0c.1-.3.216-.621.325-.939h0l1.6.992h0a2.374,2.374,0,0,0,.485,1.04h0c.581.744,1.411,1.1,1.845.779h0c.424-.312.3-1.144-.267-1.861h0c-.56-.709-1.365-1.059-1.805-.781h0a.575.575,0,0,0-.2.243h0l-1.48-.923h0c.061-.179.123-.355.179-.515h0a1.013,1.013,0,0,0,.949.069h0a.782.782,0,0,0,.221-.923h0l1.131.013h0a5.641,5.641,0,0,0,.467.683h0a4.176,4.176,0,0,0,3.1,1.819h0l2.424,3.659h0l-1.269.325h0c-.016-.019-.032-.045-.048-.067h0c-.813-1.024-1.933-1.5-2.515-1.053h0c-.595.459-.413,1.715.435,2.805h0a3.89,3.89,0,0,0,.584.613h0c-.048.971-.107,2.211-.168,3.445h0c-1.467-.768-2.939-.827-3.947.051h0a2.643,2.643,0,0,0-.483.549h0C332.164,65.259,330.985,64.123,330.121,63.3Zm4.051-6.592a.656.656,0,0,1,.056-.584h0a.261.261,0,0,1,.088-.083h0c.285-.189.821.04,1.195.517h0c.376.469.453,1.021.171,1.224h0c-.285.2-.832-.027-1.213-.515h0A1.681,1.681,0,0,1,334.172,56.7Zm4.933,3.547a2.684,2.684,0,0,1,.437.784h0a1.019,1.019,0,0,1-.1,1.091h0a.7.7,0,0,1-.675.091h0a1.992,1.992,0,0,1-.8-.5h0a2.7,2.7,0,0,1-.261-.288h0c-.568-.725-.7-1.571-.3-1.883h0c.371-.291,1.077-.008,1.619.619h0C339.052,60.193,339.081,60.217,339.105,60.251ZM341.2,71.518a4.362,4.362,0,0,1-.176,3.952h0c-1.123,1.448-3.531.707-5.267-1.68h0a6.568,6.568,0,0,1-1.363-5.288h0a2.485,2.485,0,0,1,.357-.757h0a2.144,2.144,0,0,1,.267-.312h0a2.334,2.334,0,0,1,2.675-.155h0a5.16,5.16,0,0,1,.869.533h0a7.1,7.1,0,0,1,1.392,1.395h0a7.93,7.93,0,0,1,.571.853h0A7.965,7.965,0,0,1,341.2,71.518Zm11.4-6.648c.544-.8,2.051-.149,3.4,1.437h0c1.368,1.608,2.147,3.68,1.7,4.632h0c-.469.995-2.077.379-3.544-1.4h0c-.192-.232-.371-.469-.539-.712h0a8.425,8.425,0,0,1-.672-1.181h0a5.481,5.481,0,0,1-.525-1.7h0a2.3,2.3,0,0,1,.013-.627h0A1.224,1.224,0,0,1,352.6,64.87Zm-.485,2.941-10.421,2.024h0a11.282,11.282,0,0,0-.968-1.472h0a9.939,9.939,0,0,0-2.107-2.061h0c.048-1.293.093-2.533.128-3.459h0a1.1,1.1,0,0,0,1.2-.077h0a1.684,1.684,0,0,0,.048-1.856h0c.835-.229,1.944-.533,2.877-.792h0c.1.139.2.283.317.419h0a5.925,5.925,0,0,0,.4.453h0l-1.261,3.432h0c-.453-.309-.909-.381-1.171-.123h0c-.389.389-.205,1.363.421,2.165h0c.632.811,1.456,1.123,1.832.7h0c.363-.413.149-1.376-.461-2.149h0l1.221-3.475h0c1.187,1.005,2.4,1.317,2.971.68h0a1.125,1.125,0,0,0,.235-.448h0l3.9,3.232h0A7.663,7.663,0,0,0,352.111,67.811Zm-9.395-2.565a1.2,1.2,0,0,1,.1.139h0c.325.483.421,1.035.2,1.283h0c-.245.275-.784.067-1.2-.459h0c-.413-.525-.541-1.168-.283-1.427h0a.535.535,0,0,1,.651.005h0A1.8,1.8,0,0,1,342.716,65.246Zm9.437-7.819c-.251.283-.795.157-1.4-.264h0a4.859,4.859,0,0,1-.792-.709h0c-.037-.043-.077-.083-.115-.123h0c-.877-1.024-1.245-2.157-.837-2.528h0a.52.52,0,0,1,.392-.115h0a1.636,1.636,0,0,1,.664.227h0a4.525,4.525,0,0,1,1.181.989h0C352.1,55.878,352.513,57.011,352.153,57.427Zm-3.08-4.461a.821.821,0,0,0-.672.136h0c-.581.5-.08,2.088,1.157,3.531h0c.1.117.205.229.309.336h0c-.312,1.717-.8,4.427-.979,5.416h0l-1.453-1.2h0a5.859,5.859,0,0,0-1.48-3.267h0a6.222,6.222,0,0,0-2.069-1.675h0l-1.2-3.163h0a.92.92,0,0,0,.669-.136h0c.621-.451.259-1.805-.773-3.013h0a5.869,5.869,0,0,0-.72-.715h0c.083-1.125.181-2.52.259-3.624h0c1.027.693,1.995.984,2.525.685h0a.786.786,0,0,0,.376-.683h0l1,.709h0C346.388,47.1,347.953,50.521,349.073,52.966Zm2.707-2.2c-.328.291-1.24-.181-2.021-1.059h0a3.887,3.887,0,0,1-.821-1.339h0a1.036,1.036,0,0,1-.053-.411h0a.357.357,0,0,1,.139-.277h0c.352-.243,1.232.232,1.976,1.056h0C351.745,49.569,352.105,50.478,351.78,50.763Z" transform="translate(2.359 3.468)"/></g></svg>