<svg xmlns="http://www.w3.org/2000/svg" width="104" height="61" viewBox="0 0 104 61"><defs><style>.a{fill:#0069b3;}</style></defs><g transform="translate(-14.575 -19.46)"><path class="a" d="M59.548,21.693l21.9,14.18s11.158,5.966,1.24,11.314c0,0-4.543,3.788-19.215,2.555,0,0-7.442-1.27-11.368-3.939,0,0-5.165-2.734-1.03-5.194,0,0,6.2-2.057-4.753-3.089,0,0-11.368-1.234-16.121-.41,0,0-8.057.41-11.776,1.647l27.482-17.83S52.933,17.162,59.548,21.693Z" transform="translate(10.313 0)"/><path class="a" d="M18.819,29.569s5.787-4.312,18.8-4.517c0,0,8.061-.41,12.6,1.025,0,0-7.645,9.037,5.169,16.025,0,0,7.851,5.56,24.174,6.589,0,0,10.128,1.025,14.672.406L72.34,62.882S64,70.595,51.26,60.616L18.4,39.229S9.519,35.327,18.819,29.569Z" transform="translate(0 14.734)"/><path class="a" d="M26.626,33.954s17.379,9.111,39.688,2.339c0,0,8.921-1.4,14.326-8.412,0,0,10.338,4.674,3.054,9.813,0,0-.467,2.8-18.317,5.143,0,0-12.449.7-18.086-.944C47.29,41.893,31.081,39.093,26.626,33.954Z" transform="translate(32.283 22.403)"/><path class="a" d="M26.626,27.931" transform="translate(32.283 22.536)"/></g></svg>