<svg xmlns="http://www.w3.org/2000/svg" width="76" height="76" viewBox="0 0 76 76"><defs><style>.a{fill:#fd3318;}.b{fill:#1a9850;}.c{fill:#0e3192;}.d{fill:#ff9901;}</style></defs><g transform="translate(-349.828 -117.599)"><g transform="translate(349.828 117.599)"><path class="a" d="M384.7,117.606a38.08,38.08,0,0,0-32.285,16.69c.127.147.244.289.343.418.076.086.142.175.206.246a.9.9,0,0,1,.1.02,3.606,3.606,0,0,1,1.885.8,5.32,5.32,0,0,1,.871,1.092,3.575,3.575,0,0,0,.267.388,5.265,5.265,0,0,0,.455.367,8.375,8.375,0,0,1,.935.79c.267.271.511.545.744.811.16.193.315.37.475.537.122.134.29.284.465.441a9.8,9.8,0,0,1,.846.826,4.753,4.753,0,0,1,.742,1.183c.069.127.165.322.206.38v-.005c.257.3.5.618.742.917l.371.466a3.53,3.53,0,0,0,.368.337,6.025,6.025,0,0,1,.945.945c.236.307.427.605.61.9.142.21.269.408.4.585a6.073,6.073,0,0,1,.633,1.16,2.757,2.757,0,0,0,.229.466,4.209,4.209,0,0,0,.351.388,6.649,6.649,0,0,1,.818.96,5.876,5.876,0,0,1,.577,1.183c.051.134.107.274.152.372.048.035.114.079.168.117a3.918,3.918,0,0,1,1.25,1.193,6.079,6.079,0,0,1,.462.968l.729.494c1.186.8,1.687.383,1.11-.925l-6.706-15.243c-.574-1.307-.338-1.447.526-.307l10,13.191c.866,1.14,1.471.909,1.349-.514l-1.4-16.548c-.122-1.424.152-1.477.6-.124l4.837,15.621c.457,1.358,1.057,1.32,1.336-.081L384.1,133c.279-1.409.559-1.383.622.043l.688,16.474c.061,1.426.691,1.581,1.41.345l8.256-14.253c.714-1.236.97-1.13.561.243l-4.677,15.735c-.406,1.368.147,1.72,1.227.785l12.384-10.719c1.08-.937,1.29-.75.457.415l-7.126,9.966a2.234,2.234,0,0,0,1.008-.18c.579-.312.917-1.1,1.514-1.393s1.379-.185,1.989-.451,1.024-.98,1.633-1.226,1.25-.421,1.86-.643c.673-.246,1.3-.628,1.956-.851s1.374-.319,2.027-.519,1.445.081,2.086-.1c.7-.2,1.232-.937,1.905-1.11s1.412-.068,2.053-.22c.7-.165,1.415-.142,2.065-.281.706-.152,1.331-.519,1.971-.643a2.4,2.4,0,0,1,.384-.041A38.1,38.1,0,0,0,384.7,117.606Z" transform="translate(-345.85 -117.599)"/><path class="b" d="M382.9,179.015a.546.546,0,0,1,.025-.111,1.543,1.543,0,0,0-.089-.155,4.6,4.6,0,0,1-.554-1.322c-.046-.215-.117-.459-.2-.717-.091-.284-.188-.608-.269-.953a6.949,6.949,0,0,1-.13-1.2,3.2,3.2,0,0,0-.041-.524c-.084-.36-.135-.694-.18-1a6.525,6.525,0,0,0-.119-.689,4.99,4.99,0,0,0-.213-.6,7.361,7.361,0,0,1-.351-1.008l-.1-.365-.33-1.254c-.056-.2-.142-.426-.231-.664-.1-.274-.221-.578-.312-.9a4.477,4.477,0,0,1-.135-1.507c.005-.119.01-.256.005-.327-.071-.225-.16-.466-.259-.719s-.211-.537-.3-.836c-.025-.053-.125-.185-.2-.289a4.563,4.563,0,0,1-.709-1.257,4.455,4.455,0,0,0-.259-.57,7.728,7.728,0,0,1-.44-.975c-.1-.291-.213-.58-.333-.882l-.262-.684a3.852,3.852,0,0,1-.17-1.68c.005-.056.008-.119.013-.177-.066-.139-.15-.3-.251-.471a10.4,10.4,0,0,1-.485-.968,3.173,3.173,0,0,0-.272-.443,5.958,5.958,0,0,1-.6-1.051,10.166,10.166,0,0,1-.348-.988,5.949,5.949,0,0,0-.208-.616c-.125-.279-.229-.552-.333-.813s-.208-.514-.312-.737l-.318-.694c-.137-.312-.272-.611-.412-.894a2.939,2.939,0,0,0-.312-.443,6.132,6.132,0,0,1-.663-1,5.771,5.771,0,0,1-.427-1.219c-.028-.112-.063-.251-.089-.339-.053-.048-.119-.1-.175-.149a3.861,3.861,0,0,1-1.067-1.168,4.392,4.392,0,0,1-.465-1.485,3.041,3.041,0,0,0-.056-.3,7.2,7.2,0,0,1-.452-.993c-.056-.149-.112-.3-.165-.41-.053-.038-.119-.084-.175-.122a3.754,3.754,0,0,1-1.2-1.13,5.84,5.84,0,0,1-.546-1.137,2.876,2.876,0,0,0-.193-.438,3.492,3.492,0,0,0-.378-.423,6.825,6.825,0,0,1-.744-.864,6.742,6.742,0,0,1-.594-1.112,4.461,4.461,0,0,0-.213-.443c-.2-.274-.373-.54-.523-.778s-.3-.461-.434-.638a3.7,3.7,0,0,0-.4-.367,6.351,6.351,0,0,1-.856-.846l-.394-.491c-.229-.291-.445-.565-.66-.818a4.914,4.914,0,0,1-.709-1.158c-.061-.119-.145-.284-.183-.337-.15-.165-.34-.337-.541-.517-.216-.2-.46-.418-.7-.671-.2-.22-.389-.428-.572-.638-.2-.233-.391-.456-.572-.638a5.892,5.892,0,0,0-.536-.438,9.282,9.282,0,0,1-.782-.646,5.834,5.834,0,0,1-.838-1.077c-.041-.061-.086-.129-.122-.19l-.112-.023a3.514,3.514,0,0,1-1.735-.707c-.107-.1-.211-.193-.3-.284A37.953,37.953,0,0,0,382.87,181.08c-.035-.129-.071-.258-.1-.4A3.814,3.814,0,0,1,382.9,179.015Z" transform="translate(-349.828 -105.421)"/><path class="c" d="M361.6,137.231c.064.155.17.344.285.557a8.754,8.754,0,0,1,.531,1.059,3.807,3.807,0,0,1,.178,1.707c0,.063-.013.147-.013.208l.193.5c.124.319.252.649.376.993.051.144.15.334.249.537a7.9,7.9,0,0,1,.47,1.064l-.018-.041c.031.048.13.187.2.289a4.509,4.509,0,0,1,.729,1.317c.066.205.155.428.244.671.127.319.251.649.361,1.011a4.622,4.622,0,0,1,.147,1.54c-.01.114-.01.263-.01.334.056.175.127.375.208.585a9.716,9.716,0,0,1,.346,1l.345,1.3.1.372a4.684,4.684,0,0,0,.2.557,8.838,8.838,0,0,1,.376,1.087c.089.375.142.737.193,1.056.036.243.068.479.117.674a6.344,6.344,0,0,1,.137,1.236,3.112,3.112,0,0,0,.046.532c.046.2.114.426.185.666.091.3.193.633.274.993a2.744,2.744,0,0,0,.145.269,4.312,4.312,0,0,1,.564,1.371,3.694,3.694,0,0,1-.112,1.685c-.018.058-.03.124-.043.187.036.119.076.269.13.426a7.92,7.92,0,0,1,.249.871c.1.005.178.013.267.013a38.036,38.036,0,0,0,28.6-12.071c-13.225-10.136-29.465-13.688-36.36-14.8C361.524,137.069,361.56,137.15,361.6,137.231Z" transform="translate(-331.879 -87.866)"/><path class="d" d="M399.716,137.984a37.949,37.949,0,0,0-.785-8.408l-.709.122c-.65.119-1.232.542-1.852.664-.638.129-1.247.324-1.859.466-.673.155-1.357.18-2,.35-.658.162-1.359.106-1.984.286s-1.169.676-1.768.869c-.666.213-1.362.266-1.987.486-.643.225-1.367.193-1.971.428s-1.113.732-1.684.98c-.635.269-1.339.345-1.921.623-.645.3-1.12.889-1.7,1.2-.6.314-1.207.573-1.753.892-.6.347-1.25.565-1.781.9-.589.377-1,.953-1.509,1.312-.587.421-1.029.955-1.519,1.345-.566.459-1.26.669-1.7,1.077s-.932.684-1.311.985l-.851,1.365c-.178.641-.178,1.115-.452.719l-1.839,2.946a78.7,78.7,0,0,1,25.185,12.624A37.789,37.789,0,0,0,399.716,137.984Z" transform="translate(-323.723 -99.234)"/></g></g></svg>