<svg xmlns="http://www.w3.org/2000/svg" width="27" height="46" viewBox="0 0 27 46"><defs><style>.a{opacity:0.702;}.b{fill:#fff;}.c{fill:#a5beec;}</style></defs><g class="a" transform="translate(-687.98 -1325.62)"><g transform="translate(687.98 1325.62)"><path class="b" d="M51.736,175.151h0a8.9,8.9,0,0,1,8.868,8.873v15.329a8.9,8.9,0,0,1-8.868,8.873h0a8.9,8.9,0,0,1-8.869-8.873V184.023a8.9,8.9,0,0,1,8.869-8.873Zm-3.512,23.437v-13.6a6.953,6.953,0,0,1,.57-3A3.112,3.112,0,0,1,50.2,180.5a1.583,1.583,0,1,0-1.412-2.833,6.252,6.252,0,0,0-2.85,2.93,10.023,10.023,0,0,0-.887,4.381v13.6a1.587,1.587,0,1,0,3.173,0Zm5.156,14.169a13.5,13.5,0,0,0,11.848-13.41,1.646,1.646,0,1,0-3.291,0,10.205,10.205,0,1,1-20.411,0,1.646,1.646,0,1,0-3.291,0,13.5,13.5,0,0,0,11.848,13.41v5.1H39.875a1.647,1.647,0,0,0,0,3.293H63.583a1.647,1.647,0,0,0,0-3.293H53.374v-5.1Z" transform="translate(-38.229 -175.151)"/></g><path class="c" d="M1.646,46a1.647,1.647,0,0,1,0-3.293h10.21v-5.1A13.5,13.5,0,0,1,.006,24.2a1.646,1.646,0,1,1,3.292,0,10.205,10.205,0,1,0,20.41,0A1.646,1.646,0,1,1,27,24.2a13.5,13.5,0,0,1-11.849,13.41h-.006v5.1h10.21a1.647,1.647,0,0,1,0,3.293ZM4.638,24.2V8.873a8.868,8.868,0,1,1,17.737,0V24.2a8.868,8.868,0,1,1-17.737,0ZM10.559,2.521a6.249,6.249,0,0,0-2.851,2.93,10.032,10.032,0,0,0-.887,4.381v13.6a1.587,1.587,0,1,0,3.173,0V9.833a6.961,6.961,0,0,1,.571-3,3.116,3.116,0,0,1,1.406-1.477,1.581,1.581,0,0,0-.71-3A1.565,1.565,0,0,0,10.559,2.521Z" transform="translate(687.98 1325.62)"/></g></svg>