<svg xmlns="http://www.w3.org/2000/svg" width="50.828" height="39.436" viewBox="0 0 50.828 39.436"><defs><style>.a{fill:none;stroke:#fff;stroke-linecap:round;stroke-width:2px;}</style></defs><g transform="translate(1.414 1.437)"><path class="a" d="M327.473,514.308,325.834,516a5.138,5.138,0,0,1-7.425,0l-1.639-1.69L315.131,516a5.138,5.138,0,0,1-7.425,0l-1.639-1.69L304.428,516A5.138,5.138,0,0,1,297,516l-1.639-1.69L293.726,516a5.139,5.139,0,0,1-7.426,0l-1.638-1.69" transform="translate(-284.662 -514.308)"/><path class="a" d="M332.662,525.549l-1.639,1.69a5.138,5.138,0,0,1-7.425,0l-1.639-1.69-1.639,1.69a5.138,5.138,0,0,1-7.425,0l-1.639-1.69-1.639,1.69a5.138,5.138,0,0,1-7.425,0l-1.639-1.69-1.638,1.69a5.139,5.139,0,0,1-7.426,0l-1.638-1.69" transform="translate(-284.662 -514.308)"/><path class="a" d="M327.473,536.79l-1.639,1.69a5.138,5.138,0,0,1-7.425,0l-1.639-1.69-1.639,1.69a5.138,5.138,0,0,1-7.425,0l-1.639-1.69-1.639,1.69a5.138,5.138,0,0,1-7.425,0l-1.639-1.69-1.638,1.69a5.139,5.139,0,0,1-7.426,0l-1.638-1.69" transform="translate(-284.662 -514.308)"/><path class="a" d="M332.662,548.031l-1.639,1.69a5.138,5.138,0,0,1-7.425,0l-1.639-1.69-1.639,1.69a5.138,5.138,0,0,1-7.425,0l-1.639-1.69-1.639,1.69a5.138,5.138,0,0,1-7.425,0l-1.639-1.69-1.638,1.69a5.139,5.139,0,0,1-7.426,0l-1.638-1.69" transform="translate(-284.662 -514.308)"/></g></svg>