<svg xmlns="http://www.w3.org/2000/svg" width="40" height="40" viewBox="0 0 40 40"><defs><style>.a{fill:#45a237;}.b{fill:#fff;}</style></defs><circle class="a" cx="20" cy="20" r="20"/><g transform="translate(4.835 12.303)"><path class="b" d="M184.259,168.316v1.46a.9.9,0,0,1,.706.988h-2.873a2.121,2.121,0,0,0-2.165-2.166v1.507s.707.047.707,1.177v3.249h5.743v-3.672S186.613,168.316,184.259,168.316Zm.706,4.907h-2.873v-1.036h2.873Z" transform="translate(-178.798 -168.316)"/><rect class="b" width="9.368" height="1.412" transform="translate(0 6.874)"/><path class="b" d="M180.587,177.685h5.8v3.625h-4.291v1.036h4.291v1.365h-5.8v-3.766h4.379V179.1h-4.379Z" transform="translate(-178.798 -168.316)"/><path class="b" d="M190.662,170.481H196.5v4.049h-4.284v.988H196.5v1.459h-2.024v1.412h3.484v1.366h-8.9v-1.413h3.907v-1.365h-2.26v-4.1h4.331v-1.035h-4.331Z" transform="translate(-178.296 -168.316)"/><path class="b" d="M200.548,171.188v1.459h4.331V176.6h1.742v-5.414Z" transform="translate(-177.798 -168.316)"/><rect class="b" width="9.038" height="1.507" transform="translate(21.291 9.698)"/></g></svg>