<svg xmlns="http://www.w3.org/2000/svg" width="49" height="46" viewBox="0 0 49 46"><defs><style>.a{opacity:0.702;}.b{fill:#fff;}.c{fill:#a5beec;}</style></defs><g class="a" transform="translate(-677.12 -1179.21)"><g transform="translate(677.12 1179.21)"><g transform="translate(0)"><g transform="translate(20.21)"><ellipse class="b" cx="4.29" cy="4.273" rx="4.29" ry="4.273"/></g><g transform="translate(13.061 5.842)"><path class="b" d="M136.586,345.155a7.14,7.14,0,0,1-13.923,0,5.7,5.7,0,0,0-4.477,5.553v5.7a2.859,2.859,0,0,0,5.719,0v-2.849h11.44v2.849a2.86,2.86,0,0,0,5.72,0v-5.7A5.7,5.7,0,0,0,136.586,345.155Z" transform="translate(-118.186 -345.155)"/></g><g transform="translate(40.347 34.658)"><path class="b" d="M151.787,374.125a4.277,4.277,0,1,0-4.29,7.4,4.412,4.412,0,0,0,5.955-1.564A4.294,4.294,0,0,0,151.787,374.125Z" transform="translate(-145.352 -373.552)"/></g><g transform="translate(26.344 22.273)"><path class="b" d="M149.17,364.4l-4.953-2.849a2.851,2.851,0,1,0-2.859,4.934l2.476,1.424-5.72,9.869-2.476-1.424a2.852,2.852,0,1,0-2.86,4.934l4.953,2.849a5.737,5.737,0,0,0,7.066-1.087,7.111,7.111,0,0,1,6.962-12.011A5.69,5.69,0,0,0,149.17,364.4Z" transform="translate(-131.348 -361.167)"/></g><g transform="translate(0 34.658)"><path class="b" d="M113.321,375.689a4.327,4.327,0,0,0-7.525,4.273,4.411,4.411,0,0,0,5.955,1.564A4.264,4.264,0,0,0,113.321,375.689Z" transform="translate(-105.244 -373.552)"/></g><g transform="translate(1.983 22.273)"><path class="b" d="M127.518,377.393a2.869,2.869,0,0,0-3.907-1.043l-2.476,1.424-5.72-9.869,2.476-1.424a2.851,2.851,0,1,0-2.859-4.934l-4.953,2.849a5.69,5.69,0,0,0-2.59,6.64,7.11,7.11,0,0,1,6.962,12.011,5.737,5.737,0,0,0,7.066,1.087l4.953-2.849A2.847,2.847,0,0,0,127.518,377.393Z" transform="translate(-107.227 -361.167)"/></g></g></g><path class="c" d="M32.647,45.232l-4.978-2.875a2.874,2.874,0,0,1,2.873-4.979l2.489,1.437,5.748-9.959-2.488-1.437a2.875,2.875,0,0,1,2.872-4.98l4.978,2.875a5.754,5.754,0,0,1,2.6,6.7,7.171,7.171,0,0,0-7,12.121A5.768,5.768,0,0,1,35.5,46,5.694,5.694,0,0,1,32.647,45.232Zm-23.395-1.1a7.171,7.171,0,0,0-7-12.121,5.754,5.754,0,0,1,2.6-6.7l4.978-2.875a2.875,2.875,0,0,1,2.872,4.98l-2.488,1.437,5.748,9.959,2.488-1.437a2.875,2.875,0,1,1,2.874,4.979l-4.978,2.875A5.693,5.693,0,0,1,13.5,46,5.768,5.768,0,0,1,9.252,44.136Zm-8.7-3.113A4.421,4.421,0,1,1,4.364,43.18,4.39,4.39,0,0,1,.555,41.023ZM42.46,42.6a4.313,4.313,0,1,1,5.984-1.579A4.424,4.424,0,0,1,42.46,42.6ZM30.247,17.25V14.375h-11.5V17.25a2.874,2.874,0,1,1-5.748,0V11.5a5.75,5.75,0,0,1,4.5-5.6A7.169,7.169,0,0,0,31.5,5.9a5.751,5.751,0,0,1,4.5,5.6v5.75a2.874,2.874,0,1,1-5.748,0ZM20.188,4.312A4.311,4.311,0,1,1,24.5,8.624,4.311,4.311,0,0,1,20.188,4.312Z" transform="translate(677.12 1179.211)"/></g></svg>