<svg xmlns="http://www.w3.org/2000/svg" width="40" height="40" viewBox="0 0 40 40"><defs><style>.a{fill:#1877f2;}.b{fill:#fff;}</style></defs><g transform="translate(-94.211 -15.263)"><path class="a" d="M134.211,35.263A20,20,0,1,0,111.085,55.02V41.044h-5.078V35.263h5.078V30.857c0-5.013,2.986-7.781,7.555-7.781a30.766,30.766,0,0,1,4.477.391v4.922h-2.522c-2.484,0-3.259,1.542-3.259,3.124v3.752h5.547L122,41.044h-4.661V55.02A20,20,0,0,0,134.211,35.263Z"/><path class="b" d="M122,41.044l.887-5.781h-5.547V31.512c0-1.582.775-3.124,3.259-3.124h2.522V23.466a30.766,30.766,0,0,0-4.477-.391c-4.568,0-7.555,2.768-7.555,7.781v4.406h-5.078v5.781h5.078V55.02a20.2,20.2,0,0,0,6.25,0V41.044Z"/></g></svg>