<svg xmlns="http://www.w3.org/2000/svg" width="18" height="18" viewBox="0 0 18 18"><defs><style>.a{fill:#888;}.b{fill:#15244b;}</style></defs><g transform="translate(-41 -41)"><path class="a" d="M46.4,41.45v4.5h0a.449.449,0,0,0,.45.45h6.3a.449.449,0,0,0,.45-.45v-4.5h0a.449.449,0,0,1,.45-.45h.791a1.349,1.349,0,0,1,.954.4l2.81,2.81h0a1.349,1.349,0,0,1,.4.954V57.65h0A1.349,1.349,0,0,1,57.65,59H42.35A1.349,1.349,0,0,1,41,57.65V42.35h0A1.349,1.349,0,0,1,42.35,41h3.6A.449.449,0,0,1,46.4,41.45ZM50.45,41h.9a.449.449,0,0,1,.45.45v2.7h0a.449.449,0,0,1-.45.45h-.9a.449.449,0,0,1-.45-.45v-2.7h0A.449.449,0,0,1,50.45,41ZM42.8,48.65v8.1h0a.449.449,0,0,0,.45.45h13.5a.449.449,0,0,0,.45-.45v-8.1h0a.449.449,0,0,0-.45-.45H43.25A.449.449,0,0,0,42.8,48.65ZM45.5,50h9a.9.9,0,0,1,.9.9h0a.9.9,0,0,1-.9.9h-9a.9.9,0,0,1-.9-.9h0A.9.9,0,0,1,45.5,50Zm0,3.6h9a.9.9,0,0,1,.9.9h0a.9.9,0,0,1-.9.9h-9a.9.9,0,0,1-.9-.9h0A.9.9,0,0,1,45.5,53.6Z"/></g><path class="b" d="M2490.35,1278a1.35,1.35,0,0,1-1.35-1.35v-15.3a1.349,1.349,0,0,1,1.35-1.35h3.6a.449.449,0,0,1,.45.45v4.5a.45.45,0,0,0,.45.45h6.3a.45.45,0,0,0,.45-.45v-4.5a.449.449,0,0,1,.45-.45h.79a1.348,1.348,0,0,1,.954.394l2.811,2.811a1.35,1.35,0,0,1,.4.954v12.491a1.35,1.35,0,0,1-1.35,1.35Zm.45-10.35v8.1a.45.45,0,0,0,.45.45h13.5a.45.45,0,0,0,.45-.45v-8.1a.45.45,0,0,0-.45-.45h-13.5A.449.449,0,0,0,2490.8,1267.65Zm2.7,6.75a.9.9,0,1,1,0-1.8h9a.9.9,0,0,1,0,1.8Zm0-3.6a.9.9,0,1,1,0-1.8h9a.9.9,0,0,1,0,1.8Zm4.95-7.2a.45.45,0,0,1-.45-.45v-2.7a.449.449,0,0,1,.45-.45h.9a.45.45,0,0,1,.45.45v2.7a.45.45,0,0,1-.45.45Z" transform="translate(-2489 -1260)"/></svg>