<svg xmlns="http://www.w3.org/2000/svg" width="33" height="30" viewBox="0 0 33 30"><defs><style>.a{fill:#6e97e0;}</style></defs><g transform="translate(-1216.957 -522.788)"><path class="a" d="M1224.207,532.657h18.551v1.231a2.617,2.617,0,0,0-2.025,2.742v16.158h-4.015v-9.807a.614.614,0,1,0-1.228,0v9.807h-4.015v-17.8a.614.614,0,1,0-1.228,0v17.8h-4.015V536.605a2.617,2.617,0,0,0-2.026-2.742Zm22.713-2.9a2.539,2.539,0,0,1-2.456-.838,2.379,2.379,0,0,1-.061-2.347,1.563,1.563,0,0,1,1.356-.918,1.17,1.17,0,0,1,1.044.468,1,1,0,0,1,.067.973.616.616,0,0,0,.356.794h0a.613.613,0,0,0,.792-.357h0a2.244,2.244,0,0,0-.208-2.119,2.451,2.451,0,0,0-2.075-.992,2.727,2.727,0,0,0-2.364,1.583,3.641,3.641,0,0,0,.129,3.6c.019.024.038.048.055.073a3.526,3.526,0,0,0-.724,1.744h-18.674a3.535,3.535,0,0,0-.724-1.744.782.782,0,0,1,.055-.073,3.641,3.641,0,0,0,.13-3.6,2.727,2.727,0,0,0-2.364-1.583,2.452,2.452,0,0,0-2.075.992,2.242,2.242,0,0,0-.208,2.119.614.614,0,1,0,1.148-.437h0a1,1,0,0,1,.067-.973,1.224,1.224,0,0,1,1.02-.468,1.563,1.563,0,0,1,1.3.918,2.379,2.379,0,0,1-.061,2.347,2.486,2.486,0,0,1-2.456.838,3.025,3.025,0,0,1-3.032-3.191c.092-1.848,1.688-3.776,4.573-3.776h23.849c2.885,0,4.481,1.9,4.573,3.776a3.048,3.048,0,0,1-3.032,3.216Zm-4.586-3.634a.615.615,0,0,0-.613-.616h-16.476a.616.616,0,0,0,0,1.232h16.476A.615.615,0,0,0,1242.335,526.121Z" transform="translate(0)"/></g></svg>