<svg xmlns="http://www.w3.org/2000/svg" width="42" height="42" viewBox="0 0 42 42"><defs><style>.a{fill:#fff;}</style></defs><path class="a" d="M37.232,28.7A6.775,6.775,0,0,0,44,21.933a1.056,1.056,0,0,0-.114-.48l-.008-.018L38.194,10.066a1.071,1.071,0,0,0-.962-.594h-10.5a.166.166,0,0,1-.166-.165V5.565a3.565,3.565,0,0,0-7.13,0V9.307a.165.165,0,0,1-.166.165H8.768a1.071,1.071,0,0,0-.962.594L2.122,21.435l-.008.018a1.056,1.056,0,0,0-.114.48,6.767,6.767,0,0,0,13.535,0,1.056,1.056,0,0,0-.114-.48l-.007-.018-4.788-9.574a.166.166,0,0,1,.148-.239h8.495a.165.165,0,0,1,.165.165V36.7a.165.165,0,0,1-.165.165h-1.25a6.063,6.063,0,0,0-6.056,6.056A1.076,1.076,0,0,0,13.037,44H32.963a1.076,1.076,0,0,0,1.074-1.075,6.063,6.063,0,0,0-6.056-6.056h-1.25a.166.166,0,0,1-.166-.165V11.787a.166.166,0,0,1,.166-.165h8.5a.164.164,0,0,1,.14.078.168.168,0,0,1,.008.161l-4.788,9.575-.007.017a1.056,1.056,0,0,0-.114.48A6.775,6.775,0,0,0,37.232,28.7ZM13.177,23.073a.169.169,0,0,1,.027.146,4.619,4.619,0,0,1-8.872,0,.166.166,0,0,1,.026-.146.17.17,0,0,1,.133-.066h8.554A.166.166,0,0,1,13.177,23.073ZM12.6,20.618a.166.166,0,0,1-.148.24H5.081a.164.164,0,0,1-.14-.079.167.167,0,0,1-.008-.161L8.62,13.246a.165.165,0,0,1,.3,0ZM21.584,5.565a1.416,1.416,0,0,1,2.832,0V9.307a.165.165,0,0,1-.165.165h-2.5a.165.165,0,0,1-.166-.165Zm0,6.222a.165.165,0,0,1,.166-.165h2.5a.165.165,0,0,1,.165.165V36.7a.165.165,0,0,1-.165.165h-2.5a.165.165,0,0,1-.166-.165Zm6.4,27.232a3.913,3.913,0,0,1,3.686,2.611.165.165,0,0,1-.156.22H14.489a.165.165,0,0,1-.156-.22,3.913,3.913,0,0,1,3.686-2.611Zm5.417-18.4,3.686-7.372a.168.168,0,0,1,.148-.092.166.166,0,0,1,.148.092l3.687,7.372a.167.167,0,0,1-.008.161.164.164,0,0,1-.14.079H33.546a.166.166,0,0,1-.148-.24Zm-.575,2.455a.166.166,0,0,1,.132-.066h8.554a.17.17,0,0,1,.133.066.166.166,0,0,1,.026.146,4.619,4.619,0,0,1-8.872,0A.169.169,0,0,1,32.823,23.073Z" transform="translate(-2 -2)"/></svg>