<svg xmlns="http://www.w3.org/2000/svg" width="40" height="40" viewBox="0 0 40 40"><defs><style>.a{fill:#1da1f2;}.b{fill:#fff;}</style></defs><ellipse class="a" cx="20" cy="20" rx="20" ry="20"/><g transform="translate(9.179 11.302)"><path class="b" d="M72.32,33.355A13.179,13.179,0,0,0,85.589,20.087c0-.2,0-.4-.013-.6A9.49,9.49,0,0,0,87.9,17.069a9.317,9.317,0,0,1-2.678.734,4.678,4.678,0,0,0,2.051-2.58,9.347,9.347,0,0,1-2.961,1.132,4.668,4.668,0,0,0-7.948,4.254,13.241,13.241,0,0,1-9.612-4.873A4.667,4.667,0,0,0,68.2,21.962a4.634,4.634,0,0,1-2.112-.583c0,.02,0,.039,0,.06a4.666,4.666,0,0,0,3.741,4.572,4.66,4.66,0,0,1-2.106.08,4.669,4.669,0,0,0,4.357,3.24,9.359,9.359,0,0,1-5.792,2,9.477,9.477,0,0,1-1.113-.065,13.2,13.2,0,0,0,7.149,2.095" transform="translate(-65.171 -14.882)"/></g></svg>