<svg xmlns="http://www.w3.org/2000/svg" width="22" height="23" viewBox="0 0 22 23"><defs><style>.a{fill:#32393f;}.b{fill:#fff;}</style></defs><path class="a" d="M59.979,8.247a.335.335,0,0,0-.1.017V5.427a1.859,1.859,0,0,0-.043-.4.6.6,0,0,0,0-.085c.007-1.514-4.25-2.746-9.816-2.746S40.2,3.428,40.2,4.945a.6.6,0,0,0,0,.085,1.827,1.827,0,0,0-.047.4V8.263a.337.337,0,0,0-.1-.017c-.56,0-1.023,1.436-1.023,3.207s.463,3.211,1.035,3.211a.39.39,0,0,0,.09-.017v6.42a1.785,1.785,0,0,0,1.741,1.82h.3V24a1.167,1.167,0,0,0,1.138,1.19h1.1A1.168,1.168,0,0,0,45.548,24V22.888H54.49V24A1.169,1.169,0,0,0,55.615,25.2H56.7a1.167,1.167,0,0,0,1.138-1.19V22.888h.3a1.785,1.785,0,0,0,1.757-1.813V14.648a.372.372,0,0,0,.1.017c.572,0,1.035-1.437,1.035-3.208S60.55,8.247,59.979,8.247ZM43.864,21.038A1.292,1.292,0,1,1,45.1,19.747h0A1.264,1.264,0,0,1,43.864,21.038Zm12.316,0a1.292,1.292,0,1,1,1.235-1.291h0a1.264,1.264,0,0,1-1.235,1.291h0Z" transform="translate(-39.025 -2.195)"/><rect class="b" width="8.661" height="1.15" rx="0.562" transform="translate(6.67 1.917)"/><rect class="b" width="15.077" height="9.583" rx="1.022" transform="translate(3.461 4.792)"/></svg>