<svg xmlns="http://www.w3.org/2000/svg" width="41" height="45" viewBox="0 0 41 45"><defs><style>.a{fill:#a5beec;opacity:0.7;}</style></defs><path class="a" d="M380.154-120.9h-21.7c.973-5.69,1.672-11.554-.786-15.052a23.036,23.036,0,0,1-4.564-12.906c-.083-9.731,7.885-17.089,19.014-17.042,13.485.056,17.384,11.542,18.213,14.893.633,2.567-1.674,3.5-.31,5.067,1.11,1.273,1.929,2.557,3.333,4.082a2.554,2.554,0,0,1,.748,1.768,1.943,1.943,0,0,1-1.394,1.8c-.8.281-1.417.6-2.264.83a50.09,50.09,0,0,1-1.487,6.669c-1.373,4.913-5.4,1.986-7.233,4.889A16.832,16.832,0,0,0,380.154-120.9Zm-7.164-35.624h-2.508c-.453,1.276-.581,2.1-1.569,2.514s-1.654-.077-2.879-.662l-1.774,1.785c.58,1.226,1.068,1.9.658,2.9s-1.23,1.123-2.5,1.577v2.525c1.267.454,2.091.585,2.5,1.579s-.087,1.691-.658,2.894l1.774,1.786c1.216-.58,1.892-1.075,2.879-.662h0c.986.411,1.116,1.232,1.569,2.515h2.508c.453-1.278.584-2.1,1.575-2.518h0c.98-.411,1.645.079,2.871.664l1.774-1.786c-.577-1.22-1.068-1.9-.659-2.894s1.233-1.125,2.5-1.579v-2.525c-1.282-.458-2.093-.587-2.5-1.577s.077-1.669.658-2.9l-1.774-1.785c-1.213.581-1.889,1.074-2.879.662S373.446-155.246,372.991-156.529Zm-1.254,12.5a3.117,3.117,0,0,1-3.107-3.125,3.117,3.117,0,0,1,3.107-3.125,3.117,3.117,0,0,1,3.107,3.125A3.117,3.117,0,0,1,371.737-144.029Z" transform="translate(-353.1 165.904)"/></svg>