<svg xmlns="http://www.w3.org/2000/svg" width="52" height="44" viewBox="0 0 52 44"><defs><style>.a{fill:none;stroke:#fff;stroke-linecap:round;stroke-miterlimit:10;stroke-width:2px;}</style></defs><g transform="translate(1 1)"><g transform="translate(18.657 13.103)"><g transform="translate(0)"><path class="a" d="M160.621,1056.826a6.334,6.334,0,0,1-5.225,9.4c-.106,0-.212.007-.319.007s-.213,0-.319-.007a6.334,6.334,0,0,1-5.225-9.4l5.544-9.994Z" transform="translate(-148.734 -1046.832)"/></g></g><g transform="translate(0 27.302)"><path class="a" d="M158.742,1074.873c3.835.774,6.321,2.013,6.321,3.411,0,2.345-6.993,4.246-15.618,4.246s-15.618-1.9-15.618-4.246c0-1.4,2.486-2.638,6.321-3.411" transform="translate(-124.444 -1071.868)"/><path class="a" d="M134.449,1069.976c-9.2,1.125-15.7,3.868-15.7,7.075,0,4.209,11.193,7.622,25,7.622s25-3.413,25-7.622c0-3.208-6.5-5.95-15.7-7.075" transform="translate(-118.747 -1069.976)"/></g><path class="a" d="M160.133,1028.5a3.068,3.068,0,1,1-3.067-3.025A3.046,3.046,0,0,1,160.133,1028.5Z" transform="translate(-132.066 -1025.477)"/></g></svg>