<svg xmlns="http://www.w3.org/2000/svg" width="21" height="34" viewBox="0 0 21 34"><defs><style>.a{fill:#6e97e0;}</style></defs><path class="a" d="M1319.4,521.121c-5.335,0-10.5,4.124-10.5,9.958,0,7.137,5.057,8.953,5.633,13.581h9.735c.576-4.628,5.632-6.444,5.632-13.581C1329.9,525.245,1324.732,521.121,1319.4,521.121Zm-.971,2.234c.57-.027,1.054.261,1.039.83a.908.908,0,0,1-.848.9,6.545,6.545,0,0,0-5.5,8.419.874.874,0,1,1-1.668.5,8.171,8.171,0,0,1-.369-2.425A8.306,8.306,0,0,1,1318.426,523.355Zm-3.842,23.048v1.744h9.625V546.4Zm0,3.488v.872a1.75,1.75,0,0,0,1.75,1.744h1.312v.872a1.75,1.75,0,0,0,3.5,0v-.872h1.312a1.749,1.749,0,0,0,1.75-1.744v-.872Z" transform="translate(-1308.897 -521.121)"/></svg>