<svg xmlns="http://www.w3.org/2000/svg" width="61" height="41" viewBox="0 0 61 41"><defs><style>.a{fill:none;stroke:#fff;stroke-linecap:round;stroke-miterlimit:10;stroke-width:2px;}</style></defs><g transform="translate(1 1)"><g transform="translate(28.908 12.975)"><path class="a" d="M1032.94,965.976c2.307.476,3.8,1.241,3.8,2.1,0,1.445-4.208,2.615-9.4,2.615s-9.4-1.17-9.4-2.615c0-.86,1.495-1.624,3.8-2.1" transform="translate(-1012.298 -964.125)"/><path class="a" d="M1022.036,964.22c-5.538.694-9.451,2.383-9.451,4.359,0,2.592,6.737,4.694,15.046,4.694s15.046-2.1,15.046-4.694c0-1.975-3.912-3.665-9.45-4.359" transform="translate(-1012.585 -964.22)"/></g><g transform="translate(0 7.374)"><g transform="translate(0 18.626)"><path class="a" d="M998.72,976.578c-7.953.995-13.573,3.421-13.573,6.258,0,3.724,9.676,6.742,21.611,6.742s21.611-3.018,21.611-6.742c0-2.837-5.62-5.263-13.573-6.258" transform="translate(-985.147 -976.578)"/><path class="a" d="M1014.383,979.1c3.314.684,5.463,1.781,5.463,3.018,0,2.074-6.044,3.756-13.5,3.756s-13.5-1.681-13.5-3.756c0-1.236,2.148-2.334,5.463-3.018" transform="translate(-984.735 -976.442)"/></g><line class="a" y1="23.478" transform="translate(21.611)"/></g><line class="a" y2="15.36" transform="translate(43.954)"/></g></svg>