<svg xmlns="http://www.w3.org/2000/svg" width="39" height="24" viewBox="0 0 39 24"><defs><style>.a{fill:#6e97e0;}</style></defs><g transform="translate(-1027.141 -526.981)"><path class="a" d="M1054.308,532.113a5.174,5.174,0,1,1,0-.005Z" transform="translate(-2.588)"/><path class="a" d="M1067.012,532.424a3.948,3.948,0,1,1-3.681-2.523h.009A3.876,3.876,0,0,1,1067.012,532.424Z" transform="translate(-4.908 -0.421)"/><path class="a" d="M1066.141,548.041a2.041,2.041,0,0,1-2.032,2.051h-7.523a.847.847,0,0,1,0,.147v.595a2.042,2.042,0,0,1-2.032,2.051h-15.836a2.042,2.042,0,0,1-2.031-2.051v-.595a.872.872,0,0,1,0-.147h-7.514a2.041,2.041,0,0,1-2.031-2.051h0a7.747,7.747,0,0,1,7.687-7.806,7.661,7.661,0,0,1,4.822,1.693,1.1,1.1,0,0,0,1.312.065,9.9,9.9,0,0,1,11.358,0,1.081,1.081,0,0,0,1.294-.053,7.656,7.656,0,0,1,10.278.584,7.823,7.823,0,0,1,2.249,5.516Z" transform="translate(0 -1.904)"/><path class="a" d="M1039.474,533.875a3.943,3.943,0,1,1-2.5-3.718,3.911,3.911,0,0,1,2.5,3.709Z" transform="translate(-0.679 -0.421)"/></g></svg>