<svg xmlns="http://www.w3.org/2000/svg" width="37" height="31" viewBox="0 0 37 31"><defs><style>.a{fill:#6e97e0;}</style></defs><g transform="translate(-1117 -521)"><path class="a" d="M1156.754,540.428c-.193-.122-1.716-1.021-2.319-1.295l-.748-1.788c.222-.591.649-2.249.724-2.537a.793.793,0,0,0-.217-.739l-1.18-1.159a.808.808,0,0,0-.748-.215c-.222.05-1.93.477-2.568.715l-1.81-.739c-.263-.572-1.149-2.039-1.31-2.292a.8.8,0,0,0-.683-.379h-1.66a.81.81,0,0,0-.683.372c-.123.191-1.033,1.7-1.31,2.292l-1.81.739c-.6-.219-2.276-.641-2.568-.715a.811.811,0,0,0-.748.215l-1.173,1.166a.785.785,0,0,0-.217.739c.051.219.483,1.908.724,2.537l-.748,1.788c-.579.26-2.063,1.135-2.319,1.295a.789.789,0,0,0-.384.675v1.638a.8.8,0,0,0,.376.675c.193.122,1.716,1.021,2.319,1.295l.748,1.788c-.222.591-.649,2.249-.724,2.537a.789.789,0,0,0,.217.739l1.173,1.159a.806.806,0,0,0,.748.215c.222-.05,1.93-.477,2.568-.715l1.81.739c.263.572,1.149,2.039,1.31,2.292a.8.8,0,0,0,.69.382h1.658a.811.811,0,0,0,.683-.372c.123-.191,1.033-1.7,1.31-2.292l1.81-.739c.6.219,2.276.641,2.568.715a.812.812,0,0,0,.748-.215l1.173-1.159a.787.787,0,0,0,.217-.739c-.051-.219-.483-1.908-.724-2.537l.748-1.789c.579-.26,2.063-1.135,2.319-1.295a.791.791,0,0,0,.386-.682V541.1A.787.787,0,0,0,1156.754,540.428Zm-11.689,6.686a5.2,5.2,0,1,1,5.263-5.191A5.226,5.226,0,0,1,1145.065,547.114Z" transform="translate(-3.13 -1.846)"/><path class="a" d="M1131.252,527.256c-.116-.072-1.03-.612-1.391-.777l-.449-1.073c.134-.354.39-1.349.434-1.522a.471.471,0,0,0-.13-.444l-.708-.7a.484.484,0,0,0-.449-.129c-.133.03-1.158.286-1.54.429l-1.086-.443c-.158-.343-.689-1.223-.786-1.375a.484.484,0,0,0-.41-.227h-1a.487.487,0,0,0-.41.223c-.073.114-.619,1.017-.786,1.375l-1.086.443c-.359-.132-1.365-.385-1.54-.429a.484.484,0,0,0-.449.129l-.7.7a.471.471,0,0,0-.13.444c.031.131.29,1.145.434,1.522l-.449,1.073c-.348.156-1.238.681-1.391.777a.476.476,0,0,0-.23.405v.982a.478.478,0,0,0,.226.405c.116.073,1.03.612,1.391.777l.449,1.073c-.133.355-.39,1.35-.434,1.522a.471.471,0,0,0,.13.443l.7.7a.485.485,0,0,0,.449.129c.133-.03,1.158-.286,1.541-.429l1.086.444c.158.343.688,1.223.786,1.375a.482.482,0,0,0,.414.229h.994a.487.487,0,0,0,.41-.223c.074-.114.619-1.017.786-1.375l1.086-.444c.359.132,1.366.386,1.54.429a.483.483,0,0,0,.449-.129l.7-.695a.472.472,0,0,0,.13-.444c-.031-.132-.29-1.145-.434-1.523l.449-1.073c.347-.156,1.238-.68,1.391-.777a.474.474,0,0,0,.232-.409v-.984A.472.472,0,0,0,1131.252,527.256Zm-7.013,4.013a3.118,3.118,0,1,1,3.158-3.115A3.137,3.137,0,0,1,1124.239,531.269Z"/></g></svg>