<svg xmlns="http://www.w3.org/2000/svg" width="28" height="24" viewBox="0 0 28 24"><defs><style>.a{fill:#6e97e0;}</style></defs><g transform="translate(-944.777 -526.194)"><path class="a" d="M971.757,531.946v5l3.573-2.5Z" transform="translate(-3.373 -0.816)"/><path class="a" d="M949.288,536.947v-5l-3.573,2.5Z" transform="translate(-0.117 -0.816)"/><path class="a" d="M967.606,526.194H951.673v11.079L957,541l2.635-1.845L962.275,541l5.331-3.729Zm-13.615,2.081h5.648v1.607h-5.648Zm11.3,8.985h-11.3v-1.607h11.3Zm-11.3-3.688v-1.607h11.3v1.607Z" transform="translate(-0.862)"/><path class="a" d="M965.4,543.461l9.952,6.964V536.5Z" transform="translate(-2.578 -1.449)"/><path class="a" d="M958.932,543.622l-12.917,9.039h25.833Z" transform="translate(-0.155 -2.467)"/><path class="a" d="M954.73,543.461l-9.953-6.964v13.929Z" transform="translate(0 -1.449)"/></g></svg>