<svg xmlns="http://www.w3.org/2000/svg" width="39.8" height="43.064" viewBox="0 0 39.8 43.064"><defs><style>.a{fill:none;stroke:#fff;stroke-linecap:round;stroke-miterlimit:10;stroke-width:2px;}</style></defs><g transform="translate(1.386 2.064)"><g transform="translate(0.028 27.996)"><path class="a" d="M482.681,883.008l-1.415-1.4-1.416,1.4a4.575,4.575,0,0,1-6.412,0l-1.415-1.4" transform="translate(-472.022 -881.61)"/><path class="a" d="M508.282,881.61l-1.414,1.4a4.576,4.576,0,0,1-6.413,0l-1.414-1.4-1.415,1.4" transform="translate(-471.31 -881.61)"/><path class="a" d="M508.994,890.672l-1.414,1.4a4.576,4.576,0,0,1-6.414,0l-1.414-1.4-1.415,1.4a4.575,4.575,0,0,1-6.412,0l-1.415-1.4-1.415,1.4a4.575,4.575,0,0,1-6.412,0l-1.415-1.4-1.416,1.4a4.575,4.575,0,0,1-6.412,0l-1.415-1.4" transform="translate(-472.022 -881.378)"/></g><g transform="translate(13.156 14.021)"><path class="a" d="M494.836,876.438a5.359,5.359,0,0,1-4.413,7.953q-.134.006-.268.006c-.091,0-.181,0-.269-.006a5.359,5.359,0,0,1-4.414-7.953l4.684-8.454Z" transform="translate(-484.795 -867.984)"/><path class="a" d="M490.486,881.389a3.534,3.534,0,0,0,2.062-3.237" transform="translate(-484.637 -867.723)"/></g><path class="a" d="M482.035,862.768a5.359,5.359,0,0,1-4.413,7.953c-.088,0-.179.005-.269.005s-.18,0-.268-.005a5.359,5.359,0,0,1-4.413-7.953l4.682-8.454Z" transform="translate(-471.995 -854.314)"/><g transform="translate(26.135)"><path class="a" d="M507.464,862.768a5.359,5.359,0,0,1-4.413,7.953c-.089,0-.179.005-.269.005s-.18,0-.269-.005a5.359,5.359,0,0,1-4.413-7.953l4.683-8.454Z" transform="translate(-497.423 -854.314)"/></g></g></svg>