<svg xmlns="http://www.w3.org/2000/svg" width="35.115" height="31.115" viewBox="0 0 35.115 31.115"><defs><style>.a,.b{fill:#6e97e0;stroke:#fff;stroke-miterlimit:10;}.a{stroke-width:1.115px;}.b{stroke-width:0.836px;}</style></defs><g transform="matrix(1, 0, 0, 1, -177.713, -101.668)"><path class="a" d="M195.209,110.578a4.177,4.177,0,1,0-4.235-4.176A4.206,4.206,0,0,0,195.209,110.578Z" transform="translate(0.061)"/><path class="a" d="M182.505,123.765a4.177,4.177,0,1,0,4.235,4.177A4.206,4.206,0,0,0,182.505,123.765Z" transform="translate(0 0.107)"/><path class="a" d="M195.209,123.765a4.177,4.177,0,1,0,4.235,4.177A4.206,4.206,0,0,0,195.209,123.765Z" transform="translate(0.061 0.107)"/><path class="a" d="M207.913,123.765a4.177,4.177,0,1,0,4.235,4.177A4.206,4.206,0,0,0,207.913,123.765Z" transform="translate(0.123 0.107)"/><path class="b" d="M183.9,122.521v-3.935H194v3.907a6.571,6.571,0,0,1,2.547,0v-3.907h10.094v3.935a6.361,6.361,0,0,1,2.547-.046v-5.139a1.262,1.262,0,0,0-1.273-1.25H196.544v-4.264a6.543,6.543,0,0,1-2.547,0v4.264H182.63a1.262,1.262,0,0,0-1.273,1.25v5.139a6.358,6.358,0,0,1,2.546.046Z" transform="translate(0 0.054)"/></g></svg>