<svg xmlns="http://www.w3.org/2000/svg" width="18" height="18" viewBox="0 0 18 18"><defs><style>.a{fill:#888;}</style></defs><g transform="translate(-43.941 -43.941)"><path class="a" d="M49.341,44.391v4.5h0a.45.45,0,0,0,.45.45h6.3a.45.45,0,0,0,.45-.45v-4.5h0a.45.45,0,0,1,.45-.45h.791a1.349,1.349,0,0,1,.954.395l2.81,2.81h0a1.349,1.349,0,0,1,.395.954V60.591h0a1.35,1.35,0,0,1-1.35,1.35h-15.3a1.35,1.35,0,0,1-1.35-1.35v-15.3h0a1.35,1.35,0,0,1,1.35-1.35h3.6A.45.45,0,0,1,49.341,44.391Zm4.05-.45h.9a.45.45,0,0,1,.45.45v2.7h0a.45.45,0,0,1-.45.45h-.9a.45.45,0,0,1-.45-.45v-2.7h0A.45.45,0,0,1,53.391,43.941Zm-7.65,7.65v8.1h0a.45.45,0,0,0,.45.45h13.5a.45.45,0,0,0,.45-.45v-8.1h0a.45.45,0,0,0-.45-.45h-13.5A.45.45,0,0,0,45.741,51.591Zm2.7,1.35h9a.9.9,0,0,1,.9.9h0a.9.9,0,0,1-.9.9h-9a.9.9,0,0,1-.9-.9h0A.9.9,0,0,1,48.441,52.941Zm0,3.6h9a.9.9,0,0,1,.9.9h0a.9.9,0,0,1-.9.9h-9a.9.9,0,0,1-.9-.9h0A.9.9,0,0,1,48.441,56.541Z"/></g></svg>