<svg xmlns="http://www.w3.org/2000/svg" xmlns:xlink="http://www.w3.org/1999/xlink" width="213" height="40" viewBox="0 0 213 40"><defs><style>.a{fill:none;}.b{clip-path:url(#a);}.c{fill:url(#b);}.d{clip-path:url(#c);}.e{fill:url(#d);}.f{clip-path:url(#e);}.g{fill:url(#f);}.h{clip-path:url(#g);}.i{fill:url(#h);}.j{fill:#243981;}.k{fill:#575756;}.l{fill:#1a2559;}.m{fill:#ff2926;}</style><clipPath id="a"><path class="a" d="M1093.081,1014.381h9.52c12.787-5.935,25.1-15.1,37.929-11.413a35.367,35.367,0,0,0-9.835-1.424c-14.13,0-24.924,8.858-37.614,12.837" transform="translate(-1093.081 -1001.544)"/></clipPath><linearGradient id="b" x1="-11.114" y1="-4.813" x2="-11.096" y2="-4.813" gradientUnits="objectBoundingBox"><stop offset="0" stop-color="#6aabdb"/><stop offset="1" stop-color="#243b7a"/></linearGradient><clipPath id="c"><path class="a" d="M1115.979,1014.381h9.083c5.408-4.77,9.267-10.577,15.468-11.413-.538-.053-1.069-.077-1.588-.077-8.46,0-14.679,6.575-22.963,11.49" transform="translate(-1115.979 -1002.891)"/></clipPath><linearGradient id="d" x1="-21.378" y1="-7.731" x2="-21.345" y2="-7.731" xlink:href="#b"/><clipPath id="e"><path class="a" d="M1138.494,1006.5c-.172.339-.345.689-.517,1.045-.259.534-.517,1.085-.775,1.644q-.259.559-.517,1.13t-.518,1.143c-.344.765-.689,1.53-1.034,2.282-.258.564-.516,1.121-.774,1.662-.175.365-.349.724-.523,1.074v17.738h6.721c0-3.717,0-6.3,0-10.019v-21.229a26.837,26.837,0,0,0-2.067,3.53" transform="translate(-1133.836 -1002.968)"/></clipPath><linearGradient id="f" x1="-86.681" y1="-5.056" x2="-86.549" y2="-5.056" xlink:href="#b"/><clipPath id="g"><path class="a" d="M1102.846,1004.909c-12.571,3.611-25.141,7.222-37.712,1.932v.037a52.24,52.24,0,0,0,8.27,4.832c10.017,1.381,20.034-1.945,30.049-5.271,12.359-4.1,24.718-8.209,37.077-3.471a34.739,34.739,0,0,0-13.665-2.657c-8.006,0-16.013,2.3-24.019,4.6" transform="translate(-1065.134 -1000.311)"/></clipPath><linearGradient id="h" x1="-6.916" y1="-3.598" x2="-6.905" y2="-3.598" xlink:href="#b"/></defs><g transform="translate(-927.541 -1000.311)"><g transform="translate(1093.061 1001.544)"><g class="b"><rect class="c" width="49.75" height="30.414" transform="translate(-4.852 -0.493) rotate(-20)"/></g></g><g transform="translate(1115.959 1002.891)"><g class="d"><rect class="e" width="27" height="19.195" transform="translate(-3.693 1.343) rotate(-20)"/></g></g><g transform="translate(1133.816 1002.968)"><g class="f"><rect class="g" width="6.725" height="31.248" transform="translate(0 0)"/></g></g><g transform="translate(1065.114 1000.311)"><g class="h"><rect class="i" width="75.931" height="39.751" transform="matrix(0.94, -0.342, 0.342, 0.94, -4.776, -0.343)"/></g></g><g transform="translate(1065.122 1006.878)"><path class="j" d="M1065.135,1006.878v7.5h8.27v-2.671a52.035,52.035,0,0,1-8.27-4.832" transform="translate(-1065.135 -1006.878)"/></g><path class="k" d="M1124.418,1025.041c0-1.843-1.861-3.109-4.375-3.109s-4.356,1.266-4.356,3.109c0,1.535,1.248,2.667,3.109,3.012v1.5c-1.574.039-3.167.059-4.721.059.1.652.192,1.3.308,1.938,3.4,0,8.519-.288,11.628-.634l-.192-1.823c-1.343.154-2.936.269-4.644.365v-1.382c1.919-.307,3.243-1.458,3.243-3.031m4.817-8.981h-2.379v18.191h2.379Zm-3.953,3.57h-10.611v1.8h10.611Zm-7.906-.806h5.3v-1.8h-5.3Zm4.644,6.217c0,.69-.826,1.3-1.977,1.3s-1.976-.614-1.976-1.3.824-1.286,1.976-1.286,1.977.595,1.977,1.286m-14.272-5.009c0-1.957-1.9-3.4-4.547-3.4s-4.606,1.44-4.606,3.359c0,1.995,1.958,3.377,4.606,3.377s4.547-1.382,4.547-3.339m-.844,8.251h3.454v1.843h2.4V1016.06h-2.4v10.516H1106.9Zm6.141,5.488v-1.9h-10.957V1028.4h-2.4v5.372Zm-7.982-4.528v-3.4c1.4-.1,2.762-.231,3.991-.423l-.135-1.766a105.649,105.649,0,0,1-11.59.557l.326,1.881c1.363,0,3.147-.02,5.028-.1v3.244Zm.326-9.211c0,.787-.845,1.554-2.188,1.554-1.382,0-2.207-.767-2.207-1.554,0-.8.825-1.611,2.207-1.611,1.343,0,2.188.806,2.188,1.611m-14.06.768c0-2.245-1.9-3.877-4.759-3.877-2.84,0-4.7,1.632-4.7,3.877,0,2.187,1.861,3.78,4.7,3.78,2.782,0,4.759-1.593,4.759-3.78m4.529-4.74H1093.5v18.191h2.361Zm-8.021,17.654v-6.141c1.746-.1,3.55-.249,4.893-.422l-.193-1.842c-2.57.269-7.329.556-11.954.556l.346,1.958c1.343,0,2.744-.038,4.49-.115v6.006Zm1.112-12.934c0,1.075-.94,1.843-2.379,1.843-1.362,0-2.322-.768-2.322-1.843a2.09,2.09,0,0,1,2.322-1.918c1.4,0,2.379.825,2.379,1.918m-12.275,13.471h2.379V1016.06h-2.379Zm-1.592-6.658a49.188,49.188,0,0,1-7.657.537v-3.7h5.93v-6.811h-8.386v1.9h5.988v3.032h-5.911v7.541h1.919a48.16,48.16,0,0,0,8.385-.6Zm-27.031-10.247v1.9h6.889a18.37,18.37,0,0,1-.385,4.241l2.284.326a26.935,26.935,0,0,0,.5-6.466Zm10.3,7.464c-1.19.173-3.934.365-5.565.4v-3.588h-2.36v3.645c-1.19.02-2.418.039-3.493.039l.308,1.938c1.189,0,3.55-.1,5.641-.173,1.919-.057,4.356-.307,5.661-.46Zm3.857,8.961v-1.9H1052.2v-3.455h-2.4v5.354Zm1.842-10.285v-1.976h-2.3v-5.45h-2.361v13.528h2.361v-6.1Zm-18.492,10.688v-1.938h-10.439V1031.2h9.806v-4.624h-4.913v-1.363h7.062v-1.8h-16.426v1.8h6.985v1.363h-5.008v1.88h9.9v1.055h-9.786v4.663Zm-.671-17.768H1032.84v5.794h12.051Zm-2.418,3.933h-7.254v-2.092h7.254Zm-26.149,7.081v1.9h10.285v4.95h2.4v-6.85Zm7.675-2.9h2.61v1.956h2.4V1016.06h-2.4v2.226H1024l.077,2.015h2.533v2.207h-2.533Zm-9.882-3.071a4.36,4.36,0,0,0,4.663,4.3c2.648,0,4.682-1.727,4.682-4.3a4.678,4.678,0,0,0-9.345,0m2.322-.019a2.353,2.353,0,0,1,2.341-2.457,2.307,2.307,0,0,1,2.38,2.457,2.34,2.34,0,0,1-2.38,2.456,2.288,2.288,0,0,1-2.341-2.456m-4.5-.519c0-2.379-2.533-4.01-6.466-4.01s-6.466,1.631-6.466,4.01c0,2.418,2.532,4.05,6.466,4.05s6.466-1.632,6.466-4.05m-8.424,13.317v-6.063h3.877v6.063h2.379v-6.063h3.934v-1.9H997.275v1.9h3.857v6.063Zm5.93-13.317c0,1.209-1.535,2.131-3.972,2.131-2.475,0-3.991-.922-3.991-2.131,0-1.189,1.516-2.09,3.991-2.09,2.437,0,3.972.9,3.972,2.09m-16.861,9.653c0,1.113-1.382,1.785-3.78,1.785-2.38,0-3.742-.672-3.742-1.785s1.362-1.785,3.742-1.785c2.4,0,3.78.672,3.78,1.785m4.816-8.252v-1.956h-2.59v-4.3h-2.4v10.611h2.4v-4.356Zm-16.138-5.008v1.977h5.815c-.519,3.07-3.666,4.951-6.7,5.583l1.19,1.9c4.873-1.4,8.135-4.47,8.155-9.46Zm13.778,13.26c0-2.264-2.265-3.7-6.236-3.7-3.915,0-6.179,1.439-6.179,3.7,0,2.245,2.264,3.684,6.179,3.684,3.971,0,6.236-1.439,6.236-3.684m-19.183,1.612H968.37v-3.051h7.483Zm-9.844-15.39v1.881h9.825a23.486,23.486,0,0,1-.48,4.624H963.9v1.9h16.425v-1.9h-2.706a31.861,31.861,0,0,0,.614-6.505Zm12.223,10.516H965.99v6.716h12.242Z" transform="translate(-0.02)"/><g transform="translate(927.541 1009.32)"><path class="l" d="M951.462,1024.109a5.586,5.586,0,0,0-7.947,1.667,5.59,5.59,0,0,1-10.108-1.537h0l-.018-.059-.017-.071a7.119,7.119,0,0,1-.287-2.221c0-5.011,5.141-10.592,12.548-10.592a14.121,14.121,0,0,1,13.04,8.982l-.056-.17a15.969,15.969,0,0,0-31.074,5.182c0,7.884,5.683,14.63,13.571,14.63a12.826,12.826,0,0,0,12.457-8.387,6.155,6.155,0,0,0-2.107-7.424" transform="translate(-927.541 -1009.32)"/><path class="m" d="M958.771,1020.591a14.081,14.081,0,0,0-13.142-9.295c-7.405,0-12.547,5.581-12.547,10.591a7.181,7.181,0,0,0,.286,2.222,4.734,4.734,0,0,1-.148-1.137c0-5.221,5.227-8.836,10.6-8.836a13.164,13.164,0,0,1,13.168,13.166,14.518,14.518,0,0,1-8.047,13.005v0a15.979,15.979,0,0,0,10.535-15.021,15.764,15.764,0,0,0-.7-4.7" transform="translate(-927.541 -1009.32)"/></g></g></svg>