<svg xmlns="http://www.w3.org/2000/svg" width="199.999" height="34.999" viewBox="0 0 199.999 34.999"><defs><style>.a{fill:#999;}</style></defs><path class="a" d="M384.193,1624.944a16.4,16.4,0,0,0,9.086-14.01c.009-.224.013-.45.013-.676a14.877,14.877,0,0,0-14.888-14.869c-6,0-11.845,3.987-11.981,9.772,0,.069,0,.138,0,.207a5.188,5.188,0,0,0,.152,1.217l.017.068.02.081.02.065h0a6.374,6.374,0,0,0,5.326,4.606,6.706,6.706,0,0,0,.816.049h.1a6.356,6.356,0,0,0,5.187-2.919,6.462,6.462,0,0,1,5.39-3.014h0a6.341,6.341,0,0,1,3.382.994c.071.044.142.091.212.139a6.574,6.574,0,0,1,1.193,1.039,6.847,6.847,0,0,1,1.721,4.592,7.4,7.4,0,0,1-.532,2.754,14.466,14.466,0,0,1-13.669,9.467c-.137,0-.275,0-.414,0-8.918,0-15.343-7.619-15.343-16.522q0-.409.018-.813a18.045,18.045,0,0,1,18.031-17.223h0a18.06,18.06,0,0,1,17.082,12.182l.062.189,0,0,0,.008v0q.064.183.115.356a17.8,17.8,0,0,1,.794,5.306,18.043,18.043,0,0,1-11.911,16.963Zm10.992-22.647,0-.007Zm-.011-.032,0-.011Zm-.012-.034,0-.01Zm-.012-.034,0-.012Zm-.012-.033-.005-.015Zm-.013-.035-.006-.016Zm-.012-.033-.01-.027Zm-.013-.033a16.336,16.336,0,0,0-9.086-8.877A16.339,16.339,0,0,1,395.1,1602.063Zm-9.089-8.878-.062-.023Zm-.065-.025-.061-.023Zm-.065-.024-.059-.022Zm-.065-.024-.058-.021Zm-.065-.024-.059-.021Zm-.065-.023-.065-.023Zm-.066-.023Zm-.078-.027Zm-.079-.027-.068-.023Zm-.077-.026-.072-.023Zm-.077-.025-.077-.024Zm-.136-.043-.014,0Zm-.071-.022-.019-.005Zm-.081-.024Zm-.078-.023-.008,0Zm-.077-.023h0Zm-.077-.022h0Zm-1.558-.358-.04-.007Zm-.068-.012q-.3-.051-.607-.092Q382.86,1592.358,383.161,1592.409Zm-.609-.092-.093-.013Zm-.1-.013-.087-.011Zm-.1-.013-.08-.009Zm-.1-.012-.077-.008Zm-.1-.01-.075-.008Zm-.1-.011-.071-.006Zm-.1-.009-.069-.006Zm-.1-.009-.068-.005Zm-.2-.015-.065,0Zm-.1-.007-.064,0Zm-.1-.006-.062,0Zm-.1-.006-.061,0Zm-.1,0-.057,0Zm-.1,0-.055,0Zm-.1,0h0Zm-.1,0-.059,0Zm-.13,0h0Zm-.172,0h0Zm-.1,0h0Zm129.31,32.327v-4.838H503v4.838h-2.418v-4.838h-4.892V1617.5h14.179v-10.465h2.4v17.477Zm43.1,0v-17.659c.183-.368.365-.741.546-1.122.272-.567.541-1.148.812-1.738.361-.786.722-1.586,1.082-2.385.181-.4.361-.8.541-1.2s.361-.789.541-1.18c.271-.585.541-1.16.811-1.72.181-.371.361-.736.542-1.092a28.128,28.128,0,0,1,2.163-3.689v23.143c0,2.116,0,3.631,0,5.4v3.233Zm-6.914-.015v0H531.9v-2.153h5.321V1621.3a4.646,4.646,0,1,1,2.4-.076v1.11h6.426v-15.21h2.418v17.365Zm-10.133-7.71a2.364,2.364,0,1,0,2.362-2.362A2.366,2.366,0,0,0,535.915,1616.783Zm-21.649,7.438a1.557,1.557,0,0,1-.274-1.014v-3.661h2.418v2.769h11.585v-.734h-6.164v-2.033h6.164v-.764h-7.7v2.807h-2.417v-2.807h-4.071v-2.074h14.184v-9.581h2.4v17.358H515.238a.4.4,0,0,1-.042,0A1.491,1.491,0,0,1,514.266,1624.22Zm-73.608-.044a1.827,1.827,0,0,1-.346-1.234v-3.274H454.3v-.786H440.312v-2.012h7.154l-.022-1.047-7.615.02v-2.012h17.348v2.012H449.9v1.027h5.622a1.316,1.316,0,0,1,.891.31c.31.31.276,1.148.276,1.148v3.212H442.71v.926h13.982v2.013h-14.6C441.833,1624.479,440.941,1624.457,440.658,1624.176Zm-6.308.3.01-15.868a1.645,1.645,0,0,1,.3-1.213,1.327,1.327,0,0,1,.878-.263c.083,0,.136,0,.136,0l3.073,0v2.193h-1.975v15.142Zm-4.674,0v-15.037h-9.31v-2.193h10.547a1.231,1.231,0,0,1,.873.407,1.45,1.45,0,0,1,.286.941v15.882Zm62.353,0v-17.349h2.4v17.349Zm-31.882-.008h-.008a1.612,1.612,0,0,1-1.051-.382,1.843,1.843,0,0,1-.282-1.169v-4.426h2.4v3.8H475.51v2.174Zm18.149-.366a1.351,1.351,0,0,1-.252-.9v-8.882h9.27v-4.992h-9.27v-2.194h10.508a.812.812,0,0,1,.094,0,1.237,1.237,0,0,1,.856.31c.331.33.229,1.147.229,1.147v7.889h-9.288v5.7h9.288v2.192H479.019a.271.271,0,0,1-.042,0A.982.982,0,0,1,478.3,1624.1Zm-61.556.113v-4.468H402.934v-2.2H410V1615.5h-7.023v-2.174h13.762v-4.046H402.934v-2.153h14.991s.05,0,.131,0a1.215,1.215,0,0,1,.817.251,1.516,1.516,0,0,1,.265,1.037v4.916h1.189v2.174h-7.908v2.053h5.507a1.587,1.587,0,0,1,.2-.012,1.067,1.067,0,0,1,.744.24,1.514,1.514,0,0,1,.265,1.036v5.4Zm41.863-6.751v-2.194h3.734v-2.637h2.4v2.637h3.519v-5.947h-9.449v-2.173h10.642a1.5,1.5,0,0,1,.949.285,1.776,1.776,0,0,1,.278,1.058v6.778h2.116v-6.778a1.623,1.623,0,0,1,.27-1.119,1.16,1.16,0,0,1,.793-.252c.091,0,.148.006.148.006l3.181,0v2.173h-1.975v8.161Zm56.426-6.209a4.649,4.649,0,1,1,4.648,4.644A4.646,4.646,0,0,1,515.03,1611.257Zm2.285,0a2.364,2.364,0,1,0,2.363-2.363A2.364,2.364,0,0,0,517.315,1611.257Zm-19.625,0a4.648,4.648,0,1,1,4.648,4.642A4.645,4.645,0,0,1,497.689,1611.254Zm2.285,0a2.363,2.363,0,1,0,2.363-2.36A2.364,2.364,0,0,0,499.974,1611.254Zm-58.659,1.672a1,1,0,0,1-1-1v-3.8a1,1,0,0,1,1-1h14.378a1,1,0,0,1,1,1v3.8a1,1,0,0,1-1,1Zm1.4-2.014H454.3v-1.77H442.71Zm89.4.819v-2.017h5.155v-2.675h2.019v2.675h5.155v2.017Zm2.165-7.074c8.665-5.137,15.175-12.011,24.026-12.01.544,0,1.1.025,1.661.081-6.487.874-10.525,6.944-16.186,11.93Zm-23.962,0c13.28-4.16,24.574-13.419,39.359-13.419a37.144,37.144,0,0,1,10.281,1.486,34.15,34.15,0,0,0-12.354-2.213c-8.809,0-17.621,2.921-26.431,5.845s-17.621,5.845-26.432,5.845a36.747,36.747,0,0,1-5.009-.336v2.792h-8.653v-7.841h0v-.04a36.4,36.4,0,0,0,14.328,2.789,71.4,71.4,0,0,0,18.136-2.852c2.333-.616,4.664-1.286,7-1.956,8.377-2.4,16.755-4.808,25.132-4.807a36.4,36.4,0,0,1,14.292,2.775l.006,0-.006,0,.006,0-.009,0c-.479-.136-.958-.256-1.433-.36-10.824-2.35-21.315,3.677-32.026,9.212-.052.026-.1.052-.155.08l-.067.033-.258.133-.125.066c-1.864.958-3.734,1.9-5.614,2.768Zm-92.242-4.05c0-1.058,1.093-1.8,3.571-1.8s3.582.746,3.582,1.8-1.093,1.805-3.571,1.805S418.076,1601.656,418.076,1600.607Zm1.384,0c0,.466.857.735,2.187.735,1.353,0,2.2-.269,2.2-.735s-.844-.756-2.2-.756C420.317,1599.851,419.46,1600.133,419.46,1600.607Zm47.152,1.72v-2.368h-5.638v-1.069h6.979v3.437Zm-71.417,0h0Zm0,0v0A.013.013,0,0,1,395.195,1602.321Zm57.529-.005v-2.724h-5.6v-1.06h6.959v3.784Zm-19.948-1.978c0-1.2,1.287-1.979,3.518-1.979s3.516.778,3.516,1.979c0,1.221-1.3,1.978-3.516,1.978S432.776,1601.559,432.776,1600.338Zm1.385,0c0,.541.79.907,2.133.907,1.363,0,2.131-.366,2.131-.907s-.769-.919-2.131-.919C434.951,1599.419,434.161,1599.8,434.161,1600.338Zm-24,1.966v-5.134h-.908v4.659h-1.266v-9.589h1.266v3.858h.908v-4.043h1.288V1602.3Zm-7.132-2.421v-6.6h3.874v1.07c-.844,0-1.678-.011-2.533-.011v4.444c.134,0,.273.005.413.005a11.846,11.846,0,0,0,2.552-.244l.129,1.059a16.771,16.771,0,0,1-3.462.281Zm13.986-1.46v-1.082h3.939v-.659h-2.717v-4.247h6.882v1.048h-5.54v.572h5.195v1.017h-5.195v.563h5.628v1.048H422.3v.659h3.982v1.082Zm21.418-.151v-1.611H436.91v-1.1h1.525v-1.038H436.91v-1.1h1.525v-1.362h1.343v6.216Zm21.444-.161v-1.06h3.962v-1.383h1.341v1.383h3.961v1.06Zm-7.156-.088v-5.956h1.353v5.956Zm-7.088-1.079a3.393,3.393,0,0,0,2.479-3.093h-2.057v-1.071h5.411v1.071H449.5a3.2,3.2,0,0,0,2.3,2.821l-.747,1.059a4.449,4.449,0,0,1-2.229-2.043,3.969,3.969,0,0,1-2.38,2.3Zm-13.964.907v-3.222h3.161v-.94h-3.161v-1.059H436.2v3.015h-3.172v1.157h.4a14.721,14.721,0,0,0,3.083-.228l.184,1.016a18.972,18.972,0,0,1-3.7.271C432.549,1597.862,432.116,1597.862,431.672,1597.851Zm32.851-3.8c-.519,1.179-2.2,1.989-3.678,2.2l-.563-1.049c1.72-.173,3.549-1.114,3.549-2.649v-.3h1.4v.3c0,1.535,2.08,2.562,3.551,2.649l-.574,1.06C466.827,1596.067,465.042,1595.235,464.522,1594.056Z" transform="translate(-360 -1589.95)"/></svg>