<svg xmlns="http://www.w3.org/2000/svg" xmlns:xlink="http://www.w3.org/1999/xlink" width="284" height="40" viewBox="0 0 284 40"><defs><style>.a{fill:none;}.b{clip-path:url(#a);}.c{fill:url(#b);}.d{clip-path:url(#c);}.e{fill:url(#d);}.f{clip-path:url(#e);}.g{fill:url(#f);}.h{clip-path:url(#g);}.i{fill:url(#h);}.j{fill:#243981;}.k{fill:#575756;}.l{fill:#1a2559;}.m{fill:#ff2926;}</style><clipPath id="a"><path class="a" d="M1490.8,1014.1h9.519c12.788-5.935,25.1-15.1,37.929-11.414a35.439,35.439,0,0,0-9.834-1.423c-14.13,0-24.924,8.857-37.614,12.837" transform="translate(-1490.803 -1001.26)"/></clipPath><linearGradient id="b" x1="-19.105" y1="-4.806" x2="-19.087" y2="-4.806" gradientUnits="objectBoundingBox"><stop offset="0" stop-color="#6aabdb"/><stop offset="1" stop-color="#243b7a"/></linearGradient><clipPath id="c"><path class="a" d="M1513.7,1014.1h9.081c5.41-4.769,9.269-10.578,15.469-11.414q-.807-.076-1.588-.076c-8.459,0-14.68,6.575-22.962,11.49" transform="translate(-1513.701 -1002.607)"/></clipPath><linearGradient id="d" x1="-36.098" y1="-7.722" x2="-36.065" y2="-7.722" xlink:href="#b"/><clipPath id="e"><path class="a" d="M1536.215,1006.214c-.172.34-.345.69-.516,1.045-.26.535-.518,1.085-.777,1.644q-.258.559-.516,1.13l-.518,1.143c-.344.765-.688,1.53-1.034,2.282q-.387.848-.774,1.662c-.174.365-.348.724-.523,1.074v17.737h6.722c0-3.716,0-6.3,0-10.019v-21.229a26.947,26.947,0,0,0-2.068,3.531" transform="translate(-1531.557 -1002.683)"/></clipPath><linearGradient id="f" x1="-145.801" y1="-5.056" x2="-145.67" y2="-5.056" xlink:href="#b"/><clipPath id="g"><path class="a" d="M1500.568,1004.626c-12.571,3.611-25.141,7.221-37.711,1.931v.037a52.356,52.356,0,0,0,8.269,4.833c10.017,1.38,20.033-1.946,30.049-5.271,12.359-4.1,24.718-8.209,37.076-3.473a34.787,34.787,0,0,0-13.664-2.656c-8.007,0-16.013,2.3-24.019,4.6" transform="translate(-1462.857 -1000.027)"/></clipPath><linearGradient id="h" x1="-12.153" y1="-3.592" x2="-12.141" y2="-3.592" xlink:href="#b"/></defs><g transform="translate(-1254.015 -1000.027)"><g transform="translate(1490.535 1001.26)"><g class="b"><rect class="c" width="49.75" height="30.414" transform="matrix(0.94, -0.342, 0.342, 0.94, -4.852, -0.493)"/></g></g><g transform="translate(1513.433 1002.607)"><g class="d"><rect class="e" width="26.999" height="19.194" transform="translate(-3.693 1.344) rotate(-20)"/></g></g><g transform="translate(1531.289 1002.683)"><g class="f"><rect class="g" width="6.726" height="31.248" transform="translate(0 0.001)"/></g></g><g transform="translate(1462.589 1000.027)"><g class="h"><rect class="i" width="75.93" height="39.75" transform="matrix(0.94, -0.342, 0.342, 0.94, -4.776, -0.342)"/></g></g><g transform="translate(1462.654 1006.595)"><path class="j" d="M1462.857,1006.595v7.5h8.27v-2.67a52.189,52.189,0,0,1-8.27-4.832" transform="translate(-1462.857 -1006.595)"/></g><path class="k" d="M1521.467,1024.756c0-1.841-1.859-3.108-4.371-3.108s-4.35,1.267-4.35,3.108c0,1.535,1.245,2.668,3.105,3.013v1.5c-1.571.038-3.164.058-4.715.058.095.652.191,1.3.306,1.938,3.392,0,8.51-.289,11.615-.634l-.191-1.822c-1.342.153-2.933.268-4.639.364v-1.381c1.917-.308,3.239-1.459,3.239-3.033m4.811-8.98H1523.9v18.191h2.376Zm-3.948,3.569h-10.6v1.8h10.6Zm-7.9-.806h5.291v-1.8h-5.291Zm4.639,6.217c0,.692-.824,1.306-1.975,1.306s-1.974-.614-1.974-1.306.825-1.285,1.974-1.285,1.975.594,1.975,1.285m-14.254-5.008c0-1.957-1.9-3.4-4.543-3.4s-4.6,1.439-4.6,3.358c0,2,1.955,3.377,4.6,3.377s4.543-1.381,4.543-3.339m-.844,8.252h3.451v1.841h2.4v-14.065h-2.4v10.515h-3.451Zm6.134,5.488v-1.9h-10.944v-3.473h-2.4v5.373Zm-7.974-4.529v-3.4c1.4-.095,2.761-.229,3.986-.422l-.134-1.765a105.659,105.659,0,0,1-11.576.556l.326,1.881c1.36,0,3.143-.019,5.021-.1v3.243Zm.327-9.211c0,.787-.843,1.555-2.186,1.555-1.38,0-2.2-.768-2.2-1.555,0-.806.823-1.612,2.2-1.612,1.343,0,2.186.806,2.186,1.612m-14.044.768c0-2.245-1.9-3.877-4.754-3.877-2.836,0-4.7,1.632-4.7,3.877,0,2.188,1.86,3.78,4.7,3.78,2.78,0,4.754-1.592,4.754-3.78m4.523-4.74h-2.357v18.191h2.357Zm-8.011,17.654v-6.141c1.744-.095,3.546-.249,4.888-.421l-.192-1.843c-2.568.269-7.322.557-11.94.557l.344,1.957c1.342,0,2.741-.039,4.485-.115v6.006Zm1.112-12.933c0,1.075-.939,1.842-2.377,1.842-1.36,0-2.318-.767-2.318-1.842a2.088,2.088,0,0,1,2.318-1.92c1.4,0,2.377.826,2.377,1.92m-12.261,13.471h2.376v-18.191h-2.376Zm-1.591-6.659a49.071,49.071,0,0,1-7.647.537v-3.7h5.922v-6.812h-8.375v1.9h5.98v3.031h-5.9v7.541h1.918a48.081,48.081,0,0,0,8.375-.594Zm-27-10.247v1.9h6.881a18.386,18.386,0,0,1-.384,4.24l2.281.327a26.987,26.987,0,0,0,.5-6.467Zm10.293,7.465c-1.189.172-3.929.364-5.559.4v-3.589h-2.358v3.646c-1.188.019-2.414.038-3.487.038l.306,1.938c1.189,0,3.546-.095,5.636-.172,1.917-.058,4.351-.308,5.654-.461Zm3.852,8.961v-1.9h-10v-3.454h-2.4v5.354Zm1.841-10.286v-1.976h-2.3v-5.45h-2.357V1029.3h2.357v-6.1Zm-18.471,10.689v-1.938h-10.427v-1.037h9.794v-4.625h-4.906v-1.361h7.053v-1.8h-16.406v1.8h6.976v1.361h-5v1.881h9.891v1.055H1429.9v4.664Zm-.671-17.769h-12.036v5.794h12.036Zm-2.415,3.933h-7.245v-2.092h7.245Zm-26.119,7.081v1.9h10.273v4.951h2.4v-6.85Zm7.667-2.9h2.606v1.957h2.4v-10.42h-2.4V1018h-2.606l.077,2.015h2.529v2.207h-2.529Zm-9.872-3.07a4.357,4.357,0,0,0,4.658,4.3c2.645,0,4.677-1.728,4.677-4.3a4.672,4.672,0,0,0-9.334,0m2.319-.02a2.351,2.351,0,0,1,2.338-2.456,2.3,2.3,0,0,1,2.376,2.456,2.337,2.337,0,0,1-2.376,2.456,2.287,2.287,0,0,1-2.338-2.456m-4.5-.518c0-2.38-2.53-4.01-6.46-4.01s-6.459,1.63-6.459,4.01c0,2.418,2.529,4.049,6.459,4.049s6.46-1.631,6.46-4.049m-8.415,13.317v-6.064h3.872v6.064h2.376v-6.064h3.929v-1.9h-16.406v1.9h3.852v6.064Zm5.922-13.317c0,1.209-1.533,2.13-3.968,2.13-2.473,0-3.987-.921-3.987-2.13,0-1.189,1.513-2.092,3.987-2.092,2.434,0,3.968.9,3.968,2.092m-16.842,9.652c0,1.113-1.38,1.785-3.776,1.785-2.376,0-3.738-.672-3.738-1.785s1.362-1.785,3.738-1.785c2.4,0,3.776.672,3.776,1.785m4.812-8.251v-1.958H1392v-4.3h-2.4v10.612h2.4v-4.356Zm-16.12-5.008V1019h5.807c-.517,3.07-3.661,4.95-6.689,5.584l1.189,1.9c4.867-1.4,8.127-4.471,8.146-9.459Zm13.761,13.259c0-2.265-2.261-3.7-6.229-3.7-3.91,0-6.172,1.438-6.172,3.7,0,2.245,2.262,3.685,6.172,3.685,3.967,0,6.229-1.44,6.229-3.685m-30.278-11.149h3.642a6.306,6.306,0,0,1-4.37,5.968l1.437,1.9a7.319,7.319,0,0,0,4.178-4.26,7.936,7.936,0,0,0,3.911,3.723l1.3-1.881a5.811,5.811,0,0,1-4.005-5.45h3.469v-1.88h-9.564Zm14.585,14.354v-1.881H1366.4v-3.876h-2.376v5.757Zm-.4-17.712h-2.376v13.2h2.376Zm-16.65,11.053h-11.959v6.908h11.959Zm-2.4,5.065h-7.169v-3.224h7.169Zm2.4-5.986v-10.132h-2.4v3.781h-3.086v1.918h3.086v4.433Zm-4.139-2.341a5.971,5.971,0,0,1-4.217-5.545v-1.459h-2.472v1.573a6.194,6.194,0,0,1-4.389,5.853l1.437,1.881a7.134,7.134,0,0,0,4.216-4.146,8.23,8.23,0,0,0,4.045,3.7Zm-14.891,2.245h2.376v-2.379h-2.376Zm-5.9,4.471c0,1.113-1.38,1.785-3.777,1.785-2.376,0-3.737-.672-3.737-1.785s1.36-1.785,3.737-1.785c2.4,0,3.777.672,3.777,1.785m4.811-8.251v-1.958h-2.587v-4.3h-2.4v10.612h2.4v-4.356Zm-16.119-5.008V1019h5.807c-.517,3.07-3.661,4.95-6.689,5.584l1.188,1.9c4.87-1.4,8.128-4.471,8.146-9.459Zm13.762,13.259c0-2.265-2.262-3.7-6.23-3.7-3.91,0-6.171,1.438-6.171,3.7,0,2.245,2.261,3.685,6.171,3.685,3.969,0,6.23-1.44,6.23-3.685m-16.9-14.507h-2.377v13.183h2.377v-5.987h2.606v-1.977h-2.606Zm.46,17.73v-1.879h-9.621v-4.03h-2.4v5.909Zm-4.082-9.133a6.278,6.278,0,0,1-4.217-5.776v-1.8h-2.452v1.919a6.531,6.531,0,0,1-4.333,6.159l1.418,1.881a7.71,7.71,0,0,0,4.159-4.375,8.718,8.718,0,0,0,4.063,3.857Zm-20.081-3.224a2.328,2.328,0,0,1-2.4,2.4,2.38,2.38,0,1,1,2.4-2.4m5.425,9.172c0,1.075-1.381,1.708-3.8,1.708-2.357,0-3.776-.633-3.776-1.708,0-1.112,1.418-1.765,3.776-1.765,2.414,0,3.8.653,3.8,1.765m.038-6.1v2.456h2.4v-10.9h-2.4v2.131h-2.607l.077,2.014h2.53v2.283h-2.53l-.077,2.015Zm-3.163-3.05a4.719,4.719,0,0,0-9.41,0c0,2.57,2.109,4.182,4.716,4.182,2.644,0,4.695-1.612,4.695-4.182m5.578,9.152c0-2.264-2.3-3.684-6.248-3.684-3.93,0-6.21,1.42-6.21,3.684,0,2.207,2.28,3.627,6.21,3.627,3.948,0,6.248-1.42,6.248-3.627"/><g transform="translate(1254.015 1009.036)"><path class="l" d="M1277.937,1023.825a5.587,5.587,0,0,0-7.948,1.667,5.59,5.59,0,0,1-10.108-1.537h0l-.017-.059-.019-.071a7.178,7.178,0,0,1-.285-2.221c0-5.011,5.14-10.592,12.547-10.592a14.123,14.123,0,0,1,13.04,8.982l-.055-.17a15.969,15.969,0,0,0-31.075,5.182c0,7.884,5.683,14.63,13.572,14.63a12.827,12.827,0,0,0,12.457-8.387,6.158,6.158,0,0,0-2.107-7.424" transform="translate(-1254.015 -1009.036)"/><path class="m" d="M1285.246,1020.307a14.083,14.083,0,0,0-13.142-9.295c-7.406,0-12.548,5.581-12.548,10.591a7.154,7.154,0,0,0,.287,2.223,4.7,4.7,0,0,1-.149-1.138c0-5.221,5.228-8.836,10.6-8.836a13.164,13.164,0,0,1,13.167,13.166,14.518,14.518,0,0,1-8.047,13.005v0a15.979,15.979,0,0,0,10.535-15.021,15.8,15.8,0,0,0-.7-4.7" transform="translate(-1254.015 -1009.036)"/></g></g></svg>