<svg xmlns="http://www.w3.org/2000/svg" xmlns:xlink="http://www.w3.org/1999/xlink" width="228.5" height="40" viewBox="0 0 228.5 40"><defs><style>.a{fill:none;}.b{clip-path:url(#a);}.c{fill:url(#b);}.d{clip-path:url(#c);}.e{fill:url(#d);}.f{clip-path:url(#e);}.g{fill:url(#f);}.h{clip-path:url(#g);}.i{fill:url(#h);}.j{fill:#243981;}.k{fill:#575756;}.l{fill:#1a2559;}.m{fill:#ff2926;}</style><clipPath id="a"><path class="a" d="M1436.442,918.278h9.518c12.789-5.935,25.1-15.1,37.93-11.414a35.4,35.4,0,0,0-9.833-1.423c-14.131,0-24.925,8.857-37.615,12.836" transform="translate(-1436.442 -905.442)"/></clipPath><linearGradient id="b" x1="-18.01" y1="-1.633" x2="-17.992" y2="-1.633" gradientUnits="objectBoundingBox"><stop offset="0" stop-color="#6aabdb"/><stop offset="1" stop-color="#243b7a"/></linearGradient><clipPath id="c"><path class="a" d="M1459.341,918.279h9.081c5.408-4.77,9.269-10.579,15.468-11.414-.538-.053-1.068-.077-1.588-.077-8.459,0-14.68,6.575-22.961,11.491" transform="translate(-1459.341 -906.788)"/></clipPath><linearGradient id="d" x1="-34.079" y1="-2.669" x2="-34.046" y2="-2.669" xlink:href="#b"/><clipPath id="e"><path class="a" d="M1481.854,910.4c-.172.339-.345.688-.517,1.044-.258.535-.517,1.086-.775,1.645q-.259.559-.517,1.129t-.517,1.144c-.345.764-.69,1.529-1.033,2.282-.26.564-.517,1.119-.777,1.662q-.259.547-.521,1.074v17.737h6.721c0-3.716,0-6.3,0-10.02V906.865a26.821,26.821,0,0,0-2.068,3.531" transform="translate(-1477.197 -906.865)"/></clipPath><linearGradient id="f" x1="-137.582" y1="-1.982" x2="-137.451" y2="-1.982" xlink:href="#b"/><clipPath id="g"><path class="a" d="M1446.206,908.807c-12.569,3.611-25.14,7.221-37.71,1.932v.037a52.063,52.063,0,0,0,8.27,4.831c10.016,1.381,20.032-1.944,30.049-5.271,12.358-4.1,24.716-8.208,37.075-3.471a34.757,34.757,0,0,0-13.665-2.657c-8.006,0-16.012,2.3-24.019,4.6" transform="translate(-1408.496 -904.208)"/></clipPath><linearGradient id="h" x1="-11.436" y1="-1.17" x2="-11.424" y2="-1.17" xlink:href="#b"/></defs><g transform="translate(-1255.348 -904.208)"><g transform="translate(1436.368 905.442)"><g class="b"><rect class="c" width="49.75" height="30.414" transform="matrix(0.94, -0.342, 0.342, 0.94, -4.852, -0.493)"/></g></g><g transform="translate(1459.267 906.788)"><g class="d"><rect class="e" width="26.999" height="19.195" transform="translate(-3.694 1.343) rotate(-20)"/></g></g><g transform="translate(1477.123 906.865)"><g class="f"><rect class="g" width="6.725" height="31.248" transform="translate(0 0)"/></g></g><g transform="translate(1408.422 904.208)"><g class="h"><rect class="i" width="75.93" height="39.751" transform="translate(-4.776 -0.342) rotate(-20)"/></g></g><g transform="translate(1408.445 910.776)"><path class="j" d="M1408.5,910.776v7.5h8.27v-2.671a52.189,52.189,0,0,1-8.27-4.832" transform="translate(-1408.496 -910.776)"/></g><path class="k" d="M1467.778,928.938c0-1.843-1.861-3.109-4.375-3.109s-4.356,1.266-4.356,3.109c0,1.535,1.248,2.667,3.109,3.013v1.5c-1.574.039-3.166.057-4.721.057.1.653.193,1.306.308,1.938,3.4,0,8.519-.287,11.628-.632l-.192-1.824c-1.343.154-2.936.269-4.644.365v-1.382c1.92-.306,3.243-1.458,3.243-3.031m4.817-8.98h-2.379v18.19h2.379Zm-3.953,3.568h-10.611v1.8h10.611Zm-7.906-.806h5.3v-1.8h-5.3Zm4.644,6.218c0,.69-.825,1.3-1.977,1.3s-1.976-.614-1.976-1.3.825-1.286,1.976-1.286,1.977.6,1.977,1.286m-14.27-5.009c0-1.956-1.9-3.4-4.548-3.4s-4.606,1.44-4.606,3.358c0,2,1.957,3.378,4.606,3.378s4.548-1.382,4.548-3.34m-.845,8.251h3.454v1.843h2.4V919.958h-2.4v10.515h-3.454Zm6.14,5.488v-1.9h-10.957v-3.474h-2.4v5.373Zm-7.982-4.528v-3.4c1.4-.1,2.763-.231,3.991-.422l-.134-1.766a105.911,105.911,0,0,1-11.59.557l.326,1.88c1.362,0,3.147-.019,5.027-.1v3.243Zm.326-9.211c0,.787-.844,1.555-2.187,1.555-1.382,0-2.207-.768-2.207-1.555,0-.806.825-1.611,2.207-1.611,1.343,0,2.187.8,2.187,1.611m-14.059.768c0-2.246-1.9-3.876-4.759-3.876-2.84,0-4.7,1.63-4.7,3.876,0,2.187,1.861,3.78,4.7,3.78,2.782,0,4.759-1.593,4.759-3.78m4.528-4.739h-2.36v18.19h2.36Zm-8.021,17.653v-6.14c1.747-.1,3.55-.25,4.894-.423l-.192-1.841c-2.572.268-7.331.556-11.955.556l.345,1.957c1.344,0,2.744-.038,4.491-.115v6.006Zm1.113-12.933c0,1.074-.94,1.842-2.379,1.842-1.363,0-2.322-.768-2.322-1.842a2.09,2.09,0,0,1,2.322-1.919c1.4,0,2.379.825,2.379,1.919m-12.275,13.47h2.379v-18.19h-2.379Zm-1.592-6.659a49.074,49.074,0,0,1-7.656.538v-3.7h5.929v-6.812h-8.386v1.9h5.987v3.032h-5.91v7.541h1.919a48.167,48.167,0,0,0,8.385-.6Zm-27.031-10.246v1.9h6.889a18.451,18.451,0,0,1-.384,4.241l2.283.326a26.945,26.945,0,0,0,.5-6.467Zm10.3,7.464c-1.189.173-3.933.365-5.564.4v-3.588h-2.361v3.646c-1.189.019-2.418.039-3.492.039l.307,1.938c1.19,0,3.55-.1,5.641-.174,1.919-.057,4.356-.306,5.661-.46Zm3.857,8.961v-1.9h-10.016v-3.454h-2.4v5.353Zm1.843-10.284v-1.977h-2.3v-5.449h-2.361v13.528h2.361v-6.1Zm-18.492,10.687v-1.938h-10.439V935.1h9.805v-4.625h-4.913V929.11h7.062v-1.8h-16.426v1.8H1381v1.363h-5.008v1.881h9.9v1.055H1376.1v4.662Zm-.672-17.768H1376.2v5.8h12.051Zm-2.418,3.934h-7.254v-2.092h7.254Zm-26.149,7.08v1.9h10.285v4.951h2.4v-6.851Zm7.676-2.9h2.609v1.958h2.4V919.958h-2.4v2.226h-2.609l.076,2.014h2.533V926.4h-2.533Zm-9.882-3.07a4.359,4.359,0,0,0,4.662,4.3c2.649,0,4.682-1.727,4.682-4.3a4.677,4.677,0,0,0-9.344,0m2.321-.019a2.352,2.352,0,0,1,2.341-2.456,2.305,2.305,0,0,1,2.38,2.456,2.34,2.34,0,0,1-2.38,2.457,2.289,2.289,0,0,1-2.341-2.457m-4.5-.518c0-2.379-2.533-4.01-6.466-4.01s-6.467,1.631-6.467,4.01c0,2.418,2.533,4.049,6.467,4.049s6.466-1.631,6.466-4.049m-8.424,13.317v-6.063h3.876v6.063h2.38v-6.063h3.934v-1.9h-16.425v1.9h3.856v6.063Zm5.93-13.317c0,1.209-1.535,2.13-3.972,2.13-2.476,0-3.991-.921-3.991-2.13,0-1.19,1.515-2.092,3.991-2.092,2.437,0,3.972.9,3.972,2.092m-16.861,9.652c0,1.113-1.382,1.784-3.78,1.784-2.38,0-3.742-.671-3.742-1.784s1.362-1.784,3.742-1.784c2.4,0,3.78.671,3.78,1.784m4.816-8.251v-1.957h-2.59v-4.3h-2.4v10.611h2.4v-4.356Zm-16.137-5.008v1.976h5.814c-.519,3.071-3.666,4.951-6.7,5.584l1.19,1.9c4.873-1.4,8.135-4.471,8.155-9.46Zm13.777,13.259c0-2.264-2.265-3.7-6.236-3.7-3.915,0-6.179,1.44-6.179,3.7,0,2.245,2.264,3.684,6.179,3.684,3.971,0,6.236-1.439,6.236-3.684m-16.631-7.752v-1.881h-9.94V922.3h9.806v-1.92h-12.185v6.333h4.8v1.765h-6.984v1.9h16.425v-1.9h-7.042v-1.765Zm.038,8.059c0-2.073-2.3-3.4-6.331-3.4-4.011,0-6.314,1.324-6.314,3.4,0,2.091,2.3,3.4,6.333,3.4,4.01,0,6.312-1.306,6.312-3.4m-2.436.019c0,.94-1.535,1.478-3.9,1.478s-3.876-.538-3.876-1.478,1.515-1.516,3.876-1.516,3.9.576,3.9,1.516m-12.006-8.481v-1.938h-2.59v-4.413h-2.4V930.4h2.4v-4.087Zm-14.526,4.989v1.9h9.556v4.97h2.4V931.3Zm7.886-4.663a32.412,32.412,0,0,1-7.1.691v-6.39h-2.379v8.405h1.823a39.289,39.289,0,0,0,7.944-.787Z" transform="translate(-0.074)"/><g transform="translate(1255.348 913.217)"><path class="l" d="M1279.269,928.007a5.585,5.585,0,0,0-7.947,1.666,5.59,5.59,0,0,1-10.108-1.537h0l-.018-.059-.017-.07a7.156,7.156,0,0,1-.286-2.222c0-5.011,5.141-10.592,12.547-10.592a14.123,14.123,0,0,1,13.041,8.983l-.056-.171a15.969,15.969,0,0,0-31.074,5.182c0,7.884,5.683,14.63,13.571,14.63a12.824,12.824,0,0,0,12.456-8.387,6.154,6.154,0,0,0-2.106-7.423" transform="translate(-1255.348 -913.217)"/><path class="m" d="M1286.578,924.489a14.08,14.08,0,0,0-13.142-9.3c-7.406,0-12.547,5.58-12.547,10.59a7.151,7.151,0,0,0,.286,2.223,4.743,4.743,0,0,1-.148-1.138c0-5.221,5.227-8.836,10.6-8.836a13.165,13.165,0,0,1,13.168,13.166,14.519,14.519,0,0,1-8.048,13.005v0a15.978,15.978,0,0,0,10.535-15.021,15.788,15.788,0,0,0-.7-4.7" transform="translate(-1255.348 -913.217)"/></g></g></svg>