<svg xmlns="http://www.w3.org/2000/svg" width="170" height="170" viewBox="0 0 170 170"><defs><style>.a{fill:#bbb;}.b{fill:#6d96df;}</style></defs><g transform="translate(-170 -170)"><path class="a" d="M305.083,190.628l-20.008-20.01a2.089,2.089,0,0,0-1.492-.618H172.11a2.113,2.113,0,0,0-2.11,2.11V312.165A27.867,27.867,0,0,0,197.835,340H337.89a2.112,2.112,0,0,0,2.11-2.11V326.457a2.113,2.113,0,0,0-2.11-2.111h-.748V299.984h.748a2.112,2.112,0,0,0,2.11-2.11V186.4a2.143,2.143,0,0,0-.15-.788l-5.715-14.287a2.114,2.114,0,0,0-3.924,0L324.5,185.616a2.116,2.116,0,0,0-.15.786v97.929h-7.212v-9.323a2.112,2.112,0,0,0-2.11-2.11h-.748V259.969h.748a2.114,2.114,0,0,0,2.11-2.111V246.425a2.113,2.113,0,0,0-2.11-2.11H305.7v-52.2A2.11,2.11,0,0,0,305.083,190.628ZM174.221,174.221H282.709L298.5,190.008h-12.8v-8.575h-4.221v10.685a2.113,2.113,0,0,0,2.111,2.111h17.9v50.086H203.551a22.089,22.089,0,0,0-13.208,39.815l1.2.9-1.441.418a28.029,28.029,0,0,0-14.535,10.09l-1.347,1.8Zm154.346,12.586,3.606-9.016,3.606,9.016v83.232h-7.212Zm0,87.453h7.212v10.071h-7.212Zm7.212,14.292v7.212H197.835a16.4,16.4,0,1,0,0,32.8H335.779v7.212H197.835a23.613,23.613,0,1,1,0-47.227Zm-2.858,11.432v24.362H197.835a12.181,12.181,0,1,1,0-24.362Zm-20.008-51.448v7.212H203.551a10.685,10.685,0,0,0,0,21.371H312.913v7.212H203.551a17.9,17.9,0,0,1,0-35.795Zm-2.858,11.433V272.9h-106.5a6.465,6.465,0,0,1,0-12.929Z"/><path class="b" d="M194.5,184A10.5,10.5,0,1,0,205,194.5,10.512,10.512,0,0,0,194.5,184Zm0,16.852a6.352,6.352,0,1,1,6.352-6.352A6.359,6.359,0,0,1,194.5,200.852Z"/><path class="b" d="M223.5,184A10.5,10.5,0,1,0,234,194.5,10.512,10.512,0,0,0,223.5,184Zm0,16.852a6.352,6.352,0,1,1,6.353-6.352A6.359,6.359,0,0,1,223.5,200.852Z"/><path class="b" d="M252.5,184A10.5,10.5,0,1,0,263,194.5,10.512,10.512,0,0,0,252.5,184Zm0,16.852a6.352,6.352,0,1,1,6.352-6.352A6.359,6.359,0,0,1,252.5,200.852Z"/><path class="b" d="M194.5,212A10.5,10.5,0,1,0,205,222.5,10.512,10.512,0,0,0,194.5,212Zm0,16.853a6.353,6.353,0,1,1,6.352-6.353A6.359,6.359,0,0,1,194.5,228.853Z"/><path class="b" d="M223.5,212A10.5,10.5,0,1,0,234,222.5,10.512,10.512,0,0,0,223.5,212Zm0,16.853a6.353,6.353,0,1,1,6.353-6.353A6.359,6.359,0,0,1,223.5,228.853Z"/><path class="b" d="M252.5,212A10.5,10.5,0,1,0,263,222.5,10.512,10.512,0,0,0,252.5,212Zm0,16.853a6.353,6.353,0,1,1,6.352-6.353A6.359,6.359,0,0,1,252.5,228.853Z"/><rect class="b" width="5" height="5" transform="translate(290 233)"/><rect class="b" width="5" height="5" transform="translate(290 221.5)"/><rect class="b" width="5" height="5" transform="translate(290 210)"/><rect class="b" width="38" height="5" transform="translate(252 312)"/><rect class="b" width="5" height="5" transform="translate(296 312)"/><rect class="b" width="5" height="5" transform="translate(307.5 312)"/><rect class="b" width="5" height="5" transform="translate(319 312)"/></g></svg>