<svg xmlns="http://www.w3.org/2000/svg" xmlns:xlink="http://www.w3.org/1999/xlink" width="213" height="40" viewBox="0 0 213 40"><defs><style>.a{fill:none;}.b{clip-path:url(#a);}.c{fill:url(#b);}.d{clip-path:url(#c);}.e{fill:url(#d);}.f{clip-path:url(#e);}.g{fill:url(#f);}.h{clip-path:url(#g);}.i{fill:url(#h);}.j{fill:#052e6e;}.k{fill:#464544;}.l{fill:#002c52;}.m{fill:#e5002b;}</style><clipPath id="a"><path class="a" d="M464.709,303.279h9.519c12.787-5.935,25.1-15.1,37.929-11.414a35.4,35.4,0,0,0-9.834-1.423c-14.13,0-24.923,8.857-37.614,12.837" transform="translate(-464.709 -290.442)"/></clipPath><linearGradient id="b" x1="-9.329" y1="10.396" x2="-9.311" y2="10.396" gradientUnits="objectBoundingBox"><stop offset="0" stop-color="#4e9cd4"/><stop offset="1" stop-color="#0a2e68"/></linearGradient><clipPath id="c"><path class="a" d="M487.608,303.278h9.081c5.409-4.77,9.269-10.579,15.468-11.414-.538-.053-1.067-.077-1.588-.077-8.459,0-14.678,6.575-22.961,11.49" transform="translate(-487.608 -291.788)"/></clipPath><linearGradient id="d" x1="-18.105" y1="16.113" x2="-18.072" y2="16.113" xlink:href="#b"/><clipPath id="e"><path class="a" d="M510.121,295.4c-.172.339-.344.688-.517,1.044-.258.535-.517,1.086-.775,1.645q-.26.56-.517,1.129c-.173.38-.344.761-.517,1.144-.345.764-.69,1.529-1.034,2.282q-.388.846-.775,1.662-.262.547-.522,1.074v17.737h6.721c0-3.716,0-6.3,0-10.02V291.865a27.039,27.039,0,0,0-2.068,3.531" transform="translate(-505.464 -291.865)"/></clipPath><linearGradient id="f" x1="-74.909" y1="9.87" x2="-74.778" y2="9.87" xlink:href="#b"/><clipPath id="g"><path class="a" d="M474.474,293.807c-12.57,3.611-25.141,7.221-37.711,1.932v.037a52.147,52.147,0,0,0,8.27,4.831c10.016,1.381,20.032-1.944,30.049-5.271,12.358-4.1,24.717-8.208,37.075-3.471a34.75,34.75,0,0,0-13.665-2.657c-8.005,0-16.012,2.3-24.018,4.6" transform="translate(-436.763 -289.208)"/></clipPath><linearGradient id="h" x1="-5.744" y1="8.096" x2="-5.733" y2="8.096" xlink:href="#b"/></defs><g transform="translate(-299.171 -289.208)"><g transform="translate(464.691 290.442)"><g class="b"><rect class="c" width="49.75" height="30.414" transform="translate(-4.851 -0.493) rotate(-20)"/></g></g><g transform="translate(487.59 291.788)"><g class="d"><rect class="e" width="27" height="19.195" transform="translate(-3.694 1.343) rotate(-20)"/></g></g><g transform="translate(505.446 291.865)"><g class="f"><rect class="g" width="6.725" height="31.248" transform="translate(0 0)"/></g></g><g transform="translate(436.745 289.208)"><g class="h"><rect class="i" width="75.93" height="39.751" transform="translate(-4.776 -0.342) rotate(-20)"/></g></g><g transform="translate(436.751 295.776)"><path class="j" d="M436.763,295.776v7.5h8.27v-2.671a52.234,52.234,0,0,1-8.27-4.832" transform="translate(-436.763 -295.776)"/></g><path class="k" d="M496.045,313.938c0-1.842-1.861-3.109-4.374-3.109s-4.356,1.267-4.356,3.109c0,1.535,1.247,2.667,3.108,3.012v1.5c-1.573.038-3.165.058-4.72.058.1.652.192,1.3.307,1.938,3.4,0,8.52-.288,11.628-.634l-.192-1.823c-1.343.154-2.936.269-4.643.365V316.97c1.919-.308,3.242-1.459,3.242-3.032m4.817-8.981h-2.379v18.191h2.379Zm-3.953,3.57H486.3v1.8h10.611ZM489,307.721h5.3v-1.8H489Zm4.644,6.217c0,.691-.825,1.305-1.976,1.305s-1.977-.614-1.977-1.305.826-1.286,1.977-1.286,1.976.6,1.976,1.286m-14.27-5.008c0-1.958-1.9-3.4-4.548-3.4s-4.605,1.439-4.605,3.358c0,2,1.957,3.377,4.605,3.377s4.548-1.381,4.548-3.338m-.844,8.251h3.453v1.842h2.4V304.957h-2.4v10.516h-3.453Zm6.14,5.488v-1.9H473.716V317.3h-2.4v5.373Zm-7.983-4.529v-3.4c1.4-.1,2.763-.231,3.992-.423l-.134-1.765a105.715,105.715,0,0,1-11.591.556l.327,1.881c1.361,0,3.147-.02,5.027-.1v3.243Zm.326-9.21c0,.786-.844,1.554-2.187,1.554-1.381,0-2.207-.768-2.207-1.554,0-.806.826-1.612,2.207-1.612,1.343,0,2.187.806,2.187,1.612m-14.059.767c0-2.245-1.9-3.876-4.759-3.876-2.839,0-4.7,1.631-4.7,3.876,0,2.188,1.862,3.78,4.7,3.78,2.783,0,4.759-1.592,4.759-3.78m4.528-4.74h-2.36v18.191h2.36Zm-8.021,17.654V316.47c1.747-.1,3.55-.249,4.894-.422l-.192-1.842c-2.572.269-7.33.557-11.954.557l.344,1.957c1.344,0,2.744-.038,4.491-.115v6.006Zm1.114-12.933c0,1.075-.94,1.842-2.38,1.842-1.362,0-2.321-.767-2.321-1.842a2.089,2.089,0,0,1,2.321-1.919c1.4,0,2.38.825,2.38,1.919M448.3,323.148h2.379V304.957H448.3Zm-1.592-6.658a49.207,49.207,0,0,1-7.657.537v-3.7h5.929v-6.811H436.6v1.9h5.986v3.031h-5.91v7.542h1.92a48.145,48.145,0,0,0,8.384-.6Zm-27.032-10.247v1.9h6.889a18.424,18.424,0,0,1-.384,4.24l2.284.326a27,27,0,0,0,.5-6.466Zm10.3,7.464c-1.189.173-3.933.365-5.564.4v-3.588h-2.36v3.646c-1.19.019-2.418.038-3.492.038l.306,1.938c1.19,0,3.55-.1,5.642-.172,1.918-.058,4.356-.308,5.66-.461Zm3.857,8.962v-1.9H423.824v-3.454h-2.4v5.354Zm1.843-10.286v-1.976h-2.3v-5.45h-2.36v13.528h2.36v-6.1Zm-18.492,10.689v-1.939H406.752V320.1h9.8v-4.624h-4.912V314.11h7.061v-1.8H402.281v1.8h6.984v1.363h-5.008v1.88h9.9v1.055h-9.785v4.664Zm-.672-17.769H404.468V311.1h12.051Zm-2.418,3.933h-7.254v-2.092H414.1Zm-26.148,7.081v1.9h10.285v4.95h2.4v-6.85Zm7.676-2.9h2.609v1.956h2.4V304.957h-2.4v2.226h-2.609l.076,2.015h2.533V311.4H395.7Zm-9.882-3.07a4.358,4.358,0,0,0,4.662,4.3c2.648,0,4.682-1.726,4.682-4.3a4.677,4.677,0,0,0-9.344,0m2.321-.02a2.352,2.352,0,0,1,2.341-2.456,2.305,2.305,0,0,1,2.379,2.456,2.338,2.338,0,0,1-2.379,2.456,2.288,2.288,0,0,1-2.341-2.456m-4.5-.518c0-2.379-2.533-4.01-6.467-4.01s-6.467,1.631-6.467,4.01c0,2.418,2.533,4.049,6.467,4.049s6.467-1.631,6.467-4.049m-8.424,13.317v-6.064h3.876v6.064H381.4v-6.064h3.934v-1.9H368.9v1.9h3.856v6.064Zm5.929-13.317c0,1.209-1.535,2.13-3.972,2.13-2.476,0-3.991-.921-3.991-2.13,0-1.19,1.515-2.091,3.991-2.091,2.437,0,3.972.9,3.972,2.091m-16.861,9.652c0,1.113-1.382,1.785-3.78,1.785-2.379,0-3.742-.672-3.742-1.785s1.363-1.785,3.742-1.785c2.4,0,3.78.672,3.78,1.785m4.817-8.251v-1.957h-2.591v-4.3h-2.4v10.612h2.4v-4.356ZM352.888,306.2v1.976H358.7c-.518,3.07-3.665,4.951-6.7,5.584l1.19,1.9c4.874-1.4,8.136-4.47,8.155-9.459Zm13.777,13.259c0-2.264-2.264-3.7-6.236-3.7-3.914,0-6.178,1.439-6.178,3.7,0,2.245,2.264,3.684,6.178,3.684,3.972,0,6.236-1.439,6.236-3.684m-20.736-11.225H335.375v1.841h10.554Zm-.864,5.7c0-1.919-1.842-3.339-4.3-3.339-2.495,0-4.318,1.42-4.318,3.339,0,1.938,1.842,3.319,4.318,3.319,2.456,0,4.3-1.381,4.3-3.319m-6.985-6.563h5.411v-1.823H338.08Zm11.667-2.418h-2.38v13.509h2.38v-5.641h2.533v-1.977h-2.533Zm.441,17.769v-1.9H340.153v-2.9h-2.4v4.8Zm-11.379-8.788c0-.844.9-1.44,1.958-1.44s1.957.6,1.957,1.44c0,.825-.9,1.4-1.957,1.4s-1.958-.575-1.958-1.4" transform="translate(-0.018)"/><g transform="translate(299.171 298.217)"><path class="l" d="M323.092,313.007a5.585,5.585,0,0,0-7.947,1.666,5.59,5.59,0,0,1-10.108-1.537h0l-.016-.059-.019-.07a7.155,7.155,0,0,1-.285-2.222c0-5.011,5.14-10.592,12.547-10.592a14.122,14.122,0,0,1,13.04,8.983l-.056-.171a15.969,15.969,0,0,0-31.074,5.182c0,7.884,5.683,14.63,13.571,14.63A12.826,12.826,0,0,0,325.2,320.43a6.155,6.155,0,0,0-2.107-7.423" transform="translate(-299.171 -298.217)"/><path class="m" d="M330.4,309.489a14.08,14.08,0,0,0-13.142-9.3c-7.4,0-12.547,5.58-12.547,10.59a7.154,7.154,0,0,0,.287,2.223,4.7,4.7,0,0,1-.149-1.138c0-5.221,5.227-8.836,10.6-8.836A13.165,13.165,0,0,1,328.617,316.2,14.518,14.518,0,0,1,320.57,329.2v0a15.979,15.979,0,0,0,10.535-15.021,15.759,15.759,0,0,0-.7-4.7" transform="translate(-299.171 -298.217)"/></g></g></svg>