<svg xmlns="http://www.w3.org/2000/svg" width="203" height="204" viewBox="0 0 203 204"><defs><style>.a{fill:#bbb;}.b{fill:#6d96df;}</style></defs><g transform="translate(28 78)"><rect class="a" width="6" height="6" transform="translate(0 14)"/><rect class="a" width="6" height="6"/><rect class="a" width="6" height="6" transform="translate(0 28)"/><rect class="a" width="6" height="6" transform="translate(0 42)"/></g><path class="a" d="M326.5,214.543a31,31,0,1,1,31-31A31.035,31.035,0,0,1,326.5,214.543Zm-15.173-9.017.33.22a26.577,26.577,0,0,0,29.686,0l.33-.22v-4.668a9.449,9.449,0,0,0-9.4-9.4H320.729a9.45,9.45,0,0,0-9.4,9.4Zm21.689-24.869v-5.772a6.516,6.516,0,0,0-13.031,0v5.772a6.516,6.516,0,0,0,13.031,0ZM343.4,162.841a26.718,26.718,0,0,0-37.593,3.789,26.809,26.809,0,0,0,0,33.8l1.2,1.464.123-1.887a13.706,13.706,0,0,1,9.964-12.289l.988-.277-.571-.853a10.666,10.666,0,0,1-1.808-5.936v-5.771a10.8,10.8,0,0,1,21.6,0v5.772a10.674,10.674,0,0,1-1.809,5.935l-.57.853.988.277a13.7,13.7,0,0,1,9.963,12.289l.122,1.887,1.2-1.464A26.748,26.748,0,0,0,343.4,162.841Z" transform="translate(-295.5 -152.543)"/><path class="a" d="M326.5,356.543a31,31,0,1,1,31-31A31.035,31.035,0,0,1,326.5,356.543Zm-15.173-9.017.33.22a26.582,26.582,0,0,0,29.686,0l.33-.22v-4.669a9.451,9.451,0,0,0-9.4-9.4H320.729a9.451,9.451,0,0,0-9.4,9.4Zm21.689-24.869v-5.772a6.516,6.516,0,1,0-13.031,0v5.772a6.516,6.516,0,1,0,13.031,0ZM343.4,304.84a26.717,26.717,0,0,0-37.593,37.594l1.2,1.464.123-1.887a13.707,13.707,0,0,1,9.964-12.29l.988-.277-.571-.853a10.661,10.661,0,0,1-1.808-5.935v-5.771a10.8,10.8,0,1,1,21.6,0v5.772a10.676,10.676,0,0,1-1.808,5.934l-.572.853.989.277a13.7,13.7,0,0,1,9.963,12.29l.122,1.887,1.2-1.464A26.749,26.749,0,0,0,343.4,304.84Z" transform="translate(-295.5 -152.543)"/><g transform="translate(169 78)"><rect class="a" width="6" height="6" transform="translate(0 14)"/><rect class="a" width="6" height="6"/><rect class="a" width="6" height="6" transform="translate(0 28)"/><rect class="a" width="6" height="6" transform="translate(0 42)"/></g><g transform="translate(77.5 28)"><rect class="a" width="6" height="6" transform="translate(14)"/><rect class="a" width="6" height="6"/><rect class="a" width="6" height="6" transform="translate(28)"/><rect class="a" width="6" height="6" transform="translate(42)"/></g><g transform="translate(77.5 170)"><rect class="a" width="6" height="6" transform="translate(14)"/><rect class="a" width="6" height="6"/><rect class="a" width="6" height="6" transform="translate(28)"/><rect class="a" width="6" height="6" transform="translate(42)"/></g><path class="a" d="M185.5,214.543a31,31,0,1,1,31-31A31.035,31.035,0,0,1,185.5,214.543Zm-15.173-9.017.33.22a26.577,26.577,0,0,0,29.686,0l.33-.22v-4.668a9.449,9.449,0,0,0-9.4-9.4H179.729a9.45,9.45,0,0,0-9.4,9.4Zm21.689-24.869v-5.772a6.516,6.516,0,0,0-13.031,0v5.772a6.516,6.516,0,0,0,13.031,0ZM202.4,162.841a26.718,26.718,0,0,0-37.593,3.789,26.809,26.809,0,0,0,0,33.8l1.2,1.464.123-1.887a13.706,13.706,0,0,1,9.964-12.289l.988-.277-.571-.853a10.666,10.666,0,0,1-1.808-5.936v-5.771a10.8,10.8,0,0,1,21.6,0v5.772a10.674,10.674,0,0,1-1.809,5.935l-.57.853.988.277a13.7,13.7,0,0,1,9.963,12.289l.122,1.887,1.2-1.464A26.748,26.748,0,0,0,202.4,162.841Z" transform="translate(-13.5 -152.543)"/><path class="a" d="M185.5,356.543a31,31,0,1,1,31-31A31.035,31.035,0,0,1,185.5,356.543Zm-15.173-9.017.33.22a26.582,26.582,0,0,0,29.686,0l.33-.22v-4.669a9.451,9.451,0,0,0-9.4-9.4H179.729a9.451,9.451,0,0,0-9.4,9.4Zm21.689-24.869v-5.772a6.516,6.516,0,1,0-13.031,0v5.772a6.516,6.516,0,1,0,13.031,0ZM202.4,304.84a26.717,26.717,0,0,0-37.593,37.594l1.2,1.464.123-1.887a13.707,13.707,0,0,1,9.964-12.29l.988-.277-.571-.853a10.66,10.66,0,0,1-1.808-5.935v-5.771a10.8,10.8,0,1,1,21.6,0v5.772a10.675,10.675,0,0,1-1.808,5.934l-.572.853.989.277a13.7,13.7,0,0,1,9.963,12.29l.122,1.887,1.2-1.464A26.749,26.749,0,0,0,202.4,304.84Z" transform="translate(-13.5 -152.543)"/><g transform="translate(57.25 54.5)"><path class="b" d="M275.928,224.047H289a2.444,2.444,0,0,1,.254,0,2.242,2.242,0,0,1,2,2.246v5.3H298c.062,0,.113,0,.159,0s.078,0,.115,0a2.235,2.235,0,0,1,1.976,2.245V289.8a2.251,2.251,0,0,1-2.25,2.247H214a2.251,2.251,0,0,1-2.25-2.247v-55.96a2.253,2.253,0,0,1,2.25-2.248h6.75v-5.293a2.252,2.252,0,0,1,2.25-2.248h13a2.5,2.5,0,0,1,.273,0,2.252,2.252,0,0,1,1.409,3.917,2.213,2.213,0,0,1-1.625.582l-10.807,0v48.013H239.5c5.209,0,9.6,1.286,13.057,3.821l1.193.876v-8.445a2.25,2.25,0,0,1,2.218-2.29,2.262,2.262,0,0,1,2.282,2.216v8.519l1.194-.876c3.454-2.535,7.847-3.821,13.056-3.821h14.25V228.542H276a2.346,2.346,0,0,1-1.61-.636,2.248,2.248,0,0,1,1.538-3.859Zm-23.64,62.3a11.352,11.352,0,0,0-.835-1.031c-2.684-2.87-6.6-4.266-11.953-4.266H223a2.252,2.252,0,0,1-2.25-2.248V236.084h-4.5v51.464h36.935Zm20.212-5.3c-5.358,0-9.268,1.4-11.954,4.266a11.27,11.27,0,0,0-.795.979l-.9,1.2,1.457.054H295.75V236.084h-4.5V278.8a2.251,2.251,0,0,1-2.25,2.248Z" transform="translate(-211.75 -207.043)"/><g transform="translate(28.419)"><path class="b" d="M264.286,256.6l-.181.193-.019.266a13.173,13.173,0,0,1-2.06,6.352,6.819,6.819,0,0,1-12.052,0,13.176,13.176,0,0,1-2.06-6.352l-.018-.266-.182-.193a6.934,6.934,0,0,1-1.8-4.654v-5.938c0-.9-.622-1.88-2.042-3.894A13.455,13.455,0,0,1,241,234.135a15,15,0,1,1,30,0,13.455,13.455,0,0,1-2.876,7.983c-1.42,2.014-2.042,2.99-2.042,3.894v5.938A6.934,6.934,0,0,1,264.286,256.6Zm-11.106,3.484a6.48,6.48,0,0,0,.485.873,2.487,2.487,0,0,0,4.67,0,6.711,6.711,0,0,0,.486-.873l.537-1.163-1.27.11a24.267,24.267,0,0,1-4.176,0l-1.27-.11Zm-2.836-8.138c0,.92.077,1.208.787,1.708.352.248,1.683,1.014,4.869,1.014s4.518-.766,4.85-1c.728-.513.806-.8.806-1.721v-2.722H250.344Zm16.23-17.815a10.574,10.574,0,1,0-21.148,0c0,2.339.809,3.661,2.042,5.41.135.191.28.389.429.594a12.05,12.05,0,0,1,2.2,4.081l.144.555h3.551v-5.816l-3.293-3.28a2.215,2.215,0,1,1,3.128-3.134L256,234.938l2.366-2.38a2.207,2.207,0,0,1,3.793,1.767,2.239,2.239,0,0,1-.651,1.352l-3.295,3.315v5.783h3.552l.143-.555a12.041,12.041,0,0,1,2.2-4.081c.149-.205.293-.4.428-.594C265.765,237.8,266.574,236.474,266.574,234.135Z" transform="translate(-240.169 -207.043)"/><rect class="b" width="4" height="9" rx="2" transform="translate(13.831)"/><g transform="translate(0 2.639)"><rect class="b" width="4" height="9" rx="2" transform="translate(25.298 9.192) rotate(-135)"/><rect class="b" width="4" height="9" rx="2" transform="translate(0 2.828) rotate(-45)"/></g></g></g></svg>