<svg xmlns="http://www.w3.org/2000/svg" width="76" height="76.001" viewBox="0 0 76 76.001"><defs><style>.a{fill:#004cac;}.b{fill:#00a19a;}</style></defs><g transform="translate(-348.828 -20.585)"><path class="a" d="M382.86,76.989c9.1,6.136,23.358,8.269,36.656.948a37.99,37.99,0,1,1-26.231-56.789s7.742,1.348,11.727,8.2a30.061,30.061,0,0,1,3.471,8.576L408.5,38a31.061,31.061,0,0,1-.106,13.533c-1.631,7.106-5.642,13.756-10.856,17.321l-.033.03a14.839,14.839,0,1,0-25.144-13.627,16,16,0,0,0-.165,6.762,23.815,23.815,0,0,0,10.666,14.97Z" transform="translate(0 0)"/><path class="b" d="M360.98,51.766a30.728,30.728,0,0,0,7.514,2.769,31.21,31.21,0,0,0,25.75-5.515l.048-.041a31.4,31.4,0,0,0,8.2-8.543,31.659,31.659,0,0,0,3.395-6.9c1.046,9.48-.953,14.838-.953,14.838a30.847,30.847,0,0,1-30.781,10.179s-7.985-1.677-13.176-6.787Z" transform="translate(18.635 19.859)"/><path class="b" d="M364.668,68.365c14.56,1.17,28.222-9.389,31.6-22.689a39.8,39.8,0,0,0,1.049-7.3,38.6,38.6,0,0,0-11.269-14.59A31.184,31.184,0,0,1,367.427,67.7a19.957,19.957,0,0,1-2.774.651l.015.018Z" transform="translate(24.267 4.915)"/></g></svg>