<svg xmlns="http://www.w3.org/2000/svg" width="116" height="45" viewBox="0 0 116 45"><defs><style>.a{fill:#ee7d00;}.b{fill:#009a70;}.c{fill:#0075bb;}.d{fill:#1d1d1b;}</style></defs><g transform="translate(-202.872 -220.899)"><path class="a" d="M254.635,221.023a.546.546,0,0,0-.217-.113c-.336-.069-.672.175-1.176.577l-.395.293c-1.384.736-2.438,4.179-2.678,5.595l-.145.078A6.063,6.063,0,0,0,246,224.425c.64,2.449,2.8,9.843,5.684,9.2,1.461-.324,4.514-6.456,4.547-9.834v-.131C256.207,221.881,255.374,221.239,254.635,221.023Z" transform="translate(21.827)"/><path class="b" d="M267.9,246.093c-3.612.148-4.808-.041-8.347,1.115a3.02,3.02,0,0,0-1.322.927c.059.742-.387,1.917.306,2.195.036,0,.035.115.068.177.2.205.417.236.622.493.134.19.246-.018.384.059.069.068.1.184.172.2.346.162.664.1,1.014.265a.868.868,0,0,0,.524.137c.1-.039.241.207.271.267a4.4,4.4,0,0,0,1.932.018c2-.033,1.627-.228,3.624-.26,1.69-.025,3.332.231,5.017.2.914-.029,1.9,0,2.815-.061,1.61-.092,3.231.153,4.847.172.809-.019,1.747.3,2.562.354a13.064,13.064,0,0,1,2.6-.042,2.337,2.337,0,0,1,.849.112,2.343,2.343,0,0,0,.8.285,5.275,5.275,0,0,0,2.214-.518,5.123,5.123,0,0,0,1.3-.468,1.18,1.18,0,0,0,.48-.747,3,3,0,0,0,.155-1.949c-.039,0-.142.048-.178-.012-.078-.115-.062-.4-.17-.4a6.105,6.105,0,0,0-.961-.235c-.431-.091-.869-.286-1.294-.372C286.188,247.527,274.75,245.808,267.9,246.093Z" transform="translate(27.977 12.581)"/><path class="c" d="M260.932,247.454c.364.078.777.069.977.311.194.188-.2.5-.173.744-.006.6.215,1.132.209,1.723a.382.382,0,0,1-.152.3,1.544,1.544,0,0,1-.438.408c-.5.318-1.163.2-1.744.366a13.018,13.018,0,0,1-2.327.387,30.019,30.019,0,0,1-4.158-.195,4.248,4.248,0,0,0-1.578.21,6.547,6.547,0,0,1-1.943.122c-3.384-.12-6.7-.192-10.071-.167-.587.023-1.232.1-1.821.12-2.71.151-5.408.1-8.116.175-.949.024-1.889.051-2.838.027-.53.009-1.063.024-1.532.035-2,.1-4.056.2-6.067.111-.765.012-1.59.015-2.362.021a62.133,62.133,0,0,1-6.766.36,11.542,11.542,0,0,1-4.737-1.245,6.339,6.339,0,0,1-2.423-2.152,2.672,2.672,0,0,1,1.6-.853c1.509-.408,2.907-.666,4.43-.924,1.283-.213,2.461-.321,3.695-.43a306.1,306.1,0,0,1,41.447-.432A44.8,44.8,0,0,1,260.932,247.454Z" transform="translate(0 12.538)"/><path class="d" d="M262.56,239.122v.184c.143.369.429.46.718.737h.938c0-.186.217,0,.217-.186a.8.8,0,0,0,.691-.365h.152a.8.8,0,0,1,.7-.465c.384-.46.773-.921,1.157-1.381a.533.533,0,0,1,.23-.465,16.64,16.64,0,0,1,.773-2.581,3.879,3.879,0,0,0,.078-.927c.075,0,.152,0,.152-.093-.077-.369.155-.555.307-.737.158,0,.312,0,.389-.186v-.184a1.618,1.618,0,0,1,1.127.646h.506c0,.186.1.186.208.277a5.321,5.321,0,0,1,1.706.093c0,.274.405.183.509.458a2.663,2.663,0,0,0,.3.835.325.325,0,0,1-.1.276c.2.277.4.74.1,1.014.1.37,0,.831.2,1.2-.2.185-.1.462-.1.646a5.253,5.253,0,0,1,.307,1.293c.405.462.3,1.016.607,1.48v.549c.206,0,0,.279.206.279a10.42,10.42,0,0,1-.206,1.756c-.1.093-.2.183-.307.277v.183c-.1,0-.2,0-.2-.091-.2.274-.5.46-.709.74-.2-.095-.3.09-.405.09-.2,0,0,.278-.2.278a.833.833,0,0,0-.511.184c-.2.093-.893-.092-1.1.093l-.1-.093a.562.562,0,0,1-.408.188c0-.095,0-.187-.1-.187a.739.739,0,0,1-.815.37c-.089-.183-.05-.322-.283-.4a3.689,3.689,0,0,0-.389-1.588c.08,0,.08-.082.08-.162a2.736,2.736,0,0,1-.23-.753c-.234-.331-.309-.831-.619-1.081.078-.082-.154-.166-.075-.252-.152-.165-.236-.248-.39-.417-.154,0-.154.085-.229.17-.078.417-.464.75-.541,1.164l-.08-.081c-.072.246-.306.416-.306.666-.155.083-.233.333-.384.417v.168c-.542.5-.836,1.3-1.484,1.653-.164.351-.569.419-.733.807a3.528,3.528,0,0,0-.925.2c-.2-.1-.5-.292-.706-.1,0-.1-.1-.1-.2-.1l-.1.1c-.2-.193-.508,0-.809-.1a13.075,13.075,0,0,0-2.02-1.068c-.2,0,0-.291-.2-.291a.371.371,0,0,1-.3-.1c0-.292.1-.486-.2-.681l.1-.095c0-.1-.1-.1-.2-.1-.1-.582-.407-1.068-.5-1.653-.1-.1-.1-.1-.2-.191a1.788,1.788,0,0,0-.2-.78c-.1-.386.25-.71.056-1.08a.333.333,0,0,1,.1-.276,2.53,2.53,0,0,1,.1-1.2c-.1,0-.1-.094-.1-.186a2.235,2.235,0,0,0,.194-1.107c.093-.282.286-.555.381-.832l-.095-.09c.19-.186.095-.464.387-.651,0-.089,0-.182-.1-.182,0-.189.191-.276.288-.37a3.858,3.858,0,0,1,.7-1.052l-.072-.11a1.381,1.381,0,0,1,.943-.367,2.184,2.184,0,0,1,.892.311c.108.218.006.389.149.665h.143v.186c0,.092.074.092.146.092a1.736,1.736,0,0,1,.146.828c0,.1.069.1.145.1-.075.185.145.369.145.555-.145.181,0,.462-.075.738.217.462.146,1.017.363,1.477A2.242,2.242,0,0,0,262.56,239.122Z" transform="translate(27.608 5.786)"/><path class="d" d="M236.563,242.866a1.925,1.925,0,0,1,.477.422,1.2,1.2,0,0,0,.438.46,3.357,3.357,0,0,1,.4.192l.125.255.312.292c.333.1.4-.1.654.251.111,0,.223,0,.223.1l.113-.1c.108.2.33.292.443.391a1.254,1.254,0,0,1,.845.318c.11,0,.123.223.123.124.337.093.572.32.794.122.11,0,.223,0,.223.1l.107-.1c.223-.1.273.166.494.066.113,0,.113.1.113.2h.221c.22.2,1.167-.065,1.389.133a16.03,16.03,0,0,0,3.307-.131c.008-.187.318.015.325-.174l.1.1c.417.113.866-.371,1.282-.162l.221-.177c.217-.084.518.309.743.034,0,.1.1.1.209.107,0-.1,0-.1.008-.191.33-.171.729-.126.973-.388.105.013.315.035.422.046l.233-.168c.55-.13,1.027-.561,1.654-.7.1-.107.309-.123.4-.321l.321-.025c.1-.1.193-.2.288-.307.327.064.613-.381.925-.429-.014-.092-.029-.184.078-.2l.117.077c.2-.128.2-.128.265-.327.33.04.508-.357.687-.576.108-.018.108-.018.212-.033.084-.108.084-.108.178-.22.1-.013.1-.013.212-.033.28-.235.446-.544.846-.7-.02-.093-.03-.188.071-.2.229.062.176-.219.268-.328.09-.063.369-.262.443-.171-.015.155.274-.4.261-.247.074.09.438-.853.523-.916l-.881-2.3c-.327.46-1.49,1.968-2.109,2.107.012.482-.529.509-.9.784.021.089.041.18-.06.2-.31.07-.446.413-.655.46-.02-.092-.12-.066-.229-.044-.08.116-.285.16-.343.367-.31.072-.4.375-.586.6l-.117-.078c-.375.342-.917.306-1.172.725-.6.282-1.113.383-1.738.612-.1.006-.211.012-.217-.083-.09.2-.53.038-.625.231a11.33,11.33,0,0,0-1.8.12c-.014-.187-.318.02-.331-.168-.518.224-1.051-.069-1.581-.069-.108-.093-.319-.093-.428-.28a1.236,1.236,0,0,1-1.167-.283c-.321,0-.533-.282-.852-.377v-.189c-.107-.093-.107-.093-.211-.187,0-.281.316-.281.53-.377.212-.281.788-.215,1-.5,0-.093.289-.281.289-.372.107-.186.179-.366.285-.366.321-.189.11-.406.538-.5,0-.092.331-.322.223-.417.428-.282.419-.446.529-1.011.209-.279.52-.59.52-.962.11-.1-.023-.5.194-.6.1-.657-.17-1.007-.17-1.665l-.212-.186c0-.283-.212-.473-.108-.751-.316-.285-.241-.377-.559-.657l-.185-.192h-.211c-.108-.186-.428-.281-.428-.471a7.285,7.285,0,0,1-1.273-.563l-.107.1-.108-.1c-.105.1-.105.1-.212.188,0-.283-.319,0-.426-.188-.211,0-.426-.1-.634.1-.639-.192-1.327.138-1.969-.143,0,.189-.425-.094-.425.189-.212.092-.521.082-.627.176h-.318a1.643,1.643,0,0,1-1.224.613c-.212,0,0,.279-.212.279h-.208a10.891,10.891,0,0,1-1.6,1.411c0,.094-.215.186-.108.378,0,.093-.107.093-.212.093a.471.471,0,0,1-.211.375c0,.093,0,.191.105.191,0,.093-.163.333-.265.333-.108.376-.108.753-.426.942,0,.75-.221,1.111-.271,1.935a10.952,10.952,0,0,1,.11,1.5c.33.2-.083.189.137.482.113,0,.051.171.051.271.111.2.464.335.351.533,0,.1.185.184.3.184.114.2-.16.416.062.513,0,.1.354.023.242.214Zm6.933-6.124c-.215.1,0,.3-.215.4l.108.1a3.878,3.878,0,0,1-1.719,2.683c-.105,0-.212,0-.212-.1,0-.2-.218-.494-.107-.695,0-.1-.111-.1-.218-.1.218-.2-.145-.4-.032-.7-.113,0-.113-.1-.113-.2.324-.2.059-.713.381-.908l-.1-.1a2.924,2.924,0,0,1,.485-.7v-.2a4.349,4.349,0,0,1,1.53-.768c.108,0,.215,0,.215.1C243.818,235.947,243.6,236.341,243.5,236.742Z" transform="translate(16.324 5.465)"/><path class="d" d="M257.115,235.782c.011.129.027.261.041.389.727.7.586,1.9,1.071,2.755-.235.3-.066.666-.169.942.14.117.14.117.288.231-.2.68.264,1.276.2,1.944l-.236.294c.011.124.032.257.158.24l-.114.145.139.115-.114.147c.127-.02.143.109.155.241-.23.288.2.633-.164.939a.455.455,0,0,1,.164.376c-.357.306-.136.866-.392,1.267l.136.123-.128.138-.136-.124c-.13.006-.127.14-.123.268.136.253.4.5.149.774l.134.125a1.623,1.623,0,0,0-.613.993l-.239.261a.435.435,0,0,1,.131.367c-.235.266-.355.519-.587.78,0,.128.131.372-.113.509l.125.12c-.118.255-.224.634-.342.891.12-.008.122.114.122.244-.355.267-.77.552-.637,1.045-.233.387-.536.518-.771.906.128.24-.428.355-.422.6s-.361.144-.235.384l.123.123-.238.013a.611.611,0,0,1-.357.392c0,.123.008.252-.116.257a4.642,4.642,0,0,0-.559.619c.123.12-.39.381-.271.385a.681.681,0,0,0-.286.485c-.122-.006-.242-.012-.256.112l.008.161c-.084.087-.108.084-.283.125-.949,1.077-2.333,1.5-3.288,2.576l-.758.337c-.259.112-.17.487-.4.352.012-.124-.324.108-.443.1-.268.236-.664.065-.914.05.014-.123-.13-.1-.242-.227l-.133.119c-.11-.131-.384-.384-.5-.392-.107-.129.133-.258.012-.264l.131-.12c.012-.123-.187-.153-.307-.159-.22-.264.242-.063.146-.322l-.474-.039c-.113-.244-.345-.255-.444-.507.026-.248.553-.242.577-.491.244.014.173-.028.429-.142l-.087-.174c.253-.118.218-.333.337-.325-.008.123.09-.017.211-.012s.242.012.256-.111a.471.471,0,0,1,.155-.369,2.162,2.162,0,0,0,.242.015,4.882,4.882,0,0,0,.735-.758c.008-.122.008-.122.02-.246.133-.12.152-.366.41-.48-.009.126-.027.247.1.255.39-.234.158-.369.06-.62.133-.12.133-.12.268-.234-.015.124.2.025.081.023-.012.121.127-.294.25-.287.3-.462.078.083.527-.766.092-.094.321-.181.342-.242-.029-.012.279-.124.17-.253-.012-.1.035-.14-.221-.026.146-.243.571-.609.593-.86.352.141.066-.417.313-.406-.133.117-.251-.123-.249,0l.4-.012c.268-.234-.372-.223-.133-.49-.008-.124-.041-.2-.16-.189-.006-.126-.038-.226.087-.233l.122.117c.121-.129-.113-.55.127-.69,0-.123-.006-.251-.006-.372.355-.268.193-.225.306-.606l-.122-.115c0,.122.262-.118.14-.114,0-.126,0-.126,0-.252.238-.133.408-.964.4-1.213.009.249-.282-.572-.035-.459.346-.522.113-1.215.166-1.853-.254-.094.2-.271.054-.508-.119.015-.241.031-.255-.092.111-.14.111-.14.214-.282-.012-.124-.024-.247-.145-.229-.011-.126-.021-.253.1-.265-.017-.128-.026-.251-.146-.234.107-.141.107-.141.217-.281-.017-.123-.136-.109-.253-.09.072-.517-.447-.889-.259-1.414-.117.015-.131-.108-.143-.234.321-.418-.117-.92.083-1.322-.252-.094-.158-.358-.184-.609.108-.138-.2-.264-.214-.386a8.744,8.744,0,0,1-.419-1.695c-.236.214-.407-1.735-.616-2.5-.316-.489-.107-1.041-.292-1.542.127-.017.259-.033.249-.16-.17-.375.206-.555.294-.962.264-.027.508-.192.791.035.25-.159.095-.405.083-.533.515-.064.905-.114,1.423-.177.017.13.027.259.161.24.384-.047.547.193.928.148.017.131.027.261.16.243a.678.678,0,0,1,.547.2c.125-.016.258-.029.244-.158l.143.109.116-.146a.459.459,0,0,0,.4.081c.146.113.184.5.434.342A32.224,32.224,0,0,1,257.115,235.782Z" transform="translate(21.188 5.518)"/><path class="d" d="M215.541,240.586c-.042-.207-.345-.268-.47-.271s-.36.258-.48.055a2.124,2.124,0,0,1-.456.512.753.753,0,0,1-.428.1c-.063.32-.1.353.185,1.1.123.025.262.74.4.768-.059-.277.369.59.508.714.089.019.089.019.178.042s.044.1.008.18l.389.275c.038.1.12.135.027.284a2.147,2.147,0,0,1,.738.306c.083.034.03.107-.017.18.075.037.163.071.214,0,.217,0,.065.216.095.322l.133-.034c.036.1.2.182.2.182.261.393,1.524.871,1.842,1.227l.122-.06c.1.2.658.243.655.51l.118-.072c.06.1.895.253,1.128.379.116-.072-.047-.2.075-.258.139.12.429.383.565.506a5.222,5.222,0,0,1,.618.087c.324.342,1,.128,1.387.307a.3.3,0,0,0,.226.143l.124-.064.051.1c.248-.123.383,0,.548-.15l.045.1.124-.063c.051.1.051.1.1.2.346.078.658.238,1.027.05a.267.267,0,0,0,.221.14c.127-.062.127-.062.252-.126.259.057.31.159.605.136l.051.1a1.291,1.291,0,0,1,.979-.054c.074-.159.259.06.333-.1l.048.1c.285-.208.726-.1,1.027-.111l.048.1c.127-.061.081.006.081.006.245-.117.855-.126,1.021-.263a1.311,1.311,0,0,0,.8.093c.095.022.291.064.386.1a.9.9,0,0,1,1.045-.06,5.919,5.919,0,0,0,1.318-.544c.093.029.193.055.289.084.14-.051.235-.024.33-.177a4.606,4.606,0,0,0,1.118-.551c.048.108.286-.1.334.007l.095-.155c.19.056.333-.177.521-.123.051-.075.051-.075.1-.152.285-.1.176-.174.458-.268.247-.168.587-.736,1.151-.984-.017-.183.354-.281.435-.446.042-.08.139-.06.238-.039l-.06-.1c.137-.059.1-.328.227-.209.036-.081.2-.294.119-.31.273-.211.27-.906.669-1,.038-.078.038-.078.074-.16.16-.21.095-.612.185-.662.035-.079-.011-.136.077-.117.1-.318.176-.805.271-1.233-.08-.02-.045-.1-.014-.18.081.016.119-.066.155-.145-.081-.02-.045-.1-.009-.185l.114-.062c-.163-.039.029-.259-.142-.3l.113-.069c-.142-.387.063-.788-.074-1.175l.105-.064a.509.509,0,0,1,0-.686.316.316,0,0,1,0-.272c-.221-.136.051-.282-.089-.4.081-.248-.194-.492-.029-.723-.111-.2-.13-.288-.25-.487.024-.087.047-.171.072-.257-.084-.015-.169-.031-.148-.114.133-.154-.011-.272.039-.439-.169-.033-.08-.179-.14-.276a2.354,2.354,0,0,0-.441-1.185c.111-.168-.117-.831-.108-1.041l-.163-.084a.751.751,0,0,0-.307-.435c0-.1,0-.1.015-.205-.084-.006-.17-.008-.163-.115a1.548,1.548,0,0,0,.012-.206l-.089.1a.6.6,0,0,1-.217-.532c-.307-.434-.422-.743-.862-1.367-.173.1,0-.326-.211-.229a2.419,2.419,0,0,0-.741-.99c.014-.1.014-.1.021-.21-.095,0-.095,0-.191,0s-.086-.105-.075-.212c-.55-.333-2.493-.6-2.791-1.138-.166-.008-.333-.116-.434.093-.075-.111-.075-.111-.154-.217-.453.3-.834-.237-1.256-.356l-.092.1c-.145-.32-.426-.015-.6-.018a.267.267,0,0,0-.25-.113c-.447.2-.852-.028-1.24.488l-.075-.108.971,1.8a7.5,7.5,0,0,0,.5,1.778c.09.019.2.22.261.336-.021.1-.021.1-.044.2.131.237.258.467.387.7-.086-.016-.11.08-.131.18.1.333.1.689.2,1.012.136.12-.023.191.128.344.017.015-.087.212-.068.222a.5.5,0,0,0,.042.358c.047.36.029.073.28.328-.23.277.16.726-.075,1,.13.128.13-.056.173.048-.044.072-.044.072-.083.145s.039.1.119.134c.08.2-.066.327.041.517.086.02.008.27.089.289.026.18.259.239.033.365-.077-.019-.033.345-.119.588a1.514,1.514,0,0,1-.024.6c.081.016.14-.081.108,0l-.054.159c.081.018.071.168.042.249,0,.258-.17.392-.261.633-.09.525.184.954-.173,1.139.128.114-.029.257-.068.336-.117.059-.089.314-.2.377-.134.319-.2.3-.33.622-.218.125-.252.265-.467.391a1.614,1.614,0,0,1-.069.158c-.03.08-.108.063-.179.047-.143.143-.636.369-.7.527l.039.1a3.348,3.348,0,0,0-.7.332c-.325.192-.565.192-.9.365-.294-.081-.545.135-.84.051-.11.058-.223.117-.334.172-.146-.041-.369.075-.479-.042-.146-.042-.113.234-.262.194a1.314,1.314,0,0,0-.148-.041l-.033-.1c-.224.115-.4-.019-.628.09l-.038-.093c-.221.112-.41-.012-.551.132a1.7,1.7,0,0,0-.928-.1c.032-.086-.045-.1-.119-.113l-.107.069c.03-.08-.631-.033-.7-.044l-.151-.027-.05-.1-.1.066c-.12-.107-.913-.186-1.1-.391-.151.143-.3.079-.468.045a7.85,7.85,0,0,1-1.663-.378l-.051-.1a.671.671,0,0,1-.768-.211,2.624,2.624,0,0,1-.288-.054c-.09-.207-.652-.165-.723-.38a2.675,2.675,0,0,1-.4-.336c-.185.112-.648-.437-.732-.469l-.307-.012-.108-.333-.417-.306C215.767,240.605,215.6,240.85,215.541,240.586Z" transform="translate(5.462 3.029)"/><path class="d" d="M220.211,230.044l.345.018c.547.561,1.631.4,2.345.754.288-.2.6-.081.859-.177.087.113.087.113.175.222.628-.184.965.132,1.566.089.146-.092.146-.092.294-.187.114.01.226.03.194.13l.145-.093.078.12.149-.093c-.036.1.078.118.191.129.289-.184.467.063.8-.213a.382.382,0,0,0,.3.155c.331-.277.45.015.86-.118l.071.128.149-.081-.065-.13c.038-.1.146-.075.258-.05.179.152.3.378.616.234l.06.128c.191-.13-1.3-.2,1.026-.276l.3-.131a.353.353,0,0,0,.267.178c.3-.132.547-.171.843-.3.1.03.268.178.459.021l.059.12c.251-.036.607-.048.855-.084-.041.094-.169-.129-.068-.087.354-.175.744-.39,1.08-.129.4-.039.566-.238.967-.267.133.188.452-.18.642-.079s.194-.168.319.023l.032.136c.063-.084.063-.084.119-.168a.545.545,0,0,0,.455-.095c.092.053.182.108.244.021a4.846,4.846,0,0,1,.711-.15c.032.141.247-.065.193.018a.611.611,0,0,1,.485.044c.056-.084.116-.169.209-.117l.11.084c.1-.016.11-.033.236-.127,1.24-.114,1.932-.716,3.163-.716l.648-.291c.214-.1.408.166.45-.059-.086-.059.254-.144.319-.222.3-.035.488-.556.611-.721-.089-.06,0-.14-.024-.282l.149-.027a2.686,2.686,0,0,1,0-.816c-.026-.141-.239-.053-.181-.135l-.056-.1c-.084-.06.03-.211.089-.291-.059-.285-.318.036-.441-.165l.224-.334c-.1-.2-.56-.32-.737-.439-.125.168-.111.1-.322.208l-.077-.155c-.214.111-.334-.027-.4.054.089.057-.06.049-.117.131s-.124.168-.212.111a.424.424,0,0,0-.33-.092c-.06.084-.06.084-.121.163a4.793,4.793,0,0,1-2.084-.051c-.152.036-.152.036-.3.077.095.048-.077.156-.021.069.095.05-.273-.049-.325.044-.476-.006-1.532.1-1.327-.022-.242-.012-.717.117-.908.018-.068.312-.4-.174-.506,0,.151-.043-.187-.063-.089-.018l.011.126c-.3.087-.321-.189-.617-.084-.1-.042-.143-.092-.095-.18-.1-.039-.167-.1-.217,0l.05.131c-.151.053-.405-.249-.6-.111-.1-.039-.2-.078-.3-.12a2.421,2.421,0,0,1-1.074.216l-.066-.12c.105.022-.173.188-.133.093-.1-.024-.1-.024-.209-.045a2.089,2.089,0,0,1-1.146.117c.212.046-.423-.369-.386-.153-.535.207-1.142-.1-1.708-.109-.038-.214-.274.143-.452.006.035-.1.065-.192-.035-.212-.142.077-.246.044-.387.125-.105-.009-.214-.025-.184-.118-.1-.017-.217-.029-.249.067-.107-.016-.211-.027-.182-.125-.139.084-.28.189-.416.276-.108-.008-.078-.109-.054-.206-.461.063-.729-.354-1.217-.192.026-.1-.08-.1-.191-.115-.408.267-.988-.025-1.362.166-.066-.2-.31-.1-.529-.106-.133.1-.22-.149-.328-.153a7.823,7.823,0,0,0-1.477-.22c.211-.209-1.512-.217-2.173-.336-.413-.222-.919-.015-1.352-.129-.024.107-.051.212-.164.212-.319-.114-.506.207-.877.307-.048.213-.285.316-.221.5-.158.215-.178.249-.292.246-.1.426-.169.382-.282.81.113.006.229.009.2.116-.084.319.111.441.029.756.116.006.232.01.2.119a.447.447,0,0,0,.117.436c-.03.106-.057.212-.169.207l.083.109-.142.1a.32.32,0,0,1,.029.324c.087.111.431.126.261.336A22.751,22.751,0,0,0,220.211,230.044Z" transform="translate(7.308 1.583)"/></g></svg>