<svg xmlns="http://www.w3.org/2000/svg" width="76" height="85" viewBox="0 0 76 85"><defs><style>.a{fill:#8fba1e;}.b{fill:#d1091e;}.c{fill:#003d7c;}.d{fill:#0080c8;}.e{fill:#fab900;}</style></defs><g transform="translate(-16.455 -168.11)"><path class="a" d="M75.549,168.11a91.108,91.108,0,0,1-43.757,23.783c0,14.5-2.469,25.222-6.04,33.153C63.336,205.771,75.549,168.11,75.549,168.11Z" transform="translate(16.906 0)"/><path class="b" d="M70.6,187.678a97.938,97.938,0,0,1-42.2,27.379h0a26.6,26.6,0,0,1-11.939,4.562l6.384,5.959c30.439-5.216,47.612-23.913,57.283-42.449C76.937,184.785,73.726,186.3,70.6,187.678Z" transform="translate(0 27.533)"/><path class="c" d="M45.189,197.454a112.555,112.555,0,0,0,8.613-22.14A113.61,113.61,0,0,1,35.665,202C38.794,200.63,42,199.111,45.189,197.454Z" transform="translate(34.933 13.207)"/><path class="d" d="M71.828,188.521a108.215,108.215,0,0,0,3.72-20.411s-12.212,37.661-49.8,56.936h0a199.324,199.324,0,0,0,27.939-9.835A113.61,113.61,0,0,0,71.828,188.521Z" transform="translate(16.906 0)"/><path class="e" d="M62.895,184.734a199.324,199.324,0,0,1-27.939,9.835c-4.011,8.928-9.419,14.311-14.264,17.544h0A97.938,97.938,0,0,0,62.895,184.734Z" transform="translate(7.703 30.477)"/></g></svg>