<svg xmlns="http://www.w3.org/2000/svg" width="72" height="73" viewBox="0 0 72 73"><defs><style>.a{fill:#ec6d05;}.b{fill:#0066b1;}.c{fill:#00884b;}.d{fill:#ffd600;}</style></defs><g transform="translate(-349.984 -172.514)"><g transform="translate(349.984 181.505)"><path class="a" d="M375.729,184.281a9.34,9.34,0,1,0-9.341,9.376A9.368,9.368,0,0,0,375.729,184.281Z" transform="translate(-330.467 -174.893)"/><path class="b" d="M398.275,197.88s-8.739.79-19.736-6.542c-6.463-4.308-8.63-5.6-9.981-6.349a14.46,14.46,0,0,0-7.69-1.893,8.663,8.663,0,0,0-8.484,8.518,8.475,8.475,0,0,0,16.813,1.565l.064-.242a.589.589,0,0,1,.576-.484c.421.019.986.635,2.464,1.776h0l1.471,1.19c11.986,10.045,21.647,11.232,23.559,11.485a35.71,35.71,0,0,0,18.025-2.4V189.841C412.868,193.345,405.524,197.6,398.275,197.88Z" transform="translate(-343.355 -152.143)"/><path class="c" d="M413.241,180.72a.546.546,0,0,0-.448-.431c-.173-.011-.346-.019-.53-.023-4.688-.064-9.6-.072-13.183,3.526A14.145,14.145,0,0,0,395,192.64v.011a.547.547,0,0,0,.32.5h0a8,8,0,0,0,10.335-2.925.6.6,0,0,1,.7-.193.566.566,0,0,1,.293.688,2.45,2.45,0,0,1-.293.6c-1.772,2.638-3.559,3.976-6.1,4.376a9.4,9.4,0,0,1-1.324.1,11.384,11.384,0,0,1-5.3-1.455,50.335,50.335,0,0,1-7.381-4.822c-8.589-6.973-15.88-8.19-16.121-8.231-8.277-1.636-14.781.057-20.15,3.371v5.329c4.883-4.225,11.268-6.693,19.657-5.321,0,0,6.749.771,14.947,6.98,7.114,5.548,11.313,6.493,11.313,6.493a13.809,13.809,0,0,0,13.694-3.621c3.578-3.6,3.736-8.617,3.672-13.235C413.267,181.083,413.252,180.9,413.241,180.72Z" transform="translate(-349.984 -159.999)"/></g><path class="d" d="M367.5,212.457a14.46,14.46,0,0,1,7.69,1.893c1.351.748,3.518,2.041,9.981,6.349,11,7.332,19.736,6.542,19.736,6.542,7.25-.283,14.593-4.535,17.08-8.038V172.514h-72v33.643c5.368-3.314,11.873-5.008,20.15-3.371.241.042,7.532,1.258,16.121,8.231a50.337,50.337,0,0,0,7.381,4.822,11.384,11.384,0,0,0,5.3,1.455,9.4,9.4,0,0,0,1.324-.1c2.543-.4,4.33-1.739,6.1-4.376a2.45,2.45,0,0,0,.293-.6.566.566,0,0,0-.293-.688.6.6,0,0,0-.7.193,8,8,0,0,1-10.335,2.925h0a.547.547,0,0,1-.32-.5v-.011a14.145,14.145,0,0,1,4.078-8.847c3.582-3.6,8.495-3.59,13.183-3.526.184,0,.357.011.53.023a.546.546,0,0,1,.448.431c.011.181.026.363.026.556.064,4.618-.094,9.637-3.672,13.235a13.809,13.809,0,0,1-13.694,3.621s-4.2-.945-11.313-6.493c-8.2-6.209-14.947-6.98-14.947-6.98-8.39-1.372-14.774,1.1-19.657,5.321v34.028h72V233.87a35.71,35.71,0,0,1-18.025,2.4c-1.911-.253-11.572-1.44-23.559-11.485l-1.471-1.19c-1.479-1.141-2.043-1.757-2.464-1.776a.589.589,0,0,0-.576.484l-.064.242a8.475,8.475,0,0,1-16.813-1.565A8.663,8.663,0,0,1,367.5,212.457Zm18.408-12.188a9.382,9.382,0,1,1,9.341-9.376A9.367,9.367,0,0,1,385.905,200.269Z" transform="translate(0 0)"/></g></svg>