<svg xmlns="http://www.w3.org/2000/svg" xmlns:xlink="http://www.w3.org/1999/xlink" width="189.228" height="33.315" viewBox="0 0 189.228 33.315"><defs><style>.a{fill:none;}.b{fill:#464749;}.c{clip-path:url(#a);}.d{fill:url(#b);}.e{clip-path:url(#c);}.f{fill:url(#d);}.g{clip-path:url(#e);}.h{fill:url(#f);}.i{clip-path:url(#g);}.j{fill:url(#h);}.k{fill:#00367c;}.l{fill:#002c52;}.m{fill:#e5002b;}</style><clipPath id="a"><path class="a" d="M295.036,185.268h9.423c12.66-5.905,24.847-15.019,37.551-11.356a34.888,34.888,0,0,0-9.736-1.416c-13.989,0-24.676,8.813-37.238,12.772"/></clipPath><linearGradient id="b" x1="-5.978" y1="6.46" x2="-5.966" y2="6.46" gradientUnits="objectBoundingBox"><stop offset="0" stop-color="#439ad0"/><stop offset="1" stop-color="#003772"/></linearGradient><clipPath id="c"><path class="a" d="M317.706,185.268h8.99c5.355-4.745,9.176-10.523,15.314-11.356q-.8-.077-1.572-.076c-8.374,0-14.533,6.54-22.732,11.431"/></clipPath><linearGradient id="d" x1="-11.893" y1="9.843" x2="-11.87" y2="9.843" xlink:href="#b"/><clipPath id="e"><path class="a" d="M339.994,177.425q-.255.509-.511,1.04c-.256.532-.512,1.079-.767,1.636-.171.371-.342.747-.511,1.124s-.342.757-.511,1.137c-.342.76-.684,1.522-1.024,2.271-.256.561-.512,1.115-.768,1.653q-.258.545-.517,1.068v16.809h6.654c0-3.7,0-5.434,0-9.13V173.913a26.882,26.882,0,0,0-2.048,3.513"/></clipPath><linearGradient id="f" x1="-50.416" y1="6.15" x2="-50.326" y2="6.15" xlink:href="#b"/><clipPath id="g"><path class="a" d="M304.7,175.845c-12.445,3.592-24.89,7.184-37.335,1.921v.038a51.646,51.646,0,0,0,8.187,4.808c9.916,1.373,19.833-1.936,29.748-5.245,12.236-4.084,24.47-8.167,36.705-3.454a34.261,34.261,0,0,0-13.528-2.643c-7.926,0-15.852,2.287-23.778,4.575"/></clipPath><linearGradient id="h" x1="-3.555" y1="5.092" x2="-3.547" y2="5.092" xlink:href="#b"/></defs><g transform="matrix(1, 0, 0, 1, -152.813, -171.269)"><path class="b" d="M251.707,175.177c.492,1.122,2.182,1.915,3.482,2.1l.544-1.009c-1.394-.082-3.359-1.06-3.359-2.522v-.288h-1.321v.288c0,1.462-1.731,2.357-3.359,2.522l.532,1c1.4-.2,2.991-.968,3.482-2.09m4.374,3.859v-1.008h-3.749V176.71h-1.27v1.318h-3.748v1.008Zm-7.733.741V180.8h5.336v2.254h1.269v-3.273Zm-14.113-4.8h1.946a3.221,3.221,0,0,1-2.346,2.943l.758,1a3.776,3.776,0,0,0,2.253-2.192,4.217,4.217,0,0,0,2.109,1.945l.708-1.009a3.04,3.04,0,0,1-2.172-2.686h1.864v-1.019h-5.121Zm1.015,4.456v1.009h5.294v2.593h1.29v-3.6Zm6.575-6.155h-1.281v5.671h1.281Zm-16.827,7c1.29,0,2.018.36,2.018.875s-.727.864-2.018.864c-1.27,0-2.018-.35-2.018-.864s.748-.875,2.018-.875m.584-4.663h1.444v.988h-1.444v1.05h1.444v1.534h1.27v-5.918h-1.27v1.3h-1.444Zm-.379,1.956a13.845,13.845,0,0,1-2.919.216H221.9v-1.1h3v-2.872h-4.281v1.009h2.99v.9h-2.99v3.066c.421.011.83.011,1.25.011a17.932,17.932,0,0,0,3.5-.257Zm3.123,3.582c0-1.142-1.229-1.883-3.328-1.883s-3.329.741-3.329,1.883c0,1.163,1.22,1.883,3.329,1.883s3.328-.72,3.328-1.883m-13.815-3.479v-1h-5.326v-.536H214.1v-.967h-4.916v-.545h5.244v-1h-6.513v4.045h2.57v.628h-3.728v1.029h8.767v-1.029h-3.768v-.628Zm.02,3.736c0-1.009-1.034-1.719-3.389-1.719s-3.38.71-3.38,1.719,1.034,1.719,3.39,1.719,3.379-.72,3.379-1.719m-1.311,0c0,.442-.8.7-2.079.7-1.26,0-2.069-.257-2.069-.7s.809-.72,2.069-.72c1.28,0,2.079.268,2.079.72M194.8,175.444c.809,0,1.6.01,2.4.01v-1.019h-3.666v6.289h.922a15.79,15.79,0,0,0,3.278-.268l-.123-1.009a11.806,11.806,0,0,1-2.806.227Zm6.7,7.585v-9.757h-1.219v3.849h-.86v-3.674h-1.2v9.129h1.2v-4.436h.86v4.889Z"/><g class="c"><rect class="d" width="49.253" height="30.259" transform="translate(290.233 172.006) rotate(-20)"/></g><g class="e"><rect class="f" width="26.729" height="19.096" transform="matrix(0.94, -0.342, 0.342, 0.94, 314.05, 175.174)"/></g><g class="g"><rect class="h" width="6.659" height="30.251" transform="translate(335.383 173.913)"/></g><g class="i"><rect class="j" width="75.171" height="39.548" transform="matrix(0.94, -0.342, 0.342, 0.94, 262.64, 170.93)"/></g><path class="k" d="M267.369,177.8v7.464h8.187v-2.656a51.6,51.6,0,0,1-8.187-4.807"/><path class="l" d="M178.4,187.167a5.959,5.959,0,0,0-8.5,1.792,5.969,5.969,0,0,1-10.812-1.653h0l-.019-.063-.019-.076a7.725,7.725,0,0,1-.306-2.388c0-5.387,5.5-11.386,13.422-11.386a15.115,15.115,0,0,1,13.949,9.656c-.017-.059-.035-.12-.06-.184a17.071,17.071,0,0,0-33.24,5.571c0,8.474,6.079,15.727,14.517,15.727a13.721,13.721,0,0,0,13.325-9.017,6.638,6.638,0,0,0-2.253-7.98"/><path class="m" d="M186.219,183.386a15.073,15.073,0,0,0-14.058-9.992c-7.922,0-13.422,6-13.422,11.385a7.709,7.709,0,0,0,.306,2.389,5.089,5.089,0,0,1-.159-1.223c0-5.612,5.591-9.5,11.338-9.5A14.118,14.118,0,0,1,184.311,190.6a15.616,15.616,0,0,1-8.608,13.979v.005a17.228,17.228,0,0,0,10.516-21.2"/><path class="b" d="M193.434,189.671v-2.05h14.184a1.3,1.3,0,0,1,.9.235,1.455,1.455,0,0,1,.249.986v4.679h1.126v2.07h-7.483v1.954h5.211a1.2,1.2,0,0,1,.9.217,1.455,1.455,0,0,1,.249.986v5.138H206.5v-4.253H193.434v-2.088h6.687v-1.954h-6.643v-2.07H206.5v-3.85Z"/><path class="b" d="M227.315,187.634v2.088h-1.868v14.413h-2.288l.01-15.1a1.572,1.572,0,0,1,.279-1.154,1.422,1.422,0,0,1,.96-.246Z"/><path class="b" d="M219.907,187.734h-9.979v2.088h8.808v14.312H221V189.017a1.38,1.38,0,0,0-.272-.9,1.164,1.164,0,0,0-.825-.388"/><path class="b" d="M235.549,195.9l-7.206.02V194h16.414v1.916h-6.882v.977h5.259a1.294,1.294,0,0,1,.9.3c.293.293.261,1.091.261,1.091v3.059h-13.23v.881H244.3v1.916H230.547s-1.107.027-1.42-.287a1.752,1.752,0,0,1-.327-1.176v-3.116h13.23v-.747H228.8v-1.916h6.768Z"/><path class="b" d="M242.03,191.223H231.069v-1.686H242.03Zm1.321-3.6h-13.6a.952.952,0,0,0-.948.952v3.614a.953.953,0,0,0,.948.952h13.6a.952.952,0,0,0,.947-.952v-3.614a.951.951,0,0,0-.947-.952"/><path class="b" d="M263.684,187.623v2.069h-1.868v7.767H246.107v-2.088h3.532v-2.51h2.268v2.51h3.331v-5.661H246.3v-2.069h10.034a1.485,1.485,0,0,1,.931.27,1.7,1.7,0,0,1,.264,1.008v6.453h2V188.92a1.549,1.549,0,0,1,.255-1.064,1.251,1.251,0,0,1,.891-.234Z"/><path class="b" d="M248.566,202.058H262.1v2.069H247.567a1.534,1.534,0,0,1-1-.364,1.758,1.758,0,0,1-.267-1.113v-4.213h2.269Z"/><path class="b" d="M275.341,187.919c.313.315.218,1.092.218,1.092v7.51H266.77v5.428h8.789v2.088H265.422a.927.927,0,0,1-.682-.259,1.285,1.285,0,0,1-.239-.854V194.47h8.771v-4.753H264.5v-2.088h9.943a1.221,1.221,0,0,1,.9.29"/><rect class="b" width="2.268" height="16.514" transform="translate(277.732 187.621)"/><path class="b" d="M289.575,197.49h5.031v-9.961h2.268v16.636h-2.268v-4.605h-6.5v4.605h-2.286v-4.605h-4.63V197.49h8.384Z"/><path class="b" d="M287.484,193.8a2.247,2.247,0,1,1,2.237-2.248,2.244,2.244,0,0,1-2.237,2.248m0-6.667a4.419,4.419,0,1,0,4.4,4.419,4.409,4.409,0,0,0-4.4-4.419"/><path class="b" d="M311.761,187.62v9.121H298.34v1.974h3.851v2.672h2.288v-2.672h7.282v.728h-5.833v1.934h5.833v.7H300.8v-2.635h-2.287v3.485a.984.984,0,0,0,1.178,1.219h14.34V187.62Z"/><path class="b" d="M303.891,193.8a2.248,2.248,0,1,1,2.237-2.248,2.245,2.245,0,0,1-2.237,2.248m0-6.669a4.422,4.422,0,1,0,4.4,4.421,4.41,4.41,0,0,0-4.4-4.421"/><path class="b" d="M319.253,196.811a2.237,2.237,0,1,1,2.237,2.248,2.245,2.245,0,0,1-2.237-2.248m9.589-9.19V202.1H322.76v-1.055a4.4,4.4,0,1,0-2.268.07v.985h-5.034v2.051h15.67V187.621Z"/><path class="b" d="M322.445,190.082v-2.546h-1.91v2.546h-4.878V192h11.665v-1.919Z"/></g></svg>