<svg xmlns="http://www.w3.org/2000/svg" xmlns:xlink="http://www.w3.org/1999/xlink" width="384" height="204" viewBox="0 0 384 204"><defs><style>.a,.d,.f,.g,.i,.k,.n,.p,.q{fill:none;}.b{fill:#c7d8f2;}.b,.f,.g,.k,.l{stroke:#fff;}.b,.l{stroke-linejoin:round;}.c{fill:#888;font-family:NotoSansCJKkr-Regular, Noto Sans CJK KR;}.c,.m{font-size:15.002px;letter-spacing:-0.03em;}.d,.i{stroke:#ddd;}.d,.f,.i,.k,.p{stroke-linecap:square;}.d,.f{stroke-dasharray:3 2;}.e{clip-path:url(#a);}.g,.q{stroke-width:2px;}.h{fill:#bbb;}.i,.k{stroke-dasharray:2 3;}.j{clip-path:url(#b);}.l,.r{fill:#2a6af2;}.m{fill:#2b6bf3;font-family:NotoSansCJKkr-Medium, Noto Sans CJK KR;font-weight:500;}.n{stroke:#2a6af2;}.o{clip-path:url(#c);}.p,.q{stroke:#c7d8f2;}.s{clip-path:url(#d);}.t{stroke:none;}</style><clipPath id="a"><path class="a" d="M1019.031,371.734c2.129,0,7.451,2.057,9.58-1.028s0-7.2,4.258-7.2,5.322,1.028,5.322,1.028,4.258,0,4.258-2.057,1.065-3.084,2.129-5.141,2.129-4.112,4.258-2.056a53.328,53.328,0,0,0,7.451,5.141,4.181,4.181,0,0,0,3.39-2.228c-.142-.226-.262-.415-.313-.506-.111-.2-.8-5.513-1.006-5.807-.336-.488-4.3-4.464-5.085-6.066s-2.682-5.963-3.185-6.627-6.7-9.884-7.208-10.492a96.233,96.233,0,0,1-5.587-8.063,43.329,43.329,0,0,1-1.677-5.8,3.3,3.3,0,0,0-.615-1.989c-.559-.663-4.013-8.68-4.013-8.68s-1.314-6.465-3.443-4.408c-1.065,1.028-1.065,1.028-2.129,3.084s-1.051,5.618-3.194,6.169c-5.085,1.311-10.11,1.747-14.988-.18-2.211-.873-4.542-2.89-6.609-1.721-.715.4-1.191,1.129-1.876,1.58-2.492,1.641-5.794-1.07-8.735-.511a5.81,5.81,0,0,0-1.818.733c-.322.187-.636.389-.946.59l-8.03,5.219a1.594,1.594,0,0,0-.826.933c-.1.583.448,1.053.712,1.585.823,1.658-1.184,3.263-2.88,4.039s-3.736,2.3-3,4c.256.586.842,1.182.555,1.756a1.274,1.274,0,0,1-.749.539,7.366,7.366,0,0,1-3.492.388,7.165,7.165,0,0,1-1.153-.246c-1.034-.312-1.994-.851-3.049-1.092a7.306,7.306,0,0,0-5.806,1.453A10.017,10.017,0,0,0,956,333.022a5.757,5.757,0,0,1,2.328.665c1.116.772,3.907,1.1,3.8,2.427s-2.01,4.082-.893,4.082,3.684,2.1,5.246,2.206,6.251-.882,6.809,0,1.339,1.765.447,2.649-2.456,1.875-2.01,2.537a8.332,8.332,0,0,0,1.226,1.034c2.018,1.531,5.753,4.121,5.583,4.371-.223.331-7.814-.661-9.488,0s-4.354.884-3.907,1.655,3.348,3.972,4.13,3.972,3.907-1.1,4.13,0-.112,2.869,1.005,2.647,4.811-1.876,4.136-1.323a1.125,1.125,0,0,0,.081,1.985c.877.633,2.827,2.659,2.71,3.321a17.622,17.622,0,0,0,5.769,1.341c3.193,0,5.322-3.084,7.451-2.056s2.129,3.084,3.194,2.056,0-5.141,3.193-4.113,7.451,5.141,6.387,9.254-4.258,2.057-3.194,5.141,6.387,3.085,8.516,5.141l.955.923a15.055,15.055,0,0,0,1.174-5.036C1014.773,374.819,1016.9,371.734,1019.031,371.734Z" transform="translate(-1026.885 -313.356)"/></clipPath><clipPath id="b"><path class="a" d="M971.134,417.841c1.064,4.113,2.129,5.141,4.258,5.141s2.129-5.141,4.258-5.141,5.322,1.029,4.258-2.056,1.064-3.085,1.064-3.085a11.306,11.306,0,0,0,4.258,1.029c2.129,0,1.064-4.113,1.064-4.113l2.129-3.085s1.065,0,4.258-2.056,4.258,4.113,4.258,4.113,1.064,0,2.129,2.056,3.193-1.028,3.193-1.028a4.953,4.953,0,0,1,1.065-3.085c1.064-1.028,9.58-4.112,7.451-6.169a3.537,3.537,0,0,1-1.064-4.113,31.244,31.244,0,0,0,5.322-7.2c2.129-4.113-3.194-7.2-3.194-7.2l-3.193-3.085c-2.129-2.056-7.451-2.056-8.516-5.141s2.129-1.028,3.194-5.141-3.194-8.225-6.387-9.254-2.129,3.085-3.193,4.113-1.065-1.028-3.194-2.056-4.258,2.056-7.451,2.056a17.622,17.622,0,0,1-5.769-1.341c-.005.031.008.074-.006.1a5.708,5.708,0,0,0-.445,1.322l-.225,1.033s-2.791-1.915-4.131-2.024-4.019-.111-4.242-.552a3.739,3.739,0,0,0-2.79-1.323c-.893.22-.67-.331-.893.22s.335,1.434.335,1.434-6.028-.551-6.921-.11-2.009,3.641-2.68,4.192-3.348,3.53-3.46,4.3,2.678,5.34,3.46,4.876a3.434,3.434,0,0,1,2.232,0,25.062,25.062,0,0,0,1.34,3.067c.446.661-.112,2.206.334,2.868s1.117,3.449,2.01,4.152a4.244,4.244,0,0,0,2.344.686c.111.016.782-2.521.446-3.073s-3.237-6.177-2.344-6.84,3.014-1.83,3.126-.86,1.229,1.963.67,2.294a8.412,8.412,0,0,0-1.451,1.434s2.01,2.758,1.786,4.082.334,4.854.334,6.288.224,3.641-.446,4.082-2.01,1.868-1.675,1.817,1.117,1.713,1.786,1.6a8.742,8.742,0,0,1,1.785,0s1.9.878,1.675,1.761a21.508,21.508,0,0,0-.791,3.5.827.827,0,0,0,.121.584c.447.442.558,1.307.893,2.033A22.569,22.569,0,0,0,975.745,408c.224.22-4.353,2.345-6.028,3.6s-4.019,2.689-3.573,3.24c.378.465,1.07,2.479,1.546,2.974C969.2,417.22,970.672,416.948,971.134,417.841Z" transform="translate(-53.892 521.889)"/></clipPath><clipPath id="c"><path class="a" d="M1065.423,397.428c-.056-.387-2.738-.166-2.905-.166s-1.9,1.987-2.292,1.987-1.565-1.16-1.565-1.16,2.124-1.767,1.9-2.209a23.658,23.658,0,0,1-1.789-4.307c-.334-1.491,1.229-9.057,1.453-10s-1.062-5.688-1.118-6.074,1.509-3.148,1.733-3.7.279-2.817.391-3.314-1.956-3.369-2.4-4.2,1.23-3.313.839-4.694a23.031,23.031,0,0,0-2.313-4.243,4.181,4.181,0,0,1-3.39,2.228,53.323,53.323,0,0,1-7.451-5.141c-2.129-2.056-3.194,0-4.258,2.056s-2.129,3.085-2.129,5.141-4.258,2.057-4.258,2.057-1.064-1.028-5.322-1.028-2.129,4.112-4.258,7.2-7.451,1.028-9.58,1.028-4.258,3.085-4.258,6.169a15.055,15.055,0,0,1-1.174,5.036l2.238,2.162s5.323,3.084,3.194,7.2a31.244,31.244,0,0,1-5.322,7.2,3.537,3.537,0,0,0,1.064,4.113c2.129,2.057-6.387,5.141-7.451,6.169a4.953,4.953,0,0,0-1.065,3.085,6.064,6.064,0,0,1-1.476,1.477c.384,1.954.583,4.527-.653,5.72a17.787,17.787,0,0,0-3.193,4.113l2.129,4.113s1.064-2.057,3.193,0a41.483,41.483,0,0,0,5.323,4.113,5.047,5.047,0,0,1,1.064,5.141c-1.064,3.084-3.193,3.084-3.193,4.112s-1.065,1.028,0,4.113a25.62,25.62,0,0,1,1,6.234c.113.663.267,1.442.754,1.5.894.111,2.348.773,2.85.387a4.475,4.475,0,0,1,1.284-.607,7.114,7.114,0,0,0,1.341.773,15.49,15.49,0,0,0,1.787-.663s.335-7.345.615-7.289,2.571,1.1,3.017,1.16,3.018-.276,3.633.166,2.793,3.754,3.129,3.754,1.564.056,1.452.332-.67,3.754.391,3.754a8.175,8.175,0,0,0,2.571-.22c.056-.166.781-3.756.781-3.756s2.292,2.6,3.3,2.374a13.542,13.542,0,0,0,2.571-1.049s.95-6.461.95-6.681-4.023-3.148-4.414-2.983-1.174,1.916-1.453,2.035a20.085,20.085,0,0,1-3.017-.379l-.335-1.546s2.961-1.878,3.24-2.153a25.2,25.2,0,0,1,3.073-1.05c.391-.166,3.744-.22,3.911-.276s0,1.547,0,1.823,1.286,1.436,1.509,1.491,1.509-1.049,1.621-1.16.782-2.651.782-2.651,1.565,1.988,1.956,2.32,1.453-.221,1.787-.276,7.1-5.743,7.6-6.792a40.908,40.908,0,0,0,1.565-3.976c0-.166,3.24-2.983,3.129-3.59s-1.117-3.369-.727-3.369,2.347-.5,2.236-.718,2.123-11.43,2.57-13.087,1.565-5.579,1.844-6.02S1065.479,397.815,1065.423,397.428Z" transform="translate(-953.672 -368.936)"/></clipPath><clipPath id="d"><path class="a" d="M1009.663,436.087c0-1.028,2.129-1.028,3.193-4.112a5.046,5.046,0,0,0-1.064-5.141,41.477,41.477,0,0,1-5.323-4.113c-2.129-2.057-3.193,0-3.193,0l-2.129-4.113a17.786,17.786,0,0,1,3.193-4.113c1.236-1.193,1.037-3.766.653-5.72a1.072,1.072,0,0,1-1.717-.449c-1.065-2.056-2.129-2.056-2.129-2.056s-1.064-6.169-4.258-4.113-4.258,2.056-4.258,2.056L990.5,407.3s1.065,4.113-1.064,4.113a11.306,11.306,0,0,1-4.258-1.029s-2.129,0-1.064,3.085-2.129,2.056-4.258,2.056-2.129,5.141-4.258,5.141-3.194-1.028-4.258-5.141c-.463-.893-1.931-.621-3.444-.027.089.092.171.137.24.1a3.69,3.69,0,0,1,1.563.012,22.615,22.615,0,0,0-2.874,2.119,5.045,5.045,0,0,0-1.062,3.092c.112.662.168,2.1-.224,2.374a7.691,7.691,0,0,0-1.116,1.026,1.712,1.712,0,0,0-.449.741c-.056.5.224,2.209.168,2.429s1.844,3.092,1.286,3.479a1.513,1.513,0,0,1-1.4,0c-.224-.055-2.011-.718-2.346-.442a6.541,6.541,0,0,1-1.4.626,15.232,15.232,0,0,0-3.185-.9c-.671.056-3.185.773-3.688,1.381s-1.509,1.6-1.285,1.877,1.118,1.6,1.733,1.823,1.341-.552,1.565.276,1.229,2.816,1.676,2.651,1.4-.5,1.453-.829.168-2.264.168-2.264,1.9-.442,2.235-.166,1.286.828.95,1.1a2.243,2.243,0,0,1-1.285.387c-.168-.056-1.452.662-.95,1.1s2.236,1.327,1.9,1.657a2.893,2.893,0,0,1-1.174.662c-.168,0-.949-.68-1.284-.4s.168,2.217.615,2.494,4.916,2.43,4.749,2.707-.783,1.325-.783,1.325a44.607,44.607,0,0,0-3.017,4.252c-.224.662-.727,3.147-1.118,3.313s-2.57,1.395-2.849,1.553a14.77,14.77,0,0,0-2.514,2.921,2.44,2.44,0,0,0,1.062,2.54,14.933,14.933,0,0,0,2.346,1.391,48.157,48.157,0,0,0,5.923-.342s2.067-6.668,2.346-6.509.5.27.391.435.447,6.039,1.228,6.416,1.062,1.315,1.9,1.7a8.578,8.578,0,0,0,2.458.607c.28,0,1.789-1.1,2.124-.938s1.006,1.215,2.011,1.325,2.068-.552,3.13-.5a11.544,11.544,0,0,0,2.45,0c.4-.11,1.852-.662,1.852-.662a49.858,49.858,0,0,1-.558-5.523c.167-.386,1.4-.994,1.508-1.436a36.273,36.273,0,0,1,1.341-4.141c.224-.22,3.129-1.767,3.8-2.153s2.179.22,1.843.938-2.123,5.688-1.955,5.909-4.247,2.154-4.191,2.707-.279,2.816.391,3.092,2.123,1.16,2.29.884.894-2.485,1.677-2.761a17.3,17.3,0,0,1,2.514-.5s.727.938,1.565.717.5-.828.5-1.325a7.34,7.34,0,0,0-.727-1.877,6.053,6.053,0,0,1,1.285.11c.223.111.726.663,1.173.608s.894-.774,1.062-1.05.727-1.987.95-1.711,1.62,3.865,2.905,3.423,2.626-.994,2.458-1.16-3.24-2.209-3.3-2.761a9.785,9.785,0,0,1,.056-1.546s3.045-.276,3.255-.718-.684-1.381-.74-1.712-3.968-2.816-4.247-3.258a14.737,14.737,0,0,1-.391-3.645,1.273,1.273,0,0,1,1.683-.773c1.11.442,2.284.718,2.061,1.6s-.168,4.031.335,4.418,3.3,2.32,3.3,2.485-.727,2.168.447,2.768,3.185.877,3.352,1.7,1.006,1.657.838,1.934-.682,1.546.022,1.38,2.156-.938,2.268-1.38a12.869,12.869,0,0,0,0-2.541c-.056-.386-2.961-3.423-3.352-4.2s-1.341-1.934-.95-2.651,1.956-3.59,2.4-3.81a.121.121,0,0,1,.03-.01c.07-.017.124.042.168.154a4.966,4.966,0,0,1,.167.782,25.623,25.623,0,0,0-1-6.234C1008.6,437.115,1009.663,437.115,1009.663,436.087Z" transform="translate(-113.098 438.207)"/></clipPath></defs><g transform="translate(-768 -813)"><rect class="a" width="384" height="204" transform="translate(768 813)"/><g transform="translate(902.111 818)"><path class="b" d="M1019.031,371.734c2.129,0,7.451,2.057,9.58-1.028s0-7.2,4.258-7.2,5.322,1.028,5.322,1.028,4.258,0,4.258-2.057,1.065-3.084,2.129-5.141,2.129-4.112,4.258-2.056a53.328,53.328,0,0,0,7.451,5.141,4.181,4.181,0,0,0,3.39-2.228c-.142-.226-.262-.415-.313-.506-.111-.2-.8-5.513-1.006-5.807-.336-.488-4.3-4.464-5.085-6.066s-2.682-5.963-3.185-6.627-6.7-9.884-7.208-10.492a96.233,96.233,0,0,1-5.587-8.063,43.329,43.329,0,0,1-1.677-5.8,3.3,3.3,0,0,0-.615-1.989c-.559-.663-4.013-8.68-4.013-8.68s-1.314-6.465-3.443-4.408c-1.065,1.028-1.065,1.028-2.129,3.084s-1.051,5.618-3.194,6.169c-5.085,1.311-10.11,1.747-14.988-.18-2.211-.873-4.542-2.89-6.609-1.721-.715.4-1.191,1.129-1.876,1.58-2.492,1.641-5.794-1.07-8.735-.511a5.81,5.81,0,0,0-1.818.733c-.322.187-.636.389-.946.59l-8.03,5.219a1.594,1.594,0,0,0-.826.933c-.1.583.448,1.053.712,1.585.823,1.658-1.184,3.263-2.88,4.039s-3.736,2.3-3,4c.256.586.842,1.182.555,1.756a1.274,1.274,0,0,1-.749.539,7.366,7.366,0,0,1-3.492.388,7.165,7.165,0,0,1-1.153-.246c-1.034-.312-1.994-.851-3.049-1.092a7.306,7.306,0,0,0-5.806,1.453A10.017,10.017,0,0,0,956,333.022a5.757,5.757,0,0,1,2.328.665c1.116.772,3.907,1.1,3.8,2.427s-2.01,4.082-.893,4.082,3.684,2.1,5.246,2.206,6.251-.882,6.809,0,1.339,1.765.447,2.649-2.456,1.875-2.01,2.537a8.332,8.332,0,0,0,1.226,1.034c2.018,1.531,5.753,4.121,5.583,4.371-.223.331-7.814-.661-9.488,0s-4.354.884-3.907,1.655,3.348,3.972,4.13,3.972,3.907-1.1,4.13,0-.112,2.869,1.005,2.647,4.811-1.876,4.136-1.323a1.125,1.125,0,0,0,.081,1.985c.877.633,2.827,2.659,2.71,3.321a17.622,17.622,0,0,0,5.769,1.341c3.193,0,5.322-3.084,7.451-2.056s2.129,3.084,3.194,2.056,0-5.141,3.193-4.113,7.451,5.141,6.387,9.254-4.258,2.057-3.194,5.141,6.387,3.085,8.516,5.141l.955.923a15.055,15.055,0,0,0,1.174-5.036C1014.773,374.819,1016.9,371.734,1019.031,371.734Z" transform="translate(-955.996 -299.357)"/><text class="c" transform="translate(124.889 41)"><tspan x="0" y="0">한강</tspan><tspan x="0" y="20.003">유역물관리위원회</tspan></text><g transform="translate(70.889 14)"><path class="d" d="M878.835,869.537H839.052l-9.216,9" transform="translate(-836.835 -847.037)"/><g class="e"><path class="f" d="M878.835,869.537H839.052l-9.216,9" transform="translate(-836.835 -847.037)"/></g><g class="g" transform="translate(-12 30)"><circle class="t" cx="3.5" cy="3.5" r="3.5"/><circle class="a" cx="3.5" cy="3.5" r="2.5"/></g><circle class="h" cx="3.5" cy="3.5" r="3.5" transform="translate(42 19)"/></g></g><g transform="translate(788 842)"><path class="b" d="M971.134,417.841c1.064,4.113,2.129,5.141,4.258,5.141s2.129-5.141,4.258-5.141,5.322,1.029,4.258-2.056,1.064-3.085,1.064-3.085a11.306,11.306,0,0,0,4.258,1.029c2.129,0,1.064-4.113,1.064-4.113l2.129-3.085s1.065,0,4.258-2.056,4.258,4.113,4.258,4.113,1.064,0,2.129,2.056,3.193-1.028,3.193-1.028a4.953,4.953,0,0,1,1.065-3.085c1.064-1.028,9.58-4.112,7.451-6.169a3.537,3.537,0,0,1-1.064-4.113,31.244,31.244,0,0,0,5.322-7.2c2.129-4.113-3.194-7.2-3.194-7.2l-3.193-3.085c-2.129-2.056-7.451-2.056-8.516-5.141s2.129-1.028,3.194-5.141-3.194-8.225-6.387-9.254-2.129,3.085-3.193,4.113-1.065-1.028-3.194-2.056-4.258,2.056-7.451,2.056a17.622,17.622,0,0,1-5.769-1.341c-.005.031.008.074-.006.1a5.708,5.708,0,0,0-.445,1.322l-.225,1.033s-2.791-1.915-4.131-2.024-4.019-.111-4.242-.552a3.739,3.739,0,0,0-2.79-1.323c-.893.22-.67-.331-.893.22s.335,1.434.335,1.434-6.028-.551-6.921-.11-2.009,3.641-2.68,4.192-3.348,3.53-3.46,4.3,2.678,5.34,3.46,4.876a3.434,3.434,0,0,1,2.232,0,25.062,25.062,0,0,0,1.34,3.067c.446.661-.112,2.206.334,2.868s1.117,3.449,2.01,4.152a4.244,4.244,0,0,0,2.344.686c.111.016.782-2.521.446-3.073s-3.237-6.177-2.344-6.84,3.014-1.83,3.126-.86,1.229,1.963.67,2.294a8.412,8.412,0,0,0-1.451,1.434s2.01,2.758,1.786,4.082.334,4.854.334,6.288.224,3.641-.446,4.082-2.01,1.868-1.675,1.817,1.117,1.713,1.786,1.6a8.742,8.742,0,0,1,1.785,0s1.9.878,1.675,1.761a21.508,21.508,0,0,0-.791,3.5.827.827,0,0,0,.121.584c.447.442.558,1.307.893,2.033A22.569,22.569,0,0,0,975.745,408c.224.22-4.353,2.345-6.028,3.6s-4.019,2.689-3.573,3.24c.378.465,1.07,2.479,1.546,2.974C969.2,417.22,970.672,416.948,971.134,417.841Z" transform="translate(-841.892 -320.111)"/><text class="c" transform="translate(0 17)"><tspan x="0" y="0">금강</tspan><tspan x="0" y="20.003">유역물관리위원회</tspan></text><g transform="translate(-788 -842)"><path class="i" d="M824.5,852.5h68.575l39.425,46"/><g class="j"><path class="k" d="M824.5,852.5h68.575l39.425,46"/></g><g class="g" transform="translate(931 897)"><circle class="t" cx="3.5" cy="3.5" r="3.5"/><circle class="a" cx="3.5" cy="3.5" r="2.5"/></g><circle class="h" cx="3.5" cy="3.5" r="3.5" transform="translate(821 849)"/></g></g><g transform="translate(947.049 873.075)"><rect class="a" width="384" height="204" transform="translate(-179.049 -60.075)"/><path class="l" d="M1065.423,397.428c-.056-.387-2.738-.166-2.905-.166s-1.9,1.987-2.292,1.987-1.565-1.16-1.565-1.16,2.124-1.767,1.9-2.209a23.658,23.658,0,0,1-1.789-4.307c-.334-1.491,1.229-9.057,1.453-10s-1.062-5.688-1.118-6.074,1.509-3.148,1.733-3.7.279-2.817.391-3.314-1.956-3.369-2.4-4.2,1.23-3.313.839-4.694a23.031,23.031,0,0,0-2.313-4.243,4.181,4.181,0,0,1-3.39,2.228,53.323,53.323,0,0,1-7.451-5.141c-2.129-2.056-3.194,0-4.258,2.056s-2.129,3.085-2.129,5.141-4.258,2.057-4.258,2.057-1.064-1.028-5.322-1.028-2.129,4.112-4.258,7.2-7.451,1.028-9.58,1.028-4.258,3.085-4.258,6.169a15.055,15.055,0,0,1-1.174,5.036l2.238,2.162s5.323,3.084,3.194,7.2a31.244,31.244,0,0,1-5.322,7.2,3.537,3.537,0,0,0,1.064,4.113c2.129,2.057-6.387,5.141-7.451,6.169a4.953,4.953,0,0,0-1.065,3.085,6.064,6.064,0,0,1-1.476,1.477c.384,1.954.583,4.527-.653,5.72a17.787,17.787,0,0,0-3.193,4.113l2.129,4.113s1.064-2.057,3.193,0a41.483,41.483,0,0,0,5.323,4.113,5.047,5.047,0,0,1,1.064,5.141c-1.064,3.084-3.193,3.084-3.193,4.112s-1.065,1.028,0,4.113a25.62,25.62,0,0,1,1,6.234c.113.663.267,1.442.754,1.5.894.111,2.348.773,2.85.387a4.475,4.475,0,0,1,1.284-.607,7.114,7.114,0,0,0,1.341.773,15.49,15.49,0,0,0,1.787-.663s.335-7.345.615-7.289,2.571,1.1,3.017,1.16,3.018-.276,3.633.166,2.793,3.754,3.129,3.754,1.564.056,1.452.332-.67,3.754.391,3.754a8.175,8.175,0,0,0,2.571-.22c.056-.166.781-3.756.781-3.756s2.292,2.6,3.3,2.374a13.542,13.542,0,0,0,2.571-1.049s.95-6.461.95-6.681-4.023-3.148-4.414-2.983-1.174,1.916-1.453,2.035a20.085,20.085,0,0,1-3.017-.379l-.335-1.546s2.961-1.878,3.24-2.153a25.2,25.2,0,0,1,3.073-1.05c.391-.166,3.744-.22,3.911-.276s0,1.547,0,1.823,1.286,1.436,1.509,1.491,1.509-1.049,1.621-1.16.782-2.651.782-2.651,1.565,1.988,1.956,2.32,1.453-.221,1.787-.276,7.1-5.743,7.6-6.792a40.908,40.908,0,0,0,1.565-3.976c0-.166,3.24-2.983,3.129-3.59s-1.117-3.369-.727-3.369,2.347-.5,2.236-.718,2.123-11.43,2.57-13.087,1.565-5.579,1.844-6.02S1065.479,397.815,1065.423,397.428Z" transform="translate(-998.61 -351.592)"/><text class="m" transform="translate(79.951 70.925)"><tspan x="0" y="0">낙동강</tspan><tspan x="0" y="20.003">유역물관리위원회</tspan></text><g transform="translate(-44.938 17.344)"><path class="n" d="M861.835,875.537H835.854l-6.019-6" transform="translate(-748.946 -828.455)"/><g class="o"><path class="p" d="M861.835,875.537H835.854l-5-4.986" transform="translate(-748.946 -828.455)"/></g><g class="q" transform="translate(76.889 36.582)"><ellipse class="t" cx="3.5" cy="3.5" rx="3.5" ry="3.5"/><ellipse class="a" cx="3.5" cy="3.5" rx="2.5" ry="2.5"/></g><ellipse class="r" cx="3.5" cy="3.5" rx="3.5" ry="3.5" transform="translate(112.889 43.582)"/></g></g><g transform="translate(787 925.944)"><path class="b" d="M70.372,11035.723l-1.119-2.069v-1.518l.28-1.516,1.4-.828,1.4-1.24a4.414,4.414,0,0,1,1.119-.828,2.29,2.29,0,0,0,.839-.687l1.676-1.1,1.958.138,1.537-.964,2.936-.276,1.54-.277h1.955l2.376-.274.839-.415,3.216,1.243,1.4,2.066v2.62l-.418,1.792-.981.69-.7,1.1-1.26.825-1.817.829H86.17a8.672,8.672,0,0,0-1.955.412l-1.4.413a37.166,37.166,0,0,1-4.055-.274,13.242,13.242,0,0,0-3.077-.139c-.418,0-1.817-.136-1.817-.136l-.559.964-1.4.139Zm7.617-22.488c-1.005-.113-1.676-1.16-2.011-1.326s-1.845.938-2.124.938a8.625,8.625,0,0,1-2.457-.606c-.839-.388-1.119-1.327-1.9-1.7s-1.341-6.249-1.23-6.415-.111-.277-.391-.437-2.346,6.512-2.346,6.512a48.372,48.372,0,0,1-5.925.341,15.018,15.018,0,0,1-2.346-1.391,2.439,2.439,0,0,1-1.061-2.54,14.7,14.7,0,0,1,2.512-2.922c.28-.155,2.46-1.385,2.85-1.551s.895-2.651,1.119-3.313a44.113,44.113,0,0,1,3.016-4.251s.615-1.05.781-1.327-4.3-2.429-4.747-2.706-.95-2.21-.615-2.492,1.116.4,1.285.4a2.908,2.908,0,0,0,1.172-.662c.335-.332-1.4-1.216-1.9-1.659s.784-1.16.95-1.1a2.229,2.229,0,0,0,1.285-.386c.338-.276-.612-.83-.95-1.1s-2.232.166-2.232.166-.114,1.934-.169,2.263-1.005.665-1.454.828-1.451-1.822-1.673-2.65c-.138-.513-.471-.413-.848-.313a1.219,1.219,0,0,1-.717.039c-.615-.222-1.51-1.548-1.734-1.822s.781-1.271,1.285-1.878,3.016-1.324,3.687-1.382a15.144,15.144,0,0,1,3.185.9,6.474,6.474,0,0,0,1.4-.626c.335-.276,2.122.388,2.346.443a1.525,1.525,0,0,0,1.4,0c.559-.388-1.341-3.26-1.285-3.481s-.224-1.931-.166-2.43a1.7,1.7,0,0,1,.449-.739,7.577,7.577,0,0,1,1.116-1.027c.391-.274.335-1.712.222-2.374a5.051,5.051,0,0,1,1.064-3.091,22.506,22.506,0,0,1,2.872-2.119,3.672,3.672,0,0,0-1.562-.014c-.069.033-.152-.011-.241-.1,1.515-.6,2.983-.867,3.446.025,1.064,4.115,2.127,5.144,4.257,5.144s2.13-5.144,4.26-5.144,5.321,1.03,4.257-2.056,1.064-3.085,1.064-3.085a11.3,11.3,0,0,0,4.257,1.03c2.13,0,1.066-4.113,1.066-4.113l2.127-3.086s1.066,0,4.26-2.055,4.257,4.113,4.257,4.113,1.064,0,2.13,2.055a1.072,1.072,0,0,0,1.717.449c.382,1.955.582,4.528-.654,5.719a17.8,17.8,0,0,0-3.194,4.113l2.13,4.113s1.064-2.055,3.194,0a41.372,41.372,0,0,0,5.324,4.113,5.052,5.052,0,0,1,1.064,5.141c-1.064,3.086-3.194,3.086-3.194,4.113s-1.066,1.027,0,4.113a25.741,25.741,0,0,1,1,6.234,5.473,5.473,0,0,0-.166-.784c-.044-.11-.1-.171-.169-.152a.163.163,0,0,0-.03.009c-.446.222-2.011,3.094-2.4,3.812s.559,1.875.95,2.65,3.3,3.809,3.351,4.2a12.552,12.552,0,0,1,0,2.54c-.111.442-1.565,1.216-2.268,1.382s-.188-1.105-.022-1.382-.67-1.105-.836-1.934-2.18-1.1-3.354-1.706-.446-2.6-.446-2.768-2.795-2.1-3.3-2.484-.559-3.534-.335-4.417-.95-1.161-2.061-1.6a1.274,1.274,0,0,0-1.684.772,14.881,14.881,0,0,0,.391,3.646c.28.44,4.191,2.928,4.249,3.257s.947,1.271.74,1.712-3.254.718-3.254.718a9.771,9.771,0,0,0-.058,1.548c.058.552,3.13,2.6,3.3,2.762s-1.174.718-2.46,1.158-2.681-3.146-2.905-3.424-.781,1.435-.95,1.712-.615.994-1.061,1.05-.95-.5-1.174-.609a6.109,6.109,0,0,0-1.285-.108,7.32,7.32,0,0,1,.728,1.878c0,.5.335,1.1-.5,1.324s-1.565-.718-1.565-.718a17.583,17.583,0,0,0-2.515.5c-.781.277-1.51,2.487-1.676,2.762s-1.62-.606-2.291-.884-.335-2.54-.391-3.091,4.357-2.484,4.191-2.706,1.62-5.191,1.955-5.908-1.174-1.327-1.845-.939-3.576,1.934-3.8,2.152a36.542,36.542,0,0,0-1.341,4.141c-.111.443-1.341,1.053-1.507,1.438a49.594,49.594,0,0,0,.557,5.523s-1.451.551-1.853.662a11.644,11.644,0,0,1-2.448,0,4.878,4.878,0,0,0-1.532.252,5.329,5.329,0,0,1-1.374.258A2.152,2.152,0,0,1,77.989,11013.234Z" transform="translate(56.902 -10950.354)"/><text class="c" transform="translate(0 18.056)"><tspan x="0" y="0">영산강·섬진강</tspan><tspan x="0" y="20.003">유역물관리위원회</tspan></text><g transform="translate(-728 -839.944)"><path class="i" d="M824.5,852.5h25.4l14.6,17.037" transform="translate(0 0)"/><g class="s"><path class="k" d="M824.5,852.5h25.4l14.6,17.037"/></g><g class="g" transform="translate(863 868)"><circle class="t" cx="3.5" cy="3.5" r="3.5"/><circle class="a" cx="3.5" cy="3.5" r="2.5"/></g><circle class="h" cx="3.5" cy="3.5" r="3.5" transform="translate(821 849)"/></g></g></g></svg>