<svg xmlns="http://www.w3.org/2000/svg" xmlns:xlink="http://www.w3.org/1999/xlink" width="384" height="204" viewBox="0 0 384 204"><defs><style>.a,.d,.f,.g,.i,.k,.o,.q,.r{fill:none;}.b,.u{fill:#c7d8f2;}.b,.f,.g,.k,.m{stroke:#fff;}.b,.m{stroke-linejoin:round;}.c{fill:#888;font-family:NotoSansCJKkr-Regular, Noto Sans CJK KR;}.c,.n{font-size:15.002px;letter-spacing:-0.03em;}.d,.i{stroke:#ddd;}.d,.f,.i,.k,.o,.q{stroke-linecap:square;}.d,.f{stroke-dasharray:3 2;}.e{clip-path:url(#a);}.g{stroke-width:2px;}.h{fill:#bbb;}.i,.k{stroke-dasharray:2 3;}.j{clip-path:url(#b);}.l{clip-path:url(#c);}.m{fill:#2a6af2;}.n,.s{fill:#2b6bf3;}.n{font-family:NotoSansCJKkr-Medium, Noto Sans CJK KR;font-weight:500;}.o{stroke:#2a6af2;}.p{clip-path:url(#d);}.q{stroke:#c7d8f2;}.t,.u{stroke:none;}</style><clipPath id="a"><path class="a" d="M1019.031,371.734c2.129,0,7.451,2.057,9.58-1.028s0-7.2,4.258-7.2,5.322,1.028,5.322,1.028,4.258,0,4.258-2.057,1.065-3.084,2.129-5.141,2.129-4.112,4.258-2.056a53.328,53.328,0,0,0,7.451,5.141,4.181,4.181,0,0,0,3.39-2.228c-.142-.226-.262-.415-.313-.506-.111-.2-.8-5.513-1.006-5.807-.336-.488-4.3-4.464-5.085-6.066s-2.682-5.963-3.185-6.627-6.7-9.884-7.208-10.492a96.233,96.233,0,0,1-5.587-8.063,43.329,43.329,0,0,1-1.677-5.8,3.3,3.3,0,0,0-.615-1.989c-.559-.663-4.013-8.68-4.013-8.68s-1.314-6.465-3.443-4.408c-1.065,1.028-1.065,1.028-2.129,3.084s-1.051,5.618-3.194,6.169c-5.085,1.311-10.11,1.747-14.988-.18-2.211-.873-4.542-2.89-6.609-1.721-.715.4-1.191,1.129-1.876,1.58-2.492,1.641-5.794-1.07-8.735-.511a5.81,5.81,0,0,0-1.818.733c-.322.187-.636.389-.946.59l-8.03,5.219a1.594,1.594,0,0,0-.826.933c-.1.583.448,1.053.712,1.585.823,1.658-1.184,3.263-2.88,4.039s-3.736,2.3-3,4c.256.586.842,1.182.555,1.756a1.274,1.274,0,0,1-.749.539,7.366,7.366,0,0,1-3.492.388,7.165,7.165,0,0,1-1.153-.246c-1.034-.312-1.994-.851-3.049-1.092a7.306,7.306,0,0,0-5.806,1.453A10.017,10.017,0,0,0,956,333.022a5.757,5.757,0,0,1,2.328.665c1.116.772,3.907,1.1,3.8,2.427s-2.01,4.082-.893,4.082,3.684,2.1,5.246,2.206,6.251-.882,6.809,0,1.339,1.765.447,2.649-2.456,1.875-2.01,2.537a8.332,8.332,0,0,0,1.226,1.034c2.018,1.531,5.753,4.121,5.583,4.371-.223.331-7.814-.661-9.488,0s-4.354.884-3.907,1.655,3.348,3.972,4.13,3.972,3.907-1.1,4.13,0-.112,2.869,1.005,2.647,4.811-1.876,4.136-1.323a1.125,1.125,0,0,0,.081,1.985c.877.633,2.827,2.659,2.71,3.321a17.622,17.622,0,0,0,5.769,1.341c3.193,0,5.322-3.084,7.451-2.056s2.129,3.084,3.194,2.056,0-5.141,3.193-4.113,7.451,5.141,6.387,9.254-4.258,2.057-3.194,5.141,6.387,3.085,8.516,5.141l.955.923a15.055,15.055,0,0,0,1.174-5.036C1014.773,374.819,1016.9,371.734,1019.031,371.734Z" transform="translate(-1026.885 -313.356)"/></clipPath><clipPath id="b"><path class="a" d="M971.134,417.841c1.064,4.113,2.129,5.141,4.258,5.141s2.129-5.141,4.258-5.141,5.322,1.029,4.258-2.056,1.064-3.085,1.064-3.085a11.306,11.306,0,0,0,4.258,1.029c2.129,0,1.064-4.113,1.064-4.113l2.129-3.085s1.065,0,4.258-2.056,4.258,4.113,4.258,4.113,1.064,0,2.129,2.056,3.193-1.028,3.193-1.028a4.953,4.953,0,0,1,1.065-3.085c1.064-1.028,9.58-4.112,7.451-6.169a3.537,3.537,0,0,1-1.064-4.113,31.244,31.244,0,0,0,5.322-7.2c2.129-4.113-3.194-7.2-3.194-7.2l-3.193-3.085c-2.129-2.056-7.451-2.056-8.516-5.141s2.129-1.028,3.194-5.141-3.194-8.225-6.387-9.254-2.129,3.085-3.193,4.113-1.065-1.028-3.194-2.056-4.258,2.056-7.451,2.056a17.622,17.622,0,0,1-5.769-1.341c-.005.031.008.074-.006.1a5.708,5.708,0,0,0-.445,1.322l-.225,1.033s-2.791-1.915-4.131-2.024-4.019-.111-4.242-.552a3.739,3.739,0,0,0-2.79-1.323c-.893.22-.67-.331-.893.22s.335,1.434.335,1.434-6.028-.551-6.921-.11-2.009,3.641-2.68,4.192-3.348,3.53-3.46,4.3,2.678,5.34,3.46,4.876a3.434,3.434,0,0,1,2.232,0,25.062,25.062,0,0,0,1.34,3.067c.446.661-.112,2.206.334,2.868s1.117,3.449,2.01,4.152a4.244,4.244,0,0,0,2.344.686c.111.016.782-2.521.446-3.073s-3.237-6.177-2.344-6.84,3.014-1.83,3.126-.86,1.229,1.963.67,2.294a8.412,8.412,0,0,0-1.451,1.434s2.01,2.758,1.786,4.082.334,4.854.334,6.288.224,3.641-.446,4.082-2.01,1.868-1.675,1.817,1.117,1.713,1.786,1.6a8.742,8.742,0,0,1,1.785,0s1.9.878,1.675,1.761a21.508,21.508,0,0,0-.791,3.5.827.827,0,0,0,.121.584c.447.442.558,1.307.893,2.033A22.569,22.569,0,0,0,975.745,408c.224.22-4.353,2.345-6.028,3.6s-4.019,2.689-3.573,3.24c.378.465,1.07,2.479,1.546,2.974C969.2,417.22,970.672,416.948,971.134,417.841Z" transform="translate(-53.892 521.889)"/></clipPath><clipPath id="c"><path class="a" d="M1065.423,397.428c-.056-.387-2.738-.166-2.905-.166s-1.9,1.987-2.292,1.987-1.565-1.16-1.565-1.16,2.124-1.767,1.9-2.209a23.658,23.658,0,0,1-1.789-4.307c-.334-1.491,1.229-9.057,1.453-10s-1.062-5.688-1.118-6.074,1.509-3.148,1.733-3.7.279-2.817.391-3.314-1.956-3.369-2.4-4.2,1.23-3.313.839-4.694a23.031,23.031,0,0,0-2.313-4.243,4.181,4.181,0,0,1-3.39,2.228,53.323,53.323,0,0,1-7.451-5.141c-2.129-2.056-3.194,0-4.258,2.056s-2.129,3.085-2.129,5.141-4.258,2.057-4.258,2.057-1.064-1.028-5.322-1.028-2.129,4.112-4.258,7.2-7.451,1.028-9.58,1.028-4.258,3.085-4.258,6.169a15.055,15.055,0,0,1-1.174,5.036l2.238,2.162s5.323,3.084,3.194,7.2a31.244,31.244,0,0,1-5.322,7.2,3.537,3.537,0,0,0,1.064,4.113c2.129,2.057-6.387,5.141-7.451,6.169a4.953,4.953,0,0,0-1.065,3.085,6.064,6.064,0,0,1-1.476,1.477c.384,1.954.583,4.527-.653,5.72a17.787,17.787,0,0,0-3.193,4.113l2.129,4.113s1.064-2.057,3.193,0a41.483,41.483,0,0,0,5.323,4.113,5.047,5.047,0,0,1,1.064,5.141c-1.064,3.084-3.193,3.084-3.193,4.112s-1.065,1.028,0,4.113a25.62,25.62,0,0,1,1,6.234c.113.663.267,1.442.754,1.5.894.111,2.348.773,2.85.387a4.475,4.475,0,0,1,1.284-.607,7.114,7.114,0,0,0,1.341.773,15.49,15.49,0,0,0,1.787-.663s.335-7.345.615-7.289,2.571,1.1,3.017,1.16,3.018-.276,3.633.166,2.793,3.754,3.129,3.754,1.564.056,1.452.332-.67,3.754.391,3.754a8.175,8.175,0,0,0,2.571-.22c.056-.166.781-3.756.781-3.756s2.292,2.6,3.3,2.374a13.542,13.542,0,0,0,2.571-1.049s.95-6.461.95-6.681-4.023-3.148-4.414-2.983-1.174,1.916-1.453,2.035a20.085,20.085,0,0,1-3.017-.379l-.335-1.546s2.961-1.878,3.24-2.153a25.2,25.2,0,0,1,3.073-1.05c.391-.166,3.744-.22,3.911-.276s0,1.547,0,1.823,1.286,1.436,1.509,1.491,1.509-1.049,1.621-1.16.782-2.651.782-2.651,1.565,1.988,1.956,2.32,1.453-.221,1.787-.276,7.1-5.743,7.6-6.792a40.908,40.908,0,0,0,1.565-3.976c0-.166,3.24-2.983,3.129-3.59s-1.117-3.369-.727-3.369,2.347-.5,2.236-.718,2.123-11.43,2.57-13.087,1.565-5.579,1.844-6.02S1065.479,397.815,1065.423,397.428Z" transform="translate(-953.672 -368.936)"/></clipPath><clipPath id="d"><path class="a" d="M1009.663,436.087c0-1.028,2.129-1.028,3.193-4.112a5.046,5.046,0,0,0-1.064-5.141,41.477,41.477,0,0,1-5.323-4.113c-2.129-2.057-3.193,0-3.193,0l-2.129-4.113a17.786,17.786,0,0,1,3.193-4.113c1.236-1.193,1.037-3.766.653-5.72a1.072,1.072,0,0,1-1.717-.449c-1.065-2.056-2.129-2.056-2.129-2.056s-1.064-6.169-4.258-4.113-4.258,2.056-4.258,2.056L990.5,407.3s1.065,4.113-1.064,4.113a11.306,11.306,0,0,1-4.258-1.029s-2.129,0-1.064,3.085-2.129,2.056-4.258,2.056-2.129,5.141-4.258,5.141-3.194-1.028-4.258-5.141c-.463-.893-1.931-.621-3.444-.027.089.092.171.137.24.1a3.69,3.69,0,0,1,1.563.012,22.615,22.615,0,0,0-2.874,2.119,5.045,5.045,0,0,0-1.062,3.092c.112.662.168,2.1-.224,2.374a7.691,7.691,0,0,0-1.116,1.026,1.712,1.712,0,0,0-.449.741c-.056.5.224,2.209.168,2.429s1.844,3.092,1.286,3.479a1.513,1.513,0,0,1-1.4,0c-.224-.055-2.011-.718-2.346-.442a6.541,6.541,0,0,1-1.4.626,15.232,15.232,0,0,0-3.185-.9c-.671.056-3.185.773-3.688,1.381s-1.509,1.6-1.285,1.877,1.118,1.6,1.733,1.823,1.341-.552,1.565.276,1.229,2.816,1.676,2.651,1.4-.5,1.453-.829.168-2.264.168-2.264,1.9-.442,2.235-.166,1.286.828.95,1.1a2.243,2.243,0,0,1-1.285.387c-.168-.056-1.452.662-.95,1.1s2.236,1.327,1.9,1.657a2.893,2.893,0,0,1-1.174.662c-.168,0-.949-.68-1.284-.4s.168,2.217.615,2.494,4.916,2.43,4.749,2.707-.783,1.325-.783,1.325a44.607,44.607,0,0,0-3.017,4.252c-.224.662-.727,3.147-1.118,3.313s-2.57,1.395-2.849,1.553a14.77,14.77,0,0,0-2.514,2.921,2.44,2.44,0,0,0,1.062,2.54,14.933,14.933,0,0,0,2.346,1.391,48.157,48.157,0,0,0,5.923-.342s2.067-6.668,2.346-6.509.5.27.391.435.447,6.039,1.228,6.416,1.062,1.315,1.9,1.7a8.578,8.578,0,0,0,2.458.607c.28,0,1.789-1.1,2.124-.938s1.006,1.215,2.011,1.325,2.068-.552,3.13-.5a11.544,11.544,0,0,0,2.45,0c.4-.11,1.852-.662,1.852-.662a49.858,49.858,0,0,1-.558-5.523c.167-.386,1.4-.994,1.508-1.436a36.273,36.273,0,0,1,1.341-4.141c.224-.22,3.129-1.767,3.8-2.153s2.179.22,1.843.938-2.123,5.688-1.955,5.909-4.247,2.154-4.191,2.707-.279,2.816.391,3.092,2.123,1.16,2.29.884.894-2.485,1.677-2.761a17.3,17.3,0,0,1,2.514-.5s.727.938,1.565.717.5-.828.5-1.325a7.34,7.34,0,0,0-.727-1.877,6.053,6.053,0,0,1,1.285.11c.223.111.726.663,1.173.608s.894-.774,1.062-1.05.727-1.987.95-1.711,1.62,3.865,2.905,3.423,2.626-.994,2.458-1.16-3.24-2.209-3.3-2.761a9.785,9.785,0,0,1,.056-1.546s3.045-.276,3.255-.718-.684-1.381-.74-1.712-3.968-2.816-4.247-3.258a14.737,14.737,0,0,1-.391-3.645,1.273,1.273,0,0,1,1.683-.773c1.11.442,2.284.718,2.061,1.6s-.168,4.031.335,4.418,3.3,2.32,3.3,2.485-.727,2.168.447,2.768,3.185.877,3.352,1.7,1.006,1.657.838,1.934-.682,1.546.022,1.38,2.156-.938,2.268-1.38a12.869,12.869,0,0,0,0-2.541c-.056-.386-2.961-3.423-3.352-4.2s-1.341-1.934-.95-2.651,1.956-3.59,2.4-3.81a.121.121,0,0,1,.03-.01c.07-.017.124.042.168.154a4.966,4.966,0,0,1,.167.782,25.623,25.623,0,0,0-1-6.234C1008.6,437.115,1009.663,437.115,1009.663,436.087Z" transform="translate(-113.098 438.207)"/></clipPath></defs><g transform="translate(-768 -813)"><rect class="a" width="384" height="204" transform="translate(768 813)"/><g transform="translate(902.111 818)"><path class="b" d="M1019.031,371.734c2.129,0,7.451,2.057,9.58-1.028s0-7.2,4.258-7.2,5.322,1.028,5.322,1.028,4.258,0,4.258-2.057,1.065-3.084,2.129-5.141,2.129-4.112,4.258-2.056a53.328,53.328,0,0,0,7.451,5.141,4.181,4.181,0,0,0,3.39-2.228c-.142-.226-.262-.415-.313-.506-.111-.2-.8-5.513-1.006-5.807-.336-.488-4.3-4.464-5.085-6.066s-2.682-5.963-3.185-6.627-6.7-9.884-7.208-10.492a96.233,96.233,0,0,1-5.587-8.063,43.329,43.329,0,0,1-1.677-5.8,3.3,3.3,0,0,0-.615-1.989c-.559-.663-4.013-8.68-4.013-8.68s-1.314-6.465-3.443-4.408c-1.065,1.028-1.065,1.028-2.129,3.084s-1.051,5.618-3.194,6.169c-5.085,1.311-10.11,1.747-14.988-.18-2.211-.873-4.542-2.89-6.609-1.721-.715.4-1.191,1.129-1.876,1.58-2.492,1.641-5.794-1.07-8.735-.511a5.81,5.81,0,0,0-1.818.733c-.322.187-.636.389-.946.59l-8.03,5.219a1.594,1.594,0,0,0-.826.933c-.1.583.448,1.053.712,1.585.823,1.658-1.184,3.263-2.88,4.039s-3.736,2.3-3,4c.256.586.842,1.182.555,1.756a1.274,1.274,0,0,1-.749.539,7.366,7.366,0,0,1-3.492.388,7.165,7.165,0,0,1-1.153-.246c-1.034-.312-1.994-.851-3.049-1.092a7.306,7.306,0,0,0-5.806,1.453A10.017,10.017,0,0,0,956,333.022a5.757,5.757,0,0,1,2.328.665c1.116.772,3.907,1.1,3.8,2.427s-2.01,4.082-.893,4.082,3.684,2.1,5.246,2.206,6.251-.882,6.809,0,1.339,1.765.447,2.649-2.456,1.875-2.01,2.537a8.332,8.332,0,0,0,1.226,1.034c2.018,1.531,5.753,4.121,5.583,4.371-.223.331-7.814-.661-9.488,0s-4.354.884-3.907,1.655,3.348,3.972,4.13,3.972,3.907-1.1,4.13,0-.112,2.869,1.005,2.647,4.811-1.876,4.136-1.323a1.125,1.125,0,0,0,.081,1.985c.877.633,2.827,2.659,2.71,3.321a17.622,17.622,0,0,0,5.769,1.341c3.193,0,5.322-3.084,7.451-2.056s2.129,3.084,3.194,2.056,0-5.141,3.193-4.113,7.451,5.141,6.387,9.254-4.258,2.057-3.194,5.141,6.387,3.085,8.516,5.141l.955.923a15.055,15.055,0,0,0,1.174-5.036C1014.773,374.819,1016.9,371.734,1019.031,371.734Z" transform="translate(-955.996 -299.357)"/><text class="c" transform="translate(124.889 41)"><tspan x="0" y="0">한강</tspan><tspan x="0" y="20.003">유역물관리위원회</tspan></text><g transform="translate(70.889 14)"><path class="d" d="M878.835,869.537H839.052l-9.216,9" transform="translate(-836.835 -847.037)"/><g class="e"><path class="f" d="M878.835,869.537H839.052l-9.216,9" transform="translate(-836.835 -847.037)"/></g><g class="g" transform="translate(-12 30)"><circle class="t" cx="3.5" cy="3.5" r="3.5"/><circle class="a" cx="3.5" cy="3.5" r="2.5"/></g><circle class="h" cx="3.5" cy="3.5" r="3.5" transform="translate(42 19)"/></g></g><g transform="translate(788 842)"><path class="b" d="M971.134,417.841c1.064,4.113,2.129,5.141,4.258,5.141s2.129-5.141,4.258-5.141,5.322,1.029,4.258-2.056,1.064-3.085,1.064-3.085a11.306,11.306,0,0,0,4.258,1.029c2.129,0,1.064-4.113,1.064-4.113l2.129-3.085s1.065,0,4.258-2.056,4.258,4.113,4.258,4.113,1.064,0,2.129,2.056,3.193-1.028,3.193-1.028a4.953,4.953,0,0,1,1.065-3.085c1.064-1.028,9.58-4.112,7.451-6.169a3.537,3.537,0,0,1-1.064-4.113,31.244,31.244,0,0,0,5.322-7.2c2.129-4.113-3.194-7.2-3.194-7.2l-3.193-3.085c-2.129-2.056-7.451-2.056-8.516-5.141s2.129-1.028,3.194-5.141-3.194-8.225-6.387-9.254-2.129,3.085-3.193,4.113-1.065-1.028-3.194-2.056-4.258,2.056-7.451,2.056a17.622,17.622,0,0,1-5.769-1.341c-.005.031.008.074-.006.1a5.708,5.708,0,0,0-.445,1.322l-.225,1.033s-2.791-1.915-4.131-2.024-4.019-.111-4.242-.552a3.739,3.739,0,0,0-2.79-1.323c-.893.22-.67-.331-.893.22s.335,1.434.335,1.434-6.028-.551-6.921-.11-2.009,3.641-2.68,4.192-3.348,3.53-3.46,4.3,2.678,5.34,3.46,4.876a3.434,3.434,0,0,1,2.232,0,25.062,25.062,0,0,0,1.34,3.067c.446.661-.112,2.206.334,2.868s1.117,3.449,2.01,4.152a4.244,4.244,0,0,0,2.344.686c.111.016.782-2.521.446-3.073s-3.237-6.177-2.344-6.84,3.014-1.83,3.126-.86,1.229,1.963.67,2.294a8.412,8.412,0,0,0-1.451,1.434s2.01,2.758,1.786,4.082.334,4.854.334,6.288.224,3.641-.446,4.082-2.01,1.868-1.675,1.817,1.117,1.713,1.786,1.6a8.742,8.742,0,0,1,1.785,0s1.9.878,1.675,1.761a21.508,21.508,0,0,0-.791,3.5.827.827,0,0,0,.121.584c.447.442.558,1.307.893,2.033A22.569,22.569,0,0,0,975.745,408c.224.22-4.353,2.345-6.028,3.6s-4.019,2.689-3.573,3.24c.378.465,1.07,2.479,1.546,2.974C969.2,417.22,970.672,416.948,971.134,417.841Z" transform="translate(-841.892 -320.111)"/><text class="c" transform="translate(0 17)"><tspan x="0" y="0">금강</tspan><tspan x="0" y="20.003">유역물관리위원회</tspan></text><g transform="translate(-788 -842)"><path class="i" d="M824.5,852.5h68.575l39.425,46"/><g class="j"><path class="k" d="M824.5,852.5h68.575l39.425,46"/></g><g class="g" transform="translate(931 897)"><circle class="t" cx="3.5" cy="3.5" r="3.5"/><circle class="a" cx="3.5" cy="3.5" r="2.5"/></g><circle class="h" cx="3.5" cy="3.5" r="3.5" transform="translate(821 849)"/></g></g><g transform="translate(947.049 873.075)"><path class="b" d="M1065.423,397.428c-.056-.387-2.738-.166-2.905-.166s-1.9,1.987-2.292,1.987-1.565-1.16-1.565-1.16,2.124-1.767,1.9-2.209a23.658,23.658,0,0,1-1.789-4.307c-.334-1.491,1.229-9.057,1.453-10s-1.062-5.688-1.118-6.074,1.509-3.148,1.733-3.7.279-2.817.391-3.314-1.956-3.369-2.4-4.2,1.23-3.313.839-4.694a23.031,23.031,0,0,0-2.313-4.243,4.181,4.181,0,0,1-3.39,2.228,53.323,53.323,0,0,1-7.451-5.141c-2.129-2.056-3.194,0-4.258,2.056s-2.129,3.085-2.129,5.141-4.258,2.057-4.258,2.057-1.064-1.028-5.322-1.028-2.129,4.112-4.258,7.2-7.451,1.028-9.58,1.028-4.258,3.085-4.258,6.169a15.055,15.055,0,0,1-1.174,5.036l2.238,2.162s5.323,3.084,3.194,7.2a31.244,31.244,0,0,1-5.322,7.2,3.537,3.537,0,0,0,1.064,4.113c2.129,2.057-6.387,5.141-7.451,6.169a4.953,4.953,0,0,0-1.065,3.085,6.064,6.064,0,0,1-1.476,1.477c.384,1.954.583,4.527-.653,5.72a17.787,17.787,0,0,0-3.193,4.113l2.129,4.113s1.064-2.057,3.193,0a41.483,41.483,0,0,0,5.323,4.113,5.047,5.047,0,0,1,1.064,5.141c-1.064,3.084-3.193,3.084-3.193,4.112s-1.065,1.028,0,4.113a25.62,25.62,0,0,1,1,6.234c.113.663.267,1.442.754,1.5.894.111,2.348.773,2.85.387a4.475,4.475,0,0,1,1.284-.607,7.114,7.114,0,0,0,1.341.773,15.49,15.49,0,0,0,1.787-.663s.335-7.345.615-7.289,2.571,1.1,3.017,1.16,3.018-.276,3.633.166,2.793,3.754,3.129,3.754,1.564.056,1.452.332-.67,3.754.391,3.754a8.175,8.175,0,0,0,2.571-.22c.056-.166.781-3.756.781-3.756s2.292,2.6,3.3,2.374a13.542,13.542,0,0,0,2.571-1.049s.95-6.461.95-6.681-4.023-3.148-4.414-2.983-1.174,1.916-1.453,2.035a20.085,20.085,0,0,1-3.017-.379l-.335-1.546s2.961-1.878,3.24-2.153a25.2,25.2,0,0,1,3.073-1.05c.391-.166,3.744-.22,3.911-.276s0,1.547,0,1.823,1.286,1.436,1.509,1.491,1.509-1.049,1.621-1.16.782-2.651.782-2.651,1.565,1.988,1.956,2.32,1.453-.221,1.787-.276,7.1-5.743,7.6-6.792a40.908,40.908,0,0,0,1.565-3.976c0-.166,3.24-2.983,3.129-3.59s-1.117-3.369-.727-3.369,2.347-.5,2.236-.718,2.123-11.43,2.57-13.087,1.565-5.579,1.844-6.02S1065.479,397.815,1065.423,397.428Z" transform="translate(-998.61 -351.592)"/><text class="c" transform="translate(79.951 70.925)"><tspan x="0" y="0">낙동강</tspan><tspan x="0" y="20.003">유역물관리위원회</tspan></text><g transform="translate(-44.938 17.344)"><path class="i" d="M861.835,875.537H835.854l-6.019-6" transform="translate(-748.946 -828.455)"/><g class="l"><path class="k" d="M861.835,875.537H835.854l-6.019-6" transform="translate(-748.946 -828.455)"/></g><g class="g" transform="translate(76.889 36.582)"><ellipse class="t" cx="3.5" cy="3.5" rx="3.5" ry="3.5"/><ellipse class="a" cx="3.5" cy="3.5" rx="2.5" ry="2.5"/></g><ellipse class="h" cx="3.5" cy="3.5" rx="3.5" ry="3.5" transform="translate(112.889 43.582)"/></g></g><g transform="translate(787 925.944)"><rect class="a" width="384" height="204" transform="translate(-19 -112.944)"/><path class="m" d="M-7241.725,10628.422l-1.121-2.07v-1.518l.28-1.515,1.4-.827,1.4-1.243a4.468,4.468,0,0,1,1.118-.827,2.275,2.275,0,0,0,.837-.688l1.678-1.1,1.958.139,1.537-.965,2.937-.275,1.539-.277h1.956l2.376-.274.84-.414,3.214,1.241,1.4,2.069v2.62l-.419,1.79-.979.69-.7,1.1-1.259.827-1.816.827h-2.377a8.677,8.677,0,0,0-1.958.413l-1.4.413a37.161,37.161,0,0,1-4.055-.274,13.032,13.032,0,0,0-3.076-.139c-.419,0-1.817-.139-1.817-.139l-.56.966-1.4.139Zm7.616-22.49c-1-.112-1.675-1.16-2.011-1.325s-1.843.938-2.124.938a8.585,8.585,0,0,1-2.457-.608c-.84-.387-1.118-1.325-1.9-1.7s-1.339-6.251-1.227-6.416-.112-.277-.392-.435-2.348,6.509-2.348,6.509a48.3,48.3,0,0,1-5.922.342,14.988,14.988,0,0,1-2.347-1.391,2.44,2.44,0,0,1-1.062-2.539,14.711,14.711,0,0,1,2.516-2.921c.277-.157,2.459-1.388,2.849-1.553s.894-2.651,1.118-3.313a44.584,44.584,0,0,1,3.017-4.252s.613-1.051.781-1.325-4.3-2.431-4.748-2.708-.95-2.209-.614-2.491,1.115.395,1.283.395a2.9,2.9,0,0,0,1.174-.661c.336-.331-1.4-1.217-1.9-1.659s.782-1.158.95-1.1a2.228,2.228,0,0,0,1.286-.387c.336-.275-.616-.827-.95-1.1s-2.235.168-2.235.168-.112,1.932-.168,2.262-1.005.664-1.454.83-1.451-1.822-1.675-2.651c-.139-.513-.47-.414-.846-.315a1.221,1.221,0,0,1-.718.04c-.616-.221-1.51-1.547-1.734-1.824s.782-1.27,1.286-1.875,3.017-1.326,3.687-1.382a15.113,15.113,0,0,1,3.185.9,6.506,6.506,0,0,0,1.4-.627c.336-.274,2.124.39,2.348.442a1.506,1.506,0,0,0,1.4,0c.557-.387-1.342-3.257-1.286-3.479s-.224-1.934-.168-2.43a1.7,1.7,0,0,1,.448-.741,7.729,7.729,0,0,1,1.115-1.024c.392-.277.336-1.713.224-2.374a5.052,5.052,0,0,1,1.062-3.095,22.6,22.6,0,0,1,2.873-2.118,3.665,3.665,0,0,0-1.561-.011c-.072.032-.152-.014-.243-.106,1.515-.593,2.982-.864,3.446.029,1.062,4.113,2.129,5.141,4.257,5.141s2.129-5.141,4.257-5.141,5.322,1.029,4.258-2.057,1.064-3.084,1.064-3.084a11.338,11.338,0,0,0,4.26,1.027c2.129,0,1.064-4.113,1.064-4.113l2.128-3.084s1.064,0,4.258-2.057,4.257,4.113,4.257,4.113,1.064,0,2.128,2.057a1.072,1.072,0,0,0,1.718.448c.384,1.955.584,4.527-.654,5.72a17.836,17.836,0,0,0-3.193,4.113l2.128,4.113s1.064-2.057,3.193,0a41.568,41.568,0,0,0,5.324,4.113,5.048,5.048,0,0,1,1.064,5.141c-1.064,3.083-3.193,3.083-3.193,4.113s-1.064,1.026,0,4.11a25.548,25.548,0,0,1,.995,6.234,4.861,4.861,0,0,0-.165-.782c-.043-.111-.1-.17-.168-.151a.063.063,0,0,0-.03.008c-.445.222-2.011,3.092-2.4,3.812s.557,1.876.95,2.649,3.294,3.812,3.353,4.2a13.274,13.274,0,0,1,0,2.542c-.112.442-1.566,1.214-2.27,1.379s-.189-1.1-.021-1.379-.669-1.1-.838-1.935-2.182-1.1-3.353-1.7-.448-2.6-.448-2.77-2.792-2.1-3.3-2.483-.558-3.534-.333-4.417-.95-1.16-2.062-1.6a1.274,1.274,0,0,0-1.683.773,14.677,14.677,0,0,0,.392,3.645c.277.442,4.191,2.929,4.247,3.26s.95,1.27.739,1.712-3.255.718-3.255.718a9.77,9.77,0,0,0-.056,1.545c.056.552,3.129,2.6,3.3,2.761s-1.174.718-2.457,1.16-2.684-3.147-2.908-3.422-.782,1.435-.95,1.709-.614,1-1.062,1.052-.95-.5-1.174-.608a6.04,6.04,0,0,0-1.283-.109,7.337,7.337,0,0,1,.726,1.875c0,.5.336,1.1-.5,1.326s-1.563-.718-1.563-.718a17.6,17.6,0,0,0-2.516.5c-.781.277-1.507,2.486-1.675,2.764s-1.619-.608-2.291-.886-.336-2.539-.392-3.092,4.358-2.483,4.193-2.707,1.619-5.188,1.953-5.906-1.171-1.326-1.843-.939-3.575,1.932-3.8,2.153a36.379,36.379,0,0,0-1.342,4.14c-.112.443-1.342,1.051-1.507,1.438a49.756,49.756,0,0,0,.558,5.521s-1.451.552-1.851.661a11.384,11.384,0,0,1-2.449,0,4.851,4.851,0,0,0-1.531.254,5.322,5.322,0,0,1-1.373.257A2.212,2.212,0,0,1-7234.109,10605.932Z" transform="translate(7369 -10543.054)"/><text class="n" transform="translate(0 18.056)"><tspan x="0" y="0">영산강·섬진강</tspan><tspan x="0" y="20.003">유역물관리위원회</tspan></text><g transform="translate(-728 -839.944)"><path class="o" d="M824.5,852.5h25.4l14.6,17.037" transform="translate(0 0)"/><g class="p"><path class="q" d="M824.5,852.5h25.4l14.6,17.037"/></g><g class="r" transform="translate(863 868)"><path class="t" d="M3.5,0A3.5,3.5,0,1,1,0,3.5,3.5,3.5,0,0,1,3.5,0Z"/><path class="u" d="M 3.5 2 C 2.672900199890137 2 2 2.672900199890137 2 3.5 C 2 4.327099800109863 2.672900199890137 5 3.5 5 C 4.327099800109863 5 5 4.327099800109863 5 3.5 C 5 2.672900199890137 4.327099800109863 2 3.5 2 M 3.5 0 C 5.433000087738037 0 7 1.566999912261963 7 3.5 C 7 5.433000087738037 5.433000087738037 7 3.5 7 C 1.566999912261963 7 0 5.433000087738037 0 3.5 C 0 1.566999912261963 1.566999912261963 0 3.5 0 Z"/></g><circle class="s" cx="3.5" cy="3.5" r="3.5" transform="translate(821 849)"/></g></g></g></svg>