<svg xmlns="http://www.w3.org/2000/svg" width="110.001" height="70" viewBox="0 0 110.001 70"><defs><style>.a{fill:#008e2b;}</style></defs><path class="a" d="M893.375,656.509a35.01,35.01,0,0,0,52.641-40.681Z" transform="translate(-838.029 -592.548)"/><path class="a" d="M854.4,584.712a35.019,35.019,0,0,0-32.986,46.726l52.633-40.693A34.84,34.84,0,0,0,854.4,584.712Z" transform="translate(-819.398 -584.712)"/><path class="a" d="M877.375,613.741l36.6-24.128a34.754,34.754,0,0,0-4.536-2.045l-32.068,25.18-46.164,30.932a35.2,35.2,0,0,0,3.171,3.142Z" transform="translate(-822.373 -585.431)"/><path class="a" d="M878.83,621.894l41.841-27.845a35.1,35.1,0,0,0-3.8-2.647L878.83,620.891l-41.84,27.857a34.4,34.4,0,0,0,3.8,2.647Z" transform="translate(-823.828 -586.397)"/><path class="a" d="M880.591,630.284l46.161-30.921a35.367,35.367,0,0,0-3.169-3.139l-42.992,33.057-36.609,24.147a34.917,34.917,0,0,0,4.538,2.047Z" transform="translate(-825.589 -587.611)"/><path class="a" d="M876.195,605.947l30.2-19.618a34.667,34.667,0,0,0-5.536-1.2l-24.666,19.818-49.67,33.45a35.228,35.228,0,0,0,2.577,3.583Z" transform="translate(-821.193 -584.816)"/><path class="a" d="M875.286,598.656,897.3,584.771q-1-.058-2.016-.059a35.033,35.033,0,0,0-6.3.569l-13.7,12.384L822.917,633.05a34.768,34.768,0,0,0,1.963,4.013Z" transform="translate(-820.284 -584.712)"/><path class="a" d="M882.745,638.9l49.67-33.433a35.272,35.272,0,0,0-2.577-3.587L882.745,637.9l-30.208,19.626a34.527,34.527,0,0,0,5.535,1.2Z" transform="translate(-827.744 -589.035)"/><path class="a" d="M885.5,647.693l52.366-35.373a34.21,34.21,0,0,0-1.963-4.013L885.5,646.69,863.463,660.6c.673.036,1.35.058,2.033.058a35.149,35.149,0,0,0,6.329-.571Z" transform="translate(-830.495 -590.654)"/></svg>