<svg xmlns="http://www.w3.org/2000/svg" width="76" height="82" viewBox="0 0 76 82"><defs><style>.a{fill:#ae1932;}.b{fill:#0079bc;}.c{fill:#0073c1;}.d{fill:#4a7b2c;}</style></defs><g transform="translate(-299.73 -69.657)"><path class="a" d="M327.1,75.784a1.886,1.886,0,0,1,.385.705c.232.713.89,1.143.972,1.872.027.241.344.339.508.446.178.227.052.487.4.823.164.107.038.364.066.607.164.107.333.213.494.32a6.475,6.475,0,0,1-.093,7.5,2.621,2.621,0,0,0-.647,1.044c-.139.137-.426.284-.565.421.027.246.191.35.366.579-.74.194-.825.812-1.39,1.238-.15.011-.453.044-.6.057a7.647,7.647,0,0,1-1.284.856c-.137.137-.1.5-.085.623a4.479,4.479,0,0,1-2.81.877c-.147.016-.259.394-.412.407-.756.071-1.677.036-2.436.107-.317-.093-.494-.323-.811-.418a2.4,2.4,0,0,1-.923-.033,8.358,8.358,0,0,0-1.592-.588c-.317-.1-.9.2-1.223-.008a13.033,13.033,0,0,1-2.592-2.706c-.371-.579-1-.763-1.221-1.358-.027-.243.087-.62-.235-.713-.634-.189-.366-.582-.407-.946a3,3,0,0,0-.56-.932c-.194-.35.055-.866-.148-1.337-.014-.123.123-.26.109-.38-.229-.716.145-1.484.076-2.094a3.532,3.532,0,0,1,.167-1.244,10.829,10.829,0,0,1,1.412-2.468c-.014-.118-.041-.361-.055-.484.139-.139.289-.15.429-.29a6.1,6.1,0,0,1,.888-1.678,27.956,27.956,0,0,1,2.081-1.913,6.519,6.519,0,0,0,1.379-1.361c.139-.134.62.066.759-.066.412-.41,1.032-.344,1.461-.631s.339.336.781.172a1.811,1.811,0,0,0,.729-.314c.44-.161.934.156,1.4.238a2.129,2.129,0,0,1,1.415.358c.661.429,2.174.284,2.42,1.126C326.073,74.778,326.731,75.207,327.1,75.784Z" transform="translate(18.209 4.814)"/><path class="b" d="M352,90.215a2.714,2.714,0,0,0-.15-1.011c-.041-.377.257-.8.128-1.32-.087-.139-.281-.3-.257-.421a6.014,6.014,0,0,0,.213-2.4,1.759,1.759,0,0,0-.238-.547c.022-.115.065-.35.109-.585a5.426,5.426,0,0,0-.429-1.93c-.066-.257-.259-.424-.3-.8-.087-.139-.279-.309-.259-.426.191-1.058-.322-1.905-.472-2.916-.238-1.151-1.327-1.881-1.674-3.056.019-.12.377-.068.483-.044a5.977,5.977,0,0,1,2.037,2.892c.153.4.087.752.259,1.036a5.783,5.783,0,0,1,.986,3.152c-.019.118.216.046.3.191a.807.807,0,0,0,.022.492c.557.61.216,1.268.325,1.905a1.741,1.741,0,0,0,.232.538c-.019.12-.3.429-.32.541a2.689,2.689,0,0,1,.519,2.072c.513.238.279.916.4,1.435a.4.4,0,0,0,.3.189,1.89,1.89,0,0,0,.341-.661,10.229,10.229,0,0,0-.068-2.7.979.979,0,0,1,.087-1.08c-.216-.049-.281-.309-.366-.451-.385-1.553-.546-3.291-1.005-4.879a.426.426,0,0,0,.15-.21c-.161-1.389-1.218-2.7-1.721-4.1-.079-.249-.486-.547-.677-.817l.027-.238a2.114,2.114,0,0,1,1.24,1,7.408,7.408,0,0,1,1.387,2.588,21.239,21.239,0,0,1,.923,2.422,4.727,4.727,0,0,0,.743,1.29A4.179,4.179,0,0,1,355.4,82.5c.153.9.429,1.766.6,2.662a3.11,3.11,0,0,1,.087,1.976c-.3,1.033.388,2.165.666,3.08a1.523,1.523,0,0,1-.21,1.178c-.022.115.169.282.148.4-.194.443-.041.847-.131,1.317-.126.093.153.4.005.61-.131.1-.235.071-.366.167-.172.328-.019.73-.087,1.082-.341.656-.169,1.553-.811,2.023-.238.068-.259.186-.385.282.107.025.191.164.276.306-.128.093-.238.068-.363.164-.041.235.412.525.5.664-.175.943-.879,1.763-.858,2.87-.044.238-.109.59-.148.825-.216.563-.623.965-.838,1.528-.041.232-.492.26-.535.495-.279.3-.254.8-.451,1.246-.147.213-.47.142-.726.328a5.43,5.43,0,0,0-.448,1.249c-.322.541-.713,1.121-1.035,1.662a6.826,6.826,0,0,1-1.639,2.113.778.778,0,0,0-.472.145,2.944,2.944,0,0,1-1.461,1.481c-.109-.022-.268.489-.4.585a13.521,13.521,0,0,1-1.4,1.151c-.227.071-.355.167-.609-.257a12.6,12.6,0,0,1-3.012,3.485c-.6.353-1.215.312-1.614.708a33.1,33.1,0,0,1-3.646,2.865c-.1-.027-.5.574-.5.574-.429.038-.183.077-.573-.014,0,0-.019.664-.554.771-1.131.227-1.428,1.539-1.516,2.083-.046.271-.232.085-.363.2s-.044.268-.172.38a7.121,7.121,0,0,0-1.325,1.372c-.126.109-.21-.055-.341.057a4.729,4.729,0,0,0-.945,1.512,11.9,11.9,0,0,1-1.786,2.979c-.175.2.4.965.358,1.225-.164.361-.489.421-.65.782-.15.9-.188,1.9-.344,2.854a5.1,5.1,0,0,0,.188,2.416,16.679,16.679,0,0,1,0,2.277c.052.547.421,1.145.363,1.676.019.812-.167.7.008,1.386a3.653,3.653,0,0,0-.063,1.069c-.033.538-.117.869-.148,1.4-.115.128-.347.383-.352.514a5.427,5.427,0,0,1-1.873,3.395c-.565.364-1.06.921-1.707.875a15.385,15.385,0,0,0-1.775.754,5.946,5.946,0,0,1-2.646.15A3.744,3.744,0,0,1,316.792,150c-.415-.465-1.133-.29-1.4-1-.082-.282-.666-.426-.767-.577a8.077,8.077,0,0,1-1.21-1.651c-.27-.711-.074-1.2-.4-1.886-.333-.426-.478-.724-.808-1.148-.442-.56.1-1.367-.224-1.922a1.556,1.556,0,0,1-.554-.705,12.646,12.646,0,0,0-.492-1.927,16.461,16.461,0,0,1,.068-3.9c.027-.137-.366-.328-.341-.467a21.732,21.732,0,0,0,.314-2.936c.107-.541.055-.976.546-1.44,0,0-.232-.189-.208-.325a12.652,12.652,0,0,0,.434-2.214c.027-.134.314-.219.341-.355a7.165,7.165,0,0,1-.063-2.359c.052-.273.756-.678.918-.924a1.622,1.622,0,0,1,.161-.954c.068-.115.251-.079.385-.189.025-.137-.065-.3-.041-.435.065-.407.754-.7.8-.973a7.225,7.225,0,0,1,1.224-2.064,4.02,4.02,0,0,1,.527-.987c.131-.093.194,0,.216-.12s-.038-.38-.022-.495c.273-.309.65-.588.713-.943a3.74,3.74,0,0,1,.628-1.085,4.6,4.6,0,0,0,1.319-1.29c.27-.309.584-.238.858-.544a8.751,8.751,0,0,0,.795-1.408,12.086,12.086,0,0,1,2.2-1.957,17.287,17.287,0,0,1,2.026-1.014c.628-.47,1.005-1.364,1.611-1.717.374-.282.817-.306,1.193-.59s.691-.823,1.256-.94a5.527,5.527,0,0,0,1.527-.448c.732-.446.429-.569,1.158-1.02a19.005,19.005,0,0,1,1.95-1.134.619.619,0,0,0,.292-.421,9.351,9.351,0,0,1,2.078-1.588c.229-.068.5.235.77-.068.15-.213-.145-.4,0-.612a12.979,12.979,0,0,1,1.166-1.222c.128-.1.432.093.664.019.128-.09.172-.328.3-.418.15-.213-.128-.519.022-.733.169-.331.341-.656.579-.724.363-.169.855-.426.792-.683a1.529,1.529,0,0,1,.77-1.178c.019-.115.046-.238.068-.353.273-.309.53-.492.808-.8.3-.426.169-.943.344-1.274a3.935,3.935,0,0,0,1.243-1.927c-.044-.377-.281-.918-.109-1.249.148-.21.62-.353.664-.588a7.449,7.449,0,0,0-.169-1.506c.06-.35.445-.634.4-1.011a27.15,27.15,0,0,0-.126-2.963c.339-.046.382-.284.426-.517a19.486,19.486,0,0,0-.707-2.236c-.022-.495.38-.894.36-1.389a2.135,2.135,0,0,0-.795-1.153c-.36-.448-.123-1.126-.254-1.643-.107-.637-.582-1.11-.666-1.859-.041-.377-.492-.355-.645-.754a6.592,6.592,0,0,1-.257-1.648c-.063-.257-.4-.21-.6-.374-.431-.708-.281-2.143-1.226-2.471.087-.47-.339-.566-.492-.962a1.445,1.445,0,0,1,1.393.916c.087.142.41.213.516.235.281.306.257,1.036.557,1.225.382.328.964.21,1.112.612.216.656.71,1.009.945,1.553a1.038,1.038,0,0,0,.128.517c.388.328.429.7.7,1.009.645.754,1.289,1.509.989,2.542-.188.448.388.331.563.61.429.708.254,1.648.811,2.258a8.3,8.3,0,0,0,.838,3.365c-.62.965-.273,2.657.218,3.619,0,0,.341-.044.369-.164.1-.588,1.174-.782,1-1.063a12.267,12.267,0,0,1-.538-2.649,12.4,12.4,0,0,0-.044-2.824c-.085-.142-.172-.284-.257-.424a3.693,3.693,0,0,1-.15-1.624c-.065-.257-.259-.421-.322-.681.022-.12.063-.353.087-.47.235-.071.535.118.748.164.2.164.019.492.107.634.344.566.858.8.964,1.435-.019.118-.063.353-.082.473.087.752.535,1.339.642,1.976.046.374-.276.913-.123,1.317a5.906,5.906,0,0,1,.429,3.152c-.09.47.511.845.339,1.175s.046.374-.126.708c-.022.118-.257.183-.279.3.32.683-.164,1.717-.273,2.3-.019.118.366.243.448-.189.046-.26.489-.257.724-.328A1.369,1.369,0,0,0,352,90.215Zm2.308,2.351c.022-.6.3-1.036.194-1.67-.213-.659-.7-.005-1.043.044a3.187,3.187,0,0,1-.363,2c-.148.213-.254.8.087.754A1.048,1.048,0,0,0,354.311,92.565Zm-.918,3.22a.624.624,0,0,0-.12-.73c-.3-.189-.686.1-.858.424s-.044.847.41.823C352.932,96.326,353.243,96,353.394,95.785Z" transform="translate(18.931 0)"/><path class="c" d="M325.325,73.342c.568.432.795,1.156,1.245,1.744l-.046.235c-.789.681-1.477-.451-1.693-1.107a5.2,5.2,0,0,0-1.223-1.859c.022-.115.046-.235.068-.353-.281-.309-.645-.752-.281-.918.148-.21.407.213.707.4C324.552,72.074,324.636,72.825,325.325,73.342Z" transform="translate(40.699 2.375)"/><path class="c" d="M326.3,71.61c.008.118-.18.32-.208.437a4.92,4.92,0,0,1-1.073-1.268.657.657,0,0,1-.4-.232c-.1-.027-.079-.145-.055-.26.344-.033.612.287.907.487.1.027.238-.06.341-.033A1.1,1.1,0,0,1,326.3,71.61Z" transform="translate(42.962 1.089)"/><path class="d" d="M320.9,79.144a2.885,2.885,0,0,1,.336.323.53.53,0,0,0,.538.046c.178.014.336.476.516.487.257.12.421.579.675.8.172.112.35.276.522.391a5.494,5.494,0,0,0,.656.842c.167.21.437.137.617.15.352.126.492.631.737.948.09.005.249.317.243.415a4.071,4.071,0,0,0,.6.44c.077.107.068.3.148.41a30.638,30.638,0,0,1,2.043,2.829,1.267,1.267,0,0,1,.068.3,19.685,19.685,0,0,1,1.535,2.3c.156.309.3.815.448,1.219.167.213.339.325.5.536a3.844,3.844,0,0,1,.527,1.427c-.016.2-.148.776-.483.454-.418-.429-.374-1.017-.8-1.35a.952.952,0,0,0-.191-.454c-.172-.2-.481-.194-.546-.492.022-.3-.311-.536-.481-.741-.426-.61-1.043-.836-1.554-1.451a.3.3,0,0,0-.276.085c-.1.191-.377.476-.12.782.35.213.513.615.953.834.262.208.328.8.489,1.3a1.678,1.678,0,0,0,.606.522c.259.208.156.522.4.839-.008.1-.1.186-.112.284.158.312.522.241.77.558.191-.18.456-.038.612.249-.292.273-.216.476-.328.768-.3.465.382.913.811,1.145.273.022.232.514.489.73.158.312.6.347.841.763.079.2-.109.287-.213.476-.022.3.328.421.5.533a1,1,0,0,1,.322.522c-.276.077-.806-.29-1.071-.314-.169-.077-.492-.465-.836-.541-.117-.025-.2.26-.328.232-.161-.027-.336-.063-.513-.1s-.642-.533-.838-.566c-.227-.038-.5.372-.716.336a3.261,3.261,0,0,1-1.092-.3,6.793,6.793,0,0,1-.849-.413c-.175-.093-.126-.325-.287-.429s-.516-.1-.68-.208c-.647-.4-1.256-1.29-1.808-1.58-.366-.189-.672-.372-1.073-.569-.2-.123-.341-.4-.59-.481-.756-.254-1.363-.735-2.229-.979-1.639-.465-3,.473-4.331,1.164a.519.519,0,0,0-.284.036,10.043,10.043,0,0,1-.969.607,11.884,11.884,0,0,1-1.447.681c-.148.085-.158.35-.3.437-.216.126-.6.153-.814.284-.194.126-.219.355-.41.495a5.939,5.939,0,0,1-1.273.806,21.33,21.33,0,0,1-3.16.574c-.634.008-1.071.533-2.013.53a6.544,6.544,0,0,1-4.067-.924c-.251-.221-.3-.817-.467-.927-.516-.339-.467-1.025-.612-1.533-.167-.109-.527-.139-.5-.435a7.4,7.4,0,0,1,1.805-3.8c.208-.377.669-.538.7-1.028a14.736,14.736,0,0,1,1.284-1.574c.1-.189-.055-.5.049-.689.735-1.421,2.062-2.4,3.146-3.693.289-.273.5-.653.948-.713.183.014.361.027.462-.159a2.108,2.108,0,0,1,.879-.918c1.038-.708,1.909-1.774,3.094-1.971.183-.085.289-.273.475-.358.194-.183.535.041.721-.041.882-.4,1.685-1.252,2.592-1.375.183-.082.289-.271.38-.268.8.071,1.751-.642,2.5.109A2.976,2.976,0,0,1,320.9,79.144Zm6.156,8.621c.005-.1.005-.2.011-.3-.352-.213-.505-.812-.95-.932-.087-.005-.273.087-.276.186a2.928,2.928,0,0,0,.478,1.5c.107-.385.371-.374.541-.071A.789.789,0,0,0,327.057,87.765Z" transform="translate(0 15.203)"/></g></svg>