<svg xmlns="http://www.w3.org/2000/svg" width="89" height="76" viewBox="0 0 89 76"><defs><style>.a{fill:#009db2;}.b{fill:#e57b37;}</style></defs><g transform="translate(-149.797 -122.981)"><path class="a" d="M198.442,122.981c.278,4.532-1.659,6.012-4.42,6.288-2.4,0-3.87.649-4.976,1.941l-13.268,22.838c7.371.37,14.465,3.05,20.546,11.836,3.408,4.9,9.4,9.059,20.637,11.187-8.29,1.847-14.187-1.664-23.954-4.717-7.831-2.4-19.809-3.42-28.008.37l-15.2,26.258c10.411-8.689,29.114-10.909,42.473-5.824,15.386,5.824,30.22,7.582,46.527-.834l-11.148-18.952a11.775,11.775,0,0,1-5.8,2.68l2.118-15.162c-6.818.74-12.715-.925-17.045-5.918-6.45-7.582-12.713-13.221-18.888-14.516,1.568-3.235,4.791-2.774,8.752-1.386,2.858.925,7.924-.185,9.03-3.607Z" transform="translate(0 0)"/><path class="b" d="M165.388,135.691a7.275,7.275,0,1,1,.081,14.549,7.253,7.253,0,0,1-7.248-7.19A7.329,7.329,0,0,1,165.388,135.691Z" transform="translate(12.841 19.489)"/></g></svg>