<svg xmlns="http://www.w3.org/2000/svg" xmlns:xlink="http://www.w3.org/1999/xlink" width="124" height="56" viewBox="0 0 124 56"><defs><style>.a{fill:#004080;}.b{fill:url(#a);}.c{fill:url(#b);}</style><linearGradient id="a" x1="-3.675" y1="24.941" x2="-0.603" y2="24.941" gradientUnits="objectBoundingBox"><stop offset="0.4" stop-color="#00afec"/><stop offset="1" stop-color="#2a85c9"/></linearGradient><linearGradient id="b" x1="-3.265" y1="23.782" x2="-0.193" y2="23.782" gradientUnits="objectBoundingBox"><stop offset="0" stop-color="#e74e00"/><stop offset="1" stop-color="#ffbf00"/></linearGradient></defs><g transform="translate(-35.623 -327.062)"><g transform="translate(35.623 359.364)"><path class="a" d="M35.623,357.359H40.5V367.5h.075l8.261-10.139h5.137l-9.2,10.513,10.162,12.811H48.983l-8.41-11.29H40.5v11.29H35.623Z" transform="translate(-35.623 -357.359)"/><path class="a" d="M81.39,364.248c-.041.182-2.66,11.822-2.66,11.822h0s-3.958-11.663-4.012-11.822H72.53c-.051.165-3.655,12.028-3.655,12.028h0s-2.973-11.851-3.018-12.028H61.942c.084.3,4.425,15.807,4.473,15.979H70.1l3.386-10.212h0s3.7,10.057,3.761,10.212h3.725l3.919-15.979Z" transform="translate(-33.854 -356.903)"/><path class="a" d="M95.832,377.75v2.5h4.3V369.4c0-2.858-.8-5.5-6.632-5.5-4.624,0-7.094,1.72-7.154,4.973h4.6l.009-.14c.064-1.126.2-3.471,2.5-3.471,1.663,0,2.37.983,2.37,3.288v2.84l-.113,0c-2.477.1-10.013.4-10.013,5.3,0,2.244,2.093,3.935,4.869,3.935A6.3,6.3,0,0,0,95.832,377.75Zm-3.493.762a2.135,2.135,0,0,1-2.186-2.4c0-1.9,1.868-3.031,5.55-3.355l.129-.01v1.321C95.832,376.274,94.632,378.512,92.339,378.512Z" transform="translate(-32.256 -356.926)"/><path class="a" d="M110.654,380.987c1.006,0,2-.094,3.052-.193h.018v-2.124a7.432,7.432,0,0,1-1.907.206c-1.826,0-2.445-.7-2.445-2.777v-9.727H114.4v-1.737h-5.027v-6.221l-4.3,2.356v3.865h-3.338v1.737h3.338v10.239C105.072,380.256,107.208,380.987,110.654,380.987Z" transform="translate(-31.179 -357.289)"/><path class="a" d="M123.661,380.624a12.937,12.937,0,0,0,5.657-1.089v-1.456a10.73,10.73,0,0,1-3.368.671c-5.25,0-6.947-5.565-6.947-8.262v-.118h10.653v-.494c0-3.855-2.53-5.979-7.121-5.979-5.2,0-7.833,2.561-7.833,7.615C114.7,379.736,120.969,380.624,123.661,380.624ZM119,368.767c.156-1.054.8-3.509,3.38-3.509,3.033,0,3.123,3.167,3.123,3.527v.119h-6.523Z" transform="translate(-30.307 -356.926)"/><path class="a" d="M142.41,367.918v-4c-3.141.242-4.689,2.25-5.956,4.41l-.157.253V364.27H132v15.979h4.3v-7.138C136.3,369.407,138.015,367.944,142.41,367.918Z" transform="translate(-29.144 -356.925)"/></g><g transform="translate(63.718 327.062)"><g transform="translate(0 10.877)"><path class="b" d="M61.948,358.526a80.78,80.78,0,0,1,85.195.167V348.05a89.6,89.6,0,0,0-42.222-10.778A92.041,92.041,0,0,0,61.948,358.29Z" transform="translate(-61.948 -337.263)"/><path class="a" d="M61.948,347.91v10.38a92.041,92.041,0,0,1,42.973-21.018c-.168,0-.337-.009-.508-.009A89.6,89.6,0,0,0,61.948,347.91Z" transform="translate(-61.948 -337.264)"/></g><path class="c" d="M122.507,327.062a100.758,100.758,0,0,0-60.559,20.016v1.507a89.6,89.6,0,0,1,42.465-10.646c.171,0,.34.009.508.009a92.386,92.386,0,0,1,52.932,5.354v-9.894A101.009,101.009,0,0,0,122.507,327.062Z" transform="translate(-61.948 -327.062)"/></g></g></svg>